G04 #@! TF.GenerationSoftware,KiCad,Pcbnew,(5.1.4)-1*
G04 #@! TF.CreationDate,2019-09-29T17:42:26+09:00*
G04 #@! TF.ProjectId,_autosave-project 02 micro usb,5f617574-6f73-4617-9665-2d70726f6a65,2*
G04 #@! TF.SameCoordinates,Original*
G04 #@! TF.FileFunction,Soldermask,Top*
G04 #@! TF.FilePolarity,Negative*
%FSLAX46Y46*%
G04 Gerber Fmt 4.6, Leading zero omitted, Abs format (unit mm)*
G04 Created by KiCad (PCBNEW (5.1.4)-1) date 2019-09-29 17:42:26*
%MOMM*%
%LPD*%
G04 APERTURE LIST*
%ADD10C,0.100000*%
G04 APERTURE END LIST*
D10*
G36*
X131176200Y-46376200D02*
G01*
X129023800Y-46376200D01*
X129023800Y-44723800D01*
X131176200Y-44723800D01*
X131176200Y-46376200D01*
X131176200Y-46376200D01*
G37*
G36*
X106381516Y-45176579D02*
G01*
X106437955Y-45182138D01*
X106522260Y-45207712D01*
X106546572Y-45215087D01*
X106646668Y-45268589D01*
X106734406Y-45340594D01*
X106806411Y-45428332D01*
X106859913Y-45528428D01*
X106859914Y-45528431D01*
X106892862Y-45637045D01*
X106903987Y-45750000D01*
X106892862Y-45862955D01*
X106859914Y-45971569D01*
X106859913Y-45971572D01*
X106806411Y-46071668D01*
X106734406Y-46159406D01*
X106646668Y-46231411D01*
X106546572Y-46284913D01*
X106546569Y-46284914D01*
X106437955Y-46317862D01*
X106381516Y-46323421D01*
X106353298Y-46326200D01*
X105746702Y-46326200D01*
X105718484Y-46323421D01*
X105662045Y-46317862D01*
X105553431Y-46284914D01*
X105553428Y-46284913D01*
X105453332Y-46231411D01*
X105365594Y-46159406D01*
X105293589Y-46071668D01*
X105240087Y-45971572D01*
X105240086Y-45971569D01*
X105207138Y-45862955D01*
X105196013Y-45750000D01*
X105207138Y-45637045D01*
X105240086Y-45528431D01*
X105240087Y-45528428D01*
X105293589Y-45428332D01*
X105365594Y-45340594D01*
X105453332Y-45268589D01*
X105553428Y-45215087D01*
X105577740Y-45207712D01*
X105662045Y-45182138D01*
X105718484Y-45176579D01*
X105746702Y-45173800D01*
X106353298Y-45173800D01*
X106381516Y-45176579D01*
X106381516Y-45176579D01*
G37*
G36*
X108858054Y-39056775D02*
G01*
X108961956Y-39088294D01*
X109057712Y-39139476D01*
X109141643Y-39208357D01*
X109210524Y-39292288D01*
X109261706Y-39388045D01*
X109293225Y-39491947D01*
X109301200Y-39572922D01*
X109301200Y-39927079D01*
X109293225Y-40008054D01*
X109261706Y-40111956D01*
X109210524Y-40207712D01*
X109141643Y-40291643D01*
X109057712Y-40360524D01*
X108961955Y-40411706D01*
X108904317Y-40429191D01*
X108881695Y-40438562D01*
X108861320Y-40452176D01*
X108843993Y-40469503D01*
X108830380Y-40489877D01*
X108821002Y-40512516D01*
X108816222Y-40536549D01*
X108816222Y-40561053D01*
X108821002Y-40585087D01*
X108830380Y-40607725D01*
X108843994Y-40628100D01*
X108861321Y-40645427D01*
X108881695Y-40659040D01*
X108904334Y-40668418D01*
X108940619Y-40673800D01*
X109501200Y-40673800D01*
X109501200Y-43826200D01*
X108940620Y-43826200D01*
X108916234Y-43828602D01*
X108892785Y-43835715D01*
X108871174Y-43847266D01*
X108852232Y-43862811D01*
X108836687Y-43881753D01*
X108825136Y-43903364D01*
X108818023Y-43926813D01*
X108815621Y-43951199D01*
X108818023Y-43975585D01*
X108825136Y-43999034D01*
X108836687Y-44020645D01*
X108852232Y-44039587D01*
X108871174Y-44055132D01*
X108904323Y-44070811D01*
X108961956Y-44088294D01*
X109057712Y-44139476D01*
X109141643Y-44208357D01*
X109210524Y-44292288D01*
X109261706Y-44388045D01*
X109293225Y-44491947D01*
X109301200Y-44572922D01*
X109301200Y-44927079D01*
X109293225Y-45008054D01*
X109261706Y-45111956D01*
X109210524Y-45207712D01*
X109141643Y-45291643D01*
X109057712Y-45360524D01*
X108961955Y-45411706D01*
X108858053Y-45443225D01*
X108750000Y-45453867D01*
X108641946Y-45443225D01*
X108538044Y-45411706D01*
X108442288Y-45360524D01*
X108358357Y-45291643D01*
X108289476Y-45207712D01*
X108238294Y-45111955D01*
X108206775Y-45008053D01*
X108198800Y-44927078D01*
X108198800Y-44572921D01*
X108206775Y-44491946D01*
X108238295Y-44388044D01*
X108238296Y-44388041D01*
X108289476Y-44292290D01*
X108289477Y-44292288D01*
X108358358Y-44208357D01*
X108442289Y-44139476D01*
X108538045Y-44088294D01*
X108595683Y-44070809D01*
X108618305Y-44061438D01*
X108638680Y-44047824D01*
X108656007Y-44030497D01*
X108669620Y-44010123D01*
X108678998Y-43987484D01*
X108683778Y-43963451D01*
X108683778Y-43938947D01*
X108678998Y-43914913D01*
X108669620Y-43892275D01*
X108656006Y-43871900D01*
X108638679Y-43854573D01*
X108618305Y-43840960D01*
X108595666Y-43831582D01*
X108559381Y-43826200D01*
X107998800Y-43826200D01*
X107998800Y-40673800D01*
X108559380Y-40673800D01*
X108583766Y-40671398D01*
X108607215Y-40664285D01*
X108628826Y-40652734D01*
X108647768Y-40637189D01*
X108663313Y-40618247D01*
X108674864Y-40596636D01*
X108681977Y-40573187D01*
X108684379Y-40548801D01*
X108681977Y-40524415D01*
X108674864Y-40500966D01*
X108663313Y-40479355D01*
X108647768Y-40460413D01*
X108628826Y-40444868D01*
X108595677Y-40429189D01*
X108538044Y-40411706D01*
X108442288Y-40360524D01*
X108358357Y-40291643D01*
X108289476Y-40207712D01*
X108238294Y-40111955D01*
X108206775Y-40008053D01*
X108198800Y-39927078D01*
X108198800Y-39572921D01*
X108206775Y-39491946D01*
X108238295Y-39388044D01*
X108238296Y-39388041D01*
X108289476Y-39292290D01*
X108289477Y-39292288D01*
X108358358Y-39208357D01*
X108442289Y-39139476D01*
X108538045Y-39088294D01*
X108641947Y-39056775D01*
X108750000Y-39046133D01*
X108858054Y-39056775D01*
X108858054Y-39056775D01*
G37*
G36*
X137476200Y-45226200D02*
G01*
X135323800Y-45226200D01*
X135323800Y-41273800D01*
X137476200Y-41273800D01*
X137476200Y-45226200D01*
X137476200Y-45226200D01*
G37*
G36*
X131176200Y-44076200D02*
G01*
X129023800Y-44076200D01*
X129023800Y-42423800D01*
X131176200Y-42423800D01*
X131176200Y-44076200D01*
X131176200Y-44076200D01*
G37*
G36*
X128105056Y-42403476D02*
G01*
X128144805Y-42415534D01*
X128181431Y-42435111D01*
X128213539Y-42461461D01*
X128239889Y-42493569D01*
X128259466Y-42530195D01*
X128271524Y-42569944D01*
X128276200Y-42617419D01*
X128276200Y-43482581D01*
X128271524Y-43530056D01*
X128259466Y-43569805D01*
X128239889Y-43606431D01*
X128213539Y-43638539D01*
X128181431Y-43664889D01*
X128144805Y-43684466D01*
X128105056Y-43696524D01*
X128057581Y-43701200D01*
X126942419Y-43701200D01*
X126894944Y-43696524D01*
X126855195Y-43684466D01*
X126818569Y-43664889D01*
X126786461Y-43638539D01*
X126760111Y-43606431D01*
X126740534Y-43569805D01*
X126728476Y-43530056D01*
X126723800Y-43482581D01*
X126723800Y-42617419D01*
X126728476Y-42569944D01*
X126740534Y-42530195D01*
X126760111Y-42493569D01*
X126786461Y-42461461D01*
X126818569Y-42435111D01*
X126855195Y-42415534D01*
X126894944Y-42403476D01*
X126942419Y-42398800D01*
X128057581Y-42398800D01*
X128105056Y-42403476D01*
X128105056Y-42403476D01*
G37*
G36*
X125605056Y-42353476D02*
G01*
X125644805Y-42365534D01*
X125681431Y-42385111D01*
X125713539Y-42411461D01*
X125739889Y-42443569D01*
X125759466Y-42480195D01*
X125771524Y-42519944D01*
X125776200Y-42567419D01*
X125776200Y-43432581D01*
X125771524Y-43480056D01*
X125759466Y-43519805D01*
X125739889Y-43556431D01*
X125713539Y-43588539D01*
X125681431Y-43614889D01*
X125644805Y-43634466D01*
X125605056Y-43646524D01*
X125557581Y-43651200D01*
X124442419Y-43651200D01*
X124394944Y-43646524D01*
X124355195Y-43634466D01*
X124318569Y-43614889D01*
X124286461Y-43588539D01*
X124260111Y-43556431D01*
X124240534Y-43519805D01*
X124228476Y-43480056D01*
X124223800Y-43432581D01*
X124223800Y-42567419D01*
X124228476Y-42519944D01*
X124240534Y-42480195D01*
X124260111Y-42443569D01*
X124286461Y-42411461D01*
X124318569Y-42385111D01*
X124355195Y-42365534D01*
X124394944Y-42353476D01*
X124442419Y-42348800D01*
X125557581Y-42348800D01*
X125605056Y-42353476D01*
X125605056Y-42353476D01*
G37*
G36*
X144176200Y-42676200D02*
G01*
X142323800Y-42676200D01*
X142323800Y-40823800D01*
X144176200Y-40823800D01*
X144176200Y-42676200D01*
X144176200Y-42676200D01*
G37*
G36*
X119926200Y-42676200D02*
G01*
X118073800Y-42676200D01*
X118073800Y-40823800D01*
X119926200Y-40823800D01*
X119926200Y-42676200D01*
X119926200Y-42676200D01*
G37*
G36*
X131176200Y-41776200D02*
G01*
X129023800Y-41776200D01*
X129023800Y-40123800D01*
X131176200Y-40123800D01*
X131176200Y-41776200D01*
X131176200Y-41776200D01*
G37*
G36*
X128105056Y-40353476D02*
G01*
X128144805Y-40365534D01*
X128181431Y-40385111D01*
X128213539Y-40411461D01*
X128239889Y-40443569D01*
X128259466Y-40480195D01*
X128271524Y-40519944D01*
X128276200Y-40567419D01*
X128276200Y-41432581D01*
X128271524Y-41480056D01*
X128259466Y-41519805D01*
X128239889Y-41556431D01*
X128213539Y-41588539D01*
X128181431Y-41614889D01*
X128144805Y-41634466D01*
X128105056Y-41646524D01*
X128057581Y-41651200D01*
X126942419Y-41651200D01*
X126894944Y-41646524D01*
X126855195Y-41634466D01*
X126818569Y-41614889D01*
X126786461Y-41588539D01*
X126760111Y-41556431D01*
X126740534Y-41519805D01*
X126728476Y-41480056D01*
X126723800Y-41432581D01*
X126723800Y-40567419D01*
X126728476Y-40519944D01*
X126740534Y-40480195D01*
X126760111Y-40443569D01*
X126786461Y-40411461D01*
X126818569Y-40385111D01*
X126855195Y-40365534D01*
X126894944Y-40353476D01*
X126942419Y-40348800D01*
X128057581Y-40348800D01*
X128105056Y-40353476D01*
X128105056Y-40353476D01*
G37*
G36*
X125605056Y-40303476D02*
G01*
X125644805Y-40315534D01*
X125681431Y-40335111D01*
X125713539Y-40361461D01*
X125739889Y-40393569D01*
X125759466Y-40430195D01*
X125771524Y-40469944D01*
X125776200Y-40517419D01*
X125776200Y-41382581D01*
X125771524Y-41430056D01*
X125759466Y-41469805D01*
X125739889Y-41506431D01*
X125713539Y-41538539D01*
X125681431Y-41564889D01*
X125644805Y-41584466D01*
X125605056Y-41596524D01*
X125557581Y-41601200D01*
X124442419Y-41601200D01*
X124394944Y-41596524D01*
X124355195Y-41584466D01*
X124318569Y-41564889D01*
X124286461Y-41538539D01*
X124260111Y-41506431D01*
X124240534Y-41469805D01*
X124228476Y-41430056D01*
X124223800Y-41382581D01*
X124223800Y-40517419D01*
X124228476Y-40469944D01*
X124240534Y-40430195D01*
X124260111Y-40393569D01*
X124286461Y-40361461D01*
X124318569Y-40335111D01*
X124355195Y-40315534D01*
X124394944Y-40303476D01*
X124442419Y-40298800D01*
X125557581Y-40298800D01*
X125605056Y-40303476D01*
X125605056Y-40303476D01*
G37*
G36*
X143431565Y-38297201D02*
G01*
X143606159Y-38350164D01*
X143767058Y-38436166D01*
X143908091Y-38551909D01*
X144023834Y-38692942D01*
X144109836Y-38853841D01*
X144162799Y-39028435D01*
X144180681Y-39210000D01*
X144162799Y-39391565D01*
X144109836Y-39566159D01*
X144023834Y-39727058D01*
X143908091Y-39868091D01*
X143767058Y-39983834D01*
X143606159Y-40069836D01*
X143431565Y-40122799D01*
X143295500Y-40136200D01*
X143204500Y-40136200D01*
X143068435Y-40122799D01*
X142893841Y-40069836D01*
X142732942Y-39983834D01*
X142591909Y-39868091D01*
X142476166Y-39727058D01*
X142390164Y-39566159D01*
X142337201Y-39391565D01*
X142319319Y-39210000D01*
X142337201Y-39028435D01*
X142390164Y-38853841D01*
X142476166Y-38692942D01*
X142591909Y-38551909D01*
X142732942Y-38436166D01*
X142893841Y-38350164D01*
X143068435Y-38297201D01*
X143204500Y-38283800D01*
X143295500Y-38283800D01*
X143431565Y-38297201D01*
X143431565Y-38297201D01*
G37*
G36*
X119181565Y-38297201D02*
G01*
X119356159Y-38350164D01*
X119517058Y-38436166D01*
X119658091Y-38551909D01*
X119773834Y-38692942D01*
X119859836Y-38853841D01*
X119912799Y-39028435D01*
X119930681Y-39210000D01*
X119912799Y-39391565D01*
X119859836Y-39566159D01*
X119773834Y-39727058D01*
X119658091Y-39868091D01*
X119517058Y-39983834D01*
X119356159Y-40069836D01*
X119181565Y-40122799D01*
X119045500Y-40136200D01*
X118954500Y-40136200D01*
X118818435Y-40122799D01*
X118643841Y-40069836D01*
X118482942Y-39983834D01*
X118341909Y-39868091D01*
X118226166Y-39727058D01*
X118140164Y-39566159D01*
X118087201Y-39391565D01*
X118069319Y-39210000D01*
X118087201Y-39028435D01*
X118140164Y-38853841D01*
X118226166Y-38692942D01*
X118341909Y-38551909D01*
X118482942Y-38436166D01*
X118643841Y-38350164D01*
X118818435Y-38297201D01*
X118954500Y-38283800D01*
X119045500Y-38283800D01*
X119181565Y-38297201D01*
X119181565Y-38297201D01*
G37*
G36*
X106381516Y-38176579D02*
G01*
X106437955Y-38182138D01*
X106546569Y-38215086D01*
X106546572Y-38215087D01*
X106646668Y-38268589D01*
X106734406Y-38340594D01*
X106806411Y-38428332D01*
X106859913Y-38528428D01*
X106859914Y-38528431D01*
X106892862Y-38637045D01*
X106903987Y-38750000D01*
X106892862Y-38862955D01*
X106859914Y-38971569D01*
X106859913Y-38971572D01*
X106806411Y-39071668D01*
X106734406Y-39159406D01*
X106646668Y-39231411D01*
X106546572Y-39284913D01*
X106546569Y-39284914D01*
X106437955Y-39317862D01*
X106381516Y-39323421D01*
X106353298Y-39326200D01*
X105746702Y-39326200D01*
X105718484Y-39323421D01*
X105662045Y-39317862D01*
X105553431Y-39284914D01*
X105553428Y-39284913D01*
X105453332Y-39231411D01*
X105365594Y-39159406D01*
X105293589Y-39071668D01*
X105240087Y-38971572D01*
X105240086Y-38971569D01*
X105207138Y-38862955D01*
X105196013Y-38750000D01*
X105207138Y-38637045D01*
X105240086Y-38528431D01*
X105240087Y-38528428D01*
X105293589Y-38428332D01*
X105365594Y-38340594D01*
X105453332Y-38268589D01*
X105553428Y-38215087D01*
X105553431Y-38215086D01*
X105662045Y-38182138D01*
X105718484Y-38176579D01*
X105746702Y-38173800D01*
X106353298Y-38173800D01*
X106381516Y-38176579D01*
X106381516Y-38176579D01*
G37*
G36*
X129855056Y-37628476D02*
G01*
X129894805Y-37640534D01*
X129931431Y-37660111D01*
X129963539Y-37686461D01*
X129989889Y-37718569D01*
X130009466Y-37755195D01*
X130021524Y-37794944D01*
X130026200Y-37842419D01*
X130026200Y-38707581D01*
X130021524Y-38755056D01*
X130009466Y-38794805D01*
X129989889Y-38831431D01*
X129963539Y-38863539D01*
X129931431Y-38889889D01*
X129894805Y-38909466D01*
X129855056Y-38921524D01*
X129807581Y-38926200D01*
X128692419Y-38926200D01*
X128644944Y-38921524D01*
X128605195Y-38909466D01*
X128568569Y-38889889D01*
X128536461Y-38863539D01*
X128510111Y-38831431D01*
X128490534Y-38794805D01*
X128478476Y-38755056D01*
X128473800Y-38707581D01*
X128473800Y-37842419D01*
X128478476Y-37794944D01*
X128490534Y-37755195D01*
X128510111Y-37718569D01*
X128536461Y-37686461D01*
X128568569Y-37660111D01*
X128605195Y-37640534D01*
X128644944Y-37628476D01*
X128692419Y-37623800D01*
X129807581Y-37623800D01*
X129855056Y-37628476D01*
X129855056Y-37628476D01*
G37*
G36*
X135226200Y-38226200D02*
G01*
X133273800Y-38226200D01*
X133273800Y-36273800D01*
X135226200Y-36273800D01*
X135226200Y-38226200D01*
X135226200Y-38226200D01*
G37*
G36*
X131931880Y-36298810D02*
G01*
X131994747Y-36311315D01*
X132172404Y-36384903D01*
X132332291Y-36491736D01*
X132468264Y-36627709D01*
X132575097Y-36787596D01*
X132575098Y-36787598D01*
X132585843Y-36813539D01*
X132604867Y-36859466D01*
X132648685Y-36965254D01*
X132686200Y-37153851D01*
X132686200Y-37346149D01*
X132675415Y-37400369D01*
X132648685Y-37534747D01*
X132602871Y-37645352D01*
X132577449Y-37706727D01*
X132575097Y-37712404D01*
X132468264Y-37872291D01*
X132332291Y-38008264D01*
X132172404Y-38115097D01*
X131994747Y-38188685D01*
X131931880Y-38201190D01*
X131806149Y-38226200D01*
X131613851Y-38226200D01*
X131488120Y-38201190D01*
X131425253Y-38188685D01*
X131247596Y-38115097D01*
X131087709Y-38008264D01*
X130951736Y-37872291D01*
X130844903Y-37712404D01*
X130842552Y-37706727D01*
X130817129Y-37645352D01*
X130771315Y-37534747D01*
X130744585Y-37400369D01*
X130733800Y-37346149D01*
X130733800Y-37153851D01*
X130771315Y-36965254D01*
X130815134Y-36859466D01*
X130834157Y-36813539D01*
X130844902Y-36787598D01*
X130844903Y-36787596D01*
X130951736Y-36627709D01*
X131087709Y-36491736D01*
X131247596Y-36384903D01*
X131425253Y-36311315D01*
X131488120Y-36298810D01*
X131613851Y-36273800D01*
X131806149Y-36273800D01*
X131931880Y-36298810D01*
X131931880Y-36298810D01*
G37*
G36*
X119181565Y-35757201D02*
G01*
X119356159Y-35810164D01*
X119517058Y-35896166D01*
X119658091Y-36011909D01*
X119773834Y-36152942D01*
X119859836Y-36313841D01*
X119912799Y-36488435D01*
X119930681Y-36670000D01*
X119912799Y-36851565D01*
X119859836Y-37026159D01*
X119773834Y-37187058D01*
X119658091Y-37328091D01*
X119517058Y-37443834D01*
X119356159Y-37529836D01*
X119181565Y-37582799D01*
X119045500Y-37596200D01*
X118954500Y-37596200D01*
X118818435Y-37582799D01*
X118643841Y-37529836D01*
X118482942Y-37443834D01*
X118341909Y-37328091D01*
X118226166Y-37187058D01*
X118140164Y-37026159D01*
X118087201Y-36851565D01*
X118069319Y-36670000D01*
X118087201Y-36488435D01*
X118140164Y-36313841D01*
X118226166Y-36152942D01*
X118341909Y-36011909D01*
X118482942Y-35896166D01*
X118643841Y-35810164D01*
X118818435Y-35757201D01*
X118954500Y-35743800D01*
X119045500Y-35743800D01*
X119181565Y-35757201D01*
X119181565Y-35757201D01*
G37*
G36*
X143431565Y-35757201D02*
G01*
X143606159Y-35810164D01*
X143767058Y-35896166D01*
X143908091Y-36011909D01*
X144023834Y-36152942D01*
X144109836Y-36313841D01*
X144162799Y-36488435D01*
X144180681Y-36670000D01*
X144162799Y-36851565D01*
X144109836Y-37026159D01*
X144023834Y-37187058D01*
X143908091Y-37328091D01*
X143767058Y-37443834D01*
X143606159Y-37529836D01*
X143431565Y-37582799D01*
X143295500Y-37596200D01*
X143204500Y-37596200D01*
X143068435Y-37582799D01*
X142893841Y-37529836D01*
X142732942Y-37443834D01*
X142591909Y-37328091D01*
X142476166Y-37187058D01*
X142390164Y-37026159D01*
X142337201Y-36851565D01*
X142319319Y-36670000D01*
X142337201Y-36488435D01*
X142390164Y-36313841D01*
X142476166Y-36152942D01*
X142591909Y-36011909D01*
X142732942Y-35896166D01*
X142893841Y-35810164D01*
X143068435Y-35757201D01*
X143204500Y-35743800D01*
X143295500Y-35743800D01*
X143431565Y-35757201D01*
X143431565Y-35757201D01*
G37*
G36*
X109230056Y-35978476D02*
G01*
X109269805Y-35990534D01*
X109306431Y-36010111D01*
X109338539Y-36036461D01*
X109364889Y-36068569D01*
X109384466Y-36105195D01*
X109396524Y-36144944D01*
X109401200Y-36192419D01*
X109401200Y-37307581D01*
X109396524Y-37355056D01*
X109384466Y-37394805D01*
X109364889Y-37431431D01*
X109338539Y-37463539D01*
X109306431Y-37489889D01*
X109269805Y-37509466D01*
X109230056Y-37521524D01*
X109182581Y-37526200D01*
X108317419Y-37526200D01*
X108269944Y-37521524D01*
X108230195Y-37509466D01*
X108193569Y-37489889D01*
X108161461Y-37463539D01*
X108135111Y-37431431D01*
X108115534Y-37394805D01*
X108103476Y-37355056D01*
X108098800Y-37307581D01*
X108098800Y-36192419D01*
X108103476Y-36144944D01*
X108115534Y-36105195D01*
X108135111Y-36068569D01*
X108161461Y-36036461D01*
X108193569Y-36010111D01*
X108230195Y-35990534D01*
X108269944Y-35978476D01*
X108317419Y-35973800D01*
X109182581Y-35973800D01*
X109230056Y-35978476D01*
X109230056Y-35978476D01*
G37*
G36*
X107180056Y-35978476D02*
G01*
X107219805Y-35990534D01*
X107256431Y-36010111D01*
X107288539Y-36036461D01*
X107314889Y-36068569D01*
X107334466Y-36105195D01*
X107346524Y-36144944D01*
X107351200Y-36192419D01*
X107351200Y-37307581D01*
X107346524Y-37355056D01*
X107334466Y-37394805D01*
X107314889Y-37431431D01*
X107288539Y-37463539D01*
X107256431Y-37489889D01*
X107219805Y-37509466D01*
X107180056Y-37521524D01*
X107132581Y-37526200D01*
X106267419Y-37526200D01*
X106219944Y-37521524D01*
X106180195Y-37509466D01*
X106143569Y-37489889D01*
X106111461Y-37463539D01*
X106085111Y-37431431D01*
X106065534Y-37394805D01*
X106053476Y-37355056D01*
X106048800Y-37307581D01*
X106048800Y-36192419D01*
X106053476Y-36144944D01*
X106065534Y-36105195D01*
X106085111Y-36068569D01*
X106111461Y-36036461D01*
X106143569Y-36010111D01*
X106180195Y-35990534D01*
X106219944Y-35978476D01*
X106267419Y-35973800D01*
X107132581Y-35973800D01*
X107180056Y-35978476D01*
X107180056Y-35978476D01*
G37*
G36*
X151705056Y-35978476D02*
G01*
X151744805Y-35990534D01*
X151781431Y-36010111D01*
X151813539Y-36036461D01*
X151839889Y-36068569D01*
X151859466Y-36105195D01*
X151871524Y-36144944D01*
X151876200Y-36192419D01*
X151876200Y-37307581D01*
X151871524Y-37355056D01*
X151859466Y-37394805D01*
X151839889Y-37431431D01*
X151813539Y-37463539D01*
X151781431Y-37489889D01*
X151744805Y-37509466D01*
X151705056Y-37521524D01*
X151657581Y-37526200D01*
X150792419Y-37526200D01*
X150744944Y-37521524D01*
X150705195Y-37509466D01*
X150668569Y-37489889D01*
X150636461Y-37463539D01*
X150610111Y-37431431D01*
X150590534Y-37394805D01*
X150578476Y-37355056D01*
X150573800Y-37307581D01*
X150573800Y-36192419D01*
X150578476Y-36144944D01*
X150590534Y-36105195D01*
X150610111Y-36068569D01*
X150636461Y-36036461D01*
X150668569Y-36010111D01*
X150705195Y-35990534D01*
X150744944Y-35978476D01*
X150792419Y-35973800D01*
X151657581Y-35973800D01*
X151705056Y-35978476D01*
X151705056Y-35978476D01*
G37*
G36*
X153755056Y-35978476D02*
G01*
X153794805Y-35990534D01*
X153831431Y-36010111D01*
X153863539Y-36036461D01*
X153889889Y-36068569D01*
X153909466Y-36105195D01*
X153921524Y-36144944D01*
X153926200Y-36192419D01*
X153926200Y-37307581D01*
X153921524Y-37355056D01*
X153909466Y-37394805D01*
X153889889Y-37431431D01*
X153863539Y-37463539D01*
X153831431Y-37489889D01*
X153794805Y-37509466D01*
X153755056Y-37521524D01*
X153707581Y-37526200D01*
X152842419Y-37526200D01*
X152794944Y-37521524D01*
X152755195Y-37509466D01*
X152718569Y-37489889D01*
X152686461Y-37463539D01*
X152660111Y-37431431D01*
X152640534Y-37394805D01*
X152628476Y-37355056D01*
X152623800Y-37307581D01*
X152623800Y-36192419D01*
X152628476Y-36144944D01*
X152640534Y-36105195D01*
X152660111Y-36068569D01*
X152686461Y-36036461D01*
X152718569Y-36010111D01*
X152755195Y-35990534D01*
X152794944Y-35978476D01*
X152842419Y-35973800D01*
X153707581Y-35973800D01*
X153755056Y-35978476D01*
X153755056Y-35978476D01*
G37*
G36*
X129855056Y-35578476D02*
G01*
X129894805Y-35590534D01*
X129931431Y-35610111D01*
X129963539Y-35636461D01*
X129989889Y-35668569D01*
X130009466Y-35705195D01*
X130021524Y-35744944D01*
X130026200Y-35792419D01*
X130026200Y-36657581D01*
X130021524Y-36705056D01*
X130009466Y-36744805D01*
X129989889Y-36781431D01*
X129963539Y-36813539D01*
X129931431Y-36839889D01*
X129894805Y-36859466D01*
X129855056Y-36871524D01*
X129807581Y-36876200D01*
X128692419Y-36876200D01*
X128644944Y-36871524D01*
X128605195Y-36859466D01*
X128568569Y-36839889D01*
X128536461Y-36813539D01*
X128510111Y-36781431D01*
X128490534Y-36744805D01*
X128478476Y-36705056D01*
X128473800Y-36657581D01*
X128473800Y-35792419D01*
X128478476Y-35744944D01*
X128490534Y-35705195D01*
X128510111Y-35668569D01*
X128536461Y-35636461D01*
X128568569Y-35610111D01*
X128605195Y-35590534D01*
X128644944Y-35578476D01*
X128692419Y-35573800D01*
X129807581Y-35573800D01*
X129855056Y-35578476D01*
X129855056Y-35578476D01*
G37*
G36*
X153721565Y-33127201D02*
G01*
X153896159Y-33180164D01*
X154057058Y-33266166D01*
X154198091Y-33381909D01*
X154313834Y-33522942D01*
X154399836Y-33683841D01*
X154452799Y-33858435D01*
X154470681Y-34040000D01*
X154452799Y-34221565D01*
X154399836Y-34396159D01*
X154313834Y-34557058D01*
X154198091Y-34698091D01*
X154057058Y-34813834D01*
X153896159Y-34899836D01*
X153721565Y-34952799D01*
X153585500Y-34966200D01*
X153494500Y-34966200D01*
X153358435Y-34952799D01*
X153183841Y-34899836D01*
X153022942Y-34813834D01*
X152881909Y-34698091D01*
X152766166Y-34557058D01*
X152680164Y-34396159D01*
X152627201Y-34221565D01*
X152609319Y-34040000D01*
X152627201Y-33858435D01*
X152680164Y-33683841D01*
X152766166Y-33522942D01*
X152881909Y-33381909D01*
X153022942Y-33266166D01*
X153183841Y-33180164D01*
X153358435Y-33127201D01*
X153494500Y-33113800D01*
X153585500Y-33113800D01*
X153721565Y-33127201D01*
X153721565Y-33127201D01*
G37*
G36*
X109181565Y-33127201D02*
G01*
X109356159Y-33180164D01*
X109517058Y-33266166D01*
X109658091Y-33381909D01*
X109773834Y-33522942D01*
X109859836Y-33683841D01*
X109912799Y-33858435D01*
X109930681Y-34040000D01*
X109912799Y-34221565D01*
X109859836Y-34396159D01*
X109773834Y-34557058D01*
X109658091Y-34698091D01*
X109517058Y-34813834D01*
X109356159Y-34899836D01*
X109181565Y-34952799D01*
X109045500Y-34966200D01*
X108954500Y-34966200D01*
X108818435Y-34952799D01*
X108643841Y-34899836D01*
X108482942Y-34813834D01*
X108341909Y-34698091D01*
X108226166Y-34557058D01*
X108140164Y-34396159D01*
X108087201Y-34221565D01*
X108069319Y-34040000D01*
X108087201Y-33858435D01*
X108140164Y-33683841D01*
X108226166Y-33522942D01*
X108341909Y-33381909D01*
X108482942Y-33266166D01*
X108643841Y-33180164D01*
X108818435Y-33127201D01*
X108954500Y-33113800D01*
X109045500Y-33113800D01*
X109181565Y-33127201D01*
X109181565Y-33127201D01*
G37*
G36*
X106641565Y-33127201D02*
G01*
X106816159Y-33180164D01*
X106977058Y-33266166D01*
X107118091Y-33381909D01*
X107233834Y-33522942D01*
X107319836Y-33683841D01*
X107372799Y-33858435D01*
X107390681Y-34040000D01*
X107372799Y-34221565D01*
X107319836Y-34396159D01*
X107233834Y-34557058D01*
X107118091Y-34698091D01*
X106977058Y-34813834D01*
X106816159Y-34899836D01*
X106641565Y-34952799D01*
X106505500Y-34966200D01*
X106414500Y-34966200D01*
X106278435Y-34952799D01*
X106103841Y-34899836D01*
X105942942Y-34813834D01*
X105801909Y-34698091D01*
X105686166Y-34557058D01*
X105600164Y-34396159D01*
X105547201Y-34221565D01*
X105529319Y-34040000D01*
X105547201Y-33858435D01*
X105600164Y-33683841D01*
X105686166Y-33522942D01*
X105801909Y-33381909D01*
X105942942Y-33266166D01*
X106103841Y-33180164D01*
X106278435Y-33127201D01*
X106414500Y-33113800D01*
X106505500Y-33113800D01*
X106641565Y-33127201D01*
X106641565Y-33127201D01*
G37*
G36*
X151181565Y-33127201D02*
G01*
X151356159Y-33180164D01*
X151517058Y-33266166D01*
X151658091Y-33381909D01*
X151773834Y-33522942D01*
X151859836Y-33683841D01*
X151912799Y-33858435D01*
X151930681Y-34040000D01*
X151912799Y-34221565D01*
X151859836Y-34396159D01*
X151773834Y-34557058D01*
X151658091Y-34698091D01*
X151517058Y-34813834D01*
X151356159Y-34899836D01*
X151181565Y-34952799D01*
X151045500Y-34966200D01*
X150954500Y-34966200D01*
X150818435Y-34952799D01*
X150643841Y-34899836D01*
X150482942Y-34813834D01*
X150341909Y-34698091D01*
X150226166Y-34557058D01*
X150140164Y-34396159D01*
X150087201Y-34221565D01*
X150069319Y-34040000D01*
X150087201Y-33858435D01*
X150140164Y-33683841D01*
X150226166Y-33522942D01*
X150341909Y-33381909D01*
X150482942Y-33266166D01*
X150643841Y-33180164D01*
X150818435Y-33127201D01*
X150954500Y-33113800D01*
X151045500Y-33113800D01*
X151181565Y-33127201D01*
X151181565Y-33127201D01*
G37*
G36*
X107386200Y-32426200D02*
G01*
X105533800Y-32426200D01*
X105533800Y-30573800D01*
X107386200Y-30573800D01*
X107386200Y-32426200D01*
X107386200Y-32426200D01*
G37*
G36*
X153721565Y-30587201D02*
G01*
X153896159Y-30640164D01*
X154057058Y-30726166D01*
X154198091Y-30841909D01*
X154313834Y-30982942D01*
X154399836Y-31143841D01*
X154452799Y-31318435D01*
X154470681Y-31500000D01*
X154452799Y-31681565D01*
X154399836Y-31856159D01*
X154313834Y-32017058D01*
X154198091Y-32158091D01*
X154057058Y-32273834D01*
X153896159Y-32359836D01*
X153721565Y-32412799D01*
X153585500Y-32426200D01*
X153494500Y-32426200D01*
X153358435Y-32412799D01*
X153183841Y-32359836D01*
X153022942Y-32273834D01*
X152881909Y-32158091D01*
X152766166Y-32017058D01*
X152680164Y-31856159D01*
X152627201Y-31681565D01*
X152609319Y-31500000D01*
X152627201Y-31318435D01*
X152680164Y-31143841D01*
X152766166Y-30982942D01*
X152881909Y-30841909D01*
X153022942Y-30726166D01*
X153183841Y-30640164D01*
X153358435Y-30587201D01*
X153494500Y-30573800D01*
X153585500Y-30573800D01*
X153721565Y-30587201D01*
X153721565Y-30587201D01*
G37*
G36*
X151926200Y-32426200D02*
G01*
X150073800Y-32426200D01*
X150073800Y-30573800D01*
X151926200Y-30573800D01*
X151926200Y-32426200D01*
X151926200Y-32426200D01*
G37*
G36*
X109181565Y-30587201D02*
G01*
X109356159Y-30640164D01*
X109517058Y-30726166D01*
X109658091Y-30841909D01*
X109773834Y-30982942D01*
X109859836Y-31143841D01*
X109912799Y-31318435D01*
X109930681Y-31500000D01*
X109912799Y-31681565D01*
X109859836Y-31856159D01*
X109773834Y-32017058D01*
X109658091Y-32158091D01*
X109517058Y-32273834D01*
X109356159Y-32359836D01*
X109181565Y-32412799D01*
X109045500Y-32426200D01*
X108954500Y-32426200D01*
X108818435Y-32412799D01*
X108643841Y-32359836D01*
X108482942Y-32273834D01*
X108341909Y-32158091D01*
X108226166Y-32017058D01*
X108140164Y-31856159D01*
X108087201Y-31681565D01*
X108069319Y-31500000D01*
X108087201Y-31318435D01*
X108140164Y-31143841D01*
X108226166Y-30982942D01*
X108341909Y-30841909D01*
X108482942Y-30726166D01*
X108643841Y-30640164D01*
X108818435Y-30587201D01*
X108954500Y-30573800D01*
X109045500Y-30573800D01*
X109181565Y-30587201D01*
X109181565Y-30587201D01*
G37*
M02*
