G04 #@! TF.GenerationSoftware,KiCad,Pcbnew,(5.1.4)-1*
G04 #@! TF.CreationDate,2019-09-29T17:42:26+09:00*
G04 #@! TF.ProjectId,_autosave-project 02 micro usb,5f617574-6f73-4617-9665-2d70726f6a65,2*
G04 #@! TF.SameCoordinates,Original*
G04 #@! TF.FileFunction,Copper,L2,Bot*
G04 #@! TF.FilePolarity,Positive*
%FSLAX46Y46*%
G04 Gerber Fmt 4.6, Leading zero omitted, Abs format (unit mm)*
G04 Created by KiCad (PCBNEW (5.1.4)-1) date 2019-09-29 17:42:26*
%MOMM*%
%LPD*%
G04 APERTURE LIST*
%ADD10R,1.800000X1.800000*%
%ADD11C,1.800000*%
%ADD12O,1.700000X1.700000*%
%ADD13R,1.700000X1.700000*%
%ADD14O,0.950000X1.250000*%
%ADD15O,1.550000X1.000000*%
%ADD16C,0.254000*%
G04 APERTURE END LIST*
D10*
X134250000Y-37250000D03*
D11*
X131710000Y-37250000D03*
D12*
X153540000Y-34040000D03*
X153540000Y-31500000D03*
X151000000Y-34040000D03*
D13*
X151000000Y-31500000D03*
X106460000Y-31500000D03*
D12*
X106460000Y-34040000D03*
X109000000Y-31500000D03*
X109000000Y-34040000D03*
D14*
X108750000Y-44750000D03*
X108750000Y-39750000D03*
D15*
X106050000Y-38750000D03*
X106050000Y-45750000D03*
D13*
X143250000Y-41750000D03*
D12*
X143250000Y-39210000D03*
X143250000Y-36670000D03*
X119000000Y-36670000D03*
X119000000Y-39210000D03*
D13*
X119000000Y-41750000D03*
D16*
G36*
X110419001Y-34278540D02*
G01*
X110421424Y-34303141D01*
X110421403Y-34306148D01*
X110422195Y-34314221D01*
X110427290Y-34362698D01*
X110427408Y-34363896D01*
X110427420Y-34363936D01*
X110432395Y-34411270D01*
X110442986Y-34462867D01*
X110452851Y-34514579D01*
X110455195Y-34522345D01*
X110484051Y-34615564D01*
X110504457Y-34664107D01*
X110524185Y-34712935D01*
X110527994Y-34720098D01*
X110574406Y-34805936D01*
X110603880Y-34849632D01*
X110632687Y-34893653D01*
X110637810Y-34899935D01*
X110637814Y-34899941D01*
X110637819Y-34899946D01*
X110700015Y-34975129D01*
X110737365Y-35012219D01*
X110774220Y-35049854D01*
X110780470Y-35055025D01*
X110856091Y-35116701D01*
X110899961Y-35145848D01*
X110943408Y-35175596D01*
X110950544Y-35179455D01*
X111036705Y-35225267D01*
X111085409Y-35245341D01*
X111133786Y-35266076D01*
X111141536Y-35268475D01*
X111141540Y-35268477D01*
X111141545Y-35268478D01*
X111234953Y-35296680D01*
X111286617Y-35306910D01*
X111338122Y-35317857D01*
X111346179Y-35318704D01*
X111346185Y-35318705D01*
X111346190Y-35318705D01*
X111443047Y-35328201D01*
X111471460Y-35331000D01*
X148528540Y-35331000D01*
X148553150Y-35328576D01*
X148556148Y-35328597D01*
X148564221Y-35327805D01*
X148612546Y-35322726D01*
X148613896Y-35322593D01*
X148613941Y-35322579D01*
X148661270Y-35317605D01*
X148712867Y-35307014D01*
X148764579Y-35297149D01*
X148772345Y-35294805D01*
X148865564Y-35265949D01*
X148914107Y-35245543D01*
X148962935Y-35225815D01*
X148970091Y-35222010D01*
X148970095Y-35222008D01*
X148970098Y-35222006D01*
X149055936Y-35175594D01*
X149099632Y-35146120D01*
X149143653Y-35117313D01*
X149149938Y-35112188D01*
X149149941Y-35112186D01*
X149149946Y-35112181D01*
X149225129Y-35049985D01*
X149262219Y-35012635D01*
X149299854Y-34975780D01*
X149305025Y-34969530D01*
X149366701Y-34893909D01*
X149395848Y-34850039D01*
X149425596Y-34806592D01*
X149429455Y-34799456D01*
X149475267Y-34713295D01*
X149495341Y-34664591D01*
X149516076Y-34616214D01*
X149518475Y-34608465D01*
X149546680Y-34515047D01*
X149556910Y-34463383D01*
X149567857Y-34411878D01*
X149568704Y-34403821D01*
X149568705Y-34403815D01*
X149568705Y-34403810D01*
X149578227Y-34306693D01*
X149581000Y-34278540D01*
X149581000Y-34040000D01*
X149763044Y-34040000D01*
X149786812Y-34281318D01*
X149857202Y-34513363D01*
X149971509Y-34727216D01*
X150125340Y-34914660D01*
X150312784Y-35068491D01*
X150526637Y-35182798D01*
X150758682Y-35253188D01*
X150939528Y-35271000D01*
X151060472Y-35271000D01*
X151241318Y-35253188D01*
X151473363Y-35182798D01*
X151687216Y-35068491D01*
X151874660Y-34914660D01*
X152028491Y-34727216D01*
X152100804Y-34591928D01*
X152439646Y-34591928D01*
X152568465Y-34795991D01*
X152734619Y-34971002D01*
X152931724Y-35110235D01*
X152988074Y-35140336D01*
X153167000Y-35112753D01*
X153167000Y-34413000D01*
X153913000Y-34413000D01*
X153913000Y-35112753D01*
X154091926Y-35140336D01*
X154148276Y-35110235D01*
X154345381Y-34971002D01*
X154511535Y-34795991D01*
X154640354Y-34591928D01*
X154617897Y-34413000D01*
X153913000Y-34413000D01*
X153167000Y-34413000D01*
X152462103Y-34413000D01*
X152439646Y-34591928D01*
X152100804Y-34591928D01*
X152142798Y-34513363D01*
X152213188Y-34281318D01*
X152236956Y-34040000D01*
X152213188Y-33798682D01*
X152142798Y-33566637D01*
X152100805Y-33488072D01*
X152439646Y-33488072D01*
X152462103Y-33667000D01*
X153167000Y-33667000D01*
X153167000Y-32967247D01*
X153913000Y-32967247D01*
X153913000Y-33667000D01*
X154617897Y-33667000D01*
X154640354Y-33488072D01*
X154511535Y-33284009D01*
X154345381Y-33108998D01*
X154148276Y-32969765D01*
X154091926Y-32939664D01*
X153913000Y-32967247D01*
X153167000Y-32967247D01*
X152988074Y-32939664D01*
X152931724Y-32969765D01*
X152734619Y-33108998D01*
X152568465Y-33284009D01*
X152439646Y-33488072D01*
X152100805Y-33488072D01*
X152028491Y-33352784D01*
X151874660Y-33165340D01*
X151687216Y-33011509D01*
X151473363Y-32897202D01*
X151241318Y-32826812D01*
X151060472Y-32809000D01*
X150939528Y-32809000D01*
X150758682Y-32826812D01*
X150526637Y-32897202D01*
X150312784Y-33011509D01*
X150125340Y-33165340D01*
X149971509Y-33352784D01*
X149857202Y-33566637D01*
X149786812Y-33798682D01*
X149763044Y-34040000D01*
X149581000Y-34040000D01*
X149581000Y-30650000D01*
X149767157Y-30650000D01*
X149767157Y-32350000D01*
X149774513Y-32424689D01*
X149796299Y-32496508D01*
X149831678Y-32562696D01*
X149879289Y-32620711D01*
X149937304Y-32668322D01*
X150003492Y-32703701D01*
X150075311Y-32725487D01*
X150150000Y-32732843D01*
X151850000Y-32732843D01*
X151924689Y-32725487D01*
X151996508Y-32703701D01*
X152062696Y-32668322D01*
X152120711Y-32620711D01*
X152168322Y-32562696D01*
X152203701Y-32496508D01*
X152225487Y-32424689D01*
X152232843Y-32350000D01*
X152232843Y-32051928D01*
X152439646Y-32051928D01*
X152568465Y-32255991D01*
X152734619Y-32431002D01*
X152931724Y-32570235D01*
X152988074Y-32600336D01*
X153167000Y-32572753D01*
X153167000Y-31873000D01*
X153913000Y-31873000D01*
X153913000Y-32572753D01*
X154091926Y-32600336D01*
X154148276Y-32570235D01*
X154345381Y-32431002D01*
X154511535Y-32255991D01*
X154640354Y-32051928D01*
X154617897Y-31873000D01*
X153913000Y-31873000D01*
X153167000Y-31873000D01*
X152462103Y-31873000D01*
X152439646Y-32051928D01*
X152232843Y-32051928D01*
X152232843Y-30948072D01*
X152439646Y-30948072D01*
X152462103Y-31127000D01*
X153167000Y-31127000D01*
X153167000Y-30427247D01*
X153913000Y-30427247D01*
X153913000Y-31127000D01*
X154617897Y-31127000D01*
X154640354Y-30948072D01*
X154511535Y-30744009D01*
X154345381Y-30568998D01*
X154148276Y-30429765D01*
X154091926Y-30399664D01*
X153913000Y-30427247D01*
X153167000Y-30427247D01*
X152988074Y-30399664D01*
X152931724Y-30429765D01*
X152734619Y-30568998D01*
X152568465Y-30744009D01*
X152439646Y-30948072D01*
X152232843Y-30948072D01*
X152232843Y-30650000D01*
X152225487Y-30575311D01*
X152203701Y-30503492D01*
X152168322Y-30437304D01*
X152120711Y-30379289D01*
X152062696Y-30331678D01*
X151996508Y-30296299D01*
X151924689Y-30274513D01*
X151850000Y-30267157D01*
X150150000Y-30267157D01*
X150075311Y-30274513D01*
X150003492Y-30296299D01*
X149937304Y-30331678D01*
X149879289Y-30379289D01*
X149831678Y-30437304D01*
X149796299Y-30503492D01*
X149774513Y-30575311D01*
X149767157Y-30650000D01*
X149581000Y-30650000D01*
X149581000Y-30081000D01*
X154919000Y-30081000D01*
X154919001Y-48919000D01*
X105081000Y-48919000D01*
X105081000Y-46278024D01*
X105119261Y-46315002D01*
X105242087Y-46432074D01*
X105385393Y-46522934D01*
X105543671Y-46584091D01*
X105677000Y-46514760D01*
X105677000Y-46123000D01*
X106423000Y-46123000D01*
X106423000Y-46514760D01*
X106556329Y-46584091D01*
X106714607Y-46522934D01*
X106857913Y-46432074D01*
X106980739Y-46315002D01*
X107054966Y-46243265D01*
X107016574Y-46123000D01*
X106423000Y-46123000D01*
X105677000Y-46123000D01*
X105657000Y-46123000D01*
X105657000Y-45377000D01*
X105677000Y-45377000D01*
X105677000Y-44985240D01*
X106423000Y-44985240D01*
X106423000Y-45377000D01*
X107016574Y-45377000D01*
X107054966Y-45256735D01*
X107044207Y-45246336D01*
X107988841Y-45246336D01*
X108071033Y-45388176D01*
X108179318Y-45511256D01*
X108283942Y-45618001D01*
X108402000Y-45576488D01*
X108402000Y-45123000D01*
X109098000Y-45123000D01*
X109098000Y-45576488D01*
X109216058Y-45618001D01*
X109320682Y-45511256D01*
X109428967Y-45388176D01*
X109511159Y-45246336D01*
X109460717Y-45123000D01*
X109098000Y-45123000D01*
X108402000Y-45123000D01*
X108039283Y-45123000D01*
X107988841Y-45246336D01*
X107044207Y-45246336D01*
X106980739Y-45184998D01*
X106857913Y-45067926D01*
X106714607Y-44977066D01*
X106556329Y-44915909D01*
X106423000Y-44985240D01*
X105677000Y-44985240D01*
X105543671Y-44915909D01*
X105385393Y-44977066D01*
X105242087Y-45067926D01*
X105119261Y-45184998D01*
X105081000Y-45221976D01*
X105081000Y-44253664D01*
X107988841Y-44253664D01*
X108039283Y-44377000D01*
X108402000Y-44377000D01*
X108402000Y-43923512D01*
X109098000Y-43923512D01*
X109098000Y-44377000D01*
X109460717Y-44377000D01*
X109511159Y-44253664D01*
X109428967Y-44111824D01*
X109320682Y-43988744D01*
X109216058Y-43881999D01*
X109098000Y-43923512D01*
X108402000Y-43923512D01*
X108283942Y-43881999D01*
X108179318Y-43988744D01*
X108071033Y-44111824D01*
X107988841Y-44253664D01*
X105081000Y-44253664D01*
X105081000Y-40900000D01*
X117767157Y-40900000D01*
X117767157Y-42600000D01*
X117774513Y-42674689D01*
X117796299Y-42746508D01*
X117831678Y-42812696D01*
X117879289Y-42870711D01*
X117937304Y-42918322D01*
X118003492Y-42953701D01*
X118075311Y-42975487D01*
X118150000Y-42982843D01*
X119850000Y-42982843D01*
X119924689Y-42975487D01*
X119996508Y-42953701D01*
X120062696Y-42918322D01*
X120120711Y-42870711D01*
X120168322Y-42812696D01*
X120203701Y-42746508D01*
X120225487Y-42674689D01*
X120232843Y-42600000D01*
X120232843Y-40900000D01*
X142017157Y-40900000D01*
X142017157Y-42600000D01*
X142024513Y-42674689D01*
X142046299Y-42746508D01*
X142081678Y-42812696D01*
X142129289Y-42870711D01*
X142187304Y-42918322D01*
X142253492Y-42953701D01*
X142325311Y-42975487D01*
X142400000Y-42982843D01*
X144100000Y-42982843D01*
X144174689Y-42975487D01*
X144246508Y-42953701D01*
X144312696Y-42918322D01*
X144370711Y-42870711D01*
X144418322Y-42812696D01*
X144453701Y-42746508D01*
X144475487Y-42674689D01*
X144482843Y-42600000D01*
X144482843Y-40900000D01*
X144475487Y-40825311D01*
X144453701Y-40753492D01*
X144418322Y-40687304D01*
X144370711Y-40629289D01*
X144312696Y-40581678D01*
X144246508Y-40546299D01*
X144174689Y-40524513D01*
X144100000Y-40517157D01*
X142400000Y-40517157D01*
X142325311Y-40524513D01*
X142253492Y-40546299D01*
X142187304Y-40581678D01*
X142129289Y-40629289D01*
X142081678Y-40687304D01*
X142046299Y-40753492D01*
X142024513Y-40825311D01*
X142017157Y-40900000D01*
X120232843Y-40900000D01*
X120225487Y-40825311D01*
X120203701Y-40753492D01*
X120168322Y-40687304D01*
X120120711Y-40629289D01*
X120062696Y-40581678D01*
X119996508Y-40546299D01*
X119924689Y-40524513D01*
X119850000Y-40517157D01*
X118150000Y-40517157D01*
X118075311Y-40524513D01*
X118003492Y-40546299D01*
X117937304Y-40581678D01*
X117879289Y-40629289D01*
X117831678Y-40687304D01*
X117796299Y-40753492D01*
X117774513Y-40825311D01*
X117767157Y-40900000D01*
X105081000Y-40900000D01*
X105081000Y-40246336D01*
X107988841Y-40246336D01*
X108071033Y-40388176D01*
X108179318Y-40511256D01*
X108283942Y-40618001D01*
X108402000Y-40576488D01*
X108402000Y-40123000D01*
X109098000Y-40123000D01*
X109098000Y-40576488D01*
X109216058Y-40618001D01*
X109320682Y-40511256D01*
X109428967Y-40388176D01*
X109511159Y-40246336D01*
X109460717Y-40123000D01*
X109098000Y-40123000D01*
X108402000Y-40123000D01*
X108039283Y-40123000D01*
X107988841Y-40246336D01*
X105081000Y-40246336D01*
X105081000Y-39278024D01*
X105119261Y-39315002D01*
X105242087Y-39432074D01*
X105385393Y-39522934D01*
X105543671Y-39584091D01*
X105677000Y-39514760D01*
X105677000Y-39123000D01*
X106423000Y-39123000D01*
X106423000Y-39514760D01*
X106556329Y-39584091D01*
X106714607Y-39522934D01*
X106857913Y-39432074D01*
X106980739Y-39315002D01*
X107044206Y-39253664D01*
X107988841Y-39253664D01*
X108039283Y-39377000D01*
X108402000Y-39377000D01*
X108402000Y-38923512D01*
X109098000Y-38923512D01*
X109098000Y-39377000D01*
X109460717Y-39377000D01*
X109511159Y-39253664D01*
X109485858Y-39210000D01*
X117763044Y-39210000D01*
X117786812Y-39451318D01*
X117857202Y-39683363D01*
X117971509Y-39897216D01*
X118125340Y-40084660D01*
X118312784Y-40238491D01*
X118526637Y-40352798D01*
X118758682Y-40423188D01*
X118939528Y-40441000D01*
X119060472Y-40441000D01*
X119241318Y-40423188D01*
X119473363Y-40352798D01*
X119687216Y-40238491D01*
X119874660Y-40084660D01*
X120028491Y-39897216D01*
X120142798Y-39683363D01*
X120213188Y-39451318D01*
X120236956Y-39210000D01*
X142013044Y-39210000D01*
X142036812Y-39451318D01*
X142107202Y-39683363D01*
X142221509Y-39897216D01*
X142375340Y-40084660D01*
X142562784Y-40238491D01*
X142776637Y-40352798D01*
X143008682Y-40423188D01*
X143189528Y-40441000D01*
X143310472Y-40441000D01*
X143491318Y-40423188D01*
X143723363Y-40352798D01*
X143937216Y-40238491D01*
X144124660Y-40084660D01*
X144278491Y-39897216D01*
X144392798Y-39683363D01*
X144463188Y-39451318D01*
X144486956Y-39210000D01*
X144463188Y-38968682D01*
X144392798Y-38736637D01*
X144278491Y-38522784D01*
X144124660Y-38335340D01*
X143937216Y-38181509D01*
X143723363Y-38067202D01*
X143491318Y-37996812D01*
X143310472Y-37979000D01*
X143189528Y-37979000D01*
X143008682Y-37996812D01*
X142776637Y-38067202D01*
X142562784Y-38181509D01*
X142375340Y-38335340D01*
X142221509Y-38522784D01*
X142107202Y-38736637D01*
X142036812Y-38968682D01*
X142013044Y-39210000D01*
X120236956Y-39210000D01*
X120213188Y-38968682D01*
X120142798Y-38736637D01*
X120028491Y-38522784D01*
X119874660Y-38335340D01*
X119687216Y-38181509D01*
X119473363Y-38067202D01*
X119241318Y-37996812D01*
X119060472Y-37979000D01*
X118939528Y-37979000D01*
X118758682Y-37996812D01*
X118526637Y-38067202D01*
X118312784Y-38181509D01*
X118125340Y-38335340D01*
X117971509Y-38522784D01*
X117857202Y-38736637D01*
X117786812Y-38968682D01*
X117763044Y-39210000D01*
X109485858Y-39210000D01*
X109428967Y-39111824D01*
X109320682Y-38988744D01*
X109216058Y-38881999D01*
X109098000Y-38923512D01*
X108402000Y-38923512D01*
X108283942Y-38881999D01*
X108179318Y-38988744D01*
X108071033Y-39111824D01*
X107988841Y-39253664D01*
X107044206Y-39253664D01*
X107054966Y-39243265D01*
X107016574Y-39123000D01*
X106423000Y-39123000D01*
X105677000Y-39123000D01*
X105657000Y-39123000D01*
X105657000Y-38377000D01*
X105677000Y-38377000D01*
X105677000Y-37985240D01*
X106423000Y-37985240D01*
X106423000Y-38377000D01*
X107016574Y-38377000D01*
X107054966Y-38256735D01*
X106980739Y-38184998D01*
X106857913Y-38067926D01*
X106714607Y-37977066D01*
X106556329Y-37915909D01*
X106423000Y-37985240D01*
X105677000Y-37985240D01*
X105543671Y-37915909D01*
X105385393Y-37977066D01*
X105242087Y-38067926D01*
X105119261Y-38184998D01*
X105081000Y-38221976D01*
X105081000Y-36670000D01*
X117763044Y-36670000D01*
X117786812Y-36911318D01*
X117857202Y-37143363D01*
X117971509Y-37357216D01*
X118125340Y-37544660D01*
X118312784Y-37698491D01*
X118526637Y-37812798D01*
X118758682Y-37883188D01*
X118939528Y-37901000D01*
X119060472Y-37901000D01*
X119241318Y-37883188D01*
X119473363Y-37812798D01*
X119687216Y-37698491D01*
X119874660Y-37544660D01*
X120028491Y-37357216D01*
X120142798Y-37143363D01*
X120148722Y-37123833D01*
X130429000Y-37123833D01*
X130429000Y-37376167D01*
X130478228Y-37623654D01*
X130574793Y-37856781D01*
X130714982Y-38066590D01*
X130893410Y-38245018D01*
X131103219Y-38385207D01*
X131336346Y-38481772D01*
X131583833Y-38531000D01*
X131836167Y-38531000D01*
X132083654Y-38481772D01*
X132316781Y-38385207D01*
X132526590Y-38245018D01*
X132705018Y-38066590D01*
X132845207Y-37856781D01*
X132941772Y-37623654D01*
X132969000Y-37486769D01*
X132969000Y-37623002D01*
X133064248Y-37623002D01*
X132969000Y-37718250D01*
X132967157Y-38150000D01*
X132974513Y-38224689D01*
X132996299Y-38296508D01*
X133031678Y-38362696D01*
X133079289Y-38420711D01*
X133137304Y-38468322D01*
X133203492Y-38503701D01*
X133275311Y-38525487D01*
X133350000Y-38532843D01*
X133781750Y-38531000D01*
X133877000Y-38435750D01*
X133877000Y-37623000D01*
X134623000Y-37623000D01*
X134623000Y-38435750D01*
X134718250Y-38531000D01*
X135150000Y-38532843D01*
X135224689Y-38525487D01*
X135296508Y-38503701D01*
X135362696Y-38468322D01*
X135420711Y-38420711D01*
X135468322Y-38362696D01*
X135503701Y-38296508D01*
X135525487Y-38224689D01*
X135532843Y-38150000D01*
X135531000Y-37718250D01*
X135435750Y-37623000D01*
X134623000Y-37623000D01*
X133877000Y-37623000D01*
X133857000Y-37623000D01*
X133857000Y-36877000D01*
X133877000Y-36877000D01*
X133877000Y-36064250D01*
X134623000Y-36064250D01*
X134623000Y-36877000D01*
X135435750Y-36877000D01*
X135531000Y-36781750D01*
X135531477Y-36670000D01*
X142013044Y-36670000D01*
X142036812Y-36911318D01*
X142107202Y-37143363D01*
X142221509Y-37357216D01*
X142375340Y-37544660D01*
X142562784Y-37698491D01*
X142776637Y-37812798D01*
X143008682Y-37883188D01*
X143189528Y-37901000D01*
X143310472Y-37901000D01*
X143491318Y-37883188D01*
X143723363Y-37812798D01*
X143937216Y-37698491D01*
X144124660Y-37544660D01*
X144278491Y-37357216D01*
X144392798Y-37143363D01*
X144463188Y-36911318D01*
X144486956Y-36670000D01*
X144463188Y-36428682D01*
X144392798Y-36196637D01*
X144278491Y-35982784D01*
X144124660Y-35795340D01*
X143937216Y-35641509D01*
X143723363Y-35527202D01*
X143491318Y-35456812D01*
X143310472Y-35439000D01*
X143189528Y-35439000D01*
X143008682Y-35456812D01*
X142776637Y-35527202D01*
X142562784Y-35641509D01*
X142375340Y-35795340D01*
X142221509Y-35982784D01*
X142107202Y-36196637D01*
X142036812Y-36428682D01*
X142013044Y-36670000D01*
X135531477Y-36670000D01*
X135532843Y-36350000D01*
X135525487Y-36275311D01*
X135503701Y-36203492D01*
X135468322Y-36137304D01*
X135420711Y-36079289D01*
X135362696Y-36031678D01*
X135296508Y-35996299D01*
X135224689Y-35974513D01*
X135150000Y-35967157D01*
X134718250Y-35969000D01*
X134623000Y-36064250D01*
X133877000Y-36064250D01*
X133781750Y-35969000D01*
X133350000Y-35967157D01*
X133275311Y-35974513D01*
X133203492Y-35996299D01*
X133137304Y-36031678D01*
X133079289Y-36079289D01*
X133031678Y-36137304D01*
X132996299Y-36203492D01*
X132974513Y-36275311D01*
X132967157Y-36350000D01*
X132969000Y-36781750D01*
X133064248Y-36876998D01*
X132969000Y-36876998D01*
X132969000Y-37013231D01*
X132941772Y-36876346D01*
X132845207Y-36643219D01*
X132705018Y-36433410D01*
X132526590Y-36254982D01*
X132316781Y-36114793D01*
X132083654Y-36018228D01*
X131836167Y-35969000D01*
X131583833Y-35969000D01*
X131336346Y-36018228D01*
X131103219Y-36114793D01*
X130893410Y-36254982D01*
X130714982Y-36433410D01*
X130574793Y-36643219D01*
X130478228Y-36876346D01*
X130429000Y-37123833D01*
X120148722Y-37123833D01*
X120213188Y-36911318D01*
X120236956Y-36670000D01*
X120213188Y-36428682D01*
X120142798Y-36196637D01*
X120028491Y-35982784D01*
X119874660Y-35795340D01*
X119687216Y-35641509D01*
X119473363Y-35527202D01*
X119241318Y-35456812D01*
X119060472Y-35439000D01*
X118939528Y-35439000D01*
X118758682Y-35456812D01*
X118526637Y-35527202D01*
X118312784Y-35641509D01*
X118125340Y-35795340D01*
X117971509Y-35982784D01*
X117857202Y-36196637D01*
X117786812Y-36428682D01*
X117763044Y-36670000D01*
X105081000Y-36670000D01*
X105081000Y-34040000D01*
X105223044Y-34040000D01*
X105246812Y-34281318D01*
X105317202Y-34513363D01*
X105431509Y-34727216D01*
X105585340Y-34914660D01*
X105772784Y-35068491D01*
X105986637Y-35182798D01*
X106218682Y-35253188D01*
X106399528Y-35271000D01*
X106520472Y-35271000D01*
X106701318Y-35253188D01*
X106933363Y-35182798D01*
X107147216Y-35068491D01*
X107334660Y-34914660D01*
X107488491Y-34727216D01*
X107560804Y-34591928D01*
X107899646Y-34591928D01*
X108028465Y-34795991D01*
X108194619Y-34971002D01*
X108391724Y-35110235D01*
X108448074Y-35140336D01*
X108627000Y-35112753D01*
X108627000Y-34413000D01*
X109373000Y-34413000D01*
X109373000Y-35112753D01*
X109551926Y-35140336D01*
X109608276Y-35110235D01*
X109805381Y-34971002D01*
X109971535Y-34795991D01*
X110100354Y-34591928D01*
X110077897Y-34413000D01*
X109373000Y-34413000D01*
X108627000Y-34413000D01*
X107922103Y-34413000D01*
X107899646Y-34591928D01*
X107560804Y-34591928D01*
X107602798Y-34513363D01*
X107673188Y-34281318D01*
X107696956Y-34040000D01*
X107673188Y-33798682D01*
X107602798Y-33566637D01*
X107560805Y-33488072D01*
X107899646Y-33488072D01*
X107922103Y-33667000D01*
X108627000Y-33667000D01*
X108627000Y-32967247D01*
X109373000Y-32967247D01*
X109373000Y-33667000D01*
X110077897Y-33667000D01*
X110100354Y-33488072D01*
X109971535Y-33284009D01*
X109805381Y-33108998D01*
X109608276Y-32969765D01*
X109551926Y-32939664D01*
X109373000Y-32967247D01*
X108627000Y-32967247D01*
X108448074Y-32939664D01*
X108391724Y-32969765D01*
X108194619Y-33108998D01*
X108028465Y-33284009D01*
X107899646Y-33488072D01*
X107560805Y-33488072D01*
X107488491Y-33352784D01*
X107334660Y-33165340D01*
X107147216Y-33011509D01*
X106933363Y-32897202D01*
X106701318Y-32826812D01*
X106520472Y-32809000D01*
X106399528Y-32809000D01*
X106218682Y-32826812D01*
X105986637Y-32897202D01*
X105772784Y-33011509D01*
X105585340Y-33165340D01*
X105431509Y-33352784D01*
X105317202Y-33566637D01*
X105246812Y-33798682D01*
X105223044Y-34040000D01*
X105081000Y-34040000D01*
X105081000Y-30650000D01*
X105227157Y-30650000D01*
X105227157Y-32350000D01*
X105234513Y-32424689D01*
X105256299Y-32496508D01*
X105291678Y-32562696D01*
X105339289Y-32620711D01*
X105397304Y-32668322D01*
X105463492Y-32703701D01*
X105535311Y-32725487D01*
X105610000Y-32732843D01*
X107310000Y-32732843D01*
X107384689Y-32725487D01*
X107456508Y-32703701D01*
X107522696Y-32668322D01*
X107580711Y-32620711D01*
X107628322Y-32562696D01*
X107663701Y-32496508D01*
X107685487Y-32424689D01*
X107692843Y-32350000D01*
X107692843Y-32051928D01*
X107899646Y-32051928D01*
X108028465Y-32255991D01*
X108194619Y-32431002D01*
X108391724Y-32570235D01*
X108448074Y-32600336D01*
X108627000Y-32572753D01*
X108627000Y-31873000D01*
X109373000Y-31873000D01*
X109373000Y-32572753D01*
X109551926Y-32600336D01*
X109608276Y-32570235D01*
X109805381Y-32431002D01*
X109971535Y-32255991D01*
X110100354Y-32051928D01*
X110077897Y-31873000D01*
X109373000Y-31873000D01*
X108627000Y-31873000D01*
X107922103Y-31873000D01*
X107899646Y-32051928D01*
X107692843Y-32051928D01*
X107692843Y-30948072D01*
X107899646Y-30948072D01*
X107922103Y-31127000D01*
X108627000Y-31127000D01*
X108627000Y-30427247D01*
X109373000Y-30427247D01*
X109373000Y-31127000D01*
X110077897Y-31127000D01*
X110100354Y-30948072D01*
X109971535Y-30744009D01*
X109805381Y-30568998D01*
X109608276Y-30429765D01*
X109551926Y-30399664D01*
X109373000Y-30427247D01*
X108627000Y-30427247D01*
X108448074Y-30399664D01*
X108391724Y-30429765D01*
X108194619Y-30568998D01*
X108028465Y-30744009D01*
X107899646Y-30948072D01*
X107692843Y-30948072D01*
X107692843Y-30650000D01*
X107685487Y-30575311D01*
X107663701Y-30503492D01*
X107628322Y-30437304D01*
X107580711Y-30379289D01*
X107522696Y-30331678D01*
X107456508Y-30296299D01*
X107384689Y-30274513D01*
X107310000Y-30267157D01*
X105610000Y-30267157D01*
X105535311Y-30274513D01*
X105463492Y-30296299D01*
X105397304Y-30331678D01*
X105339289Y-30379289D01*
X105291678Y-30437304D01*
X105256299Y-30503492D01*
X105234513Y-30575311D01*
X105227157Y-30650000D01*
X105081000Y-30650000D01*
X105081000Y-30081000D01*
X110419000Y-30081000D01*
X110419001Y-34278540D01*
X110419001Y-34278540D01*
G37*
X110419001Y-34278540D02*
X110421424Y-34303141D01*
X110421403Y-34306148D01*
X110422195Y-34314221D01*
X110427290Y-34362698D01*
X110427408Y-34363896D01*
X110427420Y-34363936D01*
X110432395Y-34411270D01*
X110442986Y-34462867D01*
X110452851Y-34514579D01*
X110455195Y-34522345D01*
X110484051Y-34615564D01*
X110504457Y-34664107D01*
X110524185Y-34712935D01*
X110527994Y-34720098D01*
X110574406Y-34805936D01*
X110603880Y-34849632D01*
X110632687Y-34893653D01*
X110637810Y-34899935D01*
X110637814Y-34899941D01*
X110637819Y-34899946D01*
X110700015Y-34975129D01*
X110737365Y-35012219D01*
X110774220Y-35049854D01*
X110780470Y-35055025D01*
X110856091Y-35116701D01*
X110899961Y-35145848D01*
X110943408Y-35175596D01*
X110950544Y-35179455D01*
X111036705Y-35225267D01*
X111085409Y-35245341D01*
X111133786Y-35266076D01*
X111141536Y-35268475D01*
X111141540Y-35268477D01*
X111141545Y-35268478D01*
X111234953Y-35296680D01*
X111286617Y-35306910D01*
X111338122Y-35317857D01*
X111346179Y-35318704D01*
X111346185Y-35318705D01*
X111346190Y-35318705D01*
X111443047Y-35328201D01*
X111471460Y-35331000D01*
X148528540Y-35331000D01*
X148553150Y-35328576D01*
X148556148Y-35328597D01*
X148564221Y-35327805D01*
X148612546Y-35322726D01*
X148613896Y-35322593D01*
X148613941Y-35322579D01*
X148661270Y-35317605D01*
X148712867Y-35307014D01*
X148764579Y-35297149D01*
X148772345Y-35294805D01*
X148865564Y-35265949D01*
X148914107Y-35245543D01*
X148962935Y-35225815D01*
X148970091Y-35222010D01*
X148970095Y-35222008D01*
X148970098Y-35222006D01*
X149055936Y-35175594D01*
X149099632Y-35146120D01*
X149143653Y-35117313D01*
X149149938Y-35112188D01*
X149149941Y-35112186D01*
X149149946Y-35112181D01*
X149225129Y-35049985D01*
X149262219Y-35012635D01*
X149299854Y-34975780D01*
X149305025Y-34969530D01*
X149366701Y-34893909D01*
X149395848Y-34850039D01*
X149425596Y-34806592D01*
X149429455Y-34799456D01*
X149475267Y-34713295D01*
X149495341Y-34664591D01*
X149516076Y-34616214D01*
X149518475Y-34608465D01*
X149546680Y-34515047D01*
X149556910Y-34463383D01*
X149567857Y-34411878D01*
X149568704Y-34403821D01*
X149568705Y-34403815D01*
X149568705Y-34403810D01*
X149578227Y-34306693D01*
X149581000Y-34278540D01*
X149581000Y-34040000D01*
X149763044Y-34040000D01*
X149786812Y-34281318D01*
X149857202Y-34513363D01*
X149971509Y-34727216D01*
X150125340Y-34914660D01*
X150312784Y-35068491D01*
X150526637Y-35182798D01*
X150758682Y-35253188D01*
X150939528Y-35271000D01*
X151060472Y-35271000D01*
X151241318Y-35253188D01*
X151473363Y-35182798D01*
X151687216Y-35068491D01*
X151874660Y-34914660D01*
X152028491Y-34727216D01*
X152100804Y-34591928D01*
X152439646Y-34591928D01*
X152568465Y-34795991D01*
X152734619Y-34971002D01*
X152931724Y-35110235D01*
X152988074Y-35140336D01*
X153167000Y-35112753D01*
X153167000Y-34413000D01*
X153913000Y-34413000D01*
X153913000Y-35112753D01*
X154091926Y-35140336D01*
X154148276Y-35110235D01*
X154345381Y-34971002D01*
X154511535Y-34795991D01*
X154640354Y-34591928D01*
X154617897Y-34413000D01*
X153913000Y-34413000D01*
X153167000Y-34413000D01*
X152462103Y-34413000D01*
X152439646Y-34591928D01*
X152100804Y-34591928D01*
X152142798Y-34513363D01*
X152213188Y-34281318D01*
X152236956Y-34040000D01*
X152213188Y-33798682D01*
X152142798Y-33566637D01*
X152100805Y-33488072D01*
X152439646Y-33488072D01*
X152462103Y-33667000D01*
X153167000Y-33667000D01*
X153167000Y-32967247D01*
X153913000Y-32967247D01*
X153913000Y-33667000D01*
X154617897Y-33667000D01*
X154640354Y-33488072D01*
X154511535Y-33284009D01*
X154345381Y-33108998D01*
X154148276Y-32969765D01*
X154091926Y-32939664D01*
X153913000Y-32967247D01*
X153167000Y-32967247D01*
X152988074Y-32939664D01*
X152931724Y-32969765D01*
X152734619Y-33108998D01*
X152568465Y-33284009D01*
X152439646Y-33488072D01*
X152100805Y-33488072D01*
X152028491Y-33352784D01*
X151874660Y-33165340D01*
X151687216Y-33011509D01*
X151473363Y-32897202D01*
X151241318Y-32826812D01*
X151060472Y-32809000D01*
X150939528Y-32809000D01*
X150758682Y-32826812D01*
X150526637Y-32897202D01*
X150312784Y-33011509D01*
X150125340Y-33165340D01*
X149971509Y-33352784D01*
X149857202Y-33566637D01*
X149786812Y-33798682D01*
X149763044Y-34040000D01*
X149581000Y-34040000D01*
X149581000Y-30650000D01*
X149767157Y-30650000D01*
X149767157Y-32350000D01*
X149774513Y-32424689D01*
X149796299Y-32496508D01*
X149831678Y-32562696D01*
X149879289Y-32620711D01*
X149937304Y-32668322D01*
X150003492Y-32703701D01*
X150075311Y-32725487D01*
X150150000Y-32732843D01*
X151850000Y-32732843D01*
X151924689Y-32725487D01*
X151996508Y-32703701D01*
X152062696Y-32668322D01*
X152120711Y-32620711D01*
X152168322Y-32562696D01*
X152203701Y-32496508D01*
X152225487Y-32424689D01*
X152232843Y-32350000D01*
X152232843Y-32051928D01*
X152439646Y-32051928D01*
X152568465Y-32255991D01*
X152734619Y-32431002D01*
X152931724Y-32570235D01*
X152988074Y-32600336D01*
X153167000Y-32572753D01*
X153167000Y-31873000D01*
X153913000Y-31873000D01*
X153913000Y-32572753D01*
X154091926Y-32600336D01*
X154148276Y-32570235D01*
X154345381Y-32431002D01*
X154511535Y-32255991D01*
X154640354Y-32051928D01*
X154617897Y-31873000D01*
X153913000Y-31873000D01*
X153167000Y-31873000D01*
X152462103Y-31873000D01*
X152439646Y-32051928D01*
X152232843Y-32051928D01*
X152232843Y-30948072D01*
X152439646Y-30948072D01*
X152462103Y-31127000D01*
X153167000Y-31127000D01*
X153167000Y-30427247D01*
X153913000Y-30427247D01*
X153913000Y-31127000D01*
X154617897Y-31127000D01*
X154640354Y-30948072D01*
X154511535Y-30744009D01*
X154345381Y-30568998D01*
X154148276Y-30429765D01*
X154091926Y-30399664D01*
X153913000Y-30427247D01*
X153167000Y-30427247D01*
X152988074Y-30399664D01*
X152931724Y-30429765D01*
X152734619Y-30568998D01*
X152568465Y-30744009D01*
X152439646Y-30948072D01*
X152232843Y-30948072D01*
X152232843Y-30650000D01*
X152225487Y-30575311D01*
X152203701Y-30503492D01*
X152168322Y-30437304D01*
X152120711Y-30379289D01*
X152062696Y-30331678D01*
X151996508Y-30296299D01*
X151924689Y-30274513D01*
X151850000Y-30267157D01*
X150150000Y-30267157D01*
X150075311Y-30274513D01*
X150003492Y-30296299D01*
X149937304Y-30331678D01*
X149879289Y-30379289D01*
X149831678Y-30437304D01*
X149796299Y-30503492D01*
X149774513Y-30575311D01*
X149767157Y-30650000D01*
X149581000Y-30650000D01*
X149581000Y-30081000D01*
X154919000Y-30081000D01*
X154919001Y-48919000D01*
X105081000Y-48919000D01*
X105081000Y-46278024D01*
X105119261Y-46315002D01*
X105242087Y-46432074D01*
X105385393Y-46522934D01*
X105543671Y-46584091D01*
X105677000Y-46514760D01*
X105677000Y-46123000D01*
X106423000Y-46123000D01*
X106423000Y-46514760D01*
X106556329Y-46584091D01*
X106714607Y-46522934D01*
X106857913Y-46432074D01*
X106980739Y-46315002D01*
X107054966Y-46243265D01*
X107016574Y-46123000D01*
X106423000Y-46123000D01*
X105677000Y-46123000D01*
X105657000Y-46123000D01*
X105657000Y-45377000D01*
X105677000Y-45377000D01*
X105677000Y-44985240D01*
X106423000Y-44985240D01*
X106423000Y-45377000D01*
X107016574Y-45377000D01*
X107054966Y-45256735D01*
X107044207Y-45246336D01*
X107988841Y-45246336D01*
X108071033Y-45388176D01*
X108179318Y-45511256D01*
X108283942Y-45618001D01*
X108402000Y-45576488D01*
X108402000Y-45123000D01*
X109098000Y-45123000D01*
X109098000Y-45576488D01*
X109216058Y-45618001D01*
X109320682Y-45511256D01*
X109428967Y-45388176D01*
X109511159Y-45246336D01*
X109460717Y-45123000D01*
X109098000Y-45123000D01*
X108402000Y-45123000D01*
X108039283Y-45123000D01*
X107988841Y-45246336D01*
X107044207Y-45246336D01*
X106980739Y-45184998D01*
X106857913Y-45067926D01*
X106714607Y-44977066D01*
X106556329Y-44915909D01*
X106423000Y-44985240D01*
X105677000Y-44985240D01*
X105543671Y-44915909D01*
X105385393Y-44977066D01*
X105242087Y-45067926D01*
X105119261Y-45184998D01*
X105081000Y-45221976D01*
X105081000Y-44253664D01*
X107988841Y-44253664D01*
X108039283Y-44377000D01*
X108402000Y-44377000D01*
X108402000Y-43923512D01*
X109098000Y-43923512D01*
X109098000Y-44377000D01*
X109460717Y-44377000D01*
X109511159Y-44253664D01*
X109428967Y-44111824D01*
X109320682Y-43988744D01*
X109216058Y-43881999D01*
X109098000Y-43923512D01*
X108402000Y-43923512D01*
X108283942Y-43881999D01*
X108179318Y-43988744D01*
X108071033Y-44111824D01*
X107988841Y-44253664D01*
X105081000Y-44253664D01*
X105081000Y-40900000D01*
X117767157Y-40900000D01*
X117767157Y-42600000D01*
X117774513Y-42674689D01*
X117796299Y-42746508D01*
X117831678Y-42812696D01*
X117879289Y-42870711D01*
X117937304Y-42918322D01*
X118003492Y-42953701D01*
X118075311Y-42975487D01*
X118150000Y-42982843D01*
X119850000Y-42982843D01*
X119924689Y-42975487D01*
X119996508Y-42953701D01*
X120062696Y-42918322D01*
X120120711Y-42870711D01*
X120168322Y-42812696D01*
X120203701Y-42746508D01*
X120225487Y-42674689D01*
X120232843Y-42600000D01*
X120232843Y-40900000D01*
X142017157Y-40900000D01*
X142017157Y-42600000D01*
X142024513Y-42674689D01*
X142046299Y-42746508D01*
X142081678Y-42812696D01*
X142129289Y-42870711D01*
X142187304Y-42918322D01*
X142253492Y-42953701D01*
X142325311Y-42975487D01*
X142400000Y-42982843D01*
X144100000Y-42982843D01*
X144174689Y-42975487D01*
X144246508Y-42953701D01*
X144312696Y-42918322D01*
X144370711Y-42870711D01*
X144418322Y-42812696D01*
X144453701Y-42746508D01*
X144475487Y-42674689D01*
X144482843Y-42600000D01*
X144482843Y-40900000D01*
X144475487Y-40825311D01*
X144453701Y-40753492D01*
X144418322Y-40687304D01*
X144370711Y-40629289D01*
X144312696Y-40581678D01*
X144246508Y-40546299D01*
X144174689Y-40524513D01*
X144100000Y-40517157D01*
X142400000Y-40517157D01*
X142325311Y-40524513D01*
X142253492Y-40546299D01*
X142187304Y-40581678D01*
X142129289Y-40629289D01*
X142081678Y-40687304D01*
X142046299Y-40753492D01*
X142024513Y-40825311D01*
X142017157Y-40900000D01*
X120232843Y-40900000D01*
X120225487Y-40825311D01*
X120203701Y-40753492D01*
X120168322Y-40687304D01*
X120120711Y-40629289D01*
X120062696Y-40581678D01*
X119996508Y-40546299D01*
X119924689Y-40524513D01*
X119850000Y-40517157D01*
X118150000Y-40517157D01*
X118075311Y-40524513D01*
X118003492Y-40546299D01*
X117937304Y-40581678D01*
X117879289Y-40629289D01*
X117831678Y-40687304D01*
X117796299Y-40753492D01*
X117774513Y-40825311D01*
X117767157Y-40900000D01*
X105081000Y-40900000D01*
X105081000Y-40246336D01*
X107988841Y-40246336D01*
X108071033Y-40388176D01*
X108179318Y-40511256D01*
X108283942Y-40618001D01*
X108402000Y-40576488D01*
X108402000Y-40123000D01*
X109098000Y-40123000D01*
X109098000Y-40576488D01*
X109216058Y-40618001D01*
X109320682Y-40511256D01*
X109428967Y-40388176D01*
X109511159Y-40246336D01*
X109460717Y-40123000D01*
X109098000Y-40123000D01*
X108402000Y-40123000D01*
X108039283Y-40123000D01*
X107988841Y-40246336D01*
X105081000Y-40246336D01*
X105081000Y-39278024D01*
X105119261Y-39315002D01*
X105242087Y-39432074D01*
X105385393Y-39522934D01*
X105543671Y-39584091D01*
X105677000Y-39514760D01*
X105677000Y-39123000D01*
X106423000Y-39123000D01*
X106423000Y-39514760D01*
X106556329Y-39584091D01*
X106714607Y-39522934D01*
X106857913Y-39432074D01*
X106980739Y-39315002D01*
X107044206Y-39253664D01*
X107988841Y-39253664D01*
X108039283Y-39377000D01*
X108402000Y-39377000D01*
X108402000Y-38923512D01*
X109098000Y-38923512D01*
X109098000Y-39377000D01*
X109460717Y-39377000D01*
X109511159Y-39253664D01*
X109485858Y-39210000D01*
X117763044Y-39210000D01*
X117786812Y-39451318D01*
X117857202Y-39683363D01*
X117971509Y-39897216D01*
X118125340Y-40084660D01*
X118312784Y-40238491D01*
X118526637Y-40352798D01*
X118758682Y-40423188D01*
X118939528Y-40441000D01*
X119060472Y-40441000D01*
X119241318Y-40423188D01*
X119473363Y-40352798D01*
X119687216Y-40238491D01*
X119874660Y-40084660D01*
X120028491Y-39897216D01*
X120142798Y-39683363D01*
X120213188Y-39451318D01*
X120236956Y-39210000D01*
X142013044Y-39210000D01*
X142036812Y-39451318D01*
X142107202Y-39683363D01*
X142221509Y-39897216D01*
X142375340Y-40084660D01*
X142562784Y-40238491D01*
X142776637Y-40352798D01*
X143008682Y-40423188D01*
X143189528Y-40441000D01*
X143310472Y-40441000D01*
X143491318Y-40423188D01*
X143723363Y-40352798D01*
X143937216Y-40238491D01*
X144124660Y-40084660D01*
X144278491Y-39897216D01*
X144392798Y-39683363D01*
X144463188Y-39451318D01*
X144486956Y-39210000D01*
X144463188Y-38968682D01*
X144392798Y-38736637D01*
X144278491Y-38522784D01*
X144124660Y-38335340D01*
X143937216Y-38181509D01*
X143723363Y-38067202D01*
X143491318Y-37996812D01*
X143310472Y-37979000D01*
X143189528Y-37979000D01*
X143008682Y-37996812D01*
X142776637Y-38067202D01*
X142562784Y-38181509D01*
X142375340Y-38335340D01*
X142221509Y-38522784D01*
X142107202Y-38736637D01*
X142036812Y-38968682D01*
X142013044Y-39210000D01*
X120236956Y-39210000D01*
X120213188Y-38968682D01*
X120142798Y-38736637D01*
X120028491Y-38522784D01*
X119874660Y-38335340D01*
X119687216Y-38181509D01*
X119473363Y-38067202D01*
X119241318Y-37996812D01*
X119060472Y-37979000D01*
X118939528Y-37979000D01*
X118758682Y-37996812D01*
X118526637Y-38067202D01*
X118312784Y-38181509D01*
X118125340Y-38335340D01*
X117971509Y-38522784D01*
X117857202Y-38736637D01*
X117786812Y-38968682D01*
X117763044Y-39210000D01*
X109485858Y-39210000D01*
X109428967Y-39111824D01*
X109320682Y-38988744D01*
X109216058Y-38881999D01*
X109098000Y-38923512D01*
X108402000Y-38923512D01*
X108283942Y-38881999D01*
X108179318Y-38988744D01*
X108071033Y-39111824D01*
X107988841Y-39253664D01*
X107044206Y-39253664D01*
X107054966Y-39243265D01*
X107016574Y-39123000D01*
X106423000Y-39123000D01*
X105677000Y-39123000D01*
X105657000Y-39123000D01*
X105657000Y-38377000D01*
X105677000Y-38377000D01*
X105677000Y-37985240D01*
X106423000Y-37985240D01*
X106423000Y-38377000D01*
X107016574Y-38377000D01*
X107054966Y-38256735D01*
X106980739Y-38184998D01*
X106857913Y-38067926D01*
X106714607Y-37977066D01*
X106556329Y-37915909D01*
X106423000Y-37985240D01*
X105677000Y-37985240D01*
X105543671Y-37915909D01*
X105385393Y-37977066D01*
X105242087Y-38067926D01*
X105119261Y-38184998D01*
X105081000Y-38221976D01*
X105081000Y-36670000D01*
X117763044Y-36670000D01*
X117786812Y-36911318D01*
X117857202Y-37143363D01*
X117971509Y-37357216D01*
X118125340Y-37544660D01*
X118312784Y-37698491D01*
X118526637Y-37812798D01*
X118758682Y-37883188D01*
X118939528Y-37901000D01*
X119060472Y-37901000D01*
X119241318Y-37883188D01*
X119473363Y-37812798D01*
X119687216Y-37698491D01*
X119874660Y-37544660D01*
X120028491Y-37357216D01*
X120142798Y-37143363D01*
X120148722Y-37123833D01*
X130429000Y-37123833D01*
X130429000Y-37376167D01*
X130478228Y-37623654D01*
X130574793Y-37856781D01*
X130714982Y-38066590D01*
X130893410Y-38245018D01*
X131103219Y-38385207D01*
X131336346Y-38481772D01*
X131583833Y-38531000D01*
X131836167Y-38531000D01*
X132083654Y-38481772D01*
X132316781Y-38385207D01*
X132526590Y-38245018D01*
X132705018Y-38066590D01*
X132845207Y-37856781D01*
X132941772Y-37623654D01*
X132969000Y-37486769D01*
X132969000Y-37623002D01*
X133064248Y-37623002D01*
X132969000Y-37718250D01*
X132967157Y-38150000D01*
X132974513Y-38224689D01*
X132996299Y-38296508D01*
X133031678Y-38362696D01*
X133079289Y-38420711D01*
X133137304Y-38468322D01*
X133203492Y-38503701D01*
X133275311Y-38525487D01*
X133350000Y-38532843D01*
X133781750Y-38531000D01*
X133877000Y-38435750D01*
X133877000Y-37623000D01*
X134623000Y-37623000D01*
X134623000Y-38435750D01*
X134718250Y-38531000D01*
X135150000Y-38532843D01*
X135224689Y-38525487D01*
X135296508Y-38503701D01*
X135362696Y-38468322D01*
X135420711Y-38420711D01*
X135468322Y-38362696D01*
X135503701Y-38296508D01*
X135525487Y-38224689D01*
X135532843Y-38150000D01*
X135531000Y-37718250D01*
X135435750Y-37623000D01*
X134623000Y-37623000D01*
X133877000Y-37623000D01*
X133857000Y-37623000D01*
X133857000Y-36877000D01*
X133877000Y-36877000D01*
X133877000Y-36064250D01*
X134623000Y-36064250D01*
X134623000Y-36877000D01*
X135435750Y-36877000D01*
X135531000Y-36781750D01*
X135531477Y-36670000D01*
X142013044Y-36670000D01*
X142036812Y-36911318D01*
X142107202Y-37143363D01*
X142221509Y-37357216D01*
X142375340Y-37544660D01*
X142562784Y-37698491D01*
X142776637Y-37812798D01*
X143008682Y-37883188D01*
X143189528Y-37901000D01*
X143310472Y-37901000D01*
X143491318Y-37883188D01*
X143723363Y-37812798D01*
X143937216Y-37698491D01*
X144124660Y-37544660D01*
X144278491Y-37357216D01*
X144392798Y-37143363D01*
X144463188Y-36911318D01*
X144486956Y-36670000D01*
X144463188Y-36428682D01*
X144392798Y-36196637D01*
X144278491Y-35982784D01*
X144124660Y-35795340D01*
X143937216Y-35641509D01*
X143723363Y-35527202D01*
X143491318Y-35456812D01*
X143310472Y-35439000D01*
X143189528Y-35439000D01*
X143008682Y-35456812D01*
X142776637Y-35527202D01*
X142562784Y-35641509D01*
X142375340Y-35795340D01*
X142221509Y-35982784D01*
X142107202Y-36196637D01*
X142036812Y-36428682D01*
X142013044Y-36670000D01*
X135531477Y-36670000D01*
X135532843Y-36350000D01*
X135525487Y-36275311D01*
X135503701Y-36203492D01*
X135468322Y-36137304D01*
X135420711Y-36079289D01*
X135362696Y-36031678D01*
X135296508Y-35996299D01*
X135224689Y-35974513D01*
X135150000Y-35967157D01*
X134718250Y-35969000D01*
X134623000Y-36064250D01*
X133877000Y-36064250D01*
X133781750Y-35969000D01*
X133350000Y-35967157D01*
X133275311Y-35974513D01*
X133203492Y-35996299D01*
X133137304Y-36031678D01*
X133079289Y-36079289D01*
X133031678Y-36137304D01*
X132996299Y-36203492D01*
X132974513Y-36275311D01*
X132967157Y-36350000D01*
X132969000Y-36781750D01*
X133064248Y-36876998D01*
X132969000Y-36876998D01*
X132969000Y-37013231D01*
X132941772Y-36876346D01*
X132845207Y-36643219D01*
X132705018Y-36433410D01*
X132526590Y-36254982D01*
X132316781Y-36114793D01*
X132083654Y-36018228D01*
X131836167Y-35969000D01*
X131583833Y-35969000D01*
X131336346Y-36018228D01*
X131103219Y-36114793D01*
X130893410Y-36254982D01*
X130714982Y-36433410D01*
X130574793Y-36643219D01*
X130478228Y-36876346D01*
X130429000Y-37123833D01*
X120148722Y-37123833D01*
X120213188Y-36911318D01*
X120236956Y-36670000D01*
X120213188Y-36428682D01*
X120142798Y-36196637D01*
X120028491Y-35982784D01*
X119874660Y-35795340D01*
X119687216Y-35641509D01*
X119473363Y-35527202D01*
X119241318Y-35456812D01*
X119060472Y-35439000D01*
X118939528Y-35439000D01*
X118758682Y-35456812D01*
X118526637Y-35527202D01*
X118312784Y-35641509D01*
X118125340Y-35795340D01*
X117971509Y-35982784D01*
X117857202Y-36196637D01*
X117786812Y-36428682D01*
X117763044Y-36670000D01*
X105081000Y-36670000D01*
X105081000Y-34040000D01*
X105223044Y-34040000D01*
X105246812Y-34281318D01*
X105317202Y-34513363D01*
X105431509Y-34727216D01*
X105585340Y-34914660D01*
X105772784Y-35068491D01*
X105986637Y-35182798D01*
X106218682Y-35253188D01*
X106399528Y-35271000D01*
X106520472Y-35271000D01*
X106701318Y-35253188D01*
X106933363Y-35182798D01*
X107147216Y-35068491D01*
X107334660Y-34914660D01*
X107488491Y-34727216D01*
X107560804Y-34591928D01*
X107899646Y-34591928D01*
X108028465Y-34795991D01*
X108194619Y-34971002D01*
X108391724Y-35110235D01*
X108448074Y-35140336D01*
X108627000Y-35112753D01*
X108627000Y-34413000D01*
X109373000Y-34413000D01*
X109373000Y-35112753D01*
X109551926Y-35140336D01*
X109608276Y-35110235D01*
X109805381Y-34971002D01*
X109971535Y-34795991D01*
X110100354Y-34591928D01*
X110077897Y-34413000D01*
X109373000Y-34413000D01*
X108627000Y-34413000D01*
X107922103Y-34413000D01*
X107899646Y-34591928D01*
X107560804Y-34591928D01*
X107602798Y-34513363D01*
X107673188Y-34281318D01*
X107696956Y-34040000D01*
X107673188Y-33798682D01*
X107602798Y-33566637D01*
X107560805Y-33488072D01*
X107899646Y-33488072D01*
X107922103Y-33667000D01*
X108627000Y-33667000D01*
X108627000Y-32967247D01*
X109373000Y-32967247D01*
X109373000Y-33667000D01*
X110077897Y-33667000D01*
X110100354Y-33488072D01*
X109971535Y-33284009D01*
X109805381Y-33108998D01*
X109608276Y-32969765D01*
X109551926Y-32939664D01*
X109373000Y-32967247D01*
X108627000Y-32967247D01*
X108448074Y-32939664D01*
X108391724Y-32969765D01*
X108194619Y-33108998D01*
X108028465Y-33284009D01*
X107899646Y-33488072D01*
X107560805Y-33488072D01*
X107488491Y-33352784D01*
X107334660Y-33165340D01*
X107147216Y-33011509D01*
X106933363Y-32897202D01*
X106701318Y-32826812D01*
X106520472Y-32809000D01*
X106399528Y-32809000D01*
X106218682Y-32826812D01*
X105986637Y-32897202D01*
X105772784Y-33011509D01*
X105585340Y-33165340D01*
X105431509Y-33352784D01*
X105317202Y-33566637D01*
X105246812Y-33798682D01*
X105223044Y-34040000D01*
X105081000Y-34040000D01*
X105081000Y-30650000D01*
X105227157Y-30650000D01*
X105227157Y-32350000D01*
X105234513Y-32424689D01*
X105256299Y-32496508D01*
X105291678Y-32562696D01*
X105339289Y-32620711D01*
X105397304Y-32668322D01*
X105463492Y-32703701D01*
X105535311Y-32725487D01*
X105610000Y-32732843D01*
X107310000Y-32732843D01*
X107384689Y-32725487D01*
X107456508Y-32703701D01*
X107522696Y-32668322D01*
X107580711Y-32620711D01*
X107628322Y-32562696D01*
X107663701Y-32496508D01*
X107685487Y-32424689D01*
X107692843Y-32350000D01*
X107692843Y-32051928D01*
X107899646Y-32051928D01*
X108028465Y-32255991D01*
X108194619Y-32431002D01*
X108391724Y-32570235D01*
X108448074Y-32600336D01*
X108627000Y-32572753D01*
X108627000Y-31873000D01*
X109373000Y-31873000D01*
X109373000Y-32572753D01*
X109551926Y-32600336D01*
X109608276Y-32570235D01*
X109805381Y-32431002D01*
X109971535Y-32255991D01*
X110100354Y-32051928D01*
X110077897Y-31873000D01*
X109373000Y-31873000D01*
X108627000Y-31873000D01*
X107922103Y-31873000D01*
X107899646Y-32051928D01*
X107692843Y-32051928D01*
X107692843Y-30948072D01*
X107899646Y-30948072D01*
X107922103Y-31127000D01*
X108627000Y-31127000D01*
X108627000Y-30427247D01*
X109373000Y-30427247D01*
X109373000Y-31127000D01*
X110077897Y-31127000D01*
X110100354Y-30948072D01*
X109971535Y-30744009D01*
X109805381Y-30568998D01*
X109608276Y-30429765D01*
X109551926Y-30399664D01*
X109373000Y-30427247D01*
X108627000Y-30427247D01*
X108448074Y-30399664D01*
X108391724Y-30429765D01*
X108194619Y-30568998D01*
X108028465Y-30744009D01*
X107899646Y-30948072D01*
X107692843Y-30948072D01*
X107692843Y-30650000D01*
X107685487Y-30575311D01*
X107663701Y-30503492D01*
X107628322Y-30437304D01*
X107580711Y-30379289D01*
X107522696Y-30331678D01*
X107456508Y-30296299D01*
X107384689Y-30274513D01*
X107310000Y-30267157D01*
X105610000Y-30267157D01*
X105535311Y-30274513D01*
X105463492Y-30296299D01*
X105397304Y-30331678D01*
X105339289Y-30379289D01*
X105291678Y-30437304D01*
X105256299Y-30503492D01*
X105234513Y-30575311D01*
X105227157Y-30650000D01*
X105081000Y-30650000D01*
X105081000Y-30081000D01*
X110419000Y-30081000D01*
X110419001Y-34278540D01*
M02*
