M48
; DRILL file {KiCad (5.1.4)-1} date 29/09/2019 17:42:37
; FORMAT={-:-/ absolute / inch / decimal}
; #@! TF.CreationDate,2019-09-29T17:42:37+09:00
; #@! TF.GenerationSoftware,Kicad,Pcbnew,(5.1.4)-1
; #@! TF.FileFunction,Plated,1,2,PTH
FMAT,2
INCH
T1C0.0197
T2C0.0217
T3C0.0354
T4C0.0394
%
G90
G05
T3
X5.1854Y-1.4665
X5.2854Y-1.4665
T4
X5.9449Y-1.2402
X5.9449Y-1.3402
X6.0449Y-1.2402
X6.0449Y-1.3402
X4.1913Y-1.2402
X4.1913Y-1.3402
X4.2913Y-1.2402
X4.2913Y-1.3402
X5.6398Y-1.4437
X5.6398Y-1.5437
X5.6398Y-1.6437
X4.685Y-1.4437
X4.685Y-1.5437
X4.685Y-1.6437
T1
G00X4.188Y-1.5256
M15
G01X4.1624Y-1.5256
M16
G05
G00X4.188Y-1.8012
M15
G01X4.1624Y-1.8012
M16
G05
T2
G00X4.2815Y-1.5591
M15
G01X4.2815Y-1.5709
M16
G05
G00X4.2815Y-1.7559
M15
G01X4.2815Y-1.7677
M16
G05
T0
M30
