G04 #@! TF.GenerationSoftware,KiCad,Pcbnew,(5.1.4)-1*
G04 #@! TF.CreationDate,2019-09-29T17:42:26+09:00*
G04 #@! TF.ProjectId,_autosave-project 02 micro usb,5f617574-6f73-4617-9665-2d70726f6a65,2*
G04 #@! TF.SameCoordinates,Original*
G04 #@! TF.FileFunction,Legend,Bot*
G04 #@! TF.FilePolarity,Positive*
%FSLAX46Y46*%
G04 Gerber Fmt 4.6, Leading zero omitted, Abs format (unit mm)*
G04 Created by KiCad (PCBNEW (5.1.4)-1) date 2019-09-29 17:42:26*
%MOMM*%
%LPD*%
G04 APERTURE LIST*
%ADD10C,0.120000*%
%ADD11C,0.150000*%
G04 APERTURE END LIST*
D10*
X149670000Y-30170000D02*
X149670000Y-31500000D01*
X151000000Y-30170000D02*
X149670000Y-30170000D01*
X149670000Y-32770000D02*
X149670000Y-35370000D01*
X152270000Y-32770000D02*
X149670000Y-32770000D01*
X152270000Y-30170000D02*
X152270000Y-32770000D01*
X149670000Y-35370000D02*
X154870000Y-35370000D01*
X152270000Y-30170000D02*
X154870000Y-30170000D01*
X154870000Y-30170000D02*
X154870000Y-35370000D01*
X110330000Y-30170000D02*
X110330000Y-35370000D01*
X107730000Y-30170000D02*
X110330000Y-30170000D01*
X105130000Y-35370000D02*
X110330000Y-35370000D01*
X107730000Y-30170000D02*
X107730000Y-32770000D01*
X107730000Y-32770000D02*
X105130000Y-32770000D01*
X105130000Y-32770000D02*
X105130000Y-35370000D01*
X106460000Y-30170000D02*
X105130000Y-30170000D01*
X105130000Y-30170000D02*
X105130000Y-31500000D01*
D11*
X152583333Y-35702380D02*
X152583333Y-36416666D01*
X152630952Y-36559523D01*
X152726190Y-36654761D01*
X152869047Y-36702380D01*
X152964285Y-36702380D01*
X151583333Y-36702380D02*
X152154761Y-36702380D01*
X151869047Y-36702380D02*
X151869047Y-35702380D01*
X151964285Y-35845238D01*
X152059523Y-35940476D01*
X152154761Y-35988095D01*
X108083333Y-35702380D02*
X108083333Y-36416666D01*
X108130952Y-36559523D01*
X108226190Y-36654761D01*
X108369047Y-36702380D01*
X108464285Y-36702380D01*
X107702380Y-35702380D02*
X107083333Y-35702380D01*
X107416666Y-36083333D01*
X107273809Y-36083333D01*
X107178571Y-36130952D01*
X107130952Y-36178571D01*
X107083333Y-36273809D01*
X107083333Y-36511904D01*
X107130952Y-36607142D01*
X107178571Y-36654761D01*
X107273809Y-36702380D01*
X107559523Y-36702380D01*
X107654761Y-36654761D01*
X107702380Y-36607142D01*
M02*
