G04 #@! TF.GenerationSoftware,KiCad,Pcbnew,(5.1.4)-1*
G04 #@! TF.CreationDate,2019-09-29T17:42:26+09:00*
G04 #@! TF.ProjectId,_autosave-project 02 micro usb,5f617574-6f73-4617-9665-2d70726f6a65,2*
G04 #@! TF.SameCoordinates,Original*
G04 #@! TF.FileFunction,Paste,Top*
G04 #@! TF.FilePolarity,Positive*
%FSLAX46Y46*%
G04 Gerber Fmt 4.6, Leading zero omitted, Abs format (unit mm)*
G04 Created by KiCad (PCBNEW (5.1.4)-1) date 2019-09-29 17:42:26*
%MOMM*%
%LPD*%
G04 APERTURE LIST*
%ADD10C,0.100000*%
%ADD11C,1.150000*%
%ADD12R,2.000000X3.800000*%
%ADD13R,2.000000X1.500000*%
%ADD14R,1.350000X0.400000*%
G04 APERTURE END LIST*
D10*
G36*
X125474505Y-42426204D02*
G01*
X125498773Y-42429804D01*
X125522572Y-42435765D01*
X125545671Y-42444030D01*
X125567850Y-42454520D01*
X125588893Y-42467132D01*
X125608599Y-42481747D01*
X125626777Y-42498223D01*
X125643253Y-42516401D01*
X125657868Y-42536107D01*
X125670480Y-42557150D01*
X125680970Y-42579329D01*
X125689235Y-42602428D01*
X125695196Y-42626227D01*
X125698796Y-42650495D01*
X125700000Y-42674999D01*
X125700000Y-43325001D01*
X125698796Y-43349505D01*
X125695196Y-43373773D01*
X125689235Y-43397572D01*
X125680970Y-43420671D01*
X125670480Y-43442850D01*
X125657868Y-43463893D01*
X125643253Y-43483599D01*
X125626777Y-43501777D01*
X125608599Y-43518253D01*
X125588893Y-43532868D01*
X125567850Y-43545480D01*
X125545671Y-43555970D01*
X125522572Y-43564235D01*
X125498773Y-43570196D01*
X125474505Y-43573796D01*
X125450001Y-43575000D01*
X124549999Y-43575000D01*
X124525495Y-43573796D01*
X124501227Y-43570196D01*
X124477428Y-43564235D01*
X124454329Y-43555970D01*
X124432150Y-43545480D01*
X124411107Y-43532868D01*
X124391401Y-43518253D01*
X124373223Y-43501777D01*
X124356747Y-43483599D01*
X124342132Y-43463893D01*
X124329520Y-43442850D01*
X124319030Y-43420671D01*
X124310765Y-43397572D01*
X124304804Y-43373773D01*
X124301204Y-43349505D01*
X124300000Y-43325001D01*
X124300000Y-42674999D01*
X124301204Y-42650495D01*
X124304804Y-42626227D01*
X124310765Y-42602428D01*
X124319030Y-42579329D01*
X124329520Y-42557150D01*
X124342132Y-42536107D01*
X124356747Y-42516401D01*
X124373223Y-42498223D01*
X124391401Y-42481747D01*
X124411107Y-42467132D01*
X124432150Y-42454520D01*
X124454329Y-42444030D01*
X124477428Y-42435765D01*
X124501227Y-42429804D01*
X124525495Y-42426204D01*
X124549999Y-42425000D01*
X125450001Y-42425000D01*
X125474505Y-42426204D01*
X125474505Y-42426204D01*
G37*
D11*
X125000000Y-43000000D03*
D10*
G36*
X125474505Y-40376204D02*
G01*
X125498773Y-40379804D01*
X125522572Y-40385765D01*
X125545671Y-40394030D01*
X125567850Y-40404520D01*
X125588893Y-40417132D01*
X125608599Y-40431747D01*
X125626777Y-40448223D01*
X125643253Y-40466401D01*
X125657868Y-40486107D01*
X125670480Y-40507150D01*
X125680970Y-40529329D01*
X125689235Y-40552428D01*
X125695196Y-40576227D01*
X125698796Y-40600495D01*
X125700000Y-40624999D01*
X125700000Y-41275001D01*
X125698796Y-41299505D01*
X125695196Y-41323773D01*
X125689235Y-41347572D01*
X125680970Y-41370671D01*
X125670480Y-41392850D01*
X125657868Y-41413893D01*
X125643253Y-41433599D01*
X125626777Y-41451777D01*
X125608599Y-41468253D01*
X125588893Y-41482868D01*
X125567850Y-41495480D01*
X125545671Y-41505970D01*
X125522572Y-41514235D01*
X125498773Y-41520196D01*
X125474505Y-41523796D01*
X125450001Y-41525000D01*
X124549999Y-41525000D01*
X124525495Y-41523796D01*
X124501227Y-41520196D01*
X124477428Y-41514235D01*
X124454329Y-41505970D01*
X124432150Y-41495480D01*
X124411107Y-41482868D01*
X124391401Y-41468253D01*
X124373223Y-41451777D01*
X124356747Y-41433599D01*
X124342132Y-41413893D01*
X124329520Y-41392850D01*
X124319030Y-41370671D01*
X124310765Y-41347572D01*
X124304804Y-41323773D01*
X124301204Y-41299505D01*
X124300000Y-41275001D01*
X124300000Y-40624999D01*
X124301204Y-40600495D01*
X124304804Y-40576227D01*
X124310765Y-40552428D01*
X124319030Y-40529329D01*
X124329520Y-40507150D01*
X124342132Y-40486107D01*
X124356747Y-40466401D01*
X124373223Y-40448223D01*
X124391401Y-40431747D01*
X124411107Y-40417132D01*
X124432150Y-40404520D01*
X124454329Y-40394030D01*
X124477428Y-40385765D01*
X124501227Y-40379804D01*
X124525495Y-40376204D01*
X124549999Y-40375000D01*
X125450001Y-40375000D01*
X125474505Y-40376204D01*
X125474505Y-40376204D01*
G37*
D11*
X125000000Y-40950000D03*
D10*
G36*
X151574505Y-36051204D02*
G01*
X151598773Y-36054804D01*
X151622572Y-36060765D01*
X151645671Y-36069030D01*
X151667850Y-36079520D01*
X151688893Y-36092132D01*
X151708599Y-36106747D01*
X151726777Y-36123223D01*
X151743253Y-36141401D01*
X151757868Y-36161107D01*
X151770480Y-36182150D01*
X151780970Y-36204329D01*
X151789235Y-36227428D01*
X151795196Y-36251227D01*
X151798796Y-36275495D01*
X151800000Y-36299999D01*
X151800000Y-37200001D01*
X151798796Y-37224505D01*
X151795196Y-37248773D01*
X151789235Y-37272572D01*
X151780970Y-37295671D01*
X151770480Y-37317850D01*
X151757868Y-37338893D01*
X151743253Y-37358599D01*
X151726777Y-37376777D01*
X151708599Y-37393253D01*
X151688893Y-37407868D01*
X151667850Y-37420480D01*
X151645671Y-37430970D01*
X151622572Y-37439235D01*
X151598773Y-37445196D01*
X151574505Y-37448796D01*
X151550001Y-37450000D01*
X150899999Y-37450000D01*
X150875495Y-37448796D01*
X150851227Y-37445196D01*
X150827428Y-37439235D01*
X150804329Y-37430970D01*
X150782150Y-37420480D01*
X150761107Y-37407868D01*
X150741401Y-37393253D01*
X150723223Y-37376777D01*
X150706747Y-37358599D01*
X150692132Y-37338893D01*
X150679520Y-37317850D01*
X150669030Y-37295671D01*
X150660765Y-37272572D01*
X150654804Y-37248773D01*
X150651204Y-37224505D01*
X150650000Y-37200001D01*
X150650000Y-36299999D01*
X150651204Y-36275495D01*
X150654804Y-36251227D01*
X150660765Y-36227428D01*
X150669030Y-36204329D01*
X150679520Y-36182150D01*
X150692132Y-36161107D01*
X150706747Y-36141401D01*
X150723223Y-36123223D01*
X150741401Y-36106747D01*
X150761107Y-36092132D01*
X150782150Y-36079520D01*
X150804329Y-36069030D01*
X150827428Y-36060765D01*
X150851227Y-36054804D01*
X150875495Y-36051204D01*
X150899999Y-36050000D01*
X151550001Y-36050000D01*
X151574505Y-36051204D01*
X151574505Y-36051204D01*
G37*
D11*
X151225000Y-36750000D03*
D10*
G36*
X153624505Y-36051204D02*
G01*
X153648773Y-36054804D01*
X153672572Y-36060765D01*
X153695671Y-36069030D01*
X153717850Y-36079520D01*
X153738893Y-36092132D01*
X153758599Y-36106747D01*
X153776777Y-36123223D01*
X153793253Y-36141401D01*
X153807868Y-36161107D01*
X153820480Y-36182150D01*
X153830970Y-36204329D01*
X153839235Y-36227428D01*
X153845196Y-36251227D01*
X153848796Y-36275495D01*
X153850000Y-36299999D01*
X153850000Y-37200001D01*
X153848796Y-37224505D01*
X153845196Y-37248773D01*
X153839235Y-37272572D01*
X153830970Y-37295671D01*
X153820480Y-37317850D01*
X153807868Y-37338893D01*
X153793253Y-37358599D01*
X153776777Y-37376777D01*
X153758599Y-37393253D01*
X153738893Y-37407868D01*
X153717850Y-37420480D01*
X153695671Y-37430970D01*
X153672572Y-37439235D01*
X153648773Y-37445196D01*
X153624505Y-37448796D01*
X153600001Y-37450000D01*
X152949999Y-37450000D01*
X152925495Y-37448796D01*
X152901227Y-37445196D01*
X152877428Y-37439235D01*
X152854329Y-37430970D01*
X152832150Y-37420480D01*
X152811107Y-37407868D01*
X152791401Y-37393253D01*
X152773223Y-37376777D01*
X152756747Y-37358599D01*
X152742132Y-37338893D01*
X152729520Y-37317850D01*
X152719030Y-37295671D01*
X152710765Y-37272572D01*
X152704804Y-37248773D01*
X152701204Y-37224505D01*
X152700000Y-37200001D01*
X152700000Y-36299999D01*
X152701204Y-36275495D01*
X152704804Y-36251227D01*
X152710765Y-36227428D01*
X152719030Y-36204329D01*
X152729520Y-36182150D01*
X152742132Y-36161107D01*
X152756747Y-36141401D01*
X152773223Y-36123223D01*
X152791401Y-36106747D01*
X152811107Y-36092132D01*
X152832150Y-36079520D01*
X152854329Y-36069030D01*
X152877428Y-36060765D01*
X152901227Y-36054804D01*
X152925495Y-36051204D01*
X152949999Y-36050000D01*
X153600001Y-36050000D01*
X153624505Y-36051204D01*
X153624505Y-36051204D01*
G37*
D11*
X153275000Y-36750000D03*
D10*
G36*
X127974505Y-40426204D02*
G01*
X127998773Y-40429804D01*
X128022572Y-40435765D01*
X128045671Y-40444030D01*
X128067850Y-40454520D01*
X128088893Y-40467132D01*
X128108599Y-40481747D01*
X128126777Y-40498223D01*
X128143253Y-40516401D01*
X128157868Y-40536107D01*
X128170480Y-40557150D01*
X128180970Y-40579329D01*
X128189235Y-40602428D01*
X128195196Y-40626227D01*
X128198796Y-40650495D01*
X128200000Y-40674999D01*
X128200000Y-41325001D01*
X128198796Y-41349505D01*
X128195196Y-41373773D01*
X128189235Y-41397572D01*
X128180970Y-41420671D01*
X128170480Y-41442850D01*
X128157868Y-41463893D01*
X128143253Y-41483599D01*
X128126777Y-41501777D01*
X128108599Y-41518253D01*
X128088893Y-41532868D01*
X128067850Y-41545480D01*
X128045671Y-41555970D01*
X128022572Y-41564235D01*
X127998773Y-41570196D01*
X127974505Y-41573796D01*
X127950001Y-41575000D01*
X127049999Y-41575000D01*
X127025495Y-41573796D01*
X127001227Y-41570196D01*
X126977428Y-41564235D01*
X126954329Y-41555970D01*
X126932150Y-41545480D01*
X126911107Y-41532868D01*
X126891401Y-41518253D01*
X126873223Y-41501777D01*
X126856747Y-41483599D01*
X126842132Y-41463893D01*
X126829520Y-41442850D01*
X126819030Y-41420671D01*
X126810765Y-41397572D01*
X126804804Y-41373773D01*
X126801204Y-41349505D01*
X126800000Y-41325001D01*
X126800000Y-40674999D01*
X126801204Y-40650495D01*
X126804804Y-40626227D01*
X126810765Y-40602428D01*
X126819030Y-40579329D01*
X126829520Y-40557150D01*
X126842132Y-40536107D01*
X126856747Y-40516401D01*
X126873223Y-40498223D01*
X126891401Y-40481747D01*
X126911107Y-40467132D01*
X126932150Y-40454520D01*
X126954329Y-40444030D01*
X126977428Y-40435765D01*
X127001227Y-40429804D01*
X127025495Y-40426204D01*
X127049999Y-40425000D01*
X127950001Y-40425000D01*
X127974505Y-40426204D01*
X127974505Y-40426204D01*
G37*
D11*
X127500000Y-41000000D03*
D10*
G36*
X127974505Y-42476204D02*
G01*
X127998773Y-42479804D01*
X128022572Y-42485765D01*
X128045671Y-42494030D01*
X128067850Y-42504520D01*
X128088893Y-42517132D01*
X128108599Y-42531747D01*
X128126777Y-42548223D01*
X128143253Y-42566401D01*
X128157868Y-42586107D01*
X128170480Y-42607150D01*
X128180970Y-42629329D01*
X128189235Y-42652428D01*
X128195196Y-42676227D01*
X128198796Y-42700495D01*
X128200000Y-42724999D01*
X128200000Y-43375001D01*
X128198796Y-43399505D01*
X128195196Y-43423773D01*
X128189235Y-43447572D01*
X128180970Y-43470671D01*
X128170480Y-43492850D01*
X128157868Y-43513893D01*
X128143253Y-43533599D01*
X128126777Y-43551777D01*
X128108599Y-43568253D01*
X128088893Y-43582868D01*
X128067850Y-43595480D01*
X128045671Y-43605970D01*
X128022572Y-43614235D01*
X127998773Y-43620196D01*
X127974505Y-43623796D01*
X127950001Y-43625000D01*
X127049999Y-43625000D01*
X127025495Y-43623796D01*
X127001227Y-43620196D01*
X126977428Y-43614235D01*
X126954329Y-43605970D01*
X126932150Y-43595480D01*
X126911107Y-43582868D01*
X126891401Y-43568253D01*
X126873223Y-43551777D01*
X126856747Y-43533599D01*
X126842132Y-43513893D01*
X126829520Y-43492850D01*
X126819030Y-43470671D01*
X126810765Y-43447572D01*
X126804804Y-43423773D01*
X126801204Y-43399505D01*
X126800000Y-43375001D01*
X126800000Y-42724999D01*
X126801204Y-42700495D01*
X126804804Y-42676227D01*
X126810765Y-42652428D01*
X126819030Y-42629329D01*
X126829520Y-42607150D01*
X126842132Y-42586107D01*
X126856747Y-42566401D01*
X126873223Y-42548223D01*
X126891401Y-42531747D01*
X126911107Y-42517132D01*
X126932150Y-42504520D01*
X126954329Y-42494030D01*
X126977428Y-42485765D01*
X127001227Y-42479804D01*
X127025495Y-42476204D01*
X127049999Y-42475000D01*
X127950001Y-42475000D01*
X127974505Y-42476204D01*
X127974505Y-42476204D01*
G37*
D11*
X127500000Y-43050000D03*
D10*
G36*
X109099505Y-36051204D02*
G01*
X109123773Y-36054804D01*
X109147572Y-36060765D01*
X109170671Y-36069030D01*
X109192850Y-36079520D01*
X109213893Y-36092132D01*
X109233599Y-36106747D01*
X109251777Y-36123223D01*
X109268253Y-36141401D01*
X109282868Y-36161107D01*
X109295480Y-36182150D01*
X109305970Y-36204329D01*
X109314235Y-36227428D01*
X109320196Y-36251227D01*
X109323796Y-36275495D01*
X109325000Y-36299999D01*
X109325000Y-37200001D01*
X109323796Y-37224505D01*
X109320196Y-37248773D01*
X109314235Y-37272572D01*
X109305970Y-37295671D01*
X109295480Y-37317850D01*
X109282868Y-37338893D01*
X109268253Y-37358599D01*
X109251777Y-37376777D01*
X109233599Y-37393253D01*
X109213893Y-37407868D01*
X109192850Y-37420480D01*
X109170671Y-37430970D01*
X109147572Y-37439235D01*
X109123773Y-37445196D01*
X109099505Y-37448796D01*
X109075001Y-37450000D01*
X108424999Y-37450000D01*
X108400495Y-37448796D01*
X108376227Y-37445196D01*
X108352428Y-37439235D01*
X108329329Y-37430970D01*
X108307150Y-37420480D01*
X108286107Y-37407868D01*
X108266401Y-37393253D01*
X108248223Y-37376777D01*
X108231747Y-37358599D01*
X108217132Y-37338893D01*
X108204520Y-37317850D01*
X108194030Y-37295671D01*
X108185765Y-37272572D01*
X108179804Y-37248773D01*
X108176204Y-37224505D01*
X108175000Y-37200001D01*
X108175000Y-36299999D01*
X108176204Y-36275495D01*
X108179804Y-36251227D01*
X108185765Y-36227428D01*
X108194030Y-36204329D01*
X108204520Y-36182150D01*
X108217132Y-36161107D01*
X108231747Y-36141401D01*
X108248223Y-36123223D01*
X108266401Y-36106747D01*
X108286107Y-36092132D01*
X108307150Y-36079520D01*
X108329329Y-36069030D01*
X108352428Y-36060765D01*
X108376227Y-36054804D01*
X108400495Y-36051204D01*
X108424999Y-36050000D01*
X109075001Y-36050000D01*
X109099505Y-36051204D01*
X109099505Y-36051204D01*
G37*
D11*
X108750000Y-36750000D03*
D10*
G36*
X107049505Y-36051204D02*
G01*
X107073773Y-36054804D01*
X107097572Y-36060765D01*
X107120671Y-36069030D01*
X107142850Y-36079520D01*
X107163893Y-36092132D01*
X107183599Y-36106747D01*
X107201777Y-36123223D01*
X107218253Y-36141401D01*
X107232868Y-36161107D01*
X107245480Y-36182150D01*
X107255970Y-36204329D01*
X107264235Y-36227428D01*
X107270196Y-36251227D01*
X107273796Y-36275495D01*
X107275000Y-36299999D01*
X107275000Y-37200001D01*
X107273796Y-37224505D01*
X107270196Y-37248773D01*
X107264235Y-37272572D01*
X107255970Y-37295671D01*
X107245480Y-37317850D01*
X107232868Y-37338893D01*
X107218253Y-37358599D01*
X107201777Y-37376777D01*
X107183599Y-37393253D01*
X107163893Y-37407868D01*
X107142850Y-37420480D01*
X107120671Y-37430970D01*
X107097572Y-37439235D01*
X107073773Y-37445196D01*
X107049505Y-37448796D01*
X107025001Y-37450000D01*
X106374999Y-37450000D01*
X106350495Y-37448796D01*
X106326227Y-37445196D01*
X106302428Y-37439235D01*
X106279329Y-37430970D01*
X106257150Y-37420480D01*
X106236107Y-37407868D01*
X106216401Y-37393253D01*
X106198223Y-37376777D01*
X106181747Y-37358599D01*
X106167132Y-37338893D01*
X106154520Y-37317850D01*
X106144030Y-37295671D01*
X106135765Y-37272572D01*
X106129804Y-37248773D01*
X106126204Y-37224505D01*
X106125000Y-37200001D01*
X106125000Y-36299999D01*
X106126204Y-36275495D01*
X106129804Y-36251227D01*
X106135765Y-36227428D01*
X106144030Y-36204329D01*
X106154520Y-36182150D01*
X106167132Y-36161107D01*
X106181747Y-36141401D01*
X106198223Y-36123223D01*
X106216401Y-36106747D01*
X106236107Y-36092132D01*
X106257150Y-36079520D01*
X106279329Y-36069030D01*
X106302428Y-36060765D01*
X106326227Y-36054804D01*
X106350495Y-36051204D01*
X106374999Y-36050000D01*
X107025001Y-36050000D01*
X107049505Y-36051204D01*
X107049505Y-36051204D01*
G37*
D11*
X106700000Y-36750000D03*
D10*
G36*
X129724505Y-37701204D02*
G01*
X129748773Y-37704804D01*
X129772572Y-37710765D01*
X129795671Y-37719030D01*
X129817850Y-37729520D01*
X129838893Y-37742132D01*
X129858599Y-37756747D01*
X129876777Y-37773223D01*
X129893253Y-37791401D01*
X129907868Y-37811107D01*
X129920480Y-37832150D01*
X129930970Y-37854329D01*
X129939235Y-37877428D01*
X129945196Y-37901227D01*
X129948796Y-37925495D01*
X129950000Y-37949999D01*
X129950000Y-38600001D01*
X129948796Y-38624505D01*
X129945196Y-38648773D01*
X129939235Y-38672572D01*
X129930970Y-38695671D01*
X129920480Y-38717850D01*
X129907868Y-38738893D01*
X129893253Y-38758599D01*
X129876777Y-38776777D01*
X129858599Y-38793253D01*
X129838893Y-38807868D01*
X129817850Y-38820480D01*
X129795671Y-38830970D01*
X129772572Y-38839235D01*
X129748773Y-38845196D01*
X129724505Y-38848796D01*
X129700001Y-38850000D01*
X128799999Y-38850000D01*
X128775495Y-38848796D01*
X128751227Y-38845196D01*
X128727428Y-38839235D01*
X128704329Y-38830970D01*
X128682150Y-38820480D01*
X128661107Y-38807868D01*
X128641401Y-38793253D01*
X128623223Y-38776777D01*
X128606747Y-38758599D01*
X128592132Y-38738893D01*
X128579520Y-38717850D01*
X128569030Y-38695671D01*
X128560765Y-38672572D01*
X128554804Y-38648773D01*
X128551204Y-38624505D01*
X128550000Y-38600001D01*
X128550000Y-37949999D01*
X128551204Y-37925495D01*
X128554804Y-37901227D01*
X128560765Y-37877428D01*
X128569030Y-37854329D01*
X128579520Y-37832150D01*
X128592132Y-37811107D01*
X128606747Y-37791401D01*
X128623223Y-37773223D01*
X128641401Y-37756747D01*
X128661107Y-37742132D01*
X128682150Y-37729520D01*
X128704329Y-37719030D01*
X128727428Y-37710765D01*
X128751227Y-37704804D01*
X128775495Y-37701204D01*
X128799999Y-37700000D01*
X129700001Y-37700000D01*
X129724505Y-37701204D01*
X129724505Y-37701204D01*
G37*
D11*
X129250000Y-38275000D03*
D10*
G36*
X129724505Y-35651204D02*
G01*
X129748773Y-35654804D01*
X129772572Y-35660765D01*
X129795671Y-35669030D01*
X129817850Y-35679520D01*
X129838893Y-35692132D01*
X129858599Y-35706747D01*
X129876777Y-35723223D01*
X129893253Y-35741401D01*
X129907868Y-35761107D01*
X129920480Y-35782150D01*
X129930970Y-35804329D01*
X129939235Y-35827428D01*
X129945196Y-35851227D01*
X129948796Y-35875495D01*
X129950000Y-35899999D01*
X129950000Y-36550001D01*
X129948796Y-36574505D01*
X129945196Y-36598773D01*
X129939235Y-36622572D01*
X129930970Y-36645671D01*
X129920480Y-36667850D01*
X129907868Y-36688893D01*
X129893253Y-36708599D01*
X129876777Y-36726777D01*
X129858599Y-36743253D01*
X129838893Y-36757868D01*
X129817850Y-36770480D01*
X129795671Y-36780970D01*
X129772572Y-36789235D01*
X129748773Y-36795196D01*
X129724505Y-36798796D01*
X129700001Y-36800000D01*
X128799999Y-36800000D01*
X128775495Y-36798796D01*
X128751227Y-36795196D01*
X128727428Y-36789235D01*
X128704329Y-36780970D01*
X128682150Y-36770480D01*
X128661107Y-36757868D01*
X128641401Y-36743253D01*
X128623223Y-36726777D01*
X128606747Y-36708599D01*
X128592132Y-36688893D01*
X128579520Y-36667850D01*
X128569030Y-36645671D01*
X128560765Y-36622572D01*
X128554804Y-36598773D01*
X128551204Y-36574505D01*
X128550000Y-36550001D01*
X128550000Y-35899999D01*
X128551204Y-35875495D01*
X128554804Y-35851227D01*
X128560765Y-35827428D01*
X128569030Y-35804329D01*
X128579520Y-35782150D01*
X128592132Y-35761107D01*
X128606747Y-35741401D01*
X128623223Y-35723223D01*
X128641401Y-35706747D01*
X128661107Y-35692132D01*
X128682150Y-35679520D01*
X128704329Y-35669030D01*
X128727428Y-35660765D01*
X128751227Y-35654804D01*
X128775495Y-35651204D01*
X128799999Y-35650000D01*
X129700001Y-35650000D01*
X129724505Y-35651204D01*
X129724505Y-35651204D01*
G37*
D11*
X129250000Y-36225000D03*
D12*
X136400000Y-43250000D03*
D13*
X130100000Y-43250000D03*
X130100000Y-45550000D03*
X130100000Y-40950000D03*
D14*
X108750000Y-42250000D03*
X108750000Y-42900000D03*
X108750000Y-43550000D03*
X108750000Y-41600000D03*
X108750000Y-40950000D03*
M02*
