G04 #@! TF.GenerationSoftware,KiCad,Pcbnew,(5.1.4)-1*
G04 #@! TF.CreationDate,2019-09-29T17:47:35+09:00*
G04 #@! TF.ProjectId,project 02 micro usb,70726f6a-6563-4742-9030-32206d696372,2*
G04 #@! TF.SameCoordinates,Original*
G04 #@! TF.FileFunction,Legend,Top*
G04 #@! TF.FilePolarity,Positive*
%FSLAX46Y46*%
G04 Gerber Fmt 4.6, Leading zero omitted, Abs format (unit mm)*
G04 Created by KiCad (PCBNEW (5.1.4)-1) date 2019-09-29 17:47:35*
%MOMM*%
%LPD*%
G04 APERTURE LIST*
%ADD10C,0.150000*%
%ADD11C,0.100000*%
%ADD12C,0.010000*%
%ADD13C,0.120000*%
G04 APERTURE END LIST*
D10*
X106369047Y-35571428D02*
X107130952Y-35571428D01*
X106750000Y-35952380D02*
X106750000Y-35190476D01*
X108369047Y-35571428D02*
X109130952Y-35571428D01*
X145273809Y-36202380D02*
X145892857Y-36202380D01*
X145559523Y-36583333D01*
X145702380Y-36583333D01*
X145797619Y-36630952D01*
X145845238Y-36678571D01*
X145892857Y-36773809D01*
X145892857Y-37011904D01*
X145845238Y-37107142D01*
X145797619Y-37154761D01*
X145702380Y-37202380D01*
X145416666Y-37202380D01*
X145321428Y-37154761D01*
X145273809Y-37107142D01*
X146321428Y-37107142D02*
X146369047Y-37154761D01*
X146321428Y-37202380D01*
X146273809Y-37154761D01*
X146321428Y-37107142D01*
X146321428Y-37202380D01*
X146702380Y-36202380D02*
X147321428Y-36202380D01*
X146988095Y-36583333D01*
X147130952Y-36583333D01*
X147226190Y-36630952D01*
X147273809Y-36678571D01*
X147321428Y-36773809D01*
X147321428Y-37011904D01*
X147273809Y-37107142D01*
X147226190Y-37154761D01*
X147130952Y-37202380D01*
X146845238Y-37202380D01*
X146750000Y-37154761D01*
X146702380Y-37107142D01*
X147607142Y-36202380D02*
X147940476Y-37202380D01*
X148273809Y-36202380D01*
X145809523Y-41202380D02*
X145333333Y-41202380D01*
X145285714Y-41678571D01*
X145333333Y-41630952D01*
X145428571Y-41583333D01*
X145666666Y-41583333D01*
X145761904Y-41630952D01*
X145809523Y-41678571D01*
X145857142Y-41773809D01*
X145857142Y-42011904D01*
X145809523Y-42107142D01*
X145761904Y-42154761D01*
X145666666Y-42202380D01*
X145428571Y-42202380D01*
X145333333Y-42154761D01*
X145285714Y-42107142D01*
X146142857Y-41202380D02*
X146476190Y-42202380D01*
X146809523Y-41202380D01*
X145369047Y-35571428D02*
X146130952Y-35571428D01*
X145940476Y-35761904D02*
X146130952Y-35571428D01*
X145940476Y-35380952D01*
X116880952Y-35321428D02*
X116119047Y-35321428D01*
X116309523Y-35511904D02*
X116119047Y-35321428D01*
X116309523Y-35130952D01*
X114023809Y-35952380D02*
X114642857Y-35952380D01*
X114309523Y-36333333D01*
X114452380Y-36333333D01*
X114547619Y-36380952D01*
X114595238Y-36428571D01*
X114642857Y-36523809D01*
X114642857Y-36761904D01*
X114595238Y-36857142D01*
X114547619Y-36904761D01*
X114452380Y-36952380D01*
X114166666Y-36952380D01*
X114071428Y-36904761D01*
X114023809Y-36857142D01*
X115071428Y-36857142D02*
X115119047Y-36904761D01*
X115071428Y-36952380D01*
X115023809Y-36904761D01*
X115071428Y-36857142D01*
X115071428Y-36952380D01*
X115452380Y-35952380D02*
X116071428Y-35952380D01*
X115738095Y-36333333D01*
X115880952Y-36333333D01*
X115976190Y-36380952D01*
X116023809Y-36428571D01*
X116071428Y-36523809D01*
X116071428Y-36761904D01*
X116023809Y-36857142D01*
X115976190Y-36904761D01*
X115880952Y-36952380D01*
X115595238Y-36952380D01*
X115500000Y-36904761D01*
X115452380Y-36857142D01*
X116357142Y-35952380D02*
X116690476Y-36952380D01*
X117023809Y-35952380D01*
X116059523Y-41452380D02*
X115583333Y-41452380D01*
X115535714Y-41928571D01*
X115583333Y-41880952D01*
X115678571Y-41833333D01*
X115916666Y-41833333D01*
X116011904Y-41880952D01*
X116059523Y-41928571D01*
X116107142Y-42023809D01*
X116107142Y-42261904D01*
X116059523Y-42357142D01*
X116011904Y-42404761D01*
X115916666Y-42452380D01*
X115678571Y-42452380D01*
X115583333Y-42404761D01*
X115535714Y-42357142D01*
X116392857Y-41452380D02*
X116726190Y-42452380D01*
X117059523Y-41452380D01*
D11*
X105469761Y-48678571D02*
X105445952Y-48702380D01*
X105374523Y-48726190D01*
X105326904Y-48726190D01*
X105255476Y-48702380D01*
X105207857Y-48654761D01*
X105184047Y-48607142D01*
X105160238Y-48511904D01*
X105160238Y-48440476D01*
X105184047Y-48345238D01*
X105207857Y-48297619D01*
X105255476Y-48250000D01*
X105326904Y-48226190D01*
X105374523Y-48226190D01*
X105445952Y-48250000D01*
X105469761Y-48273809D01*
X105755476Y-48726190D02*
X105707857Y-48702380D01*
X105684047Y-48678571D01*
X105660238Y-48630952D01*
X105660238Y-48488095D01*
X105684047Y-48440476D01*
X105707857Y-48416666D01*
X105755476Y-48392857D01*
X105826904Y-48392857D01*
X105874523Y-48416666D01*
X105898333Y-48440476D01*
X105922142Y-48488095D01*
X105922142Y-48630952D01*
X105898333Y-48678571D01*
X105874523Y-48702380D01*
X105826904Y-48726190D01*
X105755476Y-48726190D01*
X106136428Y-48392857D02*
X106136428Y-48892857D01*
X106136428Y-48416666D02*
X106184047Y-48392857D01*
X106279285Y-48392857D01*
X106326904Y-48416666D01*
X106350714Y-48440476D01*
X106374523Y-48488095D01*
X106374523Y-48630952D01*
X106350714Y-48678571D01*
X106326904Y-48702380D01*
X106279285Y-48726190D01*
X106184047Y-48726190D01*
X106136428Y-48702380D01*
X106541190Y-48392857D02*
X106660238Y-48726190D01*
X106779285Y-48392857D02*
X106660238Y-48726190D01*
X106612619Y-48845238D01*
X106588809Y-48869047D01*
X106541190Y-48892857D01*
X106969761Y-48726190D02*
X106969761Y-48392857D01*
X106969761Y-48488095D02*
X106993571Y-48440476D01*
X107017380Y-48416666D01*
X107065000Y-48392857D01*
X107112619Y-48392857D01*
X107279285Y-48726190D02*
X107279285Y-48392857D01*
X107279285Y-48226190D02*
X107255476Y-48250000D01*
X107279285Y-48273809D01*
X107303095Y-48250000D01*
X107279285Y-48226190D01*
X107279285Y-48273809D01*
X107731666Y-48392857D02*
X107731666Y-48797619D01*
X107707857Y-48845238D01*
X107684047Y-48869047D01*
X107636428Y-48892857D01*
X107565000Y-48892857D01*
X107517380Y-48869047D01*
X107731666Y-48702380D02*
X107684047Y-48726190D01*
X107588809Y-48726190D01*
X107541190Y-48702380D01*
X107517380Y-48678571D01*
X107493571Y-48630952D01*
X107493571Y-48488095D01*
X107517380Y-48440476D01*
X107541190Y-48416666D01*
X107588809Y-48392857D01*
X107684047Y-48392857D01*
X107731666Y-48416666D01*
X107969761Y-48726190D02*
X107969761Y-48226190D01*
X108184047Y-48726190D02*
X108184047Y-48464285D01*
X108160238Y-48416666D01*
X108112619Y-48392857D01*
X108041190Y-48392857D01*
X107993571Y-48416666D01*
X107969761Y-48440476D01*
X108350714Y-48392857D02*
X108541190Y-48392857D01*
X108422142Y-48226190D02*
X108422142Y-48654761D01*
X108445952Y-48702380D01*
X108493571Y-48726190D01*
X108541190Y-48726190D01*
X109231666Y-48916666D02*
X109207857Y-48892857D01*
X109160238Y-48821428D01*
X109136428Y-48773809D01*
X109112619Y-48702380D01*
X109088809Y-48583333D01*
X109088809Y-48488095D01*
X109112619Y-48369047D01*
X109136428Y-48297619D01*
X109160238Y-48250000D01*
X109207857Y-48178571D01*
X109231666Y-48154761D01*
X109636428Y-48702380D02*
X109588809Y-48726190D01*
X109493571Y-48726190D01*
X109445952Y-48702380D01*
X109422142Y-48678571D01*
X109398333Y-48630952D01*
X109398333Y-48488095D01*
X109422142Y-48440476D01*
X109445952Y-48416666D01*
X109493571Y-48392857D01*
X109588809Y-48392857D01*
X109636428Y-48416666D01*
X109803095Y-48916666D02*
X109826904Y-48892857D01*
X109874523Y-48821428D01*
X109898333Y-48773809D01*
X109922142Y-48702380D01*
X109945952Y-48583333D01*
X109945952Y-48488095D01*
X109922142Y-48369047D01*
X109898333Y-48297619D01*
X109874523Y-48250000D01*
X109826904Y-48178571D01*
X109803095Y-48154761D01*
X110660238Y-48226190D02*
X110755476Y-48226190D01*
X110803095Y-48250000D01*
X110850714Y-48297619D01*
X110874523Y-48392857D01*
X110874523Y-48559523D01*
X110850714Y-48654761D01*
X110803095Y-48702380D01*
X110755476Y-48726190D01*
X110660238Y-48726190D01*
X110612619Y-48702380D01*
X110565000Y-48654761D01*
X110541190Y-48559523D01*
X110541190Y-48392857D01*
X110565000Y-48297619D01*
X110612619Y-48250000D01*
X110660238Y-48226190D01*
X111088809Y-48392857D02*
X111088809Y-48892857D01*
X111088809Y-48416666D02*
X111136428Y-48392857D01*
X111231666Y-48392857D01*
X111279285Y-48416666D01*
X111303095Y-48440476D01*
X111326904Y-48488095D01*
X111326904Y-48630952D01*
X111303095Y-48678571D01*
X111279285Y-48702380D01*
X111231666Y-48726190D01*
X111136428Y-48726190D01*
X111088809Y-48702380D01*
X111731666Y-48702380D02*
X111684047Y-48726190D01*
X111588809Y-48726190D01*
X111541190Y-48702380D01*
X111517380Y-48654761D01*
X111517380Y-48464285D01*
X111541190Y-48416666D01*
X111588809Y-48392857D01*
X111684047Y-48392857D01*
X111731666Y-48416666D01*
X111755476Y-48464285D01*
X111755476Y-48511904D01*
X111517380Y-48559523D01*
X111969761Y-48392857D02*
X111969761Y-48726190D01*
X111969761Y-48440476D02*
X111993571Y-48416666D01*
X112041190Y-48392857D01*
X112112619Y-48392857D01*
X112160238Y-48416666D01*
X112184047Y-48464285D01*
X112184047Y-48726190D01*
X112350714Y-48392857D02*
X112541190Y-48392857D01*
X112422142Y-48726190D02*
X112422142Y-48297619D01*
X112445952Y-48250000D01*
X112493571Y-48226190D01*
X112541190Y-48226190D01*
X112707857Y-48726190D02*
X112707857Y-48392857D01*
X112707857Y-48226190D02*
X112684047Y-48250000D01*
X112707857Y-48273809D01*
X112731666Y-48250000D01*
X112707857Y-48226190D01*
X112707857Y-48273809D01*
X112945952Y-48392857D02*
X112945952Y-48726190D01*
X112945952Y-48440476D02*
X112969761Y-48416666D01*
X113017380Y-48392857D01*
X113088809Y-48392857D01*
X113136428Y-48416666D01*
X113160238Y-48464285D01*
X113160238Y-48726190D01*
X113612619Y-48392857D02*
X113612619Y-48797619D01*
X113588809Y-48845238D01*
X113565000Y-48869047D01*
X113517380Y-48892857D01*
X113445952Y-48892857D01*
X113398333Y-48869047D01*
X113612619Y-48702380D02*
X113565000Y-48726190D01*
X113469761Y-48726190D01*
X113422142Y-48702380D01*
X113398333Y-48678571D01*
X113374523Y-48630952D01*
X113374523Y-48488095D01*
X113398333Y-48440476D01*
X113422142Y-48416666D01*
X113469761Y-48392857D01*
X113565000Y-48392857D01*
X113612619Y-48416666D01*
X114041190Y-48702380D02*
X113993571Y-48726190D01*
X113898333Y-48726190D01*
X113850714Y-48702380D01*
X113826904Y-48654761D01*
X113826904Y-48464285D01*
X113850714Y-48416666D01*
X113898333Y-48392857D01*
X113993571Y-48392857D01*
X114041190Y-48416666D01*
X114065000Y-48464285D01*
X114065000Y-48511904D01*
X113826904Y-48559523D01*
X114279285Y-48726190D02*
X114279285Y-48392857D01*
X114279285Y-48488095D02*
X114303095Y-48440476D01*
X114326904Y-48416666D01*
X114374523Y-48392857D01*
X114422142Y-48392857D01*
X114565000Y-48702380D02*
X114612619Y-48726190D01*
X114707857Y-48726190D01*
X114755476Y-48702380D01*
X114779285Y-48654761D01*
X114779285Y-48630952D01*
X114755476Y-48583333D01*
X114707857Y-48559523D01*
X114636428Y-48559523D01*
X114588809Y-48535714D01*
X114565000Y-48488095D01*
X114565000Y-48464285D01*
X114588809Y-48416666D01*
X114636428Y-48392857D01*
X114707857Y-48392857D01*
X114755476Y-48416666D01*
X115660238Y-48678571D02*
X115636428Y-48702380D01*
X115565000Y-48726190D01*
X115517380Y-48726190D01*
X115445952Y-48702380D01*
X115398333Y-48654761D01*
X115374523Y-48607142D01*
X115350714Y-48511904D01*
X115350714Y-48440476D01*
X115374523Y-48345238D01*
X115398333Y-48297619D01*
X115445952Y-48250000D01*
X115517380Y-48226190D01*
X115565000Y-48226190D01*
X115636428Y-48250000D01*
X115660238Y-48273809D01*
X115945952Y-48726190D02*
X115898333Y-48702380D01*
X115874523Y-48678571D01*
X115850714Y-48630952D01*
X115850714Y-48488095D01*
X115874523Y-48440476D01*
X115898333Y-48416666D01*
X115945952Y-48392857D01*
X116017380Y-48392857D01*
X116065000Y-48416666D01*
X116088809Y-48440476D01*
X116112619Y-48488095D01*
X116112619Y-48630952D01*
X116088809Y-48678571D01*
X116065000Y-48702380D01*
X116017380Y-48726190D01*
X115945952Y-48726190D01*
X116326904Y-48678571D02*
X116350714Y-48702380D01*
X116326904Y-48726190D01*
X116303095Y-48702380D01*
X116326904Y-48678571D01*
X116326904Y-48726190D01*
X116588809Y-48702380D02*
X116588809Y-48726190D01*
X116565000Y-48773809D01*
X116541190Y-48797619D01*
X117422142Y-48726190D02*
X117184047Y-48726190D01*
X117184047Y-48226190D01*
X117517380Y-48392857D02*
X117707857Y-48392857D01*
X117588809Y-48226190D02*
X117588809Y-48654761D01*
X117612619Y-48702380D01*
X117660238Y-48726190D01*
X117707857Y-48726190D01*
X118088809Y-48726190D02*
X118088809Y-48226190D01*
X118088809Y-48702380D02*
X118041190Y-48726190D01*
X117945952Y-48726190D01*
X117898333Y-48702380D01*
X117874523Y-48678571D01*
X117850714Y-48630952D01*
X117850714Y-48488095D01*
X117874523Y-48440476D01*
X117898333Y-48416666D01*
X117945952Y-48392857D01*
X118041190Y-48392857D01*
X118088809Y-48416666D01*
X118326904Y-48678571D02*
X118350714Y-48702380D01*
X118326904Y-48726190D01*
X118303095Y-48702380D01*
X118326904Y-48678571D01*
X118326904Y-48726190D01*
X105184047Y-47726190D02*
X105184047Y-47226190D01*
X105350714Y-47583333D01*
X105517380Y-47226190D01*
X105517380Y-47726190D01*
X105755476Y-47464285D02*
X105922142Y-47464285D01*
X105993571Y-47726190D02*
X105755476Y-47726190D01*
X105755476Y-47226190D01*
X105993571Y-47226190D01*
X106207857Y-47678571D02*
X106231666Y-47702380D01*
X106207857Y-47726190D01*
X106184047Y-47702380D01*
X106207857Y-47678571D01*
X106207857Y-47726190D01*
X106207857Y-47416666D02*
X106231666Y-47440476D01*
X106207857Y-47464285D01*
X106184047Y-47440476D01*
X106207857Y-47416666D01*
X106207857Y-47464285D01*
X106445952Y-47726190D02*
X106445952Y-47226190D01*
X106612619Y-47583333D01*
X106779285Y-47226190D01*
X106779285Y-47726190D01*
X106993571Y-47583333D02*
X107231666Y-47583333D01*
X106945952Y-47726190D02*
X107112619Y-47226190D01*
X107279285Y-47726190D01*
X107445952Y-47726190D02*
X107445952Y-47226190D01*
X107731666Y-47726190D02*
X107517380Y-47440476D01*
X107731666Y-47226190D02*
X107445952Y-47511904D01*
X107945952Y-47464285D02*
X108112619Y-47464285D01*
X108184047Y-47726190D02*
X107945952Y-47726190D01*
X107945952Y-47226190D01*
X108184047Y-47226190D01*
X108684047Y-47726190D02*
X108517380Y-47488095D01*
X108398333Y-47726190D02*
X108398333Y-47226190D01*
X108588809Y-47226190D01*
X108636428Y-47250000D01*
X108660238Y-47273809D01*
X108684047Y-47321428D01*
X108684047Y-47392857D01*
X108660238Y-47440476D01*
X108636428Y-47464285D01*
X108588809Y-47488095D01*
X108398333Y-47488095D01*
X109279285Y-47726190D02*
X109279285Y-47226190D01*
X109469761Y-47226190D01*
X109517380Y-47250000D01*
X109541190Y-47273809D01*
X109565000Y-47321428D01*
X109565000Y-47392857D01*
X109541190Y-47440476D01*
X109517380Y-47464285D01*
X109469761Y-47488095D01*
X109279285Y-47488095D01*
X109850714Y-47726190D02*
X109803095Y-47702380D01*
X109779285Y-47678571D01*
X109755476Y-47630952D01*
X109755476Y-47488095D01*
X109779285Y-47440476D01*
X109803095Y-47416666D01*
X109850714Y-47392857D01*
X109922142Y-47392857D01*
X109969761Y-47416666D01*
X109993571Y-47440476D01*
X110017380Y-47488095D01*
X110017380Y-47630952D01*
X109993571Y-47678571D01*
X109969761Y-47702380D01*
X109922142Y-47726190D01*
X109850714Y-47726190D01*
X110184047Y-47392857D02*
X110279285Y-47726190D01*
X110374523Y-47488095D01*
X110469761Y-47726190D01*
X110565000Y-47392857D01*
X110945952Y-47702380D02*
X110898333Y-47726190D01*
X110803095Y-47726190D01*
X110755476Y-47702380D01*
X110731666Y-47654761D01*
X110731666Y-47464285D01*
X110755476Y-47416666D01*
X110803095Y-47392857D01*
X110898333Y-47392857D01*
X110945952Y-47416666D01*
X110969761Y-47464285D01*
X110969761Y-47511904D01*
X110731666Y-47559523D01*
X111184047Y-47726190D02*
X111184047Y-47392857D01*
X111184047Y-47488095D02*
X111207857Y-47440476D01*
X111231666Y-47416666D01*
X111279285Y-47392857D01*
X111326904Y-47392857D01*
X111850714Y-47702380D02*
X111922142Y-47726190D01*
X112041190Y-47726190D01*
X112088809Y-47702380D01*
X112112619Y-47678571D01*
X112136428Y-47630952D01*
X112136428Y-47583333D01*
X112112619Y-47535714D01*
X112088809Y-47511904D01*
X112041190Y-47488095D01*
X111945952Y-47464285D01*
X111898333Y-47440476D01*
X111874523Y-47416666D01*
X111850714Y-47369047D01*
X111850714Y-47321428D01*
X111874523Y-47273809D01*
X111898333Y-47250000D01*
X111945952Y-47226190D01*
X112065000Y-47226190D01*
X112136428Y-47250000D01*
X112565000Y-47392857D02*
X112565000Y-47726190D01*
X112350714Y-47392857D02*
X112350714Y-47654761D01*
X112374523Y-47702380D01*
X112422142Y-47726190D01*
X112493571Y-47726190D01*
X112541190Y-47702380D01*
X112565000Y-47678571D01*
X112803095Y-47392857D02*
X112803095Y-47892857D01*
X112803095Y-47416666D02*
X112850714Y-47392857D01*
X112945952Y-47392857D01*
X112993571Y-47416666D01*
X113017380Y-47440476D01*
X113041190Y-47488095D01*
X113041190Y-47630952D01*
X113017380Y-47678571D01*
X112993571Y-47702380D01*
X112945952Y-47726190D01*
X112850714Y-47726190D01*
X112803095Y-47702380D01*
X113255476Y-47392857D02*
X113255476Y-47892857D01*
X113255476Y-47416666D02*
X113303095Y-47392857D01*
X113398333Y-47392857D01*
X113445952Y-47416666D01*
X113469761Y-47440476D01*
X113493571Y-47488095D01*
X113493571Y-47630952D01*
X113469761Y-47678571D01*
X113445952Y-47702380D01*
X113398333Y-47726190D01*
X113303095Y-47726190D01*
X113255476Y-47702380D01*
X113779285Y-47726190D02*
X113731666Y-47702380D01*
X113707857Y-47654761D01*
X113707857Y-47226190D01*
X113922142Y-47392857D02*
X114041190Y-47726190D01*
X114160238Y-47392857D02*
X114041190Y-47726190D01*
X113993571Y-47845238D01*
X113969761Y-47869047D01*
X113922142Y-47892857D01*
X114660238Y-47226190D02*
X114826904Y-47726190D01*
X114993571Y-47226190D01*
X115422142Y-47726190D02*
X115136428Y-47726190D01*
X115279285Y-47726190D02*
X115279285Y-47226190D01*
X115231666Y-47297619D01*
X115184047Y-47345238D01*
X115136428Y-47369047D01*
X115636428Y-47678571D02*
X115660238Y-47702380D01*
X115636428Y-47726190D01*
X115612619Y-47702380D01*
X115636428Y-47678571D01*
X115636428Y-47726190D01*
X115969761Y-47226190D02*
X116017380Y-47226190D01*
X116065000Y-47250000D01*
X116088809Y-47273809D01*
X116112619Y-47321428D01*
X116136428Y-47416666D01*
X116136428Y-47535714D01*
X116112619Y-47630952D01*
X116088809Y-47678571D01*
X116065000Y-47702380D01*
X116017380Y-47726190D01*
X115969761Y-47726190D01*
X115922142Y-47702380D01*
X115898333Y-47678571D01*
X115874523Y-47630952D01*
X115850714Y-47535714D01*
X115850714Y-47416666D01*
X115874523Y-47321428D01*
X115898333Y-47273809D01*
X115922142Y-47250000D01*
X115969761Y-47226190D01*
D10*
X151119047Y-35571428D02*
X151880952Y-35571428D01*
X151500000Y-35952380D02*
X151500000Y-35190476D01*
X153119047Y-35571428D02*
X153880952Y-35571428D01*
D12*
G36*
X151876964Y-42290018D02*
G01*
X151933812Y-42591570D01*
X152353338Y-42764512D01*
X152604984Y-42593395D01*
X152675458Y-42545750D01*
X152739163Y-42503210D01*
X152793126Y-42467715D01*
X152834373Y-42441210D01*
X152859934Y-42425636D01*
X152866895Y-42422278D01*
X152879435Y-42430914D01*
X152906231Y-42454792D01*
X152944280Y-42490859D01*
X152990579Y-42536067D01*
X153042123Y-42587364D01*
X153095909Y-42641701D01*
X153148935Y-42696028D01*
X153198195Y-42747295D01*
X153240687Y-42792451D01*
X153273407Y-42828446D01*
X153293351Y-42852230D01*
X153298119Y-42860190D01*
X153291257Y-42874865D01*
X153272020Y-42907014D01*
X153242430Y-42953492D01*
X153204510Y-43011156D01*
X153160282Y-43076860D01*
X153134654Y-43114336D01*
X153087941Y-43182768D01*
X153046432Y-43244520D01*
X153012140Y-43296519D01*
X152987080Y-43335692D01*
X152973264Y-43358965D01*
X152971188Y-43363855D01*
X152975895Y-43377755D01*
X152988723Y-43410150D01*
X153007738Y-43456485D01*
X153031003Y-43512206D01*
X153056584Y-43572758D01*
X153082545Y-43633586D01*
X153106950Y-43690136D01*
X153127863Y-43737852D01*
X153143349Y-43772181D01*
X153151472Y-43788568D01*
X153151952Y-43789212D01*
X153164707Y-43792341D01*
X153198677Y-43799321D01*
X153250340Y-43809467D01*
X153316176Y-43822092D01*
X153392664Y-43836509D01*
X153437290Y-43844823D01*
X153519021Y-43860384D01*
X153592843Y-43875192D01*
X153655021Y-43888436D01*
X153701822Y-43899305D01*
X153729509Y-43906989D01*
X153735074Y-43909427D01*
X153740526Y-43925930D01*
X153744924Y-43963200D01*
X153748272Y-44016880D01*
X153750574Y-44082612D01*
X153751832Y-44156037D01*
X153752048Y-44232796D01*
X153751227Y-44308532D01*
X153749371Y-44378886D01*
X153746482Y-44439500D01*
X153742565Y-44486016D01*
X153737622Y-44514075D01*
X153734657Y-44519916D01*
X153716934Y-44526917D01*
X153679381Y-44536927D01*
X153626964Y-44548769D01*
X153564652Y-44561267D01*
X153542900Y-44565310D01*
X153438024Y-44584520D01*
X153355180Y-44599991D01*
X153291630Y-44612337D01*
X153244637Y-44622173D01*
X153211463Y-44630114D01*
X153189371Y-44636776D01*
X153175624Y-44642773D01*
X153167484Y-44648719D01*
X153166345Y-44649894D01*
X153154977Y-44668826D01*
X153137635Y-44705669D01*
X153116050Y-44755913D01*
X153091954Y-44815046D01*
X153067079Y-44878556D01*
X153043157Y-44941932D01*
X153021919Y-45000662D01*
X153005097Y-45050235D01*
X152994422Y-45086139D01*
X152991627Y-45103862D01*
X152991860Y-45104483D01*
X153001331Y-45118970D01*
X153022818Y-45150844D01*
X153054063Y-45196789D01*
X153092807Y-45253485D01*
X153136793Y-45317617D01*
X153149319Y-45335842D01*
X153193984Y-45401914D01*
X153233288Y-45462200D01*
X153265088Y-45513235D01*
X153287245Y-45551560D01*
X153297617Y-45573711D01*
X153298119Y-45576432D01*
X153289405Y-45590736D01*
X153265325Y-45619072D01*
X153228976Y-45658396D01*
X153183453Y-45705661D01*
X153131852Y-45757823D01*
X153077267Y-45811835D01*
X153022794Y-45864653D01*
X152971529Y-45913231D01*
X152926567Y-45954523D01*
X152891004Y-45985485D01*
X152867935Y-46003070D01*
X152861554Y-46005941D01*
X152846699Y-45999178D01*
X152816286Y-45980939D01*
X152775268Y-45954297D01*
X152743709Y-45932852D01*
X152686525Y-45893503D01*
X152618806Y-45847171D01*
X152550880Y-45800913D01*
X152514361Y-45776155D01*
X152390752Y-45692547D01*
X152286991Y-45748650D01*
X152239720Y-45773228D01*
X152199523Y-45792331D01*
X152172326Y-45803227D01*
X152165402Y-45804743D01*
X152157077Y-45793549D01*
X152140654Y-45761917D01*
X152117357Y-45712765D01*
X152088414Y-45649010D01*
X152055050Y-45573571D01*
X152018491Y-45489364D01*
X151979964Y-45399308D01*
X151940694Y-45306321D01*
X151901908Y-45213320D01*
X151864830Y-45123223D01*
X151830689Y-45038948D01*
X151800708Y-44963413D01*
X151776116Y-44899534D01*
X151758136Y-44850231D01*
X151747997Y-44818421D01*
X151746366Y-44807496D01*
X151759291Y-44793561D01*
X151787589Y-44770940D01*
X151825346Y-44744333D01*
X151828515Y-44742228D01*
X151926100Y-44664114D01*
X152004786Y-44572982D01*
X152063891Y-44471745D01*
X152102732Y-44363318D01*
X152120628Y-44250614D01*
X152116897Y-44136548D01*
X152090857Y-44024034D01*
X152041825Y-43915985D01*
X152027400Y-43892345D01*
X151952369Y-43796887D01*
X151863730Y-43720232D01*
X151764549Y-43662780D01*
X151657895Y-43624929D01*
X151546836Y-43607078D01*
X151434439Y-43609625D01*
X151323773Y-43632970D01*
X151217906Y-43677510D01*
X151119905Y-43743645D01*
X151089590Y-43770487D01*
X151012438Y-43854512D01*
X150956218Y-43942966D01*
X150917653Y-44042115D01*
X150896174Y-44140303D01*
X150890872Y-44250697D01*
X150908552Y-44361640D01*
X150947419Y-44469381D01*
X151005677Y-44570169D01*
X151081531Y-44660256D01*
X151173183Y-44735892D01*
X151185228Y-44743864D01*
X151223389Y-44769974D01*
X151252399Y-44792595D01*
X151266268Y-44807039D01*
X151266469Y-44807496D01*
X151263492Y-44823121D01*
X151251689Y-44858582D01*
X151232286Y-44910962D01*
X151206512Y-44977345D01*
X151175591Y-45054814D01*
X151140751Y-45140450D01*
X151103217Y-45231337D01*
X151064217Y-45324559D01*
X151024977Y-45417197D01*
X150986724Y-45506335D01*
X150950683Y-45589055D01*
X150918083Y-45662441D01*
X150890148Y-45723575D01*
X150868105Y-45769541D01*
X150853182Y-45797421D01*
X150847172Y-45804743D01*
X150828809Y-45799041D01*
X150794448Y-45783749D01*
X150750016Y-45761599D01*
X150725583Y-45748650D01*
X150621822Y-45692547D01*
X150498213Y-45776155D01*
X150435114Y-45818987D01*
X150366030Y-45866122D01*
X150301293Y-45910503D01*
X150268866Y-45932852D01*
X150223259Y-45963477D01*
X150184640Y-45987747D01*
X150158048Y-46002587D01*
X150149410Y-46005724D01*
X150136839Y-45997261D01*
X150109016Y-45973636D01*
X150068639Y-45937302D01*
X150018405Y-45890711D01*
X149961012Y-45836317D01*
X149924714Y-45801392D01*
X149861210Y-45738996D01*
X149806327Y-45683188D01*
X149762286Y-45636354D01*
X149731305Y-45600882D01*
X149715602Y-45579161D01*
X149714095Y-45574752D01*
X149721086Y-45557985D01*
X149740406Y-45524082D01*
X149769909Y-45476476D01*
X149807455Y-45418599D01*
X149850900Y-45353884D01*
X149863255Y-45335842D01*
X149908273Y-45270267D01*
X149948660Y-45211228D01*
X149982160Y-45162042D01*
X150006514Y-45126028D01*
X150019464Y-45106502D01*
X150020715Y-45104483D01*
X150018844Y-45088922D01*
X150008913Y-45054709D01*
X149992653Y-45006355D01*
X149971795Y-44948371D01*
X149948073Y-44885270D01*
X149923216Y-44821563D01*
X149898958Y-44761761D01*
X149877029Y-44710376D01*
X149859162Y-44671919D01*
X149847087Y-44650902D01*
X149846229Y-44649894D01*
X149838846Y-44643888D01*
X149826375Y-44637948D01*
X149806080Y-44631460D01*
X149775222Y-44623809D01*
X149731066Y-44614380D01*
X149670874Y-44602559D01*
X149591907Y-44587729D01*
X149491430Y-44569277D01*
X149469675Y-44565310D01*
X149405198Y-44552853D01*
X149348989Y-44540666D01*
X149306013Y-44529926D01*
X149281240Y-44521809D01*
X149277918Y-44519916D01*
X149272444Y-44503138D01*
X149267994Y-44465645D01*
X149264572Y-44411794D01*
X149262181Y-44345944D01*
X149260823Y-44272453D01*
X149260501Y-44195680D01*
X149261219Y-44119983D01*
X149262979Y-44049720D01*
X149265784Y-43989250D01*
X149269638Y-43942930D01*
X149274543Y-43915119D01*
X149277500Y-43909427D01*
X149293963Y-43903686D01*
X149331449Y-43894345D01*
X149386225Y-43882215D01*
X149454555Y-43868107D01*
X149532706Y-43852830D01*
X149575284Y-43844823D01*
X149656071Y-43829721D01*
X149728113Y-43816040D01*
X149787889Y-43804467D01*
X149831879Y-43795687D01*
X149856561Y-43790387D01*
X149860623Y-43789212D01*
X149867489Y-43775965D01*
X149882002Y-43744057D01*
X149902229Y-43698047D01*
X149926234Y-43642492D01*
X149952082Y-43581953D01*
X149977840Y-43520986D01*
X150001573Y-43464151D01*
X150021346Y-43416006D01*
X150035224Y-43381110D01*
X150041274Y-43364021D01*
X150041386Y-43363274D01*
X150034528Y-43349793D01*
X150015302Y-43318770D01*
X149985728Y-43273289D01*
X149947827Y-43216432D01*
X149903620Y-43151283D01*
X149877921Y-43113862D01*
X149831093Y-43045247D01*
X149789501Y-42982952D01*
X149755175Y-42930129D01*
X149730143Y-42889927D01*
X149716435Y-42865500D01*
X149714456Y-42860024D01*
X149722966Y-42847278D01*
X149746493Y-42820063D01*
X149782032Y-42781428D01*
X149826577Y-42734423D01*
X149877123Y-42682095D01*
X149930664Y-42627495D01*
X149984195Y-42573670D01*
X150034711Y-42523670D01*
X150079206Y-42480543D01*
X150114675Y-42447339D01*
X150138113Y-42427106D01*
X150145954Y-42422278D01*
X150158720Y-42429067D01*
X150189256Y-42448142D01*
X150234590Y-42477561D01*
X150291756Y-42515381D01*
X150357784Y-42559661D01*
X150407590Y-42593395D01*
X150659236Y-42764512D01*
X150868999Y-42678041D01*
X151078763Y-42591570D01*
X151135611Y-42290018D01*
X151192460Y-41988466D01*
X151820115Y-41988466D01*
X151876964Y-42290018D01*
X151876964Y-42290018D01*
G37*
X151876964Y-42290018D02*
X151933812Y-42591570D01*
X152353338Y-42764512D01*
X152604984Y-42593395D01*
X152675458Y-42545750D01*
X152739163Y-42503210D01*
X152793126Y-42467715D01*
X152834373Y-42441210D01*
X152859934Y-42425636D01*
X152866895Y-42422278D01*
X152879435Y-42430914D01*
X152906231Y-42454792D01*
X152944280Y-42490859D01*
X152990579Y-42536067D01*
X153042123Y-42587364D01*
X153095909Y-42641701D01*
X153148935Y-42696028D01*
X153198195Y-42747295D01*
X153240687Y-42792451D01*
X153273407Y-42828446D01*
X153293351Y-42852230D01*
X153298119Y-42860190D01*
X153291257Y-42874865D01*
X153272020Y-42907014D01*
X153242430Y-42953492D01*
X153204510Y-43011156D01*
X153160282Y-43076860D01*
X153134654Y-43114336D01*
X153087941Y-43182768D01*
X153046432Y-43244520D01*
X153012140Y-43296519D01*
X152987080Y-43335692D01*
X152973264Y-43358965D01*
X152971188Y-43363855D01*
X152975895Y-43377755D01*
X152988723Y-43410150D01*
X153007738Y-43456485D01*
X153031003Y-43512206D01*
X153056584Y-43572758D01*
X153082545Y-43633586D01*
X153106950Y-43690136D01*
X153127863Y-43737852D01*
X153143349Y-43772181D01*
X153151472Y-43788568D01*
X153151952Y-43789212D01*
X153164707Y-43792341D01*
X153198677Y-43799321D01*
X153250340Y-43809467D01*
X153316176Y-43822092D01*
X153392664Y-43836509D01*
X153437290Y-43844823D01*
X153519021Y-43860384D01*
X153592843Y-43875192D01*
X153655021Y-43888436D01*
X153701822Y-43899305D01*
X153729509Y-43906989D01*
X153735074Y-43909427D01*
X153740526Y-43925930D01*
X153744924Y-43963200D01*
X153748272Y-44016880D01*
X153750574Y-44082612D01*
X153751832Y-44156037D01*
X153752048Y-44232796D01*
X153751227Y-44308532D01*
X153749371Y-44378886D01*
X153746482Y-44439500D01*
X153742565Y-44486016D01*
X153737622Y-44514075D01*
X153734657Y-44519916D01*
X153716934Y-44526917D01*
X153679381Y-44536927D01*
X153626964Y-44548769D01*
X153564652Y-44561267D01*
X153542900Y-44565310D01*
X153438024Y-44584520D01*
X153355180Y-44599991D01*
X153291630Y-44612337D01*
X153244637Y-44622173D01*
X153211463Y-44630114D01*
X153189371Y-44636776D01*
X153175624Y-44642773D01*
X153167484Y-44648719D01*
X153166345Y-44649894D01*
X153154977Y-44668826D01*
X153137635Y-44705669D01*
X153116050Y-44755913D01*
X153091954Y-44815046D01*
X153067079Y-44878556D01*
X153043157Y-44941932D01*
X153021919Y-45000662D01*
X153005097Y-45050235D01*
X152994422Y-45086139D01*
X152991627Y-45103862D01*
X152991860Y-45104483D01*
X153001331Y-45118970D01*
X153022818Y-45150844D01*
X153054063Y-45196789D01*
X153092807Y-45253485D01*
X153136793Y-45317617D01*
X153149319Y-45335842D01*
X153193984Y-45401914D01*
X153233288Y-45462200D01*
X153265088Y-45513235D01*
X153287245Y-45551560D01*
X153297617Y-45573711D01*
X153298119Y-45576432D01*
X153289405Y-45590736D01*
X153265325Y-45619072D01*
X153228976Y-45658396D01*
X153183453Y-45705661D01*
X153131852Y-45757823D01*
X153077267Y-45811835D01*
X153022794Y-45864653D01*
X152971529Y-45913231D01*
X152926567Y-45954523D01*
X152891004Y-45985485D01*
X152867935Y-46003070D01*
X152861554Y-46005941D01*
X152846699Y-45999178D01*
X152816286Y-45980939D01*
X152775268Y-45954297D01*
X152743709Y-45932852D01*
X152686525Y-45893503D01*
X152618806Y-45847171D01*
X152550880Y-45800913D01*
X152514361Y-45776155D01*
X152390752Y-45692547D01*
X152286991Y-45748650D01*
X152239720Y-45773228D01*
X152199523Y-45792331D01*
X152172326Y-45803227D01*
X152165402Y-45804743D01*
X152157077Y-45793549D01*
X152140654Y-45761917D01*
X152117357Y-45712765D01*
X152088414Y-45649010D01*
X152055050Y-45573571D01*
X152018491Y-45489364D01*
X151979964Y-45399308D01*
X151940694Y-45306321D01*
X151901908Y-45213320D01*
X151864830Y-45123223D01*
X151830689Y-45038948D01*
X151800708Y-44963413D01*
X151776116Y-44899534D01*
X151758136Y-44850231D01*
X151747997Y-44818421D01*
X151746366Y-44807496D01*
X151759291Y-44793561D01*
X151787589Y-44770940D01*
X151825346Y-44744333D01*
X151828515Y-44742228D01*
X151926100Y-44664114D01*
X152004786Y-44572982D01*
X152063891Y-44471745D01*
X152102732Y-44363318D01*
X152120628Y-44250614D01*
X152116897Y-44136548D01*
X152090857Y-44024034D01*
X152041825Y-43915985D01*
X152027400Y-43892345D01*
X151952369Y-43796887D01*
X151863730Y-43720232D01*
X151764549Y-43662780D01*
X151657895Y-43624929D01*
X151546836Y-43607078D01*
X151434439Y-43609625D01*
X151323773Y-43632970D01*
X151217906Y-43677510D01*
X151119905Y-43743645D01*
X151089590Y-43770487D01*
X151012438Y-43854512D01*
X150956218Y-43942966D01*
X150917653Y-44042115D01*
X150896174Y-44140303D01*
X150890872Y-44250697D01*
X150908552Y-44361640D01*
X150947419Y-44469381D01*
X151005677Y-44570169D01*
X151081531Y-44660256D01*
X151173183Y-44735892D01*
X151185228Y-44743864D01*
X151223389Y-44769974D01*
X151252399Y-44792595D01*
X151266268Y-44807039D01*
X151266469Y-44807496D01*
X151263492Y-44823121D01*
X151251689Y-44858582D01*
X151232286Y-44910962D01*
X151206512Y-44977345D01*
X151175591Y-45054814D01*
X151140751Y-45140450D01*
X151103217Y-45231337D01*
X151064217Y-45324559D01*
X151024977Y-45417197D01*
X150986724Y-45506335D01*
X150950683Y-45589055D01*
X150918083Y-45662441D01*
X150890148Y-45723575D01*
X150868105Y-45769541D01*
X150853182Y-45797421D01*
X150847172Y-45804743D01*
X150828809Y-45799041D01*
X150794448Y-45783749D01*
X150750016Y-45761599D01*
X150725583Y-45748650D01*
X150621822Y-45692547D01*
X150498213Y-45776155D01*
X150435114Y-45818987D01*
X150366030Y-45866122D01*
X150301293Y-45910503D01*
X150268866Y-45932852D01*
X150223259Y-45963477D01*
X150184640Y-45987747D01*
X150158048Y-46002587D01*
X150149410Y-46005724D01*
X150136839Y-45997261D01*
X150109016Y-45973636D01*
X150068639Y-45937302D01*
X150018405Y-45890711D01*
X149961012Y-45836317D01*
X149924714Y-45801392D01*
X149861210Y-45738996D01*
X149806327Y-45683188D01*
X149762286Y-45636354D01*
X149731305Y-45600882D01*
X149715602Y-45579161D01*
X149714095Y-45574752D01*
X149721086Y-45557985D01*
X149740406Y-45524082D01*
X149769909Y-45476476D01*
X149807455Y-45418599D01*
X149850900Y-45353884D01*
X149863255Y-45335842D01*
X149908273Y-45270267D01*
X149948660Y-45211228D01*
X149982160Y-45162042D01*
X150006514Y-45126028D01*
X150019464Y-45106502D01*
X150020715Y-45104483D01*
X150018844Y-45088922D01*
X150008913Y-45054709D01*
X149992653Y-45006355D01*
X149971795Y-44948371D01*
X149948073Y-44885270D01*
X149923216Y-44821563D01*
X149898958Y-44761761D01*
X149877029Y-44710376D01*
X149859162Y-44671919D01*
X149847087Y-44650902D01*
X149846229Y-44649894D01*
X149838846Y-44643888D01*
X149826375Y-44637948D01*
X149806080Y-44631460D01*
X149775222Y-44623809D01*
X149731066Y-44614380D01*
X149670874Y-44602559D01*
X149591907Y-44587729D01*
X149491430Y-44569277D01*
X149469675Y-44565310D01*
X149405198Y-44552853D01*
X149348989Y-44540666D01*
X149306013Y-44529926D01*
X149281240Y-44521809D01*
X149277918Y-44519916D01*
X149272444Y-44503138D01*
X149267994Y-44465645D01*
X149264572Y-44411794D01*
X149262181Y-44345944D01*
X149260823Y-44272453D01*
X149260501Y-44195680D01*
X149261219Y-44119983D01*
X149262979Y-44049720D01*
X149265784Y-43989250D01*
X149269638Y-43942930D01*
X149274543Y-43915119D01*
X149277500Y-43909427D01*
X149293963Y-43903686D01*
X149331449Y-43894345D01*
X149386225Y-43882215D01*
X149454555Y-43868107D01*
X149532706Y-43852830D01*
X149575284Y-43844823D01*
X149656071Y-43829721D01*
X149728113Y-43816040D01*
X149787889Y-43804467D01*
X149831879Y-43795687D01*
X149856561Y-43790387D01*
X149860623Y-43789212D01*
X149867489Y-43775965D01*
X149882002Y-43744057D01*
X149902229Y-43698047D01*
X149926234Y-43642492D01*
X149952082Y-43581953D01*
X149977840Y-43520986D01*
X150001573Y-43464151D01*
X150021346Y-43416006D01*
X150035224Y-43381110D01*
X150041274Y-43364021D01*
X150041386Y-43363274D01*
X150034528Y-43349793D01*
X150015302Y-43318770D01*
X149985728Y-43273289D01*
X149947827Y-43216432D01*
X149903620Y-43151283D01*
X149877921Y-43113862D01*
X149831093Y-43045247D01*
X149789501Y-42982952D01*
X149755175Y-42930129D01*
X149730143Y-42889927D01*
X149716435Y-42865500D01*
X149714456Y-42860024D01*
X149722966Y-42847278D01*
X149746493Y-42820063D01*
X149782032Y-42781428D01*
X149826577Y-42734423D01*
X149877123Y-42682095D01*
X149930664Y-42627495D01*
X149984195Y-42573670D01*
X150034711Y-42523670D01*
X150079206Y-42480543D01*
X150114675Y-42447339D01*
X150138113Y-42427106D01*
X150145954Y-42422278D01*
X150158720Y-42429067D01*
X150189256Y-42448142D01*
X150234590Y-42477561D01*
X150291756Y-42515381D01*
X150357784Y-42559661D01*
X150407590Y-42593395D01*
X150659236Y-42764512D01*
X150868999Y-42678041D01*
X151078763Y-42591570D01*
X151135611Y-42290018D01*
X151192460Y-41988466D01*
X151820115Y-41988466D01*
X151876964Y-42290018D01*
G36*
X153299460Y-46458030D02*
G01*
X153342711Y-46471245D01*
X153370558Y-46487941D01*
X153379629Y-46501145D01*
X153377132Y-46516797D01*
X153360931Y-46541385D01*
X153347232Y-46558800D01*
X153318992Y-46590283D01*
X153297775Y-46603529D01*
X153279688Y-46602664D01*
X153226035Y-46589010D01*
X153186630Y-46589630D01*
X153154632Y-46605104D01*
X153143890Y-46614161D01*
X153109505Y-46646027D01*
X153109505Y-47062179D01*
X152971188Y-47062179D01*
X152971188Y-46458614D01*
X153040347Y-46458614D01*
X153081869Y-46460256D01*
X153103291Y-46466087D01*
X153109502Y-46477461D01*
X153109505Y-46477798D01*
X153112439Y-46489713D01*
X153125704Y-46488159D01*
X153144084Y-46479563D01*
X153182046Y-46463568D01*
X153212872Y-46453945D01*
X153252536Y-46451478D01*
X153299460Y-46458030D01*
X153299460Y-46458030D01*
G37*
X153299460Y-46458030D02*
X153342711Y-46471245D01*
X153370558Y-46487941D01*
X153379629Y-46501145D01*
X153377132Y-46516797D01*
X153360931Y-46541385D01*
X153347232Y-46558800D01*
X153318992Y-46590283D01*
X153297775Y-46603529D01*
X153279688Y-46602664D01*
X153226035Y-46589010D01*
X153186630Y-46589630D01*
X153154632Y-46605104D01*
X153143890Y-46614161D01*
X153109505Y-46646027D01*
X153109505Y-47062179D01*
X152971188Y-47062179D01*
X152971188Y-46458614D01*
X153040347Y-46458614D01*
X153081869Y-46460256D01*
X153103291Y-46466087D01*
X153109502Y-46477461D01*
X153109505Y-46477798D01*
X153112439Y-46489713D01*
X153125704Y-46488159D01*
X153144084Y-46479563D01*
X153182046Y-46463568D01*
X153212872Y-46453945D01*
X153252536Y-46451478D01*
X153299460Y-46458030D01*
G36*
X150745988Y-46469002D02*
G01*
X150777283Y-46483950D01*
X150807591Y-46505541D01*
X150830682Y-46530391D01*
X150847500Y-46562087D01*
X150858994Y-46604214D01*
X150866109Y-46660358D01*
X150869793Y-46734106D01*
X150870992Y-46829044D01*
X150871011Y-46838985D01*
X150871287Y-47062179D01*
X150732970Y-47062179D01*
X150732970Y-46856418D01*
X150732872Y-46780189D01*
X150732191Y-46724939D01*
X150730349Y-46686501D01*
X150726767Y-46660706D01*
X150720868Y-46643384D01*
X150712073Y-46630368D01*
X150699820Y-46617507D01*
X150656953Y-46589873D01*
X150610157Y-46584745D01*
X150565576Y-46602217D01*
X150550072Y-46615221D01*
X150538690Y-46627447D01*
X150530519Y-46640540D01*
X150525026Y-46658615D01*
X150521680Y-46685787D01*
X150519949Y-46726170D01*
X150519303Y-46783879D01*
X150519208Y-46854132D01*
X150519208Y-47062179D01*
X150380891Y-47062179D01*
X150380891Y-46458614D01*
X150450050Y-46458614D01*
X150491572Y-46460256D01*
X150512994Y-46466087D01*
X150519205Y-46477461D01*
X150519208Y-46477798D01*
X150522090Y-46488938D01*
X150534801Y-46487674D01*
X150560074Y-46475434D01*
X150617395Y-46457424D01*
X150682963Y-46455421D01*
X150745988Y-46469002D01*
X150745988Y-46469002D01*
G37*
X150745988Y-46469002D02*
X150777283Y-46483950D01*
X150807591Y-46505541D01*
X150830682Y-46530391D01*
X150847500Y-46562087D01*
X150858994Y-46604214D01*
X150866109Y-46660358D01*
X150869793Y-46734106D01*
X150870992Y-46829044D01*
X150871011Y-46838985D01*
X150871287Y-47062179D01*
X150732970Y-47062179D01*
X150732970Y-46856418D01*
X150732872Y-46780189D01*
X150732191Y-46724939D01*
X150730349Y-46686501D01*
X150726767Y-46660706D01*
X150720868Y-46643384D01*
X150712073Y-46630368D01*
X150699820Y-46617507D01*
X150656953Y-46589873D01*
X150610157Y-46584745D01*
X150565576Y-46602217D01*
X150550072Y-46615221D01*
X150538690Y-46627447D01*
X150530519Y-46640540D01*
X150525026Y-46658615D01*
X150521680Y-46685787D01*
X150519949Y-46726170D01*
X150519303Y-46783879D01*
X150519208Y-46854132D01*
X150519208Y-47062179D01*
X150380891Y-47062179D01*
X150380891Y-46458614D01*
X150450050Y-46458614D01*
X150491572Y-46460256D01*
X150512994Y-46466087D01*
X150519205Y-46477461D01*
X150519208Y-46477798D01*
X150522090Y-46488938D01*
X150534801Y-46487674D01*
X150560074Y-46475434D01*
X150617395Y-46457424D01*
X150682963Y-46455421D01*
X150745988Y-46469002D01*
G36*
X154177898Y-46456457D02*
G01*
X154210096Y-46464279D01*
X154271825Y-46492921D01*
X154324610Y-46536667D01*
X154361141Y-46589117D01*
X154366160Y-46600893D01*
X154373045Y-46631740D01*
X154377864Y-46677371D01*
X154379505Y-46723492D01*
X154379505Y-46810693D01*
X154197178Y-46810693D01*
X154121979Y-46810978D01*
X154069003Y-46812704D01*
X154035325Y-46817181D01*
X154018020Y-46825720D01*
X154014163Y-46839630D01*
X154020829Y-46860222D01*
X154032770Y-46884315D01*
X154066080Y-46924525D01*
X154112368Y-46944558D01*
X154168944Y-46943905D01*
X154233031Y-46922101D01*
X154288417Y-46895193D01*
X154334375Y-46931532D01*
X154380333Y-46967872D01*
X154337096Y-47007819D01*
X154279374Y-47045563D01*
X154208386Y-47068320D01*
X154132029Y-47074688D01*
X154058199Y-47063268D01*
X154046287Y-47059393D01*
X153981399Y-47025506D01*
X153933130Y-46974986D01*
X153900465Y-46906325D01*
X153882385Y-46818014D01*
X153882175Y-46816121D01*
X153880556Y-46719878D01*
X153887100Y-46685542D01*
X154014852Y-46685542D01*
X154026584Y-46690822D01*
X154058438Y-46694867D01*
X154105397Y-46697176D01*
X154135154Y-46697525D01*
X154190648Y-46697306D01*
X154225346Y-46695916D01*
X154243601Y-46692251D01*
X154249766Y-46685210D01*
X154248195Y-46673690D01*
X154246878Y-46669233D01*
X154224382Y-46627355D01*
X154189003Y-46593604D01*
X154157780Y-46578773D01*
X154116301Y-46579668D01*
X154074269Y-46598164D01*
X154039012Y-46628786D01*
X154017854Y-46666062D01*
X154014852Y-46685542D01*
X153887100Y-46685542D01*
X153896690Y-46635229D01*
X153928698Y-46564191D01*
X153974701Y-46508779D01*
X154032821Y-46471009D01*
X154101180Y-46452896D01*
X154177898Y-46456457D01*
X154177898Y-46456457D01*
G37*
X154177898Y-46456457D02*
X154210096Y-46464279D01*
X154271825Y-46492921D01*
X154324610Y-46536667D01*
X154361141Y-46589117D01*
X154366160Y-46600893D01*
X154373045Y-46631740D01*
X154377864Y-46677371D01*
X154379505Y-46723492D01*
X154379505Y-46810693D01*
X154197178Y-46810693D01*
X154121979Y-46810978D01*
X154069003Y-46812704D01*
X154035325Y-46817181D01*
X154018020Y-46825720D01*
X154014163Y-46839630D01*
X154020829Y-46860222D01*
X154032770Y-46884315D01*
X154066080Y-46924525D01*
X154112368Y-46944558D01*
X154168944Y-46943905D01*
X154233031Y-46922101D01*
X154288417Y-46895193D01*
X154334375Y-46931532D01*
X154380333Y-46967872D01*
X154337096Y-47007819D01*
X154279374Y-47045563D01*
X154208386Y-47068320D01*
X154132029Y-47074688D01*
X154058199Y-47063268D01*
X154046287Y-47059393D01*
X153981399Y-47025506D01*
X153933130Y-46974986D01*
X153900465Y-46906325D01*
X153882385Y-46818014D01*
X153882175Y-46816121D01*
X153880556Y-46719878D01*
X153887100Y-46685542D01*
X154014852Y-46685542D01*
X154026584Y-46690822D01*
X154058438Y-46694867D01*
X154105397Y-46697176D01*
X154135154Y-46697525D01*
X154190648Y-46697306D01*
X154225346Y-46695916D01*
X154243601Y-46692251D01*
X154249766Y-46685210D01*
X154248195Y-46673690D01*
X154246878Y-46669233D01*
X154224382Y-46627355D01*
X154189003Y-46593604D01*
X154157780Y-46578773D01*
X154116301Y-46579668D01*
X154074269Y-46598164D01*
X154039012Y-46628786D01*
X154017854Y-46666062D01*
X154014852Y-46685542D01*
X153887100Y-46685542D01*
X153896690Y-46635229D01*
X153928698Y-46564191D01*
X153974701Y-46508779D01*
X154032821Y-46471009D01*
X154101180Y-46452896D01*
X154177898Y-46456457D01*
G36*
X153717226Y-46463880D02*
G01*
X153790080Y-46494830D01*
X153813027Y-46509895D01*
X153842354Y-46533048D01*
X153860764Y-46551253D01*
X153863961Y-46557183D01*
X153854935Y-46570340D01*
X153831837Y-46592667D01*
X153813344Y-46608250D01*
X153762728Y-46648926D01*
X153722760Y-46615295D01*
X153691874Y-46593584D01*
X153661759Y-46586090D01*
X153627292Y-46587920D01*
X153572561Y-46601528D01*
X153534886Y-46629772D01*
X153511991Y-46675433D01*
X153501597Y-46741289D01*
X153501595Y-46741331D01*
X153502494Y-46814939D01*
X153516463Y-46868946D01*
X153544328Y-46905716D01*
X153563325Y-46918168D01*
X153613776Y-46933673D01*
X153667663Y-46933683D01*
X153714546Y-46918638D01*
X153725644Y-46911287D01*
X153753476Y-46892511D01*
X153775236Y-46889434D01*
X153798704Y-46903409D01*
X153824649Y-46928510D01*
X153865716Y-46970880D01*
X153820121Y-47008464D01*
X153749674Y-47050882D01*
X153670233Y-47071785D01*
X153587215Y-47070272D01*
X153532694Y-47056411D01*
X153468970Y-47022135D01*
X153418005Y-46968212D01*
X153394851Y-46930149D01*
X153376099Y-46875536D01*
X153366715Y-46806369D01*
X153366643Y-46731407D01*
X153375824Y-46659409D01*
X153394199Y-46599137D01*
X153397093Y-46592958D01*
X153439952Y-46532351D01*
X153497979Y-46488224D01*
X153566591Y-46461493D01*
X153641201Y-46453073D01*
X153717226Y-46463880D01*
X153717226Y-46463880D01*
G37*
X153717226Y-46463880D02*
X153790080Y-46494830D01*
X153813027Y-46509895D01*
X153842354Y-46533048D01*
X153860764Y-46551253D01*
X153863961Y-46557183D01*
X153854935Y-46570340D01*
X153831837Y-46592667D01*
X153813344Y-46608250D01*
X153762728Y-46648926D01*
X153722760Y-46615295D01*
X153691874Y-46593584D01*
X153661759Y-46586090D01*
X153627292Y-46587920D01*
X153572561Y-46601528D01*
X153534886Y-46629772D01*
X153511991Y-46675433D01*
X153501597Y-46741289D01*
X153501595Y-46741331D01*
X153502494Y-46814939D01*
X153516463Y-46868946D01*
X153544328Y-46905716D01*
X153563325Y-46918168D01*
X153613776Y-46933673D01*
X153667663Y-46933683D01*
X153714546Y-46918638D01*
X153725644Y-46911287D01*
X153753476Y-46892511D01*
X153775236Y-46889434D01*
X153798704Y-46903409D01*
X153824649Y-46928510D01*
X153865716Y-46970880D01*
X153820121Y-47008464D01*
X153749674Y-47050882D01*
X153670233Y-47071785D01*
X153587215Y-47070272D01*
X153532694Y-47056411D01*
X153468970Y-47022135D01*
X153418005Y-46968212D01*
X153394851Y-46930149D01*
X153376099Y-46875536D01*
X153366715Y-46806369D01*
X153366643Y-46731407D01*
X153375824Y-46659409D01*
X153394199Y-46599137D01*
X153397093Y-46592958D01*
X153439952Y-46532351D01*
X153497979Y-46488224D01*
X153566591Y-46461493D01*
X153641201Y-46453073D01*
X153717226Y-46463880D01*
G36*
X152493367Y-46654342D02*
G01*
X152494555Y-46746563D01*
X152498897Y-46816610D01*
X152507558Y-46867381D01*
X152521704Y-46901772D01*
X152542500Y-46922679D01*
X152571110Y-46933000D01*
X152606535Y-46935636D01*
X152643636Y-46932682D01*
X152671818Y-46921889D01*
X152692243Y-46900360D01*
X152706079Y-46865199D01*
X152714491Y-46813510D01*
X152718643Y-46742394D01*
X152719703Y-46654342D01*
X152719703Y-46458614D01*
X152858020Y-46458614D01*
X152858020Y-47062179D01*
X152788862Y-47062179D01*
X152747170Y-47060489D01*
X152725701Y-47054556D01*
X152719703Y-47043293D01*
X152716091Y-47033261D01*
X152701714Y-47035383D01*
X152672736Y-47049580D01*
X152606319Y-47071480D01*
X152535875Y-47069928D01*
X152468377Y-47046147D01*
X152436233Y-47027362D01*
X152411715Y-47007022D01*
X152393804Y-46981573D01*
X152381479Y-46947458D01*
X152373723Y-46901121D01*
X152369516Y-46839007D01*
X152367840Y-46757561D01*
X152367624Y-46694578D01*
X152367624Y-46458614D01*
X152493367Y-46458614D01*
X152493367Y-46654342D01*
X152493367Y-46654342D01*
G37*
X152493367Y-46654342D02*
X152494555Y-46746563D01*
X152498897Y-46816610D01*
X152507558Y-46867381D01*
X152521704Y-46901772D01*
X152542500Y-46922679D01*
X152571110Y-46933000D01*
X152606535Y-46935636D01*
X152643636Y-46932682D01*
X152671818Y-46921889D01*
X152692243Y-46900360D01*
X152706079Y-46865199D01*
X152714491Y-46813510D01*
X152718643Y-46742394D01*
X152719703Y-46654342D01*
X152719703Y-46458614D01*
X152858020Y-46458614D01*
X152858020Y-47062179D01*
X152788862Y-47062179D01*
X152747170Y-47060489D01*
X152725701Y-47054556D01*
X152719703Y-47043293D01*
X152716091Y-47033261D01*
X152701714Y-47035383D01*
X152672736Y-47049580D01*
X152606319Y-47071480D01*
X152535875Y-47069928D01*
X152468377Y-47046147D01*
X152436233Y-47027362D01*
X152411715Y-47007022D01*
X152393804Y-46981573D01*
X152381479Y-46947458D01*
X152373723Y-46901121D01*
X152369516Y-46839007D01*
X152367840Y-46757561D01*
X152367624Y-46694578D01*
X152367624Y-46458614D01*
X152493367Y-46458614D01*
X152493367Y-46654342D01*
G36*
X152110762Y-46466055D02*
G01*
X152174363Y-46500692D01*
X152224123Y-46555372D01*
X152247568Y-46599842D01*
X152257634Y-46639121D01*
X152264156Y-46695116D01*
X152266951Y-46759621D01*
X152265836Y-46824429D01*
X152260626Y-46881334D01*
X152254541Y-46911727D01*
X152234014Y-46953306D01*
X152198463Y-46997468D01*
X152155619Y-47036087D01*
X152113211Y-47061034D01*
X152112177Y-47061430D01*
X152059553Y-47072331D01*
X151997188Y-47072601D01*
X151937924Y-47062676D01*
X151915040Y-47054722D01*
X151856102Y-47021300D01*
X151813890Y-46977511D01*
X151786156Y-46919538D01*
X151770651Y-46843565D01*
X151767143Y-46803771D01*
X151767590Y-46753766D01*
X151902376Y-46753766D01*
X151906917Y-46826732D01*
X151919986Y-46882334D01*
X151940756Y-46917861D01*
X151955552Y-46928020D01*
X151993464Y-46935104D01*
X152038527Y-46933007D01*
X152077487Y-46922812D01*
X152087704Y-46917204D01*
X152114659Y-46884538D01*
X152132451Y-46834545D01*
X152140024Y-46773705D01*
X152136325Y-46708497D01*
X152128057Y-46669253D01*
X152104320Y-46623805D01*
X152066849Y-46595396D01*
X152021720Y-46585573D01*
X151975011Y-46595887D01*
X151939132Y-46621112D01*
X151920277Y-46641925D01*
X151909272Y-46662439D01*
X151904026Y-46690203D01*
X151902449Y-46732762D01*
X151902376Y-46753766D01*
X151767590Y-46753766D01*
X151768094Y-46697580D01*
X151785388Y-46610501D01*
X151819029Y-46542530D01*
X151869018Y-46493664D01*
X151935356Y-46463899D01*
X151949601Y-46460448D01*
X152035210Y-46452345D01*
X152110762Y-46466055D01*
X152110762Y-46466055D01*
G37*
X152110762Y-46466055D02*
X152174363Y-46500692D01*
X152224123Y-46555372D01*
X152247568Y-46599842D01*
X152257634Y-46639121D01*
X152264156Y-46695116D01*
X152266951Y-46759621D01*
X152265836Y-46824429D01*
X152260626Y-46881334D01*
X152254541Y-46911727D01*
X152234014Y-46953306D01*
X152198463Y-46997468D01*
X152155619Y-47036087D01*
X152113211Y-47061034D01*
X152112177Y-47061430D01*
X152059553Y-47072331D01*
X151997188Y-47072601D01*
X151937924Y-47062676D01*
X151915040Y-47054722D01*
X151856102Y-47021300D01*
X151813890Y-46977511D01*
X151786156Y-46919538D01*
X151770651Y-46843565D01*
X151767143Y-46803771D01*
X151767590Y-46753766D01*
X151902376Y-46753766D01*
X151906917Y-46826732D01*
X151919986Y-46882334D01*
X151940756Y-46917861D01*
X151955552Y-46928020D01*
X151993464Y-46935104D01*
X152038527Y-46933007D01*
X152077487Y-46922812D01*
X152087704Y-46917204D01*
X152114659Y-46884538D01*
X152132451Y-46834545D01*
X152140024Y-46773705D01*
X152136325Y-46708497D01*
X152128057Y-46669253D01*
X152104320Y-46623805D01*
X152066849Y-46595396D01*
X152021720Y-46585573D01*
X151975011Y-46595887D01*
X151939132Y-46621112D01*
X151920277Y-46641925D01*
X151909272Y-46662439D01*
X151904026Y-46690203D01*
X151902449Y-46732762D01*
X151902376Y-46753766D01*
X151767590Y-46753766D01*
X151768094Y-46697580D01*
X151785388Y-46610501D01*
X151819029Y-46542530D01*
X151869018Y-46493664D01*
X151935356Y-46463899D01*
X151949601Y-46460448D01*
X152035210Y-46452345D01*
X152110762Y-46466055D01*
G36*
X151514017Y-46456452D02*
G01*
X151561634Y-46465482D01*
X151611034Y-46484370D01*
X151616312Y-46486777D01*
X151653774Y-46506476D01*
X151679717Y-46524781D01*
X151688103Y-46536508D01*
X151680117Y-46555632D01*
X151660720Y-46583850D01*
X151652110Y-46594384D01*
X151616628Y-46635847D01*
X151570885Y-46608858D01*
X151527350Y-46590878D01*
X151477050Y-46581267D01*
X151428812Y-46580660D01*
X151391467Y-46589691D01*
X151382505Y-46595327D01*
X151365437Y-46621171D01*
X151363363Y-46650941D01*
X151376134Y-46674197D01*
X151383688Y-46678708D01*
X151406325Y-46684309D01*
X151446115Y-46690892D01*
X151495166Y-46697183D01*
X151504215Y-46698170D01*
X151582996Y-46711798D01*
X151640136Y-46734946D01*
X151678030Y-46769752D01*
X151699079Y-46818354D01*
X151705635Y-46877718D01*
X151696577Y-46945198D01*
X151667164Y-46998188D01*
X151617278Y-47036783D01*
X151546800Y-47061081D01*
X151468565Y-47070667D01*
X151404766Y-47070552D01*
X151353016Y-47061845D01*
X151317673Y-47049825D01*
X151273017Y-47028880D01*
X151231747Y-47004574D01*
X151217079Y-46993876D01*
X151179357Y-46963084D01*
X151224852Y-46917049D01*
X151270347Y-46871013D01*
X151322072Y-46905243D01*
X151373952Y-46930952D01*
X151429351Y-46944399D01*
X151482605Y-46945818D01*
X151528049Y-46935443D01*
X151560016Y-46913507D01*
X151570338Y-46894998D01*
X151568789Y-46865314D01*
X151543140Y-46842615D01*
X151493460Y-46826940D01*
X151439031Y-46819695D01*
X151355264Y-46805873D01*
X151293033Y-46779796D01*
X151251507Y-46740699D01*
X151229853Y-46687820D01*
X151226853Y-46625126D01*
X151241671Y-46559642D01*
X151275454Y-46510144D01*
X151328505Y-46476408D01*
X151401126Y-46458207D01*
X151454928Y-46454639D01*
X151514017Y-46456452D01*
X151514017Y-46456452D01*
G37*
X151514017Y-46456452D02*
X151561634Y-46465482D01*
X151611034Y-46484370D01*
X151616312Y-46486777D01*
X151653774Y-46506476D01*
X151679717Y-46524781D01*
X151688103Y-46536508D01*
X151680117Y-46555632D01*
X151660720Y-46583850D01*
X151652110Y-46594384D01*
X151616628Y-46635847D01*
X151570885Y-46608858D01*
X151527350Y-46590878D01*
X151477050Y-46581267D01*
X151428812Y-46580660D01*
X151391467Y-46589691D01*
X151382505Y-46595327D01*
X151365437Y-46621171D01*
X151363363Y-46650941D01*
X151376134Y-46674197D01*
X151383688Y-46678708D01*
X151406325Y-46684309D01*
X151446115Y-46690892D01*
X151495166Y-46697183D01*
X151504215Y-46698170D01*
X151582996Y-46711798D01*
X151640136Y-46734946D01*
X151678030Y-46769752D01*
X151699079Y-46818354D01*
X151705635Y-46877718D01*
X151696577Y-46945198D01*
X151667164Y-46998188D01*
X151617278Y-47036783D01*
X151546800Y-47061081D01*
X151468565Y-47070667D01*
X151404766Y-47070552D01*
X151353016Y-47061845D01*
X151317673Y-47049825D01*
X151273017Y-47028880D01*
X151231747Y-47004574D01*
X151217079Y-46993876D01*
X151179357Y-46963084D01*
X151224852Y-46917049D01*
X151270347Y-46871013D01*
X151322072Y-46905243D01*
X151373952Y-46930952D01*
X151429351Y-46944399D01*
X151482605Y-46945818D01*
X151528049Y-46935443D01*
X151560016Y-46913507D01*
X151570338Y-46894998D01*
X151568789Y-46865314D01*
X151543140Y-46842615D01*
X151493460Y-46826940D01*
X151439031Y-46819695D01*
X151355264Y-46805873D01*
X151293033Y-46779796D01*
X151251507Y-46740699D01*
X151229853Y-46687820D01*
X151226853Y-46625126D01*
X151241671Y-46559642D01*
X151275454Y-46510144D01*
X151328505Y-46476408D01*
X151401126Y-46458207D01*
X151454928Y-46454639D01*
X151514017Y-46456452D01*
G36*
X150143301Y-46472614D02*
G01*
X150155832Y-46478514D01*
X150199201Y-46510283D01*
X150240210Y-46556646D01*
X150270832Y-46607696D01*
X150279541Y-46631166D01*
X150287488Y-46673091D01*
X150292226Y-46723757D01*
X150292801Y-46744679D01*
X150292871Y-46810693D01*
X149912917Y-46810693D01*
X149921017Y-46845273D01*
X149940896Y-46886170D01*
X149975653Y-46921514D01*
X150017002Y-46944282D01*
X150043351Y-46949010D01*
X150079084Y-46943273D01*
X150121718Y-46928882D01*
X150136201Y-46922262D01*
X150189760Y-46895513D01*
X150235467Y-46930376D01*
X150261842Y-46953955D01*
X150275876Y-46973417D01*
X150276586Y-46979129D01*
X150264049Y-46992973D01*
X150236572Y-47014012D01*
X150211634Y-47030425D01*
X150144336Y-47059930D01*
X150068890Y-47073284D01*
X149994112Y-47069812D01*
X149934505Y-47051663D01*
X149873059Y-47012784D01*
X149829392Y-46961595D01*
X149802074Y-46895367D01*
X149789678Y-46811371D01*
X149788579Y-46772936D01*
X149792978Y-46684861D01*
X149793518Y-46682299D01*
X149919418Y-46682299D01*
X149922885Y-46690558D01*
X149937137Y-46695113D01*
X149966530Y-46697065D01*
X150015425Y-46697517D01*
X150034252Y-46697525D01*
X150091533Y-46696843D01*
X150127859Y-46694364D01*
X150147396Y-46689443D01*
X150154310Y-46681434D01*
X150154555Y-46678862D01*
X150146664Y-46658423D01*
X150126915Y-46629789D01*
X150118425Y-46619763D01*
X150086906Y-46591408D01*
X150054051Y-46580259D01*
X150036349Y-46579327D01*
X149988461Y-46590981D01*
X149948301Y-46622285D01*
X149922827Y-46667752D01*
X149922375Y-46669233D01*
X149919418Y-46682299D01*
X149793518Y-46682299D01*
X149807608Y-46615510D01*
X149833962Y-46560025D01*
X149866193Y-46520639D01*
X149925783Y-46477931D01*
X149995832Y-46455109D01*
X150070339Y-46453046D01*
X150143301Y-46472614D01*
X150143301Y-46472614D01*
G37*
X150143301Y-46472614D02*
X150155832Y-46478514D01*
X150199201Y-46510283D01*
X150240210Y-46556646D01*
X150270832Y-46607696D01*
X150279541Y-46631166D01*
X150287488Y-46673091D01*
X150292226Y-46723757D01*
X150292801Y-46744679D01*
X150292871Y-46810693D01*
X149912917Y-46810693D01*
X149921017Y-46845273D01*
X149940896Y-46886170D01*
X149975653Y-46921514D01*
X150017002Y-46944282D01*
X150043351Y-46949010D01*
X150079084Y-46943273D01*
X150121718Y-46928882D01*
X150136201Y-46922262D01*
X150189760Y-46895513D01*
X150235467Y-46930376D01*
X150261842Y-46953955D01*
X150275876Y-46973417D01*
X150276586Y-46979129D01*
X150264049Y-46992973D01*
X150236572Y-47014012D01*
X150211634Y-47030425D01*
X150144336Y-47059930D01*
X150068890Y-47073284D01*
X149994112Y-47069812D01*
X149934505Y-47051663D01*
X149873059Y-47012784D01*
X149829392Y-46961595D01*
X149802074Y-46895367D01*
X149789678Y-46811371D01*
X149788579Y-46772936D01*
X149792978Y-46684861D01*
X149793518Y-46682299D01*
X149919418Y-46682299D01*
X149922885Y-46690558D01*
X149937137Y-46695113D01*
X149966530Y-46697065D01*
X150015425Y-46697517D01*
X150034252Y-46697525D01*
X150091533Y-46696843D01*
X150127859Y-46694364D01*
X150147396Y-46689443D01*
X150154310Y-46681434D01*
X150154555Y-46678862D01*
X150146664Y-46658423D01*
X150126915Y-46629789D01*
X150118425Y-46619763D01*
X150086906Y-46591408D01*
X150054051Y-46580259D01*
X150036349Y-46579327D01*
X149988461Y-46590981D01*
X149948301Y-46622285D01*
X149922827Y-46667752D01*
X149922375Y-46669233D01*
X149919418Y-46682299D01*
X149793518Y-46682299D01*
X149807608Y-46615510D01*
X149833962Y-46560025D01*
X149866193Y-46520639D01*
X149925783Y-46477931D01*
X149995832Y-46455109D01*
X150070339Y-46453046D01*
X150143301Y-46472614D01*
G36*
X148961739Y-46465148D02*
G01*
X149027521Y-46494231D01*
X149077460Y-46542793D01*
X149111626Y-46610908D01*
X149130093Y-46698651D01*
X149131417Y-46712351D01*
X149132454Y-46808939D01*
X149119007Y-46893602D01*
X149091892Y-46962221D01*
X149077373Y-46984294D01*
X149026799Y-47031011D01*
X148962391Y-47061268D01*
X148890334Y-47073824D01*
X148816815Y-47067439D01*
X148760928Y-47047772D01*
X148712868Y-47014629D01*
X148673588Y-46971175D01*
X148672908Y-46970158D01*
X148656956Y-46943338D01*
X148646590Y-46916368D01*
X148640312Y-46882332D01*
X148636627Y-46834310D01*
X148635003Y-46794931D01*
X148634328Y-46759219D01*
X148760045Y-46759219D01*
X148761274Y-46794770D01*
X148765734Y-46842094D01*
X148773603Y-46872465D01*
X148787793Y-46894072D01*
X148801083Y-46906694D01*
X148848198Y-46933122D01*
X148897495Y-46936653D01*
X148943407Y-46917639D01*
X148966362Y-46896331D01*
X148982904Y-46874859D01*
X148992579Y-46854313D01*
X148996826Y-46827574D01*
X148997080Y-46787523D01*
X148995772Y-46750638D01*
X148992957Y-46697947D01*
X148988495Y-46663772D01*
X148980452Y-46641480D01*
X148966897Y-46624442D01*
X148956155Y-46614703D01*
X148911223Y-46589123D01*
X148862751Y-46587847D01*
X148822106Y-46602999D01*
X148787433Y-46634642D01*
X148766776Y-46686620D01*
X148760045Y-46759219D01*
X148634328Y-46759219D01*
X148633521Y-46716621D01*
X148636052Y-46658056D01*
X148643638Y-46614007D01*
X148657319Y-46579248D01*
X148678135Y-46548551D01*
X148685853Y-46539436D01*
X148734111Y-46494021D01*
X148785872Y-46467493D01*
X148849172Y-46456379D01*
X148880039Y-46455471D01*
X148961739Y-46465148D01*
X148961739Y-46465148D01*
G37*
X148961739Y-46465148D02*
X149027521Y-46494231D01*
X149077460Y-46542793D01*
X149111626Y-46610908D01*
X149130093Y-46698651D01*
X149131417Y-46712351D01*
X149132454Y-46808939D01*
X149119007Y-46893602D01*
X149091892Y-46962221D01*
X149077373Y-46984294D01*
X149026799Y-47031011D01*
X148962391Y-47061268D01*
X148890334Y-47073824D01*
X148816815Y-47067439D01*
X148760928Y-47047772D01*
X148712868Y-47014629D01*
X148673588Y-46971175D01*
X148672908Y-46970158D01*
X148656956Y-46943338D01*
X148646590Y-46916368D01*
X148640312Y-46882332D01*
X148636627Y-46834310D01*
X148635003Y-46794931D01*
X148634328Y-46759219D01*
X148760045Y-46759219D01*
X148761274Y-46794770D01*
X148765734Y-46842094D01*
X148773603Y-46872465D01*
X148787793Y-46894072D01*
X148801083Y-46906694D01*
X148848198Y-46933122D01*
X148897495Y-46936653D01*
X148943407Y-46917639D01*
X148966362Y-46896331D01*
X148982904Y-46874859D01*
X148992579Y-46854313D01*
X148996826Y-46827574D01*
X148997080Y-46787523D01*
X148995772Y-46750638D01*
X148992957Y-46697947D01*
X148988495Y-46663772D01*
X148980452Y-46641480D01*
X148966897Y-46624442D01*
X148956155Y-46614703D01*
X148911223Y-46589123D01*
X148862751Y-46587847D01*
X148822106Y-46602999D01*
X148787433Y-46634642D01*
X148766776Y-46686620D01*
X148760045Y-46759219D01*
X148634328Y-46759219D01*
X148633521Y-46716621D01*
X148636052Y-46658056D01*
X148643638Y-46614007D01*
X148657319Y-46579248D01*
X148678135Y-46548551D01*
X148685853Y-46539436D01*
X148734111Y-46494021D01*
X148785872Y-46467493D01*
X148849172Y-46456379D01*
X148880039Y-46455471D01*
X148961739Y-46465148D01*
G36*
X153532581Y-47404970D02*
G01*
X153592685Y-47420597D01*
X153643021Y-47452848D01*
X153667393Y-47476940D01*
X153707345Y-47533895D01*
X153730242Y-47599965D01*
X153738108Y-47681182D01*
X153738148Y-47687748D01*
X153738218Y-47753763D01*
X153358264Y-47753763D01*
X153366363Y-47788342D01*
X153380987Y-47819659D01*
X153406581Y-47852291D01*
X153411935Y-47857500D01*
X153457943Y-47885694D01*
X153510410Y-47890475D01*
X153570803Y-47871926D01*
X153581040Y-47866931D01*
X153612439Y-47851745D01*
X153633470Y-47843094D01*
X153637139Y-47842293D01*
X153649948Y-47850063D01*
X153674378Y-47869072D01*
X153686779Y-47879460D01*
X153712476Y-47903321D01*
X153720915Y-47919077D01*
X153715058Y-47933571D01*
X153711928Y-47937534D01*
X153690725Y-47954879D01*
X153655738Y-47975959D01*
X153631337Y-47988265D01*
X153562072Y-48009946D01*
X153485388Y-48016971D01*
X153412765Y-48008647D01*
X153392426Y-48002686D01*
X153329476Y-47968952D01*
X153282815Y-47917045D01*
X153252173Y-47846459D01*
X153237282Y-47756692D01*
X153235647Y-47709753D01*
X153240421Y-47641413D01*
X153360990Y-47641413D01*
X153372652Y-47646465D01*
X153403998Y-47650429D01*
X153449571Y-47652768D01*
X153480446Y-47653169D01*
X153535981Y-47652783D01*
X153571033Y-47650975D01*
X153590262Y-47646773D01*
X153598330Y-47639203D01*
X153599901Y-47628218D01*
X153589121Y-47594381D01*
X153561980Y-47560940D01*
X153526277Y-47535272D01*
X153490560Y-47524772D01*
X153442048Y-47534086D01*
X153400053Y-47561013D01*
X153370936Y-47599827D01*
X153360990Y-47641413D01*
X153240421Y-47641413D01*
X153242599Y-47610236D01*
X153264055Y-47530949D01*
X153300470Y-47471263D01*
X153352297Y-47430549D01*
X153419990Y-47408179D01*
X153456662Y-47403871D01*
X153532581Y-47404970D01*
X153532581Y-47404970D01*
G37*
X153532581Y-47404970D02*
X153592685Y-47420597D01*
X153643021Y-47452848D01*
X153667393Y-47476940D01*
X153707345Y-47533895D01*
X153730242Y-47599965D01*
X153738108Y-47681182D01*
X153738148Y-47687748D01*
X153738218Y-47753763D01*
X153358264Y-47753763D01*
X153366363Y-47788342D01*
X153380987Y-47819659D01*
X153406581Y-47852291D01*
X153411935Y-47857500D01*
X153457943Y-47885694D01*
X153510410Y-47890475D01*
X153570803Y-47871926D01*
X153581040Y-47866931D01*
X153612439Y-47851745D01*
X153633470Y-47843094D01*
X153637139Y-47842293D01*
X153649948Y-47850063D01*
X153674378Y-47869072D01*
X153686779Y-47879460D01*
X153712476Y-47903321D01*
X153720915Y-47919077D01*
X153715058Y-47933571D01*
X153711928Y-47937534D01*
X153690725Y-47954879D01*
X153655738Y-47975959D01*
X153631337Y-47988265D01*
X153562072Y-48009946D01*
X153485388Y-48016971D01*
X153412765Y-48008647D01*
X153392426Y-48002686D01*
X153329476Y-47968952D01*
X153282815Y-47917045D01*
X153252173Y-47846459D01*
X153237282Y-47756692D01*
X153235647Y-47709753D01*
X153240421Y-47641413D01*
X153360990Y-47641413D01*
X153372652Y-47646465D01*
X153403998Y-47650429D01*
X153449571Y-47652768D01*
X153480446Y-47653169D01*
X153535981Y-47652783D01*
X153571033Y-47650975D01*
X153590262Y-47646773D01*
X153598330Y-47639203D01*
X153599901Y-47628218D01*
X153589121Y-47594381D01*
X153561980Y-47560940D01*
X153526277Y-47535272D01*
X153490560Y-47524772D01*
X153442048Y-47534086D01*
X153400053Y-47561013D01*
X153370936Y-47599827D01*
X153360990Y-47641413D01*
X153240421Y-47641413D01*
X153242599Y-47610236D01*
X153264055Y-47530949D01*
X153300470Y-47471263D01*
X153352297Y-47430549D01*
X153419990Y-47408179D01*
X153456662Y-47403871D01*
X153532581Y-47404970D01*
G36*
X153135255Y-47401486D02*
G01*
X153183595Y-47411015D01*
X153211114Y-47425125D01*
X153240064Y-47448568D01*
X153198876Y-47500571D01*
X153173482Y-47532064D01*
X153156238Y-47547428D01*
X153139102Y-47549776D01*
X153114027Y-47542217D01*
X153102257Y-47537941D01*
X153054270Y-47531631D01*
X153010324Y-47545156D01*
X152978060Y-47575710D01*
X152972819Y-47585452D01*
X152967112Y-47611258D01*
X152962706Y-47658817D01*
X152959811Y-47724758D01*
X152958631Y-47805710D01*
X152958614Y-47817226D01*
X152958614Y-48017822D01*
X152820297Y-48017822D01*
X152820297Y-47401683D01*
X152889456Y-47401683D01*
X152929333Y-47402725D01*
X152950107Y-47407358D01*
X152957789Y-47417849D01*
X152958614Y-47427745D01*
X152958614Y-47453806D01*
X152991745Y-47427745D01*
X153029735Y-47409965D01*
X153080770Y-47401174D01*
X153135255Y-47401486D01*
X153135255Y-47401486D01*
G37*
X153135255Y-47401486D02*
X153183595Y-47411015D01*
X153211114Y-47425125D01*
X153240064Y-47448568D01*
X153198876Y-47500571D01*
X153173482Y-47532064D01*
X153156238Y-47547428D01*
X153139102Y-47549776D01*
X153114027Y-47542217D01*
X153102257Y-47537941D01*
X153054270Y-47531631D01*
X153010324Y-47545156D01*
X152978060Y-47575710D01*
X152972819Y-47585452D01*
X152967112Y-47611258D01*
X152962706Y-47658817D01*
X152959811Y-47724758D01*
X152958631Y-47805710D01*
X152958614Y-47817226D01*
X152958614Y-48017822D01*
X152820297Y-48017822D01*
X152820297Y-47401683D01*
X152889456Y-47401683D01*
X152929333Y-47402725D01*
X152950107Y-47407358D01*
X152957789Y-47417849D01*
X152958614Y-47427745D01*
X152958614Y-47453806D01*
X152991745Y-47427745D01*
X153029735Y-47409965D01*
X153080770Y-47401174D01*
X153135255Y-47401486D01*
G36*
X152538411Y-47405417D02*
G01*
X152591411Y-47418290D01*
X152606731Y-47425110D01*
X152636428Y-47442974D01*
X152659220Y-47463093D01*
X152676083Y-47488962D01*
X152687998Y-47524073D01*
X152695942Y-47571920D01*
X152700894Y-47635996D01*
X152703831Y-47719794D01*
X152704947Y-47775768D01*
X152709052Y-48017822D01*
X152638932Y-48017822D01*
X152596393Y-48016038D01*
X152574476Y-48009942D01*
X152568812Y-47999706D01*
X152565821Y-47988637D01*
X152552451Y-47990754D01*
X152534233Y-47999629D01*
X152488624Y-48013233D01*
X152430007Y-48016899D01*
X152368354Y-48010903D01*
X152313638Y-47995521D01*
X152308730Y-47993386D01*
X152258723Y-47958255D01*
X152225756Y-47909419D01*
X152210587Y-47852333D01*
X152211746Y-47831824D01*
X152335508Y-47831824D01*
X152346413Y-47859425D01*
X152378745Y-47879204D01*
X152430910Y-47889819D01*
X152458787Y-47891228D01*
X152505247Y-47887620D01*
X152536129Y-47873597D01*
X152543664Y-47866931D01*
X152564076Y-47830666D01*
X152568812Y-47797773D01*
X152568812Y-47753763D01*
X152507513Y-47753763D01*
X152436256Y-47757395D01*
X152386276Y-47768818D01*
X152354696Y-47788824D01*
X152347626Y-47797743D01*
X152335508Y-47831824D01*
X152211746Y-47831824D01*
X152213971Y-47792456D01*
X152236663Y-47735244D01*
X152267624Y-47696580D01*
X152286376Y-47679864D01*
X152304733Y-47668878D01*
X152328619Y-47662180D01*
X152363957Y-47658326D01*
X152416669Y-47655873D01*
X152437577Y-47655168D01*
X152568812Y-47650879D01*
X152568620Y-47611158D01*
X152563537Y-47569405D01*
X152545162Y-47544158D01*
X152508039Y-47528030D01*
X152507043Y-47527742D01*
X152454410Y-47521400D01*
X152402906Y-47529684D01*
X152364630Y-47549827D01*
X152349272Y-47559773D01*
X152332730Y-47558397D01*
X152307275Y-47543987D01*
X152292328Y-47533817D01*
X152263091Y-47512088D01*
X152244980Y-47495800D01*
X152242074Y-47491137D01*
X152254040Y-47467005D01*
X152289396Y-47438185D01*
X152304753Y-47428461D01*
X152348901Y-47411714D01*
X152408398Y-47402227D01*
X152474487Y-47400095D01*
X152538411Y-47405417D01*
X152538411Y-47405417D01*
G37*
X152538411Y-47405417D02*
X152591411Y-47418290D01*
X152606731Y-47425110D01*
X152636428Y-47442974D01*
X152659220Y-47463093D01*
X152676083Y-47488962D01*
X152687998Y-47524073D01*
X152695942Y-47571920D01*
X152700894Y-47635996D01*
X152703831Y-47719794D01*
X152704947Y-47775768D01*
X152709052Y-48017822D01*
X152638932Y-48017822D01*
X152596393Y-48016038D01*
X152574476Y-48009942D01*
X152568812Y-47999706D01*
X152565821Y-47988637D01*
X152552451Y-47990754D01*
X152534233Y-47999629D01*
X152488624Y-48013233D01*
X152430007Y-48016899D01*
X152368354Y-48010903D01*
X152313638Y-47995521D01*
X152308730Y-47993386D01*
X152258723Y-47958255D01*
X152225756Y-47909419D01*
X152210587Y-47852333D01*
X152211746Y-47831824D01*
X152335508Y-47831824D01*
X152346413Y-47859425D01*
X152378745Y-47879204D01*
X152430910Y-47889819D01*
X152458787Y-47891228D01*
X152505247Y-47887620D01*
X152536129Y-47873597D01*
X152543664Y-47866931D01*
X152564076Y-47830666D01*
X152568812Y-47797773D01*
X152568812Y-47753763D01*
X152507513Y-47753763D01*
X152436256Y-47757395D01*
X152386276Y-47768818D01*
X152354696Y-47788824D01*
X152347626Y-47797743D01*
X152335508Y-47831824D01*
X152211746Y-47831824D01*
X152213971Y-47792456D01*
X152236663Y-47735244D01*
X152267624Y-47696580D01*
X152286376Y-47679864D01*
X152304733Y-47668878D01*
X152328619Y-47662180D01*
X152363957Y-47658326D01*
X152416669Y-47655873D01*
X152437577Y-47655168D01*
X152568812Y-47650879D01*
X152568620Y-47611158D01*
X152563537Y-47569405D01*
X152545162Y-47544158D01*
X152508039Y-47528030D01*
X152507043Y-47527742D01*
X152454410Y-47521400D01*
X152402906Y-47529684D01*
X152364630Y-47549827D01*
X152349272Y-47559773D01*
X152332730Y-47558397D01*
X152307275Y-47543987D01*
X152292328Y-47533817D01*
X152263091Y-47512088D01*
X152244980Y-47495800D01*
X152242074Y-47491137D01*
X152254040Y-47467005D01*
X152289396Y-47438185D01*
X152304753Y-47428461D01*
X152348901Y-47411714D01*
X152408398Y-47402227D01*
X152474487Y-47400095D01*
X152538411Y-47405417D01*
G36*
X151781524Y-47404237D02*
G01*
X151831255Y-47407971D01*
X151961291Y-47797773D01*
X151981678Y-47728614D01*
X151993946Y-47685874D01*
X152010085Y-47628115D01*
X152027512Y-47564625D01*
X152036726Y-47530570D01*
X152071388Y-47401683D01*
X152214391Y-47401683D01*
X152171646Y-47536857D01*
X152150596Y-47603342D01*
X152125167Y-47683539D01*
X152098610Y-47767193D01*
X152074902Y-47841782D01*
X152020902Y-48011535D01*
X151962598Y-48015328D01*
X151904295Y-48019122D01*
X151872679Y-47914734D01*
X151853182Y-47849889D01*
X151831904Y-47778400D01*
X151813308Y-47715263D01*
X151812574Y-47712750D01*
X151798684Y-47669969D01*
X151786429Y-47640779D01*
X151777846Y-47629741D01*
X151776082Y-47631018D01*
X151769891Y-47648130D01*
X151758128Y-47684787D01*
X151742225Y-47736378D01*
X151723614Y-47798294D01*
X151713543Y-47832352D01*
X151659007Y-48017822D01*
X151543264Y-48017822D01*
X151450737Y-47725471D01*
X151424744Y-47643462D01*
X151401066Y-47568987D01*
X151380820Y-47505544D01*
X151365126Y-47456632D01*
X151355102Y-47425749D01*
X151352055Y-47416726D01*
X151354467Y-47407487D01*
X151373408Y-47403441D01*
X151412823Y-47403846D01*
X151418993Y-47404152D01*
X151492086Y-47407971D01*
X151539957Y-47584010D01*
X151557553Y-47648211D01*
X151573277Y-47704649D01*
X151585746Y-47748422D01*
X151593574Y-47774630D01*
X151595020Y-47778903D01*
X151601014Y-47773990D01*
X151613101Y-47748532D01*
X151629893Y-47705997D01*
X151650003Y-47649850D01*
X151667003Y-47599130D01*
X151731794Y-47400504D01*
X151781524Y-47404237D01*
X151781524Y-47404237D01*
G37*
X151781524Y-47404237D02*
X151831255Y-47407971D01*
X151961291Y-47797773D01*
X151981678Y-47728614D01*
X151993946Y-47685874D01*
X152010085Y-47628115D01*
X152027512Y-47564625D01*
X152036726Y-47530570D01*
X152071388Y-47401683D01*
X152214391Y-47401683D01*
X152171646Y-47536857D01*
X152150596Y-47603342D01*
X152125167Y-47683539D01*
X152098610Y-47767193D01*
X152074902Y-47841782D01*
X152020902Y-48011535D01*
X151962598Y-48015328D01*
X151904295Y-48019122D01*
X151872679Y-47914734D01*
X151853182Y-47849889D01*
X151831904Y-47778400D01*
X151813308Y-47715263D01*
X151812574Y-47712750D01*
X151798684Y-47669969D01*
X151786429Y-47640779D01*
X151777846Y-47629741D01*
X151776082Y-47631018D01*
X151769891Y-47648130D01*
X151758128Y-47684787D01*
X151742225Y-47736378D01*
X151723614Y-47798294D01*
X151713543Y-47832352D01*
X151659007Y-48017822D01*
X151543264Y-48017822D01*
X151450737Y-47725471D01*
X151424744Y-47643462D01*
X151401066Y-47568987D01*
X151380820Y-47505544D01*
X151365126Y-47456632D01*
X151355102Y-47425749D01*
X151352055Y-47416726D01*
X151354467Y-47407487D01*
X151373408Y-47403441D01*
X151412823Y-47403846D01*
X151418993Y-47404152D01*
X151492086Y-47407971D01*
X151539957Y-47584010D01*
X151557553Y-47648211D01*
X151573277Y-47704649D01*
X151585746Y-47748422D01*
X151593574Y-47774630D01*
X151595020Y-47778903D01*
X151601014Y-47773990D01*
X151613101Y-47748532D01*
X151629893Y-47705997D01*
X151650003Y-47649850D01*
X151667003Y-47599130D01*
X151731794Y-47400504D01*
X151781524Y-47404237D01*
G36*
X151298812Y-48017822D02*
G01*
X151229654Y-48017822D01*
X151189512Y-48016645D01*
X151168606Y-48011772D01*
X151161078Y-48001186D01*
X151160495Y-47994029D01*
X151159226Y-47979676D01*
X151151221Y-47976923D01*
X151130185Y-47985771D01*
X151113827Y-47994029D01*
X151051023Y-48013597D01*
X150982752Y-48014729D01*
X150927248Y-48000135D01*
X150875562Y-47964877D01*
X150836162Y-47912835D01*
X150814587Y-47851450D01*
X150814038Y-47848018D01*
X150810833Y-47810571D01*
X150809239Y-47756813D01*
X150809367Y-47716155D01*
X150946721Y-47716155D01*
X150949903Y-47770194D01*
X150957141Y-47814735D01*
X150966940Y-47839888D01*
X151004011Y-47874260D01*
X151048026Y-47886582D01*
X151093416Y-47876618D01*
X151132203Y-47846895D01*
X151146892Y-47826905D01*
X151155481Y-47803050D01*
X151159504Y-47768230D01*
X151160495Y-47715930D01*
X151158722Y-47664139D01*
X151154037Y-47618634D01*
X151147397Y-47588181D01*
X151146290Y-47585452D01*
X151119509Y-47553000D01*
X151080421Y-47535183D01*
X151036685Y-47532306D01*
X150995962Y-47544674D01*
X150965913Y-47572593D01*
X150962796Y-47578148D01*
X150953039Y-47612022D01*
X150947723Y-47660728D01*
X150946721Y-47716155D01*
X150809367Y-47716155D01*
X150809432Y-47695540D01*
X150810336Y-47662563D01*
X150816486Y-47580981D01*
X150829267Y-47519730D01*
X150850529Y-47474449D01*
X150882122Y-47440779D01*
X150912793Y-47421014D01*
X150955646Y-47407120D01*
X151008944Y-47402354D01*
X151063520Y-47406236D01*
X151110208Y-47418282D01*
X151134876Y-47432693D01*
X151160495Y-47455878D01*
X151160495Y-47162773D01*
X151298812Y-47162773D01*
X151298812Y-48017822D01*
X151298812Y-48017822D01*
G37*
X151298812Y-48017822D02*
X151229654Y-48017822D01*
X151189512Y-48016645D01*
X151168606Y-48011772D01*
X151161078Y-48001186D01*
X151160495Y-47994029D01*
X151159226Y-47979676D01*
X151151221Y-47976923D01*
X151130185Y-47985771D01*
X151113827Y-47994029D01*
X151051023Y-48013597D01*
X150982752Y-48014729D01*
X150927248Y-48000135D01*
X150875562Y-47964877D01*
X150836162Y-47912835D01*
X150814587Y-47851450D01*
X150814038Y-47848018D01*
X150810833Y-47810571D01*
X150809239Y-47756813D01*
X150809367Y-47716155D01*
X150946721Y-47716155D01*
X150949903Y-47770194D01*
X150957141Y-47814735D01*
X150966940Y-47839888D01*
X151004011Y-47874260D01*
X151048026Y-47886582D01*
X151093416Y-47876618D01*
X151132203Y-47846895D01*
X151146892Y-47826905D01*
X151155481Y-47803050D01*
X151159504Y-47768230D01*
X151160495Y-47715930D01*
X151158722Y-47664139D01*
X151154037Y-47618634D01*
X151147397Y-47588181D01*
X151146290Y-47585452D01*
X151119509Y-47553000D01*
X151080421Y-47535183D01*
X151036685Y-47532306D01*
X150995962Y-47544674D01*
X150965913Y-47572593D01*
X150962796Y-47578148D01*
X150953039Y-47612022D01*
X150947723Y-47660728D01*
X150946721Y-47716155D01*
X150809367Y-47716155D01*
X150809432Y-47695540D01*
X150810336Y-47662563D01*
X150816486Y-47580981D01*
X150829267Y-47519730D01*
X150850529Y-47474449D01*
X150882122Y-47440779D01*
X150912793Y-47421014D01*
X150955646Y-47407120D01*
X151008944Y-47402354D01*
X151063520Y-47406236D01*
X151110208Y-47418282D01*
X151134876Y-47432693D01*
X151160495Y-47455878D01*
X151160495Y-47162773D01*
X151298812Y-47162773D01*
X151298812Y-48017822D01*
G36*
X150506644Y-47403020D02*
G01*
X150525461Y-47408660D01*
X150531527Y-47421053D01*
X150531782Y-47426647D01*
X150532871Y-47442230D01*
X150540368Y-47444676D01*
X150560619Y-47433993D01*
X150572649Y-47426694D01*
X150610600Y-47411063D01*
X150655928Y-47403334D01*
X150703456Y-47402740D01*
X150748005Y-47408513D01*
X150784398Y-47419884D01*
X150807457Y-47436088D01*
X150812004Y-47456355D01*
X150809709Y-47461843D01*
X150792980Y-47484626D01*
X150767037Y-47512647D01*
X150762345Y-47517177D01*
X150737617Y-47538005D01*
X150716282Y-47544735D01*
X150686445Y-47540038D01*
X150674492Y-47536917D01*
X150637295Y-47529421D01*
X150611141Y-47532792D01*
X150589054Y-47544681D01*
X150568822Y-47560635D01*
X150553921Y-47580700D01*
X150543566Y-47608702D01*
X150536971Y-47648467D01*
X150533351Y-47703823D01*
X150531922Y-47778594D01*
X150531782Y-47823740D01*
X150531782Y-48017822D01*
X150406040Y-48017822D01*
X150406040Y-47401683D01*
X150468911Y-47401683D01*
X150506644Y-47403020D01*
X150506644Y-47403020D01*
G37*
X150506644Y-47403020D02*
X150525461Y-47408660D01*
X150531527Y-47421053D01*
X150531782Y-47426647D01*
X150532871Y-47442230D01*
X150540368Y-47444676D01*
X150560619Y-47433993D01*
X150572649Y-47426694D01*
X150610600Y-47411063D01*
X150655928Y-47403334D01*
X150703456Y-47402740D01*
X150748005Y-47408513D01*
X150784398Y-47419884D01*
X150807457Y-47436088D01*
X150812004Y-47456355D01*
X150809709Y-47461843D01*
X150792980Y-47484626D01*
X150767037Y-47512647D01*
X150762345Y-47517177D01*
X150737617Y-47538005D01*
X150716282Y-47544735D01*
X150686445Y-47540038D01*
X150674492Y-47536917D01*
X150637295Y-47529421D01*
X150611141Y-47532792D01*
X150589054Y-47544681D01*
X150568822Y-47560635D01*
X150553921Y-47580700D01*
X150543566Y-47608702D01*
X150536971Y-47648467D01*
X150533351Y-47703823D01*
X150531922Y-47778594D01*
X150531782Y-47823740D01*
X150531782Y-48017822D01*
X150406040Y-48017822D01*
X150406040Y-47401683D01*
X150468911Y-47401683D01*
X150506644Y-47403020D01*
G36*
X150115790Y-47406555D02*
G01*
X150174945Y-47422339D01*
X150219977Y-47450948D01*
X150251754Y-47488419D01*
X150261634Y-47504411D01*
X150268927Y-47521163D01*
X150274026Y-47542592D01*
X150277321Y-47572616D01*
X150279203Y-47615154D01*
X150280063Y-47674122D01*
X150280293Y-47753440D01*
X150280297Y-47774484D01*
X150280297Y-48017822D01*
X150219941Y-48017822D01*
X150181443Y-48015126D01*
X150152977Y-48008295D01*
X150145845Y-48004083D01*
X150126348Y-47996813D01*
X150106434Y-48004083D01*
X150073647Y-48013160D01*
X150026022Y-48016813D01*
X149973236Y-48015228D01*
X149924964Y-48008589D01*
X149896782Y-48000072D01*
X149842247Y-47965063D01*
X149808165Y-47916479D01*
X149792843Y-47851882D01*
X149792701Y-47850223D01*
X149794045Y-47821566D01*
X149915644Y-47821566D01*
X149926274Y-47854161D01*
X149943590Y-47872505D01*
X149978348Y-47886379D01*
X150024227Y-47891917D01*
X150071012Y-47889191D01*
X150108486Y-47878274D01*
X150118985Y-47871269D01*
X150137332Y-47838904D01*
X150141980Y-47802111D01*
X150141980Y-47753763D01*
X150072418Y-47753763D01*
X150006333Y-47758850D01*
X149956236Y-47773263D01*
X149925071Y-47795729D01*
X149915644Y-47821566D01*
X149794045Y-47821566D01*
X149796013Y-47779647D01*
X149819290Y-47723845D01*
X149863052Y-47681647D01*
X149869101Y-47677808D01*
X149895093Y-47665309D01*
X149927265Y-47657740D01*
X149972240Y-47654061D01*
X150025669Y-47653216D01*
X150141980Y-47653169D01*
X150141980Y-47604411D01*
X150137047Y-47566581D01*
X150124457Y-47541236D01*
X150122983Y-47539887D01*
X150094966Y-47528800D01*
X150052674Y-47524503D01*
X150005936Y-47526615D01*
X149964582Y-47534756D01*
X149940043Y-47546965D01*
X149926747Y-47556746D01*
X149912706Y-47558613D01*
X149893329Y-47550600D01*
X149864024Y-47530739D01*
X149820197Y-47497063D01*
X149816175Y-47493909D01*
X149818236Y-47482236D01*
X149835432Y-47462822D01*
X149861567Y-47441248D01*
X149890448Y-47423096D01*
X149899522Y-47418809D01*
X149932620Y-47410256D01*
X149981120Y-47404155D01*
X150035305Y-47401708D01*
X150037839Y-47401703D01*
X150115790Y-47406555D01*
X150115790Y-47406555D01*
G37*
X150115790Y-47406555D02*
X150174945Y-47422339D01*
X150219977Y-47450948D01*
X150251754Y-47488419D01*
X150261634Y-47504411D01*
X150268927Y-47521163D01*
X150274026Y-47542592D01*
X150277321Y-47572616D01*
X150279203Y-47615154D01*
X150280063Y-47674122D01*
X150280293Y-47753440D01*
X150280297Y-47774484D01*
X150280297Y-48017822D01*
X150219941Y-48017822D01*
X150181443Y-48015126D01*
X150152977Y-48008295D01*
X150145845Y-48004083D01*
X150126348Y-47996813D01*
X150106434Y-48004083D01*
X150073647Y-48013160D01*
X150026022Y-48016813D01*
X149973236Y-48015228D01*
X149924964Y-48008589D01*
X149896782Y-48000072D01*
X149842247Y-47965063D01*
X149808165Y-47916479D01*
X149792843Y-47851882D01*
X149792701Y-47850223D01*
X149794045Y-47821566D01*
X149915644Y-47821566D01*
X149926274Y-47854161D01*
X149943590Y-47872505D01*
X149978348Y-47886379D01*
X150024227Y-47891917D01*
X150071012Y-47889191D01*
X150108486Y-47878274D01*
X150118985Y-47871269D01*
X150137332Y-47838904D01*
X150141980Y-47802111D01*
X150141980Y-47753763D01*
X150072418Y-47753763D01*
X150006333Y-47758850D01*
X149956236Y-47773263D01*
X149925071Y-47795729D01*
X149915644Y-47821566D01*
X149794045Y-47821566D01*
X149796013Y-47779647D01*
X149819290Y-47723845D01*
X149863052Y-47681647D01*
X149869101Y-47677808D01*
X149895093Y-47665309D01*
X149927265Y-47657740D01*
X149972240Y-47654061D01*
X150025669Y-47653216D01*
X150141980Y-47653169D01*
X150141980Y-47604411D01*
X150137047Y-47566581D01*
X150124457Y-47541236D01*
X150122983Y-47539887D01*
X150094966Y-47528800D01*
X150052674Y-47524503D01*
X150005936Y-47526615D01*
X149964582Y-47534756D01*
X149940043Y-47546965D01*
X149926747Y-47556746D01*
X149912706Y-47558613D01*
X149893329Y-47550600D01*
X149864024Y-47530739D01*
X149820197Y-47497063D01*
X149816175Y-47493909D01*
X149818236Y-47482236D01*
X149835432Y-47462822D01*
X149861567Y-47441248D01*
X149890448Y-47423096D01*
X149899522Y-47418809D01*
X149932620Y-47410256D01*
X149981120Y-47404155D01*
X150035305Y-47401708D01*
X150037839Y-47401703D01*
X150115790Y-47406555D01*
G36*
X149591241Y-46469184D02*
G01*
X149617753Y-46482282D01*
X149650447Y-46505106D01*
X149674275Y-46529996D01*
X149690594Y-46561249D01*
X149700760Y-46603166D01*
X149706128Y-46660044D01*
X149708056Y-46736184D01*
X149708169Y-46768917D01*
X149707839Y-46840656D01*
X149706473Y-46891927D01*
X149703500Y-46927404D01*
X149698351Y-46951763D01*
X149690457Y-46969680D01*
X149682243Y-46981902D01*
X149629813Y-47033905D01*
X149568070Y-47065184D01*
X149501464Y-47074592D01*
X149434442Y-47060980D01*
X149413208Y-47051354D01*
X149362376Y-47024859D01*
X149362376Y-47440052D01*
X149399475Y-47420868D01*
X149448357Y-47406025D01*
X149508439Y-47402222D01*
X149568436Y-47409243D01*
X149613744Y-47425013D01*
X149651325Y-47455047D01*
X149683436Y-47498024D01*
X149685850Y-47502436D01*
X149696033Y-47523221D01*
X149703470Y-47544170D01*
X149708589Y-47569548D01*
X149711819Y-47603618D01*
X149713587Y-47650641D01*
X149714323Y-47714882D01*
X149714456Y-47787176D01*
X149714456Y-48017822D01*
X149576139Y-48017822D01*
X149576139Y-47592533D01*
X149537451Y-47559979D01*
X149497262Y-47533940D01*
X149459203Y-47529205D01*
X149420934Y-47541389D01*
X149400538Y-47553320D01*
X149385358Y-47570313D01*
X149374562Y-47595995D01*
X149367317Y-47633991D01*
X149362792Y-47687926D01*
X149360156Y-47761425D01*
X149359228Y-47810347D01*
X149356089Y-48011535D01*
X149290074Y-48015336D01*
X149224060Y-48019136D01*
X149224060Y-46770650D01*
X149362376Y-46770650D01*
X149365903Y-46840254D01*
X149377785Y-46888569D01*
X149399980Y-46918631D01*
X149434441Y-46933471D01*
X149469258Y-46936436D01*
X149508671Y-46933028D01*
X149534829Y-46919617D01*
X149551186Y-46901896D01*
X149564063Y-46882835D01*
X149571728Y-46861601D01*
X149575139Y-46831849D01*
X149575251Y-46787236D01*
X149574103Y-46749880D01*
X149571468Y-46693604D01*
X149567544Y-46656658D01*
X149560937Y-46633223D01*
X149550251Y-46617480D01*
X149540167Y-46608380D01*
X149498030Y-46588537D01*
X149448160Y-46585332D01*
X149419524Y-46592168D01*
X149391172Y-46616464D01*
X149372391Y-46663728D01*
X149363288Y-46733624D01*
X149362376Y-46770650D01*
X149224060Y-46770650D01*
X149224060Y-46458614D01*
X149293218Y-46458614D01*
X149334740Y-46460256D01*
X149356162Y-46466087D01*
X149362374Y-46477461D01*
X149362376Y-46477798D01*
X149365258Y-46488938D01*
X149377970Y-46487673D01*
X149403243Y-46475433D01*
X149462131Y-46456707D01*
X149528385Y-46454739D01*
X149591241Y-46469184D01*
X149591241Y-46469184D01*
G37*
X149591241Y-46469184D02*
X149617753Y-46482282D01*
X149650447Y-46505106D01*
X149674275Y-46529996D01*
X149690594Y-46561249D01*
X149700760Y-46603166D01*
X149706128Y-46660044D01*
X149708056Y-46736184D01*
X149708169Y-46768917D01*
X149707839Y-46840656D01*
X149706473Y-46891927D01*
X149703500Y-46927404D01*
X149698351Y-46951763D01*
X149690457Y-46969680D01*
X149682243Y-46981902D01*
X149629813Y-47033905D01*
X149568070Y-47065184D01*
X149501464Y-47074592D01*
X149434442Y-47060980D01*
X149413208Y-47051354D01*
X149362376Y-47024859D01*
X149362376Y-47440052D01*
X149399475Y-47420868D01*
X149448357Y-47406025D01*
X149508439Y-47402222D01*
X149568436Y-47409243D01*
X149613744Y-47425013D01*
X149651325Y-47455047D01*
X149683436Y-47498024D01*
X149685850Y-47502436D01*
X149696033Y-47523221D01*
X149703470Y-47544170D01*
X149708589Y-47569548D01*
X149711819Y-47603618D01*
X149713587Y-47650641D01*
X149714323Y-47714882D01*
X149714456Y-47787176D01*
X149714456Y-48017822D01*
X149576139Y-48017822D01*
X149576139Y-47592533D01*
X149537451Y-47559979D01*
X149497262Y-47533940D01*
X149459203Y-47529205D01*
X149420934Y-47541389D01*
X149400538Y-47553320D01*
X149385358Y-47570313D01*
X149374562Y-47595995D01*
X149367317Y-47633991D01*
X149362792Y-47687926D01*
X149360156Y-47761425D01*
X149359228Y-47810347D01*
X149356089Y-48011535D01*
X149290074Y-48015336D01*
X149224060Y-48019136D01*
X149224060Y-46770650D01*
X149362376Y-46770650D01*
X149365903Y-46840254D01*
X149377785Y-46888569D01*
X149399980Y-46918631D01*
X149434441Y-46933471D01*
X149469258Y-46936436D01*
X149508671Y-46933028D01*
X149534829Y-46919617D01*
X149551186Y-46901896D01*
X149564063Y-46882835D01*
X149571728Y-46861601D01*
X149575139Y-46831849D01*
X149575251Y-46787236D01*
X149574103Y-46749880D01*
X149571468Y-46693604D01*
X149567544Y-46656658D01*
X149560937Y-46633223D01*
X149550251Y-46617480D01*
X149540167Y-46608380D01*
X149498030Y-46588537D01*
X149448160Y-46585332D01*
X149419524Y-46592168D01*
X149391172Y-46616464D01*
X149372391Y-46663728D01*
X149363288Y-46733624D01*
X149362376Y-46770650D01*
X149224060Y-46770650D01*
X149224060Y-46458614D01*
X149293218Y-46458614D01*
X149334740Y-46460256D01*
X149356162Y-46466087D01*
X149362374Y-46477461D01*
X149362376Y-46477798D01*
X149365258Y-46488938D01*
X149377970Y-46487673D01*
X149403243Y-46475433D01*
X149462131Y-46456707D01*
X149528385Y-46454739D01*
X149591241Y-46469184D01*
D13*
X124290000Y-42236252D02*
X124290000Y-41713748D01*
X125710000Y-42236252D02*
X125710000Y-41713748D01*
X151988748Y-36040000D02*
X152511252Y-36040000D01*
X151988748Y-37460000D02*
X152511252Y-37460000D01*
X128210000Y-42286252D02*
X128210000Y-41763748D01*
X126790000Y-42286252D02*
X126790000Y-41763748D01*
X107463748Y-37460000D02*
X107986252Y-37460000D01*
X107463748Y-36040000D02*
X107986252Y-36040000D01*
X131307665Y-38328608D02*
G75*
G03X134540000Y-38485516I1672335J1078608D01*
G01*
X131307665Y-36171392D02*
G75*
G02X134540000Y-36014484I1672335J-1078608D01*
G01*
X131938870Y-38329837D02*
G75*
G03X134020961Y-38330000I1041130J1079837D01*
G01*
X131938870Y-36170163D02*
G75*
G02X134020961Y-36170000I1041130J-1079837D01*
G01*
X134540000Y-38486000D02*
X134540000Y-38330000D01*
X134540000Y-36170000D02*
X134540000Y-36014000D01*
X128540000Y-37511252D02*
X128540000Y-36988748D01*
X129960000Y-37511252D02*
X129960000Y-36988748D01*
X135160000Y-46660000D02*
X135160000Y-45400000D01*
X135160000Y-39840000D02*
X135160000Y-41100000D01*
X131400000Y-46660000D02*
X135160000Y-46660000D01*
X129150000Y-39840000D02*
X135160000Y-39840000D01*
D11*
X103850000Y-38150000D02*
X103300000Y-38150000D01*
X103300000Y-38150000D02*
X103300000Y-38800000D01*
X103900000Y-46350000D02*
X103300000Y-46350000D01*
X103300000Y-46350000D02*
X103300000Y-45950000D01*
X109000000Y-45850000D02*
X109000000Y-46350000D01*
X109000000Y-46350000D02*
X108300000Y-46350000D01*
X109000000Y-38900000D02*
X109000000Y-38450000D01*
X109000000Y-38450000D02*
X108650000Y-38150000D01*
X108650000Y-38150000D02*
X108350000Y-38150000D01*
X108350000Y-38150000D02*
X108350000Y-38000000D01*
D13*
X144580000Y-35340000D02*
X141920000Y-35340000D01*
X144580000Y-40480000D02*
X144580000Y-35340000D01*
X141920000Y-40480000D02*
X141920000Y-35340000D01*
X144580000Y-40480000D02*
X141920000Y-40480000D01*
X144580000Y-41750000D02*
X144580000Y-43080000D01*
X144580000Y-43080000D02*
X143250000Y-43080000D01*
X120330000Y-43080000D02*
X119000000Y-43080000D01*
X120330000Y-41750000D02*
X120330000Y-43080000D01*
X120330000Y-40480000D02*
X117670000Y-40480000D01*
X117670000Y-40480000D02*
X117670000Y-35340000D01*
X120330000Y-40480000D02*
X120330000Y-35340000D01*
X120330000Y-35340000D02*
X117670000Y-35340000D01*
D10*
X124833333Y-45307142D02*
X124785714Y-45354761D01*
X124642857Y-45402380D01*
X124547619Y-45402380D01*
X124404761Y-45354761D01*
X124309523Y-45259523D01*
X124261904Y-45164285D01*
X124214285Y-44973809D01*
X124214285Y-44830952D01*
X124261904Y-44640476D01*
X124309523Y-44545238D01*
X124404761Y-44450000D01*
X124547619Y-44402380D01*
X124642857Y-44402380D01*
X124785714Y-44450000D01*
X124833333Y-44497619D01*
X125785714Y-45402380D02*
X125214285Y-45402380D01*
X125500000Y-45402380D02*
X125500000Y-44402380D01*
X125404761Y-44545238D01*
X125309523Y-44640476D01*
X125214285Y-44688095D01*
X152083333Y-38857142D02*
X152035714Y-38904761D01*
X151892857Y-38952380D01*
X151797619Y-38952380D01*
X151654761Y-38904761D01*
X151559523Y-38809523D01*
X151511904Y-38714285D01*
X151464285Y-38523809D01*
X151464285Y-38380952D01*
X151511904Y-38190476D01*
X151559523Y-38095238D01*
X151654761Y-38000000D01*
X151797619Y-37952380D01*
X151892857Y-37952380D01*
X152035714Y-38000000D01*
X152083333Y-38047619D01*
X152464285Y-38047619D02*
X152511904Y-38000000D01*
X152607142Y-37952380D01*
X152845238Y-37952380D01*
X152940476Y-38000000D01*
X152988095Y-38047619D01*
X153035714Y-38142857D01*
X153035714Y-38238095D01*
X152988095Y-38380952D01*
X152416666Y-38952380D01*
X153035714Y-38952380D01*
X127333333Y-45357142D02*
X127285714Y-45404761D01*
X127142857Y-45452380D01*
X127047619Y-45452380D01*
X126904761Y-45404761D01*
X126809523Y-45309523D01*
X126761904Y-45214285D01*
X126714285Y-45023809D01*
X126714285Y-44880952D01*
X126761904Y-44690476D01*
X126809523Y-44595238D01*
X126904761Y-44500000D01*
X127047619Y-44452380D01*
X127142857Y-44452380D01*
X127285714Y-44500000D01*
X127333333Y-44547619D01*
X127666666Y-44452380D02*
X128285714Y-44452380D01*
X127952380Y-44833333D01*
X128095238Y-44833333D01*
X128190476Y-44880952D01*
X128238095Y-44928571D01*
X128285714Y-45023809D01*
X128285714Y-45261904D01*
X128238095Y-45357142D01*
X128190476Y-45404761D01*
X128095238Y-45452380D01*
X127809523Y-45452380D01*
X127714285Y-45404761D01*
X127666666Y-45357142D01*
X110583333Y-37107142D02*
X110535714Y-37154761D01*
X110392857Y-37202380D01*
X110297619Y-37202380D01*
X110154761Y-37154761D01*
X110059523Y-37059523D01*
X110011904Y-36964285D01*
X109964285Y-36773809D01*
X109964285Y-36630952D01*
X110011904Y-36440476D01*
X110059523Y-36345238D01*
X110154761Y-36250000D01*
X110297619Y-36202380D01*
X110392857Y-36202380D01*
X110535714Y-36250000D01*
X110583333Y-36297619D01*
X111440476Y-36535714D02*
X111440476Y-37202380D01*
X111202380Y-36154761D02*
X110964285Y-36869047D01*
X111583333Y-36869047D01*
X135511904Y-36202380D02*
X135511904Y-35202380D01*
X135750000Y-35202380D01*
X135892857Y-35250000D01*
X135988095Y-35345238D01*
X136035714Y-35440476D01*
X136083333Y-35630952D01*
X136083333Y-35773809D01*
X136035714Y-35964285D01*
X135988095Y-36059523D01*
X135892857Y-36154761D01*
X135750000Y-36202380D01*
X135511904Y-36202380D01*
X137035714Y-36202380D02*
X136464285Y-36202380D01*
X136750000Y-36202380D02*
X136750000Y-35202380D01*
X136654761Y-35345238D01*
X136559523Y-35440476D01*
X136464285Y-35488095D01*
X127333333Y-36202380D02*
X127000000Y-35726190D01*
X126761904Y-36202380D02*
X126761904Y-35202380D01*
X127142857Y-35202380D01*
X127238095Y-35250000D01*
X127285714Y-35297619D01*
X127333333Y-35392857D01*
X127333333Y-35535714D01*
X127285714Y-35630952D01*
X127238095Y-35678571D01*
X127142857Y-35726190D01*
X126761904Y-35726190D01*
X128285714Y-36202380D02*
X127714285Y-36202380D01*
X128000000Y-36202380D02*
X128000000Y-35202380D01*
X127904761Y-35345238D01*
X127809523Y-35440476D01*
X127714285Y-35488095D01*
X128988095Y-47202380D02*
X128988095Y-48011904D01*
X129035714Y-48107142D01*
X129083333Y-48154761D01*
X129178571Y-48202380D01*
X129369047Y-48202380D01*
X129464285Y-48154761D01*
X129511904Y-48107142D01*
X129559523Y-48011904D01*
X129559523Y-47202380D01*
X130559523Y-48202380D02*
X129988095Y-48202380D01*
X130273809Y-48202380D02*
X130273809Y-47202380D01*
X130178571Y-47345238D01*
X130083333Y-47440476D01*
X129988095Y-47488095D01*
X110416666Y-43452380D02*
X110416666Y-44166666D01*
X110369047Y-44309523D01*
X110273809Y-44404761D01*
X110130952Y-44452380D01*
X110035714Y-44452380D01*
X110845238Y-43547619D02*
X110892857Y-43500000D01*
X110988095Y-43452380D01*
X111226190Y-43452380D01*
X111321428Y-43500000D01*
X111369047Y-43547619D01*
X111416666Y-43642857D01*
X111416666Y-43738095D01*
X111369047Y-43880952D01*
X110797619Y-44452380D01*
X111416666Y-44452380D01*
X142916666Y-43702380D02*
X142916666Y-44416666D01*
X142869047Y-44559523D01*
X142773809Y-44654761D01*
X142630952Y-44702380D01*
X142535714Y-44702380D01*
X143821428Y-44035714D02*
X143821428Y-44702380D01*
X143583333Y-43654761D02*
X143345238Y-44369047D01*
X143964285Y-44369047D01*
X118666666Y-43702380D02*
X118666666Y-44416666D01*
X118619047Y-44559523D01*
X118523809Y-44654761D01*
X118380952Y-44702380D01*
X118285714Y-44702380D01*
X119619047Y-43702380D02*
X119142857Y-43702380D01*
X119095238Y-44178571D01*
X119142857Y-44130952D01*
X119238095Y-44083333D01*
X119476190Y-44083333D01*
X119571428Y-44130952D01*
X119619047Y-44178571D01*
X119666666Y-44273809D01*
X119666666Y-44511904D01*
X119619047Y-44607142D01*
X119571428Y-44654761D01*
X119476190Y-44702380D01*
X119238095Y-44702380D01*
X119142857Y-44654761D01*
X119095238Y-44607142D01*
M02*
