G04 #@! TF.GenerationSoftware,KiCad,Pcbnew,(5.1.4)-1*
G04 #@! TF.CreationDate,2019-09-29T17:47:35+09:00*
G04 #@! TF.ProjectId,project 02 micro usb,70726f6a-6563-4742-9030-32206d696372,2*
G04 #@! TF.SameCoordinates,Original*
G04 #@! TF.FileFunction,Copper,L1,Top*
G04 #@! TF.FilePolarity,Positive*
%FSLAX46Y46*%
G04 Gerber Fmt 4.6, Leading zero omitted, Abs format (unit mm)*
G04 Created by KiCad (PCBNEW (5.1.4)-1) date 2019-09-29 17:47:35*
%MOMM*%
%LPD*%
G04 APERTURE LIST*
%ADD10C,0.100000*%
%ADD11C,1.150000*%
%ADD12R,1.800000X1.800000*%
%ADD13C,1.800000*%
%ADD14O,1.700000X1.700000*%
%ADD15R,1.700000X1.700000*%
%ADD16R,2.000000X3.800000*%
%ADD17R,2.000000X1.500000*%
%ADD18R,1.350000X0.400000*%
%ADD19O,0.950000X1.250000*%
%ADD20O,1.550000X1.000000*%
%ADD21C,1.000000*%
%ADD22C,0.500000*%
%ADD23C,0.800000*%
%ADD24C,0.254000*%
G04 APERTURE END LIST*
D10*
G36*
X125474505Y-42426204D02*
G01*
X125498773Y-42429804D01*
X125522572Y-42435765D01*
X125545671Y-42444030D01*
X125567850Y-42454520D01*
X125588893Y-42467132D01*
X125608599Y-42481747D01*
X125626777Y-42498223D01*
X125643253Y-42516401D01*
X125657868Y-42536107D01*
X125670480Y-42557150D01*
X125680970Y-42579329D01*
X125689235Y-42602428D01*
X125695196Y-42626227D01*
X125698796Y-42650495D01*
X125700000Y-42674999D01*
X125700000Y-43325001D01*
X125698796Y-43349505D01*
X125695196Y-43373773D01*
X125689235Y-43397572D01*
X125680970Y-43420671D01*
X125670480Y-43442850D01*
X125657868Y-43463893D01*
X125643253Y-43483599D01*
X125626777Y-43501777D01*
X125608599Y-43518253D01*
X125588893Y-43532868D01*
X125567850Y-43545480D01*
X125545671Y-43555970D01*
X125522572Y-43564235D01*
X125498773Y-43570196D01*
X125474505Y-43573796D01*
X125450001Y-43575000D01*
X124549999Y-43575000D01*
X124525495Y-43573796D01*
X124501227Y-43570196D01*
X124477428Y-43564235D01*
X124454329Y-43555970D01*
X124432150Y-43545480D01*
X124411107Y-43532868D01*
X124391401Y-43518253D01*
X124373223Y-43501777D01*
X124356747Y-43483599D01*
X124342132Y-43463893D01*
X124329520Y-43442850D01*
X124319030Y-43420671D01*
X124310765Y-43397572D01*
X124304804Y-43373773D01*
X124301204Y-43349505D01*
X124300000Y-43325001D01*
X124300000Y-42674999D01*
X124301204Y-42650495D01*
X124304804Y-42626227D01*
X124310765Y-42602428D01*
X124319030Y-42579329D01*
X124329520Y-42557150D01*
X124342132Y-42536107D01*
X124356747Y-42516401D01*
X124373223Y-42498223D01*
X124391401Y-42481747D01*
X124411107Y-42467132D01*
X124432150Y-42454520D01*
X124454329Y-42444030D01*
X124477428Y-42435765D01*
X124501227Y-42429804D01*
X124525495Y-42426204D01*
X124549999Y-42425000D01*
X125450001Y-42425000D01*
X125474505Y-42426204D01*
X125474505Y-42426204D01*
G37*
D11*
X125000000Y-43000000D03*
D10*
G36*
X125474505Y-40376204D02*
G01*
X125498773Y-40379804D01*
X125522572Y-40385765D01*
X125545671Y-40394030D01*
X125567850Y-40404520D01*
X125588893Y-40417132D01*
X125608599Y-40431747D01*
X125626777Y-40448223D01*
X125643253Y-40466401D01*
X125657868Y-40486107D01*
X125670480Y-40507150D01*
X125680970Y-40529329D01*
X125689235Y-40552428D01*
X125695196Y-40576227D01*
X125698796Y-40600495D01*
X125700000Y-40624999D01*
X125700000Y-41275001D01*
X125698796Y-41299505D01*
X125695196Y-41323773D01*
X125689235Y-41347572D01*
X125680970Y-41370671D01*
X125670480Y-41392850D01*
X125657868Y-41413893D01*
X125643253Y-41433599D01*
X125626777Y-41451777D01*
X125608599Y-41468253D01*
X125588893Y-41482868D01*
X125567850Y-41495480D01*
X125545671Y-41505970D01*
X125522572Y-41514235D01*
X125498773Y-41520196D01*
X125474505Y-41523796D01*
X125450001Y-41525000D01*
X124549999Y-41525000D01*
X124525495Y-41523796D01*
X124501227Y-41520196D01*
X124477428Y-41514235D01*
X124454329Y-41505970D01*
X124432150Y-41495480D01*
X124411107Y-41482868D01*
X124391401Y-41468253D01*
X124373223Y-41451777D01*
X124356747Y-41433599D01*
X124342132Y-41413893D01*
X124329520Y-41392850D01*
X124319030Y-41370671D01*
X124310765Y-41347572D01*
X124304804Y-41323773D01*
X124301204Y-41299505D01*
X124300000Y-41275001D01*
X124300000Y-40624999D01*
X124301204Y-40600495D01*
X124304804Y-40576227D01*
X124310765Y-40552428D01*
X124319030Y-40529329D01*
X124329520Y-40507150D01*
X124342132Y-40486107D01*
X124356747Y-40466401D01*
X124373223Y-40448223D01*
X124391401Y-40431747D01*
X124411107Y-40417132D01*
X124432150Y-40404520D01*
X124454329Y-40394030D01*
X124477428Y-40385765D01*
X124501227Y-40379804D01*
X124525495Y-40376204D01*
X124549999Y-40375000D01*
X125450001Y-40375000D01*
X125474505Y-40376204D01*
X125474505Y-40376204D01*
G37*
D11*
X125000000Y-40950000D03*
D10*
G36*
X151574505Y-36051204D02*
G01*
X151598773Y-36054804D01*
X151622572Y-36060765D01*
X151645671Y-36069030D01*
X151667850Y-36079520D01*
X151688893Y-36092132D01*
X151708599Y-36106747D01*
X151726777Y-36123223D01*
X151743253Y-36141401D01*
X151757868Y-36161107D01*
X151770480Y-36182150D01*
X151780970Y-36204329D01*
X151789235Y-36227428D01*
X151795196Y-36251227D01*
X151798796Y-36275495D01*
X151800000Y-36299999D01*
X151800000Y-37200001D01*
X151798796Y-37224505D01*
X151795196Y-37248773D01*
X151789235Y-37272572D01*
X151780970Y-37295671D01*
X151770480Y-37317850D01*
X151757868Y-37338893D01*
X151743253Y-37358599D01*
X151726777Y-37376777D01*
X151708599Y-37393253D01*
X151688893Y-37407868D01*
X151667850Y-37420480D01*
X151645671Y-37430970D01*
X151622572Y-37439235D01*
X151598773Y-37445196D01*
X151574505Y-37448796D01*
X151550001Y-37450000D01*
X150899999Y-37450000D01*
X150875495Y-37448796D01*
X150851227Y-37445196D01*
X150827428Y-37439235D01*
X150804329Y-37430970D01*
X150782150Y-37420480D01*
X150761107Y-37407868D01*
X150741401Y-37393253D01*
X150723223Y-37376777D01*
X150706747Y-37358599D01*
X150692132Y-37338893D01*
X150679520Y-37317850D01*
X150669030Y-37295671D01*
X150660765Y-37272572D01*
X150654804Y-37248773D01*
X150651204Y-37224505D01*
X150650000Y-37200001D01*
X150650000Y-36299999D01*
X150651204Y-36275495D01*
X150654804Y-36251227D01*
X150660765Y-36227428D01*
X150669030Y-36204329D01*
X150679520Y-36182150D01*
X150692132Y-36161107D01*
X150706747Y-36141401D01*
X150723223Y-36123223D01*
X150741401Y-36106747D01*
X150761107Y-36092132D01*
X150782150Y-36079520D01*
X150804329Y-36069030D01*
X150827428Y-36060765D01*
X150851227Y-36054804D01*
X150875495Y-36051204D01*
X150899999Y-36050000D01*
X151550001Y-36050000D01*
X151574505Y-36051204D01*
X151574505Y-36051204D01*
G37*
D11*
X151225000Y-36750000D03*
D10*
G36*
X153624505Y-36051204D02*
G01*
X153648773Y-36054804D01*
X153672572Y-36060765D01*
X153695671Y-36069030D01*
X153717850Y-36079520D01*
X153738893Y-36092132D01*
X153758599Y-36106747D01*
X153776777Y-36123223D01*
X153793253Y-36141401D01*
X153807868Y-36161107D01*
X153820480Y-36182150D01*
X153830970Y-36204329D01*
X153839235Y-36227428D01*
X153845196Y-36251227D01*
X153848796Y-36275495D01*
X153850000Y-36299999D01*
X153850000Y-37200001D01*
X153848796Y-37224505D01*
X153845196Y-37248773D01*
X153839235Y-37272572D01*
X153830970Y-37295671D01*
X153820480Y-37317850D01*
X153807868Y-37338893D01*
X153793253Y-37358599D01*
X153776777Y-37376777D01*
X153758599Y-37393253D01*
X153738893Y-37407868D01*
X153717850Y-37420480D01*
X153695671Y-37430970D01*
X153672572Y-37439235D01*
X153648773Y-37445196D01*
X153624505Y-37448796D01*
X153600001Y-37450000D01*
X152949999Y-37450000D01*
X152925495Y-37448796D01*
X152901227Y-37445196D01*
X152877428Y-37439235D01*
X152854329Y-37430970D01*
X152832150Y-37420480D01*
X152811107Y-37407868D01*
X152791401Y-37393253D01*
X152773223Y-37376777D01*
X152756747Y-37358599D01*
X152742132Y-37338893D01*
X152729520Y-37317850D01*
X152719030Y-37295671D01*
X152710765Y-37272572D01*
X152704804Y-37248773D01*
X152701204Y-37224505D01*
X152700000Y-37200001D01*
X152700000Y-36299999D01*
X152701204Y-36275495D01*
X152704804Y-36251227D01*
X152710765Y-36227428D01*
X152719030Y-36204329D01*
X152729520Y-36182150D01*
X152742132Y-36161107D01*
X152756747Y-36141401D01*
X152773223Y-36123223D01*
X152791401Y-36106747D01*
X152811107Y-36092132D01*
X152832150Y-36079520D01*
X152854329Y-36069030D01*
X152877428Y-36060765D01*
X152901227Y-36054804D01*
X152925495Y-36051204D01*
X152949999Y-36050000D01*
X153600001Y-36050000D01*
X153624505Y-36051204D01*
X153624505Y-36051204D01*
G37*
D11*
X153275000Y-36750000D03*
D10*
G36*
X127974505Y-40426204D02*
G01*
X127998773Y-40429804D01*
X128022572Y-40435765D01*
X128045671Y-40444030D01*
X128067850Y-40454520D01*
X128088893Y-40467132D01*
X128108599Y-40481747D01*
X128126777Y-40498223D01*
X128143253Y-40516401D01*
X128157868Y-40536107D01*
X128170480Y-40557150D01*
X128180970Y-40579329D01*
X128189235Y-40602428D01*
X128195196Y-40626227D01*
X128198796Y-40650495D01*
X128200000Y-40674999D01*
X128200000Y-41325001D01*
X128198796Y-41349505D01*
X128195196Y-41373773D01*
X128189235Y-41397572D01*
X128180970Y-41420671D01*
X128170480Y-41442850D01*
X128157868Y-41463893D01*
X128143253Y-41483599D01*
X128126777Y-41501777D01*
X128108599Y-41518253D01*
X128088893Y-41532868D01*
X128067850Y-41545480D01*
X128045671Y-41555970D01*
X128022572Y-41564235D01*
X127998773Y-41570196D01*
X127974505Y-41573796D01*
X127950001Y-41575000D01*
X127049999Y-41575000D01*
X127025495Y-41573796D01*
X127001227Y-41570196D01*
X126977428Y-41564235D01*
X126954329Y-41555970D01*
X126932150Y-41545480D01*
X126911107Y-41532868D01*
X126891401Y-41518253D01*
X126873223Y-41501777D01*
X126856747Y-41483599D01*
X126842132Y-41463893D01*
X126829520Y-41442850D01*
X126819030Y-41420671D01*
X126810765Y-41397572D01*
X126804804Y-41373773D01*
X126801204Y-41349505D01*
X126800000Y-41325001D01*
X126800000Y-40674999D01*
X126801204Y-40650495D01*
X126804804Y-40626227D01*
X126810765Y-40602428D01*
X126819030Y-40579329D01*
X126829520Y-40557150D01*
X126842132Y-40536107D01*
X126856747Y-40516401D01*
X126873223Y-40498223D01*
X126891401Y-40481747D01*
X126911107Y-40467132D01*
X126932150Y-40454520D01*
X126954329Y-40444030D01*
X126977428Y-40435765D01*
X127001227Y-40429804D01*
X127025495Y-40426204D01*
X127049999Y-40425000D01*
X127950001Y-40425000D01*
X127974505Y-40426204D01*
X127974505Y-40426204D01*
G37*
D11*
X127500000Y-41000000D03*
D10*
G36*
X127974505Y-42476204D02*
G01*
X127998773Y-42479804D01*
X128022572Y-42485765D01*
X128045671Y-42494030D01*
X128067850Y-42504520D01*
X128088893Y-42517132D01*
X128108599Y-42531747D01*
X128126777Y-42548223D01*
X128143253Y-42566401D01*
X128157868Y-42586107D01*
X128170480Y-42607150D01*
X128180970Y-42629329D01*
X128189235Y-42652428D01*
X128195196Y-42676227D01*
X128198796Y-42700495D01*
X128200000Y-42724999D01*
X128200000Y-43375001D01*
X128198796Y-43399505D01*
X128195196Y-43423773D01*
X128189235Y-43447572D01*
X128180970Y-43470671D01*
X128170480Y-43492850D01*
X128157868Y-43513893D01*
X128143253Y-43533599D01*
X128126777Y-43551777D01*
X128108599Y-43568253D01*
X128088893Y-43582868D01*
X128067850Y-43595480D01*
X128045671Y-43605970D01*
X128022572Y-43614235D01*
X127998773Y-43620196D01*
X127974505Y-43623796D01*
X127950001Y-43625000D01*
X127049999Y-43625000D01*
X127025495Y-43623796D01*
X127001227Y-43620196D01*
X126977428Y-43614235D01*
X126954329Y-43605970D01*
X126932150Y-43595480D01*
X126911107Y-43582868D01*
X126891401Y-43568253D01*
X126873223Y-43551777D01*
X126856747Y-43533599D01*
X126842132Y-43513893D01*
X126829520Y-43492850D01*
X126819030Y-43470671D01*
X126810765Y-43447572D01*
X126804804Y-43423773D01*
X126801204Y-43399505D01*
X126800000Y-43375001D01*
X126800000Y-42724999D01*
X126801204Y-42700495D01*
X126804804Y-42676227D01*
X126810765Y-42652428D01*
X126819030Y-42629329D01*
X126829520Y-42607150D01*
X126842132Y-42586107D01*
X126856747Y-42566401D01*
X126873223Y-42548223D01*
X126891401Y-42531747D01*
X126911107Y-42517132D01*
X126932150Y-42504520D01*
X126954329Y-42494030D01*
X126977428Y-42485765D01*
X127001227Y-42479804D01*
X127025495Y-42476204D01*
X127049999Y-42475000D01*
X127950001Y-42475000D01*
X127974505Y-42476204D01*
X127974505Y-42476204D01*
G37*
D11*
X127500000Y-43050000D03*
D10*
G36*
X109099505Y-36051204D02*
G01*
X109123773Y-36054804D01*
X109147572Y-36060765D01*
X109170671Y-36069030D01*
X109192850Y-36079520D01*
X109213893Y-36092132D01*
X109233599Y-36106747D01*
X109251777Y-36123223D01*
X109268253Y-36141401D01*
X109282868Y-36161107D01*
X109295480Y-36182150D01*
X109305970Y-36204329D01*
X109314235Y-36227428D01*
X109320196Y-36251227D01*
X109323796Y-36275495D01*
X109325000Y-36299999D01*
X109325000Y-37200001D01*
X109323796Y-37224505D01*
X109320196Y-37248773D01*
X109314235Y-37272572D01*
X109305970Y-37295671D01*
X109295480Y-37317850D01*
X109282868Y-37338893D01*
X109268253Y-37358599D01*
X109251777Y-37376777D01*
X109233599Y-37393253D01*
X109213893Y-37407868D01*
X109192850Y-37420480D01*
X109170671Y-37430970D01*
X109147572Y-37439235D01*
X109123773Y-37445196D01*
X109099505Y-37448796D01*
X109075001Y-37450000D01*
X108424999Y-37450000D01*
X108400495Y-37448796D01*
X108376227Y-37445196D01*
X108352428Y-37439235D01*
X108329329Y-37430970D01*
X108307150Y-37420480D01*
X108286107Y-37407868D01*
X108266401Y-37393253D01*
X108248223Y-37376777D01*
X108231747Y-37358599D01*
X108217132Y-37338893D01*
X108204520Y-37317850D01*
X108194030Y-37295671D01*
X108185765Y-37272572D01*
X108179804Y-37248773D01*
X108176204Y-37224505D01*
X108175000Y-37200001D01*
X108175000Y-36299999D01*
X108176204Y-36275495D01*
X108179804Y-36251227D01*
X108185765Y-36227428D01*
X108194030Y-36204329D01*
X108204520Y-36182150D01*
X108217132Y-36161107D01*
X108231747Y-36141401D01*
X108248223Y-36123223D01*
X108266401Y-36106747D01*
X108286107Y-36092132D01*
X108307150Y-36079520D01*
X108329329Y-36069030D01*
X108352428Y-36060765D01*
X108376227Y-36054804D01*
X108400495Y-36051204D01*
X108424999Y-36050000D01*
X109075001Y-36050000D01*
X109099505Y-36051204D01*
X109099505Y-36051204D01*
G37*
D11*
X108750000Y-36750000D03*
D10*
G36*
X107049505Y-36051204D02*
G01*
X107073773Y-36054804D01*
X107097572Y-36060765D01*
X107120671Y-36069030D01*
X107142850Y-36079520D01*
X107163893Y-36092132D01*
X107183599Y-36106747D01*
X107201777Y-36123223D01*
X107218253Y-36141401D01*
X107232868Y-36161107D01*
X107245480Y-36182150D01*
X107255970Y-36204329D01*
X107264235Y-36227428D01*
X107270196Y-36251227D01*
X107273796Y-36275495D01*
X107275000Y-36299999D01*
X107275000Y-37200001D01*
X107273796Y-37224505D01*
X107270196Y-37248773D01*
X107264235Y-37272572D01*
X107255970Y-37295671D01*
X107245480Y-37317850D01*
X107232868Y-37338893D01*
X107218253Y-37358599D01*
X107201777Y-37376777D01*
X107183599Y-37393253D01*
X107163893Y-37407868D01*
X107142850Y-37420480D01*
X107120671Y-37430970D01*
X107097572Y-37439235D01*
X107073773Y-37445196D01*
X107049505Y-37448796D01*
X107025001Y-37450000D01*
X106374999Y-37450000D01*
X106350495Y-37448796D01*
X106326227Y-37445196D01*
X106302428Y-37439235D01*
X106279329Y-37430970D01*
X106257150Y-37420480D01*
X106236107Y-37407868D01*
X106216401Y-37393253D01*
X106198223Y-37376777D01*
X106181747Y-37358599D01*
X106167132Y-37338893D01*
X106154520Y-37317850D01*
X106144030Y-37295671D01*
X106135765Y-37272572D01*
X106129804Y-37248773D01*
X106126204Y-37224505D01*
X106125000Y-37200001D01*
X106125000Y-36299999D01*
X106126204Y-36275495D01*
X106129804Y-36251227D01*
X106135765Y-36227428D01*
X106144030Y-36204329D01*
X106154520Y-36182150D01*
X106167132Y-36161107D01*
X106181747Y-36141401D01*
X106198223Y-36123223D01*
X106216401Y-36106747D01*
X106236107Y-36092132D01*
X106257150Y-36079520D01*
X106279329Y-36069030D01*
X106302428Y-36060765D01*
X106326227Y-36054804D01*
X106350495Y-36051204D01*
X106374999Y-36050000D01*
X107025001Y-36050000D01*
X107049505Y-36051204D01*
X107049505Y-36051204D01*
G37*
D11*
X106700000Y-36750000D03*
D12*
X134250000Y-37250000D03*
D13*
X131710000Y-37250000D03*
D14*
X153540000Y-34040000D03*
X153540000Y-31500000D03*
X151000000Y-34040000D03*
D15*
X151000000Y-31500000D03*
X106460000Y-31500000D03*
D14*
X106460000Y-34040000D03*
X109000000Y-31500000D03*
X109000000Y-34040000D03*
D10*
G36*
X129724505Y-37701204D02*
G01*
X129748773Y-37704804D01*
X129772572Y-37710765D01*
X129795671Y-37719030D01*
X129817850Y-37729520D01*
X129838893Y-37742132D01*
X129858599Y-37756747D01*
X129876777Y-37773223D01*
X129893253Y-37791401D01*
X129907868Y-37811107D01*
X129920480Y-37832150D01*
X129930970Y-37854329D01*
X129939235Y-37877428D01*
X129945196Y-37901227D01*
X129948796Y-37925495D01*
X129950000Y-37949999D01*
X129950000Y-38600001D01*
X129948796Y-38624505D01*
X129945196Y-38648773D01*
X129939235Y-38672572D01*
X129930970Y-38695671D01*
X129920480Y-38717850D01*
X129907868Y-38738893D01*
X129893253Y-38758599D01*
X129876777Y-38776777D01*
X129858599Y-38793253D01*
X129838893Y-38807868D01*
X129817850Y-38820480D01*
X129795671Y-38830970D01*
X129772572Y-38839235D01*
X129748773Y-38845196D01*
X129724505Y-38848796D01*
X129700001Y-38850000D01*
X128799999Y-38850000D01*
X128775495Y-38848796D01*
X128751227Y-38845196D01*
X128727428Y-38839235D01*
X128704329Y-38830970D01*
X128682150Y-38820480D01*
X128661107Y-38807868D01*
X128641401Y-38793253D01*
X128623223Y-38776777D01*
X128606747Y-38758599D01*
X128592132Y-38738893D01*
X128579520Y-38717850D01*
X128569030Y-38695671D01*
X128560765Y-38672572D01*
X128554804Y-38648773D01*
X128551204Y-38624505D01*
X128550000Y-38600001D01*
X128550000Y-37949999D01*
X128551204Y-37925495D01*
X128554804Y-37901227D01*
X128560765Y-37877428D01*
X128569030Y-37854329D01*
X128579520Y-37832150D01*
X128592132Y-37811107D01*
X128606747Y-37791401D01*
X128623223Y-37773223D01*
X128641401Y-37756747D01*
X128661107Y-37742132D01*
X128682150Y-37729520D01*
X128704329Y-37719030D01*
X128727428Y-37710765D01*
X128751227Y-37704804D01*
X128775495Y-37701204D01*
X128799999Y-37700000D01*
X129700001Y-37700000D01*
X129724505Y-37701204D01*
X129724505Y-37701204D01*
G37*
D11*
X129250000Y-38275000D03*
D10*
G36*
X129724505Y-35651204D02*
G01*
X129748773Y-35654804D01*
X129772572Y-35660765D01*
X129795671Y-35669030D01*
X129817850Y-35679520D01*
X129838893Y-35692132D01*
X129858599Y-35706747D01*
X129876777Y-35723223D01*
X129893253Y-35741401D01*
X129907868Y-35761107D01*
X129920480Y-35782150D01*
X129930970Y-35804329D01*
X129939235Y-35827428D01*
X129945196Y-35851227D01*
X129948796Y-35875495D01*
X129950000Y-35899999D01*
X129950000Y-36550001D01*
X129948796Y-36574505D01*
X129945196Y-36598773D01*
X129939235Y-36622572D01*
X129930970Y-36645671D01*
X129920480Y-36667850D01*
X129907868Y-36688893D01*
X129893253Y-36708599D01*
X129876777Y-36726777D01*
X129858599Y-36743253D01*
X129838893Y-36757868D01*
X129817850Y-36770480D01*
X129795671Y-36780970D01*
X129772572Y-36789235D01*
X129748773Y-36795196D01*
X129724505Y-36798796D01*
X129700001Y-36800000D01*
X128799999Y-36800000D01*
X128775495Y-36798796D01*
X128751227Y-36795196D01*
X128727428Y-36789235D01*
X128704329Y-36780970D01*
X128682150Y-36770480D01*
X128661107Y-36757868D01*
X128641401Y-36743253D01*
X128623223Y-36726777D01*
X128606747Y-36708599D01*
X128592132Y-36688893D01*
X128579520Y-36667850D01*
X128569030Y-36645671D01*
X128560765Y-36622572D01*
X128554804Y-36598773D01*
X128551204Y-36574505D01*
X128550000Y-36550001D01*
X128550000Y-35899999D01*
X128551204Y-35875495D01*
X128554804Y-35851227D01*
X128560765Y-35827428D01*
X128569030Y-35804329D01*
X128579520Y-35782150D01*
X128592132Y-35761107D01*
X128606747Y-35741401D01*
X128623223Y-35723223D01*
X128641401Y-35706747D01*
X128661107Y-35692132D01*
X128682150Y-35679520D01*
X128704329Y-35669030D01*
X128727428Y-35660765D01*
X128751227Y-35654804D01*
X128775495Y-35651204D01*
X128799999Y-35650000D01*
X129700001Y-35650000D01*
X129724505Y-35651204D01*
X129724505Y-35651204D01*
G37*
D11*
X129250000Y-36225000D03*
D16*
X136400000Y-43250000D03*
D17*
X130100000Y-43250000D03*
X130100000Y-45550000D03*
X130100000Y-40950000D03*
D18*
X108750000Y-42250000D03*
X108750000Y-42900000D03*
X108750000Y-43550000D03*
X108750000Y-41600000D03*
X108750000Y-40950000D03*
D19*
X108750000Y-44750000D03*
X108750000Y-39750000D03*
D20*
X106050000Y-38750000D03*
X106050000Y-45750000D03*
D15*
X143250000Y-41750000D03*
D14*
X143250000Y-39210000D03*
X143250000Y-36670000D03*
X119000000Y-36670000D03*
X119000000Y-39210000D03*
D15*
X119000000Y-41750000D03*
D21*
X125000000Y-40950000D02*
X130100000Y-40950000D01*
X130685000Y-36225000D02*
X131710000Y-37250000D01*
X129250000Y-36225000D02*
X130685000Y-36225000D01*
D22*
X118200000Y-40950000D02*
X119000000Y-41750000D01*
X108750000Y-40950000D02*
X118200000Y-40950000D01*
D21*
X119000000Y-41750000D02*
X121500000Y-41750000D01*
X121500000Y-41750000D02*
X122750000Y-43000000D01*
X122750000Y-43000000D02*
X125000000Y-43000000D01*
X129300000Y-44750000D02*
X130100000Y-45550000D01*
X125000000Y-43000000D02*
X125000000Y-43675000D01*
X125000000Y-43675000D02*
X126000000Y-44675000D01*
X126000000Y-44675000D02*
X126000000Y-44750000D01*
X126000000Y-44750000D02*
X129300000Y-44750000D01*
X131350000Y-45550000D02*
X132550000Y-46750000D01*
X141250000Y-46750000D02*
X143250000Y-44750000D01*
X143250000Y-44750000D02*
X143250000Y-41750000D01*
X132550000Y-46750000D02*
X141250000Y-46750000D01*
X130100000Y-45550000D02*
X131350000Y-45550000D01*
X151225000Y-34265000D02*
X151000000Y-34040000D01*
X151225000Y-36750000D02*
X151225000Y-34265000D01*
X151000000Y-32600000D02*
X151000000Y-34040000D01*
X151000000Y-31500000D02*
X151000000Y-32600000D01*
X148765000Y-39210000D02*
X151225000Y-36750000D01*
X143250000Y-39210000D02*
X148765000Y-39210000D01*
X135150000Y-43250000D02*
X136400000Y-43250000D01*
X130100000Y-43250000D02*
X131350000Y-43250000D01*
X129900000Y-43050000D02*
X130100000Y-43250000D01*
X127500000Y-43050000D02*
X129900000Y-43050000D01*
X133000000Y-43250000D02*
X136400000Y-43250000D01*
X131350000Y-43250000D02*
X133000000Y-43250000D01*
X119000000Y-36670000D02*
X124170000Y-36670000D01*
X125775000Y-38275000D02*
X129250000Y-38275000D01*
X124170000Y-36670000D02*
X125775000Y-38275000D01*
X133000000Y-41225000D02*
X133000000Y-43250000D01*
X133000000Y-40987500D02*
X133000000Y-41462500D01*
X129250000Y-38275000D02*
X130050000Y-38275000D01*
X143250000Y-36670000D02*
X138080000Y-36670000D01*
X138080000Y-36670000D02*
X136400000Y-38350000D01*
X136400000Y-38350000D02*
X136400000Y-43250000D01*
X132962500Y-40987500D02*
X133000000Y-40987500D01*
X130250000Y-38275000D02*
X132962500Y-40987500D01*
X129275000Y-38250000D02*
X130225000Y-38250000D01*
X129250000Y-38275000D02*
X129275000Y-38250000D01*
X106460000Y-31500000D02*
X106460000Y-34040000D01*
X106460000Y-34040000D02*
X106460000Y-36510000D01*
X106460000Y-36510000D02*
X106700000Y-36750000D01*
D23*
X108200000Y-38250000D02*
X118040000Y-38250000D01*
X106700000Y-36750000D02*
X108200000Y-38250000D01*
X118040000Y-38250000D02*
X119000000Y-39210000D01*
D24*
G36*
X110419001Y-34278540D02*
G01*
X110421424Y-34303141D01*
X110421403Y-34306148D01*
X110422195Y-34314221D01*
X110427290Y-34362698D01*
X110427408Y-34363896D01*
X110427420Y-34363936D01*
X110432395Y-34411270D01*
X110442986Y-34462867D01*
X110452851Y-34514579D01*
X110455195Y-34522345D01*
X110484051Y-34615564D01*
X110504457Y-34664107D01*
X110524185Y-34712935D01*
X110527994Y-34720098D01*
X110574406Y-34805936D01*
X110603880Y-34849632D01*
X110632687Y-34893653D01*
X110637810Y-34899935D01*
X110637814Y-34899941D01*
X110637819Y-34899946D01*
X110700015Y-34975129D01*
X110737365Y-35012219D01*
X110774220Y-35049854D01*
X110780470Y-35055025D01*
X110856091Y-35116701D01*
X110899961Y-35145848D01*
X110943408Y-35175596D01*
X110950544Y-35179455D01*
X111036705Y-35225267D01*
X111085409Y-35245341D01*
X111133786Y-35266076D01*
X111141536Y-35268475D01*
X111141540Y-35268477D01*
X111141545Y-35268478D01*
X111234953Y-35296680D01*
X111286617Y-35306910D01*
X111338122Y-35317857D01*
X111346179Y-35318704D01*
X111346185Y-35318705D01*
X111346190Y-35318705D01*
X111443047Y-35328201D01*
X111471460Y-35331000D01*
X128528503Y-35331000D01*
X128448411Y-35373810D01*
X128352512Y-35452512D01*
X128273810Y-35548411D01*
X128215329Y-35657821D01*
X128179317Y-35776538D01*
X128167157Y-35899999D01*
X128167157Y-36550001D01*
X128179317Y-36673462D01*
X128215329Y-36792179D01*
X128273810Y-36901589D01*
X128352512Y-36997488D01*
X128448411Y-37076190D01*
X128557821Y-37134671D01*
X128676538Y-37170683D01*
X128799999Y-37182843D01*
X129700001Y-37182843D01*
X129823462Y-37170683D01*
X129942179Y-37134671D01*
X129995819Y-37106000D01*
X130320079Y-37106000D01*
X130429000Y-37214921D01*
X130429000Y-37376167D01*
X130432191Y-37392209D01*
X130397706Y-37381748D01*
X130268273Y-37369000D01*
X129949047Y-37369000D01*
X129942179Y-37365329D01*
X129823462Y-37329317D01*
X129700001Y-37317157D01*
X128799999Y-37317157D01*
X128676538Y-37329317D01*
X128557821Y-37365329D01*
X128504181Y-37394000D01*
X126139922Y-37394000D01*
X124823566Y-36077645D01*
X124795975Y-36044025D01*
X124661825Y-35933932D01*
X124508775Y-35852125D01*
X124342706Y-35801748D01*
X124213273Y-35789000D01*
X124213270Y-35789000D01*
X124170000Y-35784738D01*
X124126730Y-35789000D01*
X119866935Y-35789000D01*
X119687216Y-35641509D01*
X119473363Y-35527202D01*
X119241318Y-35456812D01*
X119060472Y-35439000D01*
X118939528Y-35439000D01*
X118758682Y-35456812D01*
X118526637Y-35527202D01*
X118312784Y-35641509D01*
X118125340Y-35795340D01*
X117971509Y-35982784D01*
X117857202Y-36196637D01*
X117786812Y-36428682D01*
X117763044Y-36670000D01*
X117786812Y-36911318D01*
X117857202Y-37143363D01*
X117971509Y-37357216D01*
X118061919Y-37467381D01*
X118040000Y-37465222D01*
X118001643Y-37469000D01*
X109705972Y-37469000D01*
X109707843Y-37450000D01*
X109706000Y-37218250D01*
X109610750Y-37123000D01*
X109123000Y-37123000D01*
X109123000Y-37143000D01*
X108377000Y-37143000D01*
X108377000Y-37123000D01*
X108357000Y-37123000D01*
X108357000Y-36377000D01*
X108377000Y-36377000D01*
X108377000Y-35764250D01*
X109123000Y-35764250D01*
X109123000Y-36377000D01*
X109610750Y-36377000D01*
X109706000Y-36281750D01*
X109707843Y-36050000D01*
X109700487Y-35975311D01*
X109678701Y-35903492D01*
X109643322Y-35837304D01*
X109595711Y-35779289D01*
X109537696Y-35731678D01*
X109471508Y-35696299D01*
X109399689Y-35674513D01*
X109325000Y-35667157D01*
X109218250Y-35669000D01*
X109123000Y-35764250D01*
X108377000Y-35764250D01*
X108281750Y-35669000D01*
X108175000Y-35667157D01*
X108100311Y-35674513D01*
X108028492Y-35696299D01*
X107962304Y-35731678D01*
X107904289Y-35779289D01*
X107856678Y-35837304D01*
X107821299Y-35903492D01*
X107799513Y-35975311D01*
X107792157Y-36050000D01*
X107794000Y-36281750D01*
X107889248Y-36376998D01*
X107794000Y-36376998D01*
X107794000Y-36739500D01*
X107657843Y-36603343D01*
X107657843Y-36299999D01*
X107645683Y-36176538D01*
X107609671Y-36057821D01*
X107551190Y-35948411D01*
X107472488Y-35852512D01*
X107376589Y-35773810D01*
X107341000Y-35754787D01*
X107341000Y-34906935D01*
X107488491Y-34727216D01*
X107560804Y-34591928D01*
X107899646Y-34591928D01*
X108028465Y-34795991D01*
X108194619Y-34971002D01*
X108391724Y-35110235D01*
X108448074Y-35140336D01*
X108627000Y-35112753D01*
X108627000Y-34413000D01*
X109373000Y-34413000D01*
X109373000Y-35112753D01*
X109551926Y-35140336D01*
X109608276Y-35110235D01*
X109805381Y-34971002D01*
X109971535Y-34795991D01*
X110100354Y-34591928D01*
X110077897Y-34413000D01*
X109373000Y-34413000D01*
X108627000Y-34413000D01*
X107922103Y-34413000D01*
X107899646Y-34591928D01*
X107560804Y-34591928D01*
X107602798Y-34513363D01*
X107673188Y-34281318D01*
X107696956Y-34040000D01*
X107673188Y-33798682D01*
X107602798Y-33566637D01*
X107560805Y-33488072D01*
X107899646Y-33488072D01*
X107922103Y-33667000D01*
X108627000Y-33667000D01*
X108627000Y-32967247D01*
X109373000Y-32967247D01*
X109373000Y-33667000D01*
X110077897Y-33667000D01*
X110100354Y-33488072D01*
X109971535Y-33284009D01*
X109805381Y-33108998D01*
X109608276Y-32969765D01*
X109551926Y-32939664D01*
X109373000Y-32967247D01*
X108627000Y-32967247D01*
X108448074Y-32939664D01*
X108391724Y-32969765D01*
X108194619Y-33108998D01*
X108028465Y-33284009D01*
X107899646Y-33488072D01*
X107560805Y-33488072D01*
X107488491Y-33352784D01*
X107341000Y-33173065D01*
X107341000Y-32729790D01*
X107384689Y-32725487D01*
X107456508Y-32703701D01*
X107522696Y-32668322D01*
X107580711Y-32620711D01*
X107628322Y-32562696D01*
X107663701Y-32496508D01*
X107685487Y-32424689D01*
X107692843Y-32350000D01*
X107692843Y-32051928D01*
X107899646Y-32051928D01*
X108028465Y-32255991D01*
X108194619Y-32431002D01*
X108391724Y-32570235D01*
X108448074Y-32600336D01*
X108627000Y-32572753D01*
X108627000Y-31873000D01*
X109373000Y-31873000D01*
X109373000Y-32572753D01*
X109551926Y-32600336D01*
X109608276Y-32570235D01*
X109805381Y-32431002D01*
X109971535Y-32255991D01*
X110100354Y-32051928D01*
X110077897Y-31873000D01*
X109373000Y-31873000D01*
X108627000Y-31873000D01*
X107922103Y-31873000D01*
X107899646Y-32051928D01*
X107692843Y-32051928D01*
X107692843Y-30948072D01*
X107899646Y-30948072D01*
X107922103Y-31127000D01*
X108627000Y-31127000D01*
X108627000Y-30427247D01*
X109373000Y-30427247D01*
X109373000Y-31127000D01*
X110077897Y-31127000D01*
X110100354Y-30948072D01*
X109971535Y-30744009D01*
X109805381Y-30568998D01*
X109608276Y-30429765D01*
X109551926Y-30399664D01*
X109373000Y-30427247D01*
X108627000Y-30427247D01*
X108448074Y-30399664D01*
X108391724Y-30429765D01*
X108194619Y-30568998D01*
X108028465Y-30744009D01*
X107899646Y-30948072D01*
X107692843Y-30948072D01*
X107692843Y-30650000D01*
X107685487Y-30575311D01*
X107663701Y-30503492D01*
X107628322Y-30437304D01*
X107580711Y-30379289D01*
X107522696Y-30331678D01*
X107456508Y-30296299D01*
X107384689Y-30274513D01*
X107310000Y-30267157D01*
X105610000Y-30267157D01*
X105535311Y-30274513D01*
X105463492Y-30296299D01*
X105397304Y-30331678D01*
X105339289Y-30379289D01*
X105291678Y-30437304D01*
X105256299Y-30503492D01*
X105234513Y-30575311D01*
X105227157Y-30650000D01*
X105227157Y-32350000D01*
X105234513Y-32424689D01*
X105256299Y-32496508D01*
X105291678Y-32562696D01*
X105339289Y-32620711D01*
X105397304Y-32668322D01*
X105463492Y-32703701D01*
X105535311Y-32725487D01*
X105579000Y-32729790D01*
X105579001Y-33173065D01*
X105431509Y-33352784D01*
X105317202Y-33566637D01*
X105246812Y-33798682D01*
X105223044Y-34040000D01*
X105246812Y-34281318D01*
X105317202Y-34513363D01*
X105431509Y-34727216D01*
X105579000Y-34906935D01*
X105579001Y-36466720D01*
X105574738Y-36510000D01*
X105591749Y-36682705D01*
X105642125Y-36848774D01*
X105723932Y-37001825D01*
X105742157Y-37024032D01*
X105742157Y-37200001D01*
X105754317Y-37323462D01*
X105790329Y-37442179D01*
X105848810Y-37551589D01*
X105927512Y-37647488D01*
X106023411Y-37726190D01*
X106132821Y-37784671D01*
X106251538Y-37820683D01*
X106374999Y-37832843D01*
X106678343Y-37832843D01*
X107620624Y-38775125D01*
X107645078Y-38804922D01*
X107674873Y-38829374D01*
X107764000Y-38902519D01*
X107812718Y-38928559D01*
X107899678Y-38975040D01*
X108046897Y-39019699D01*
X108143696Y-39029233D01*
X108071033Y-39111824D01*
X107988841Y-39253664D01*
X108039283Y-39377000D01*
X108402000Y-39377000D01*
X108402000Y-39357000D01*
X109098000Y-39357000D01*
X109098000Y-39377000D01*
X109460717Y-39377000D01*
X109511159Y-39253664D01*
X109428967Y-39111824D01*
X109357859Y-39031000D01*
X117716500Y-39031000D01*
X117774920Y-39089420D01*
X117763044Y-39210000D01*
X117786812Y-39451318D01*
X117857202Y-39683363D01*
X117971509Y-39897216D01*
X118125340Y-40084660D01*
X118312784Y-40238491D01*
X118526637Y-40352798D01*
X118758682Y-40423188D01*
X118939528Y-40441000D01*
X119060472Y-40441000D01*
X119241318Y-40423188D01*
X119400172Y-40375000D01*
X123917157Y-40375000D01*
X123919000Y-40481750D01*
X124014250Y-40577000D01*
X124627000Y-40577000D01*
X124627000Y-40089250D01*
X125373000Y-40089250D01*
X125373000Y-40577000D01*
X125985750Y-40577000D01*
X126081000Y-40481750D01*
X126081979Y-40425000D01*
X126417157Y-40425000D01*
X126419000Y-40531750D01*
X126514250Y-40627000D01*
X127127000Y-40627000D01*
X127127000Y-40139250D01*
X127873000Y-40139250D01*
X127873000Y-40627000D01*
X128485750Y-40627000D01*
X128581000Y-40531750D01*
X128582843Y-40425000D01*
X128575487Y-40350311D01*
X128553701Y-40278492D01*
X128518322Y-40212304D01*
X128508225Y-40200000D01*
X128717157Y-40200000D01*
X128719000Y-40481750D01*
X128814250Y-40577000D01*
X129727000Y-40577000D01*
X129727000Y-39914250D01*
X129631750Y-39819000D01*
X129100000Y-39817157D01*
X129025311Y-39824513D01*
X128953492Y-39846299D01*
X128887304Y-39881678D01*
X128829289Y-39929289D01*
X128781678Y-39987304D01*
X128746299Y-40053492D01*
X128724513Y-40125311D01*
X128717157Y-40200000D01*
X128508225Y-40200000D01*
X128470711Y-40154289D01*
X128412696Y-40106678D01*
X128346508Y-40071299D01*
X128274689Y-40049513D01*
X128200000Y-40042157D01*
X127968250Y-40044000D01*
X127873000Y-40139250D01*
X127127000Y-40139250D01*
X127031750Y-40044000D01*
X126800000Y-40042157D01*
X126725311Y-40049513D01*
X126653492Y-40071299D01*
X126587304Y-40106678D01*
X126529289Y-40154289D01*
X126481678Y-40212304D01*
X126446299Y-40278492D01*
X126424513Y-40350311D01*
X126417157Y-40425000D01*
X126081979Y-40425000D01*
X126082843Y-40375000D01*
X126075487Y-40300311D01*
X126053701Y-40228492D01*
X126018322Y-40162304D01*
X125970711Y-40104289D01*
X125912696Y-40056678D01*
X125846508Y-40021299D01*
X125774689Y-39999513D01*
X125700000Y-39992157D01*
X125468250Y-39994000D01*
X125373000Y-40089250D01*
X124627000Y-40089250D01*
X124531750Y-39994000D01*
X124300000Y-39992157D01*
X124225311Y-39999513D01*
X124153492Y-40021299D01*
X124087304Y-40056678D01*
X124029289Y-40104289D01*
X123981678Y-40162304D01*
X123946299Y-40228492D01*
X123924513Y-40300311D01*
X123917157Y-40375000D01*
X119400172Y-40375000D01*
X119473363Y-40352798D01*
X119687216Y-40238491D01*
X119874660Y-40084660D01*
X120028491Y-39897216D01*
X120142798Y-39683363D01*
X120213188Y-39451318D01*
X120236956Y-39210000D01*
X120213188Y-38968682D01*
X120142798Y-38736637D01*
X120028491Y-38522784D01*
X119874660Y-38335340D01*
X119687216Y-38181509D01*
X119473363Y-38067202D01*
X119241318Y-37996812D01*
X119060472Y-37979000D01*
X118939528Y-37979000D01*
X118879420Y-37984920D01*
X118779764Y-37885264D01*
X118939528Y-37901000D01*
X119060472Y-37901000D01*
X119241318Y-37883188D01*
X119473363Y-37812798D01*
X119687216Y-37698491D01*
X119866935Y-37551000D01*
X123805079Y-37551000D01*
X125121439Y-38867361D01*
X125149025Y-38900975D01*
X125182637Y-38928559D01*
X125283174Y-39011068D01*
X125368915Y-39056897D01*
X125436225Y-39092875D01*
X125602294Y-39143252D01*
X125731727Y-39156000D01*
X125731730Y-39156000D01*
X125775000Y-39160262D01*
X125818270Y-39156000D01*
X128504181Y-39156000D01*
X128557821Y-39184671D01*
X128676538Y-39220683D01*
X128799999Y-39232843D01*
X129700001Y-39232843D01*
X129823462Y-39220683D01*
X129920367Y-39191288D01*
X130558164Y-39829086D01*
X130473000Y-39914250D01*
X130473000Y-40577000D01*
X131306078Y-40577000D01*
X132119000Y-41389922D01*
X132119001Y-42369000D01*
X131458405Y-42369000D01*
X131453701Y-42353492D01*
X131418322Y-42287304D01*
X131370711Y-42229289D01*
X131312696Y-42181678D01*
X131246508Y-42146299D01*
X131174689Y-42124513D01*
X131100000Y-42117157D01*
X129100000Y-42117157D01*
X129025311Y-42124513D01*
X128953492Y-42146299D01*
X128911022Y-42169000D01*
X128245819Y-42169000D01*
X128192179Y-42140329D01*
X128073462Y-42104317D01*
X127950001Y-42092157D01*
X127049999Y-42092157D01*
X126926538Y-42104317D01*
X126807821Y-42140329D01*
X126698411Y-42198810D01*
X126602512Y-42277512D01*
X126523810Y-42373411D01*
X126465329Y-42482821D01*
X126429317Y-42601538D01*
X126417157Y-42724999D01*
X126417157Y-43375001D01*
X126429317Y-43498462D01*
X126465329Y-43617179D01*
X126523810Y-43726589D01*
X126602512Y-43822488D01*
X126659187Y-43869000D01*
X126439923Y-43869000D01*
X126058744Y-43487822D01*
X126070683Y-43448462D01*
X126082843Y-43325001D01*
X126082843Y-42674999D01*
X126070683Y-42551538D01*
X126034671Y-42432821D01*
X125976190Y-42323411D01*
X125897488Y-42227512D01*
X125801589Y-42148810D01*
X125692179Y-42090329D01*
X125573462Y-42054317D01*
X125450001Y-42042157D01*
X124549999Y-42042157D01*
X124426538Y-42054317D01*
X124307821Y-42090329D01*
X124254181Y-42119000D01*
X123114922Y-42119000D01*
X122520922Y-41525000D01*
X123917157Y-41525000D01*
X123924513Y-41599689D01*
X123946299Y-41671508D01*
X123981678Y-41737696D01*
X124029289Y-41795711D01*
X124087304Y-41843322D01*
X124153492Y-41878701D01*
X124225311Y-41900487D01*
X124300000Y-41907843D01*
X124531750Y-41906000D01*
X124627000Y-41810750D01*
X124627000Y-41323000D01*
X125373000Y-41323000D01*
X125373000Y-41810750D01*
X125468250Y-41906000D01*
X125700000Y-41907843D01*
X125774689Y-41900487D01*
X125846508Y-41878701D01*
X125912696Y-41843322D01*
X125970711Y-41795711D01*
X126018322Y-41737696D01*
X126053701Y-41671508D01*
X126075487Y-41599689D01*
X126077918Y-41575000D01*
X126417157Y-41575000D01*
X126424513Y-41649689D01*
X126446299Y-41721508D01*
X126481678Y-41787696D01*
X126529289Y-41845711D01*
X126587304Y-41893322D01*
X126653492Y-41928701D01*
X126725311Y-41950487D01*
X126800000Y-41957843D01*
X127031750Y-41956000D01*
X127127000Y-41860750D01*
X127127000Y-41373000D01*
X127873000Y-41373000D01*
X127873000Y-41860750D01*
X127968250Y-41956000D01*
X128200000Y-41957843D01*
X128274689Y-41950487D01*
X128346508Y-41928701D01*
X128412696Y-41893322D01*
X128470711Y-41845711D01*
X128518322Y-41787696D01*
X128553701Y-41721508D01*
X128560225Y-41700000D01*
X128717157Y-41700000D01*
X128724513Y-41774689D01*
X128746299Y-41846508D01*
X128781678Y-41912696D01*
X128829289Y-41970711D01*
X128887304Y-42018322D01*
X128953492Y-42053701D01*
X129025311Y-42075487D01*
X129100000Y-42082843D01*
X129631750Y-42081000D01*
X129727000Y-41985750D01*
X129727000Y-41323000D01*
X130473000Y-41323000D01*
X130473000Y-41985750D01*
X130568250Y-42081000D01*
X131100000Y-42082843D01*
X131174689Y-42075487D01*
X131246508Y-42053701D01*
X131312696Y-42018322D01*
X131370711Y-41970711D01*
X131418322Y-41912696D01*
X131453701Y-41846508D01*
X131475487Y-41774689D01*
X131482843Y-41700000D01*
X131481000Y-41418250D01*
X131385750Y-41323000D01*
X130473000Y-41323000D01*
X129727000Y-41323000D01*
X128814250Y-41323000D01*
X128719000Y-41418250D01*
X128717157Y-41700000D01*
X128560225Y-41700000D01*
X128575487Y-41649689D01*
X128582843Y-41575000D01*
X128581000Y-41468250D01*
X128485750Y-41373000D01*
X127873000Y-41373000D01*
X127127000Y-41373000D01*
X126514250Y-41373000D01*
X126419000Y-41468250D01*
X126417157Y-41575000D01*
X126077918Y-41575000D01*
X126082843Y-41525000D01*
X126081000Y-41418250D01*
X125985750Y-41323000D01*
X125373000Y-41323000D01*
X124627000Y-41323000D01*
X124014250Y-41323000D01*
X123919000Y-41418250D01*
X123917157Y-41525000D01*
X122520922Y-41525000D01*
X122153566Y-41157644D01*
X122125975Y-41124025D01*
X121991825Y-41013932D01*
X121838775Y-40932125D01*
X121672706Y-40881748D01*
X121543273Y-40869000D01*
X121543270Y-40869000D01*
X121500000Y-40864738D01*
X121456730Y-40869000D01*
X120229790Y-40869000D01*
X120225487Y-40825311D01*
X120203701Y-40753492D01*
X120168322Y-40687304D01*
X120120711Y-40629289D01*
X120062696Y-40581678D01*
X119996508Y-40546299D01*
X119924689Y-40524513D01*
X119850000Y-40517157D01*
X118661064Y-40517157D01*
X118648343Y-40501657D01*
X118552261Y-40422804D01*
X118442642Y-40364211D01*
X118323698Y-40328130D01*
X118230998Y-40319000D01*
X118230990Y-40319000D01*
X118200000Y-40315948D01*
X118169010Y-40319000D01*
X109469052Y-40319000D01*
X109511159Y-40246336D01*
X109460717Y-40123000D01*
X109098000Y-40123000D01*
X109098000Y-40143000D01*
X108402000Y-40143000D01*
X108402000Y-40123000D01*
X108039283Y-40123000D01*
X107988841Y-40246336D01*
X108059725Y-40368661D01*
X108000311Y-40374513D01*
X107928492Y-40396299D01*
X107862304Y-40431678D01*
X107804289Y-40479289D01*
X107756678Y-40537304D01*
X107721299Y-40603492D01*
X107699513Y-40675311D01*
X107692157Y-40750000D01*
X107692157Y-41150000D01*
X107699513Y-41224689D01*
X107714775Y-41275000D01*
X107699513Y-41325311D01*
X107692157Y-41400000D01*
X107692157Y-41800000D01*
X107699513Y-41874689D01*
X107714775Y-41925000D01*
X107699513Y-41975311D01*
X107692157Y-42050000D01*
X107692157Y-42450000D01*
X107699513Y-42524689D01*
X107714775Y-42575000D01*
X107699513Y-42625311D01*
X107692157Y-42700000D01*
X107692157Y-43100000D01*
X107699513Y-43174689D01*
X107714775Y-43225000D01*
X107699513Y-43275311D01*
X107692157Y-43350000D01*
X107694000Y-43381750D01*
X107789250Y-43477000D01*
X108015673Y-43477000D01*
X108075000Y-43482843D01*
X109425000Y-43482843D01*
X109484327Y-43477000D01*
X109710750Y-43477000D01*
X109806000Y-43381750D01*
X109807843Y-43350000D01*
X109800487Y-43275311D01*
X109785225Y-43225000D01*
X109800487Y-43174689D01*
X109807843Y-43100000D01*
X109807843Y-42700000D01*
X109800487Y-42625311D01*
X109785225Y-42575000D01*
X109800487Y-42524689D01*
X109807843Y-42450000D01*
X109807843Y-42050000D01*
X109800487Y-41975311D01*
X109785225Y-41925000D01*
X109800487Y-41874689D01*
X109807843Y-41800000D01*
X109807843Y-41581000D01*
X117767157Y-41581000D01*
X117767157Y-42600000D01*
X117774513Y-42674689D01*
X117796299Y-42746508D01*
X117831678Y-42812696D01*
X117879289Y-42870711D01*
X117937304Y-42918322D01*
X118003492Y-42953701D01*
X118075311Y-42975487D01*
X118150000Y-42982843D01*
X119850000Y-42982843D01*
X119924689Y-42975487D01*
X119996508Y-42953701D01*
X120062696Y-42918322D01*
X120120711Y-42870711D01*
X120168322Y-42812696D01*
X120203701Y-42746508D01*
X120225487Y-42674689D01*
X120229790Y-42631000D01*
X121135079Y-42631000D01*
X122096439Y-43592361D01*
X122124025Y-43625975D01*
X122157637Y-43653559D01*
X122258174Y-43736068D01*
X122351718Y-43786068D01*
X122411225Y-43817875D01*
X122577294Y-43868252D01*
X122706727Y-43881000D01*
X122706730Y-43881000D01*
X122750000Y-43885262D01*
X122793270Y-43881000D01*
X124141848Y-43881000D01*
X124159422Y-43938932D01*
X124182125Y-44013774D01*
X124263932Y-44166825D01*
X124301578Y-44212696D01*
X124374026Y-44300975D01*
X124407640Y-44328561D01*
X125198514Y-45119437D01*
X125263932Y-45241825D01*
X125374025Y-45375975D01*
X125508175Y-45486068D01*
X125661225Y-45567875D01*
X125827294Y-45618252D01*
X125956727Y-45631000D01*
X126000000Y-45635262D01*
X126043273Y-45631000D01*
X128717157Y-45631000D01*
X128717157Y-46300000D01*
X128724513Y-46374689D01*
X128746299Y-46446508D01*
X128781678Y-46512696D01*
X128829289Y-46570711D01*
X128887304Y-46618322D01*
X128953492Y-46653701D01*
X129025311Y-46675487D01*
X129100000Y-46682843D01*
X131100000Y-46682843D01*
X131174689Y-46675487D01*
X131216793Y-46662715D01*
X131896439Y-47342361D01*
X131924025Y-47375975D01*
X131957637Y-47403559D01*
X132058174Y-47486068D01*
X132139981Y-47529794D01*
X132211225Y-47567875D01*
X132377294Y-47618252D01*
X132506727Y-47631000D01*
X132506729Y-47631000D01*
X132549999Y-47635262D01*
X132593269Y-47631000D01*
X141206730Y-47631000D01*
X141250000Y-47635262D01*
X141293270Y-47631000D01*
X141293273Y-47631000D01*
X141422706Y-47618252D01*
X141588775Y-47567875D01*
X141741825Y-47486068D01*
X141875975Y-47375975D01*
X141903566Y-47342355D01*
X143842362Y-45403560D01*
X143875975Y-45375975D01*
X143973832Y-45256735D01*
X143986068Y-45241826D01*
X144026156Y-45166825D01*
X144067875Y-45088775D01*
X144118252Y-44922706D01*
X144131000Y-44793273D01*
X144131000Y-44793271D01*
X144135262Y-44750001D01*
X144131000Y-44706731D01*
X144131000Y-42979790D01*
X144174689Y-42975487D01*
X144246508Y-42953701D01*
X144312696Y-42918322D01*
X144370711Y-42870711D01*
X144418322Y-42812696D01*
X144453701Y-42746508D01*
X144475487Y-42674689D01*
X144482843Y-42600000D01*
X144482843Y-40900000D01*
X144475487Y-40825311D01*
X144453701Y-40753492D01*
X144418322Y-40687304D01*
X144370711Y-40629289D01*
X144312696Y-40581678D01*
X144246508Y-40546299D01*
X144174689Y-40524513D01*
X144100000Y-40517157D01*
X142400000Y-40517157D01*
X142325311Y-40524513D01*
X142253492Y-40546299D01*
X142187304Y-40581678D01*
X142129289Y-40629289D01*
X142081678Y-40687304D01*
X142046299Y-40753492D01*
X142024513Y-40825311D01*
X142017157Y-40900000D01*
X142017157Y-42600000D01*
X142024513Y-42674689D01*
X142046299Y-42746508D01*
X142081678Y-42812696D01*
X142129289Y-42870711D01*
X142187304Y-42918322D01*
X142253492Y-42953701D01*
X142325311Y-42975487D01*
X142369001Y-42979790D01*
X142369000Y-44385078D01*
X140885079Y-45869000D01*
X132914922Y-45869000D01*
X132003566Y-44957644D01*
X131975975Y-44924025D01*
X131841825Y-44813932D01*
X131688775Y-44732125D01*
X131522706Y-44681748D01*
X131460411Y-44675613D01*
X131453701Y-44653492D01*
X131418322Y-44587304D01*
X131370711Y-44529289D01*
X131312696Y-44481678D01*
X131246508Y-44446299D01*
X131174689Y-44424513D01*
X131100000Y-44417157D01*
X130213078Y-44417157D01*
X130178764Y-44382843D01*
X131100000Y-44382843D01*
X131174689Y-44375487D01*
X131246508Y-44353701D01*
X131312696Y-44318322D01*
X131370711Y-44270711D01*
X131418322Y-44212696D01*
X131453701Y-44146508D01*
X131458405Y-44131000D01*
X132956727Y-44131000D01*
X133000000Y-44135262D01*
X133043273Y-44131000D01*
X135017157Y-44131000D01*
X135017157Y-45150000D01*
X135024513Y-45224689D01*
X135046299Y-45296508D01*
X135081678Y-45362696D01*
X135129289Y-45420711D01*
X135187304Y-45468322D01*
X135253492Y-45503701D01*
X135325311Y-45525487D01*
X135400000Y-45532843D01*
X137400000Y-45532843D01*
X137474689Y-45525487D01*
X137546508Y-45503701D01*
X137612696Y-45468322D01*
X137670711Y-45420711D01*
X137718322Y-45362696D01*
X137753701Y-45296508D01*
X137775487Y-45224689D01*
X137782843Y-45150000D01*
X137782843Y-41350000D01*
X137775487Y-41275311D01*
X137753701Y-41203492D01*
X137718322Y-41137304D01*
X137670711Y-41079289D01*
X137612696Y-41031678D01*
X137546508Y-40996299D01*
X137474689Y-40974513D01*
X137400000Y-40967157D01*
X137281000Y-40967157D01*
X137281000Y-39210000D01*
X142013044Y-39210000D01*
X142036812Y-39451318D01*
X142107202Y-39683363D01*
X142221509Y-39897216D01*
X142375340Y-40084660D01*
X142562784Y-40238491D01*
X142776637Y-40352798D01*
X143008682Y-40423188D01*
X143189528Y-40441000D01*
X143310472Y-40441000D01*
X143491318Y-40423188D01*
X143723363Y-40352798D01*
X143937216Y-40238491D01*
X144116935Y-40091000D01*
X148721730Y-40091000D01*
X148765000Y-40095262D01*
X148808270Y-40091000D01*
X148808273Y-40091000D01*
X148937706Y-40078252D01*
X149103775Y-40027875D01*
X149256825Y-39946068D01*
X149390975Y-39835975D01*
X149418566Y-39802355D01*
X151388079Y-37832843D01*
X151550001Y-37832843D01*
X151673462Y-37820683D01*
X151792179Y-37784671D01*
X151901589Y-37726190D01*
X151997488Y-37647488D01*
X152076190Y-37551589D01*
X152130490Y-37450000D01*
X152317157Y-37450000D01*
X152324513Y-37524689D01*
X152346299Y-37596508D01*
X152381678Y-37662696D01*
X152429289Y-37720711D01*
X152487304Y-37768322D01*
X152553492Y-37803701D01*
X152625311Y-37825487D01*
X152700000Y-37832843D01*
X152806750Y-37831000D01*
X152902000Y-37735750D01*
X152902000Y-37123000D01*
X153648000Y-37123000D01*
X153648000Y-37735750D01*
X153743250Y-37831000D01*
X153850000Y-37832843D01*
X153924689Y-37825487D01*
X153996508Y-37803701D01*
X154062696Y-37768322D01*
X154120711Y-37720711D01*
X154168322Y-37662696D01*
X154203701Y-37596508D01*
X154225487Y-37524689D01*
X154232843Y-37450000D01*
X154231000Y-37218250D01*
X154135750Y-37123000D01*
X153648000Y-37123000D01*
X152902000Y-37123000D01*
X152414250Y-37123000D01*
X152319000Y-37218250D01*
X152317157Y-37450000D01*
X152130490Y-37450000D01*
X152134671Y-37442179D01*
X152170683Y-37323462D01*
X152182843Y-37200001D01*
X152182843Y-36299999D01*
X152170683Y-36176538D01*
X152134671Y-36057821D01*
X152130491Y-36050000D01*
X152317157Y-36050000D01*
X152319000Y-36281750D01*
X152414250Y-36377000D01*
X152902000Y-36377000D01*
X152902000Y-35764250D01*
X153648000Y-35764250D01*
X153648000Y-36377000D01*
X154135750Y-36377000D01*
X154231000Y-36281750D01*
X154232843Y-36050000D01*
X154225487Y-35975311D01*
X154203701Y-35903492D01*
X154168322Y-35837304D01*
X154120711Y-35779289D01*
X154062696Y-35731678D01*
X153996508Y-35696299D01*
X153924689Y-35674513D01*
X153850000Y-35667157D01*
X153743250Y-35669000D01*
X153648000Y-35764250D01*
X152902000Y-35764250D01*
X152806750Y-35669000D01*
X152700000Y-35667157D01*
X152625311Y-35674513D01*
X152553492Y-35696299D01*
X152487304Y-35731678D01*
X152429289Y-35779289D01*
X152381678Y-35837304D01*
X152346299Y-35903492D01*
X152324513Y-35975311D01*
X152317157Y-36050000D01*
X152130491Y-36050000D01*
X152106000Y-36004181D01*
X152106000Y-34591928D01*
X152439646Y-34591928D01*
X152568465Y-34795991D01*
X152734619Y-34971002D01*
X152931724Y-35110235D01*
X152988074Y-35140336D01*
X153167000Y-35112753D01*
X153167000Y-34413000D01*
X153913000Y-34413000D01*
X153913000Y-35112753D01*
X154091926Y-35140336D01*
X154148276Y-35110235D01*
X154345381Y-34971002D01*
X154511535Y-34795991D01*
X154640354Y-34591928D01*
X154617897Y-34413000D01*
X153913000Y-34413000D01*
X153167000Y-34413000D01*
X152462103Y-34413000D01*
X152439646Y-34591928D01*
X152106000Y-34591928D01*
X152106000Y-34582207D01*
X152142798Y-34513363D01*
X152213188Y-34281318D01*
X152236956Y-34040000D01*
X152213188Y-33798682D01*
X152142798Y-33566637D01*
X152100805Y-33488072D01*
X152439646Y-33488072D01*
X152462103Y-33667000D01*
X153167000Y-33667000D01*
X153167000Y-32967247D01*
X153913000Y-32967247D01*
X153913000Y-33667000D01*
X154617897Y-33667000D01*
X154640354Y-33488072D01*
X154511535Y-33284009D01*
X154345381Y-33108998D01*
X154148276Y-32969765D01*
X154091926Y-32939664D01*
X153913000Y-32967247D01*
X153167000Y-32967247D01*
X152988074Y-32939664D01*
X152931724Y-32969765D01*
X152734619Y-33108998D01*
X152568465Y-33284009D01*
X152439646Y-33488072D01*
X152100805Y-33488072D01*
X152028491Y-33352784D01*
X151881000Y-33173065D01*
X151881000Y-32729790D01*
X151924689Y-32725487D01*
X151996508Y-32703701D01*
X152062696Y-32668322D01*
X152120711Y-32620711D01*
X152168322Y-32562696D01*
X152203701Y-32496508D01*
X152225487Y-32424689D01*
X152232843Y-32350000D01*
X152232843Y-32051928D01*
X152439646Y-32051928D01*
X152568465Y-32255991D01*
X152734619Y-32431002D01*
X152931724Y-32570235D01*
X152988074Y-32600336D01*
X153167000Y-32572753D01*
X153167000Y-31873000D01*
X153913000Y-31873000D01*
X153913000Y-32572753D01*
X154091926Y-32600336D01*
X154148276Y-32570235D01*
X154345381Y-32431002D01*
X154511535Y-32255991D01*
X154640354Y-32051928D01*
X154617897Y-31873000D01*
X153913000Y-31873000D01*
X153167000Y-31873000D01*
X152462103Y-31873000D01*
X152439646Y-32051928D01*
X152232843Y-32051928D01*
X152232843Y-30948072D01*
X152439646Y-30948072D01*
X152462103Y-31127000D01*
X153167000Y-31127000D01*
X153167000Y-30427247D01*
X153913000Y-30427247D01*
X153913000Y-31127000D01*
X154617897Y-31127000D01*
X154640354Y-30948072D01*
X154511535Y-30744009D01*
X154345381Y-30568998D01*
X154148276Y-30429765D01*
X154091926Y-30399664D01*
X153913000Y-30427247D01*
X153167000Y-30427247D01*
X152988074Y-30399664D01*
X152931724Y-30429765D01*
X152734619Y-30568998D01*
X152568465Y-30744009D01*
X152439646Y-30948072D01*
X152232843Y-30948072D01*
X152232843Y-30650000D01*
X152225487Y-30575311D01*
X152203701Y-30503492D01*
X152168322Y-30437304D01*
X152120711Y-30379289D01*
X152062696Y-30331678D01*
X151996508Y-30296299D01*
X151924689Y-30274513D01*
X151850000Y-30267157D01*
X150150000Y-30267157D01*
X150075311Y-30274513D01*
X150003492Y-30296299D01*
X149937304Y-30331678D01*
X149879289Y-30379289D01*
X149831678Y-30437304D01*
X149796299Y-30503492D01*
X149774513Y-30575311D01*
X149767157Y-30650000D01*
X149767157Y-32350000D01*
X149774513Y-32424689D01*
X149796299Y-32496508D01*
X149831678Y-32562696D01*
X149879289Y-32620711D01*
X149937304Y-32668322D01*
X150003492Y-32703701D01*
X150075311Y-32725487D01*
X150119000Y-32729790D01*
X150119000Y-33173065D01*
X149971509Y-33352784D01*
X149857202Y-33566637D01*
X149786812Y-33798682D01*
X149763044Y-34040000D01*
X149786812Y-34281318D01*
X149857202Y-34513363D01*
X149971509Y-34727216D01*
X150125340Y-34914660D01*
X150312784Y-35068491D01*
X150344001Y-35085177D01*
X150344000Y-36004181D01*
X150315329Y-36057821D01*
X150279317Y-36176538D01*
X150267157Y-36299999D01*
X150267157Y-36461921D01*
X148400079Y-38329000D01*
X144116935Y-38329000D01*
X143937216Y-38181509D01*
X143723363Y-38067202D01*
X143491318Y-37996812D01*
X143310472Y-37979000D01*
X143189528Y-37979000D01*
X143008682Y-37996812D01*
X142776637Y-38067202D01*
X142562784Y-38181509D01*
X142375340Y-38335340D01*
X142221509Y-38522784D01*
X142107202Y-38736637D01*
X142036812Y-38968682D01*
X142013044Y-39210000D01*
X137281000Y-39210000D01*
X137281000Y-38714921D01*
X138444922Y-37551000D01*
X142383065Y-37551000D01*
X142562784Y-37698491D01*
X142776637Y-37812798D01*
X143008682Y-37883188D01*
X143189528Y-37901000D01*
X143310472Y-37901000D01*
X143491318Y-37883188D01*
X143723363Y-37812798D01*
X143937216Y-37698491D01*
X144124660Y-37544660D01*
X144278491Y-37357216D01*
X144392798Y-37143363D01*
X144463188Y-36911318D01*
X144486956Y-36670000D01*
X144463188Y-36428682D01*
X144392798Y-36196637D01*
X144278491Y-35982784D01*
X144124660Y-35795340D01*
X143937216Y-35641509D01*
X143723363Y-35527202D01*
X143491318Y-35456812D01*
X143310472Y-35439000D01*
X143189528Y-35439000D01*
X143008682Y-35456812D01*
X142776637Y-35527202D01*
X142562784Y-35641509D01*
X142383065Y-35789000D01*
X138123270Y-35789000D01*
X138080000Y-35784738D01*
X138036730Y-35789000D01*
X138036727Y-35789000D01*
X137907294Y-35801748D01*
X137741225Y-35852125D01*
X137588174Y-35933932D01*
X137545444Y-35969000D01*
X137454025Y-36044025D01*
X137426439Y-36077639D01*
X135807645Y-37696434D01*
X135774025Y-37724025D01*
X135725483Y-37783175D01*
X135663932Y-37858175D01*
X135600384Y-37977066D01*
X135582125Y-38011226D01*
X135531748Y-38177295D01*
X135523924Y-38256735D01*
X135514738Y-38350000D01*
X135519000Y-38393270D01*
X135519001Y-40967157D01*
X135400000Y-40967157D01*
X135325311Y-40974513D01*
X135253492Y-40996299D01*
X135187304Y-41031678D01*
X135129289Y-41079289D01*
X135081678Y-41137304D01*
X135046299Y-41203492D01*
X135024513Y-41275311D01*
X135017157Y-41350000D01*
X135017157Y-42369000D01*
X133881000Y-42369000D01*
X133881000Y-41030773D01*
X133885262Y-40987500D01*
X133868252Y-40814794D01*
X133817875Y-40648725D01*
X133736068Y-40495675D01*
X133625975Y-40361525D01*
X133491825Y-40251432D01*
X133449996Y-40229074D01*
X131751921Y-38531000D01*
X131836167Y-38531000D01*
X132083654Y-38481772D01*
X132316781Y-38385207D01*
X132526590Y-38245018D01*
X132705018Y-38066590D01*
X132845207Y-37856781D01*
X132941772Y-37623654D01*
X132969000Y-37486769D01*
X132969000Y-37623002D01*
X133064248Y-37623002D01*
X132969000Y-37718250D01*
X132967157Y-38150000D01*
X132974513Y-38224689D01*
X132996299Y-38296508D01*
X133031678Y-38362696D01*
X133079289Y-38420711D01*
X133137304Y-38468322D01*
X133203492Y-38503701D01*
X133275311Y-38525487D01*
X133350000Y-38532843D01*
X133781750Y-38531000D01*
X133877000Y-38435750D01*
X133877000Y-37623000D01*
X134623000Y-37623000D01*
X134623000Y-38435750D01*
X134718250Y-38531000D01*
X135150000Y-38532843D01*
X135224689Y-38525487D01*
X135296508Y-38503701D01*
X135362696Y-38468322D01*
X135420711Y-38420711D01*
X135468322Y-38362696D01*
X135503701Y-38296508D01*
X135525487Y-38224689D01*
X135532843Y-38150000D01*
X135531000Y-37718250D01*
X135435750Y-37623000D01*
X134623000Y-37623000D01*
X133877000Y-37623000D01*
X133857000Y-37623000D01*
X133857000Y-36877000D01*
X133877000Y-36877000D01*
X133877000Y-36064250D01*
X134623000Y-36064250D01*
X134623000Y-36877000D01*
X135435750Y-36877000D01*
X135531000Y-36781750D01*
X135532843Y-36350000D01*
X135525487Y-36275311D01*
X135503701Y-36203492D01*
X135468322Y-36137304D01*
X135420711Y-36079289D01*
X135362696Y-36031678D01*
X135296508Y-35996299D01*
X135224689Y-35974513D01*
X135150000Y-35967157D01*
X134718250Y-35969000D01*
X134623000Y-36064250D01*
X133877000Y-36064250D01*
X133781750Y-35969000D01*
X133350000Y-35967157D01*
X133275311Y-35974513D01*
X133203492Y-35996299D01*
X133137304Y-36031678D01*
X133079289Y-36079289D01*
X133031678Y-36137304D01*
X132996299Y-36203492D01*
X132974513Y-36275311D01*
X132967157Y-36350000D01*
X132969000Y-36781750D01*
X133064248Y-36876998D01*
X132969000Y-36876998D01*
X132969000Y-37013231D01*
X132941772Y-36876346D01*
X132845207Y-36643219D01*
X132705018Y-36433410D01*
X132526590Y-36254982D01*
X132316781Y-36114793D01*
X132083654Y-36018228D01*
X131836167Y-35969000D01*
X131674921Y-35969000D01*
X131338565Y-35632644D01*
X131310975Y-35599025D01*
X131176825Y-35488932D01*
X131023775Y-35407125D01*
X130857706Y-35356748D01*
X130728273Y-35344000D01*
X130728270Y-35344000D01*
X130685000Y-35339738D01*
X130641730Y-35344000D01*
X129995819Y-35344000D01*
X129971497Y-35331000D01*
X148528540Y-35331000D01*
X148553150Y-35328576D01*
X148556148Y-35328597D01*
X148564221Y-35327805D01*
X148612546Y-35322726D01*
X148613896Y-35322593D01*
X148613941Y-35322579D01*
X148661270Y-35317605D01*
X148712867Y-35307014D01*
X148764579Y-35297149D01*
X148772345Y-35294805D01*
X148865564Y-35265949D01*
X148914107Y-35245543D01*
X148962935Y-35225815D01*
X148970091Y-35222010D01*
X148970095Y-35222008D01*
X148970098Y-35222006D01*
X149055936Y-35175594D01*
X149099632Y-35146120D01*
X149143653Y-35117313D01*
X149149938Y-35112188D01*
X149149941Y-35112186D01*
X149149946Y-35112181D01*
X149225129Y-35049985D01*
X149262219Y-35012635D01*
X149299854Y-34975780D01*
X149305025Y-34969530D01*
X149366701Y-34893909D01*
X149395848Y-34850039D01*
X149425596Y-34806592D01*
X149429455Y-34799456D01*
X149475267Y-34713295D01*
X149495341Y-34664591D01*
X149516076Y-34616214D01*
X149518475Y-34608465D01*
X149546680Y-34515047D01*
X149556910Y-34463383D01*
X149567857Y-34411878D01*
X149568704Y-34403821D01*
X149568705Y-34403815D01*
X149568705Y-34403810D01*
X149578227Y-34306693D01*
X149581000Y-34278540D01*
X149581000Y-30081000D01*
X154919000Y-30081000D01*
X154919001Y-48919000D01*
X105081000Y-48919000D01*
X105081000Y-46278024D01*
X105119261Y-46315002D01*
X105242087Y-46432074D01*
X105385393Y-46522934D01*
X105543671Y-46584091D01*
X105677000Y-46514760D01*
X105677000Y-46123000D01*
X106423000Y-46123000D01*
X106423000Y-46514760D01*
X106556329Y-46584091D01*
X106714607Y-46522934D01*
X106857913Y-46432074D01*
X106980739Y-46315002D01*
X107054966Y-46243265D01*
X107016574Y-46123000D01*
X106423000Y-46123000D01*
X105677000Y-46123000D01*
X105657000Y-46123000D01*
X105657000Y-45377000D01*
X105677000Y-45377000D01*
X105677000Y-44985240D01*
X106423000Y-44985240D01*
X106423000Y-45377000D01*
X107016574Y-45377000D01*
X107054966Y-45256735D01*
X107044207Y-45246336D01*
X107988841Y-45246336D01*
X108071033Y-45388176D01*
X108179318Y-45511256D01*
X108283942Y-45618001D01*
X108402000Y-45576488D01*
X108402000Y-45123000D01*
X109098000Y-45123000D01*
X109098000Y-45576488D01*
X109216058Y-45618001D01*
X109320682Y-45511256D01*
X109428967Y-45388176D01*
X109511159Y-45246336D01*
X109460717Y-45123000D01*
X109098000Y-45123000D01*
X108402000Y-45123000D01*
X108039283Y-45123000D01*
X107988841Y-45246336D01*
X107044207Y-45246336D01*
X106980739Y-45184998D01*
X106857913Y-45067926D01*
X106714607Y-44977066D01*
X106556329Y-44915909D01*
X106423000Y-44985240D01*
X105677000Y-44985240D01*
X105543671Y-44915909D01*
X105385393Y-44977066D01*
X105242087Y-45067926D01*
X105119261Y-45184998D01*
X105081000Y-45221976D01*
X105081000Y-43750000D01*
X107692157Y-43750000D01*
X107699513Y-43824689D01*
X107721299Y-43896508D01*
X107756678Y-43962696D01*
X107804289Y-44020711D01*
X107862304Y-44068322D01*
X107928492Y-44103701D01*
X108000311Y-44125487D01*
X108059725Y-44131339D01*
X107988841Y-44253664D01*
X108039283Y-44377000D01*
X108402000Y-44377000D01*
X108402000Y-43923512D01*
X109098000Y-43923512D01*
X109098000Y-44377000D01*
X109460717Y-44377000D01*
X109511159Y-44253664D01*
X109440275Y-44131339D01*
X109499689Y-44125487D01*
X109571508Y-44103701D01*
X109637696Y-44068322D01*
X109695711Y-44020711D01*
X109743322Y-43962696D01*
X109778701Y-43896508D01*
X109800487Y-43824689D01*
X109807843Y-43750000D01*
X109806000Y-43718250D01*
X109710750Y-43623000D01*
X109123000Y-43623000D01*
X109123000Y-43914721D01*
X109098000Y-43923512D01*
X108402000Y-43923512D01*
X108377000Y-43914721D01*
X108377000Y-43623000D01*
X107789250Y-43623000D01*
X107694000Y-43718250D01*
X107692157Y-43750000D01*
X105081000Y-43750000D01*
X105081000Y-39278024D01*
X105119261Y-39315002D01*
X105242087Y-39432074D01*
X105385393Y-39522934D01*
X105543671Y-39584091D01*
X105677000Y-39514760D01*
X105677000Y-39123000D01*
X106423000Y-39123000D01*
X106423000Y-39514760D01*
X106556329Y-39584091D01*
X106714607Y-39522934D01*
X106857913Y-39432074D01*
X106980739Y-39315002D01*
X107054966Y-39243265D01*
X107016574Y-39123000D01*
X106423000Y-39123000D01*
X105677000Y-39123000D01*
X105657000Y-39123000D01*
X105657000Y-38377000D01*
X105677000Y-38377000D01*
X105677000Y-37985240D01*
X106423000Y-37985240D01*
X106423000Y-38377000D01*
X107016574Y-38377000D01*
X107054966Y-38256735D01*
X106980739Y-38184998D01*
X106857913Y-38067926D01*
X106714607Y-37977066D01*
X106556329Y-37915909D01*
X106423000Y-37985240D01*
X105677000Y-37985240D01*
X105543671Y-37915909D01*
X105385393Y-37977066D01*
X105242087Y-38067926D01*
X105119261Y-38184998D01*
X105081000Y-38221976D01*
X105081000Y-30081000D01*
X110419000Y-30081000D01*
X110419001Y-34278540D01*
X110419001Y-34278540D01*
G37*
X110419001Y-34278540D02*
X110421424Y-34303141D01*
X110421403Y-34306148D01*
X110422195Y-34314221D01*
X110427290Y-34362698D01*
X110427408Y-34363896D01*
X110427420Y-34363936D01*
X110432395Y-34411270D01*
X110442986Y-34462867D01*
X110452851Y-34514579D01*
X110455195Y-34522345D01*
X110484051Y-34615564D01*
X110504457Y-34664107D01*
X110524185Y-34712935D01*
X110527994Y-34720098D01*
X110574406Y-34805936D01*
X110603880Y-34849632D01*
X110632687Y-34893653D01*
X110637810Y-34899935D01*
X110637814Y-34899941D01*
X110637819Y-34899946D01*
X110700015Y-34975129D01*
X110737365Y-35012219D01*
X110774220Y-35049854D01*
X110780470Y-35055025D01*
X110856091Y-35116701D01*
X110899961Y-35145848D01*
X110943408Y-35175596D01*
X110950544Y-35179455D01*
X111036705Y-35225267D01*
X111085409Y-35245341D01*
X111133786Y-35266076D01*
X111141536Y-35268475D01*
X111141540Y-35268477D01*
X111141545Y-35268478D01*
X111234953Y-35296680D01*
X111286617Y-35306910D01*
X111338122Y-35317857D01*
X111346179Y-35318704D01*
X111346185Y-35318705D01*
X111346190Y-35318705D01*
X111443047Y-35328201D01*
X111471460Y-35331000D01*
X128528503Y-35331000D01*
X128448411Y-35373810D01*
X128352512Y-35452512D01*
X128273810Y-35548411D01*
X128215329Y-35657821D01*
X128179317Y-35776538D01*
X128167157Y-35899999D01*
X128167157Y-36550001D01*
X128179317Y-36673462D01*
X128215329Y-36792179D01*
X128273810Y-36901589D01*
X128352512Y-36997488D01*
X128448411Y-37076190D01*
X128557821Y-37134671D01*
X128676538Y-37170683D01*
X128799999Y-37182843D01*
X129700001Y-37182843D01*
X129823462Y-37170683D01*
X129942179Y-37134671D01*
X129995819Y-37106000D01*
X130320079Y-37106000D01*
X130429000Y-37214921D01*
X130429000Y-37376167D01*
X130432191Y-37392209D01*
X130397706Y-37381748D01*
X130268273Y-37369000D01*
X129949047Y-37369000D01*
X129942179Y-37365329D01*
X129823462Y-37329317D01*
X129700001Y-37317157D01*
X128799999Y-37317157D01*
X128676538Y-37329317D01*
X128557821Y-37365329D01*
X128504181Y-37394000D01*
X126139922Y-37394000D01*
X124823566Y-36077645D01*
X124795975Y-36044025D01*
X124661825Y-35933932D01*
X124508775Y-35852125D01*
X124342706Y-35801748D01*
X124213273Y-35789000D01*
X124213270Y-35789000D01*
X124170000Y-35784738D01*
X124126730Y-35789000D01*
X119866935Y-35789000D01*
X119687216Y-35641509D01*
X119473363Y-35527202D01*
X119241318Y-35456812D01*
X119060472Y-35439000D01*
X118939528Y-35439000D01*
X118758682Y-35456812D01*
X118526637Y-35527202D01*
X118312784Y-35641509D01*
X118125340Y-35795340D01*
X117971509Y-35982784D01*
X117857202Y-36196637D01*
X117786812Y-36428682D01*
X117763044Y-36670000D01*
X117786812Y-36911318D01*
X117857202Y-37143363D01*
X117971509Y-37357216D01*
X118061919Y-37467381D01*
X118040000Y-37465222D01*
X118001643Y-37469000D01*
X109705972Y-37469000D01*
X109707843Y-37450000D01*
X109706000Y-37218250D01*
X109610750Y-37123000D01*
X109123000Y-37123000D01*
X109123000Y-37143000D01*
X108377000Y-37143000D01*
X108377000Y-37123000D01*
X108357000Y-37123000D01*
X108357000Y-36377000D01*
X108377000Y-36377000D01*
X108377000Y-35764250D01*
X109123000Y-35764250D01*
X109123000Y-36377000D01*
X109610750Y-36377000D01*
X109706000Y-36281750D01*
X109707843Y-36050000D01*
X109700487Y-35975311D01*
X109678701Y-35903492D01*
X109643322Y-35837304D01*
X109595711Y-35779289D01*
X109537696Y-35731678D01*
X109471508Y-35696299D01*
X109399689Y-35674513D01*
X109325000Y-35667157D01*
X109218250Y-35669000D01*
X109123000Y-35764250D01*
X108377000Y-35764250D01*
X108281750Y-35669000D01*
X108175000Y-35667157D01*
X108100311Y-35674513D01*
X108028492Y-35696299D01*
X107962304Y-35731678D01*
X107904289Y-35779289D01*
X107856678Y-35837304D01*
X107821299Y-35903492D01*
X107799513Y-35975311D01*
X107792157Y-36050000D01*
X107794000Y-36281750D01*
X107889248Y-36376998D01*
X107794000Y-36376998D01*
X107794000Y-36739500D01*
X107657843Y-36603343D01*
X107657843Y-36299999D01*
X107645683Y-36176538D01*
X107609671Y-36057821D01*
X107551190Y-35948411D01*
X107472488Y-35852512D01*
X107376589Y-35773810D01*
X107341000Y-35754787D01*
X107341000Y-34906935D01*
X107488491Y-34727216D01*
X107560804Y-34591928D01*
X107899646Y-34591928D01*
X108028465Y-34795991D01*
X108194619Y-34971002D01*
X108391724Y-35110235D01*
X108448074Y-35140336D01*
X108627000Y-35112753D01*
X108627000Y-34413000D01*
X109373000Y-34413000D01*
X109373000Y-35112753D01*
X109551926Y-35140336D01*
X109608276Y-35110235D01*
X109805381Y-34971002D01*
X109971535Y-34795991D01*
X110100354Y-34591928D01*
X110077897Y-34413000D01*
X109373000Y-34413000D01*
X108627000Y-34413000D01*
X107922103Y-34413000D01*
X107899646Y-34591928D01*
X107560804Y-34591928D01*
X107602798Y-34513363D01*
X107673188Y-34281318D01*
X107696956Y-34040000D01*
X107673188Y-33798682D01*
X107602798Y-33566637D01*
X107560805Y-33488072D01*
X107899646Y-33488072D01*
X107922103Y-33667000D01*
X108627000Y-33667000D01*
X108627000Y-32967247D01*
X109373000Y-32967247D01*
X109373000Y-33667000D01*
X110077897Y-33667000D01*
X110100354Y-33488072D01*
X109971535Y-33284009D01*
X109805381Y-33108998D01*
X109608276Y-32969765D01*
X109551926Y-32939664D01*
X109373000Y-32967247D01*
X108627000Y-32967247D01*
X108448074Y-32939664D01*
X108391724Y-32969765D01*
X108194619Y-33108998D01*
X108028465Y-33284009D01*
X107899646Y-33488072D01*
X107560805Y-33488072D01*
X107488491Y-33352784D01*
X107341000Y-33173065D01*
X107341000Y-32729790D01*
X107384689Y-32725487D01*
X107456508Y-32703701D01*
X107522696Y-32668322D01*
X107580711Y-32620711D01*
X107628322Y-32562696D01*
X107663701Y-32496508D01*
X107685487Y-32424689D01*
X107692843Y-32350000D01*
X107692843Y-32051928D01*
X107899646Y-32051928D01*
X108028465Y-32255991D01*
X108194619Y-32431002D01*
X108391724Y-32570235D01*
X108448074Y-32600336D01*
X108627000Y-32572753D01*
X108627000Y-31873000D01*
X109373000Y-31873000D01*
X109373000Y-32572753D01*
X109551926Y-32600336D01*
X109608276Y-32570235D01*
X109805381Y-32431002D01*
X109971535Y-32255991D01*
X110100354Y-32051928D01*
X110077897Y-31873000D01*
X109373000Y-31873000D01*
X108627000Y-31873000D01*
X107922103Y-31873000D01*
X107899646Y-32051928D01*
X107692843Y-32051928D01*
X107692843Y-30948072D01*
X107899646Y-30948072D01*
X107922103Y-31127000D01*
X108627000Y-31127000D01*
X108627000Y-30427247D01*
X109373000Y-30427247D01*
X109373000Y-31127000D01*
X110077897Y-31127000D01*
X110100354Y-30948072D01*
X109971535Y-30744009D01*
X109805381Y-30568998D01*
X109608276Y-30429765D01*
X109551926Y-30399664D01*
X109373000Y-30427247D01*
X108627000Y-30427247D01*
X108448074Y-30399664D01*
X108391724Y-30429765D01*
X108194619Y-30568998D01*
X108028465Y-30744009D01*
X107899646Y-30948072D01*
X107692843Y-30948072D01*
X107692843Y-30650000D01*
X107685487Y-30575311D01*
X107663701Y-30503492D01*
X107628322Y-30437304D01*
X107580711Y-30379289D01*
X107522696Y-30331678D01*
X107456508Y-30296299D01*
X107384689Y-30274513D01*
X107310000Y-30267157D01*
X105610000Y-30267157D01*
X105535311Y-30274513D01*
X105463492Y-30296299D01*
X105397304Y-30331678D01*
X105339289Y-30379289D01*
X105291678Y-30437304D01*
X105256299Y-30503492D01*
X105234513Y-30575311D01*
X105227157Y-30650000D01*
X105227157Y-32350000D01*
X105234513Y-32424689D01*
X105256299Y-32496508D01*
X105291678Y-32562696D01*
X105339289Y-32620711D01*
X105397304Y-32668322D01*
X105463492Y-32703701D01*
X105535311Y-32725487D01*
X105579000Y-32729790D01*
X105579001Y-33173065D01*
X105431509Y-33352784D01*
X105317202Y-33566637D01*
X105246812Y-33798682D01*
X105223044Y-34040000D01*
X105246812Y-34281318D01*
X105317202Y-34513363D01*
X105431509Y-34727216D01*
X105579000Y-34906935D01*
X105579001Y-36466720D01*
X105574738Y-36510000D01*
X105591749Y-36682705D01*
X105642125Y-36848774D01*
X105723932Y-37001825D01*
X105742157Y-37024032D01*
X105742157Y-37200001D01*
X105754317Y-37323462D01*
X105790329Y-37442179D01*
X105848810Y-37551589D01*
X105927512Y-37647488D01*
X106023411Y-37726190D01*
X106132821Y-37784671D01*
X106251538Y-37820683D01*
X106374999Y-37832843D01*
X106678343Y-37832843D01*
X107620624Y-38775125D01*
X107645078Y-38804922D01*
X107674873Y-38829374D01*
X107764000Y-38902519D01*
X107812718Y-38928559D01*
X107899678Y-38975040D01*
X108046897Y-39019699D01*
X108143696Y-39029233D01*
X108071033Y-39111824D01*
X107988841Y-39253664D01*
X108039283Y-39377000D01*
X108402000Y-39377000D01*
X108402000Y-39357000D01*
X109098000Y-39357000D01*
X109098000Y-39377000D01*
X109460717Y-39377000D01*
X109511159Y-39253664D01*
X109428967Y-39111824D01*
X109357859Y-39031000D01*
X117716500Y-39031000D01*
X117774920Y-39089420D01*
X117763044Y-39210000D01*
X117786812Y-39451318D01*
X117857202Y-39683363D01*
X117971509Y-39897216D01*
X118125340Y-40084660D01*
X118312784Y-40238491D01*
X118526637Y-40352798D01*
X118758682Y-40423188D01*
X118939528Y-40441000D01*
X119060472Y-40441000D01*
X119241318Y-40423188D01*
X119400172Y-40375000D01*
X123917157Y-40375000D01*
X123919000Y-40481750D01*
X124014250Y-40577000D01*
X124627000Y-40577000D01*
X124627000Y-40089250D01*
X125373000Y-40089250D01*
X125373000Y-40577000D01*
X125985750Y-40577000D01*
X126081000Y-40481750D01*
X126081979Y-40425000D01*
X126417157Y-40425000D01*
X126419000Y-40531750D01*
X126514250Y-40627000D01*
X127127000Y-40627000D01*
X127127000Y-40139250D01*
X127873000Y-40139250D01*
X127873000Y-40627000D01*
X128485750Y-40627000D01*
X128581000Y-40531750D01*
X128582843Y-40425000D01*
X128575487Y-40350311D01*
X128553701Y-40278492D01*
X128518322Y-40212304D01*
X128508225Y-40200000D01*
X128717157Y-40200000D01*
X128719000Y-40481750D01*
X128814250Y-40577000D01*
X129727000Y-40577000D01*
X129727000Y-39914250D01*
X129631750Y-39819000D01*
X129100000Y-39817157D01*
X129025311Y-39824513D01*
X128953492Y-39846299D01*
X128887304Y-39881678D01*
X128829289Y-39929289D01*
X128781678Y-39987304D01*
X128746299Y-40053492D01*
X128724513Y-40125311D01*
X128717157Y-40200000D01*
X128508225Y-40200000D01*
X128470711Y-40154289D01*
X128412696Y-40106678D01*
X128346508Y-40071299D01*
X128274689Y-40049513D01*
X128200000Y-40042157D01*
X127968250Y-40044000D01*
X127873000Y-40139250D01*
X127127000Y-40139250D01*
X127031750Y-40044000D01*
X126800000Y-40042157D01*
X126725311Y-40049513D01*
X126653492Y-40071299D01*
X126587304Y-40106678D01*
X126529289Y-40154289D01*
X126481678Y-40212304D01*
X126446299Y-40278492D01*
X126424513Y-40350311D01*
X126417157Y-40425000D01*
X126081979Y-40425000D01*
X126082843Y-40375000D01*
X126075487Y-40300311D01*
X126053701Y-40228492D01*
X126018322Y-40162304D01*
X125970711Y-40104289D01*
X125912696Y-40056678D01*
X125846508Y-40021299D01*
X125774689Y-39999513D01*
X125700000Y-39992157D01*
X125468250Y-39994000D01*
X125373000Y-40089250D01*
X124627000Y-40089250D01*
X124531750Y-39994000D01*
X124300000Y-39992157D01*
X124225311Y-39999513D01*
X124153492Y-40021299D01*
X124087304Y-40056678D01*
X124029289Y-40104289D01*
X123981678Y-40162304D01*
X123946299Y-40228492D01*
X123924513Y-40300311D01*
X123917157Y-40375000D01*
X119400172Y-40375000D01*
X119473363Y-40352798D01*
X119687216Y-40238491D01*
X119874660Y-40084660D01*
X120028491Y-39897216D01*
X120142798Y-39683363D01*
X120213188Y-39451318D01*
X120236956Y-39210000D01*
X120213188Y-38968682D01*
X120142798Y-38736637D01*
X120028491Y-38522784D01*
X119874660Y-38335340D01*
X119687216Y-38181509D01*
X119473363Y-38067202D01*
X119241318Y-37996812D01*
X119060472Y-37979000D01*
X118939528Y-37979000D01*
X118879420Y-37984920D01*
X118779764Y-37885264D01*
X118939528Y-37901000D01*
X119060472Y-37901000D01*
X119241318Y-37883188D01*
X119473363Y-37812798D01*
X119687216Y-37698491D01*
X119866935Y-37551000D01*
X123805079Y-37551000D01*
X125121439Y-38867361D01*
X125149025Y-38900975D01*
X125182637Y-38928559D01*
X125283174Y-39011068D01*
X125368915Y-39056897D01*
X125436225Y-39092875D01*
X125602294Y-39143252D01*
X125731727Y-39156000D01*
X125731730Y-39156000D01*
X125775000Y-39160262D01*
X125818270Y-39156000D01*
X128504181Y-39156000D01*
X128557821Y-39184671D01*
X128676538Y-39220683D01*
X128799999Y-39232843D01*
X129700001Y-39232843D01*
X129823462Y-39220683D01*
X129920367Y-39191288D01*
X130558164Y-39829086D01*
X130473000Y-39914250D01*
X130473000Y-40577000D01*
X131306078Y-40577000D01*
X132119000Y-41389922D01*
X132119001Y-42369000D01*
X131458405Y-42369000D01*
X131453701Y-42353492D01*
X131418322Y-42287304D01*
X131370711Y-42229289D01*
X131312696Y-42181678D01*
X131246508Y-42146299D01*
X131174689Y-42124513D01*
X131100000Y-42117157D01*
X129100000Y-42117157D01*
X129025311Y-42124513D01*
X128953492Y-42146299D01*
X128911022Y-42169000D01*
X128245819Y-42169000D01*
X128192179Y-42140329D01*
X128073462Y-42104317D01*
X127950001Y-42092157D01*
X127049999Y-42092157D01*
X126926538Y-42104317D01*
X126807821Y-42140329D01*
X126698411Y-42198810D01*
X126602512Y-42277512D01*
X126523810Y-42373411D01*
X126465329Y-42482821D01*
X126429317Y-42601538D01*
X126417157Y-42724999D01*
X126417157Y-43375001D01*
X126429317Y-43498462D01*
X126465329Y-43617179D01*
X126523810Y-43726589D01*
X126602512Y-43822488D01*
X126659187Y-43869000D01*
X126439923Y-43869000D01*
X126058744Y-43487822D01*
X126070683Y-43448462D01*
X126082843Y-43325001D01*
X126082843Y-42674999D01*
X126070683Y-42551538D01*
X126034671Y-42432821D01*
X125976190Y-42323411D01*
X125897488Y-42227512D01*
X125801589Y-42148810D01*
X125692179Y-42090329D01*
X125573462Y-42054317D01*
X125450001Y-42042157D01*
X124549999Y-42042157D01*
X124426538Y-42054317D01*
X124307821Y-42090329D01*
X124254181Y-42119000D01*
X123114922Y-42119000D01*
X122520922Y-41525000D01*
X123917157Y-41525000D01*
X123924513Y-41599689D01*
X123946299Y-41671508D01*
X123981678Y-41737696D01*
X124029289Y-41795711D01*
X124087304Y-41843322D01*
X124153492Y-41878701D01*
X124225311Y-41900487D01*
X124300000Y-41907843D01*
X124531750Y-41906000D01*
X124627000Y-41810750D01*
X124627000Y-41323000D01*
X125373000Y-41323000D01*
X125373000Y-41810750D01*
X125468250Y-41906000D01*
X125700000Y-41907843D01*
X125774689Y-41900487D01*
X125846508Y-41878701D01*
X125912696Y-41843322D01*
X125970711Y-41795711D01*
X126018322Y-41737696D01*
X126053701Y-41671508D01*
X126075487Y-41599689D01*
X126077918Y-41575000D01*
X126417157Y-41575000D01*
X126424513Y-41649689D01*
X126446299Y-41721508D01*
X126481678Y-41787696D01*
X126529289Y-41845711D01*
X126587304Y-41893322D01*
X126653492Y-41928701D01*
X126725311Y-41950487D01*
X126800000Y-41957843D01*
X127031750Y-41956000D01*
X127127000Y-41860750D01*
X127127000Y-41373000D01*
X127873000Y-41373000D01*
X127873000Y-41860750D01*
X127968250Y-41956000D01*
X128200000Y-41957843D01*
X128274689Y-41950487D01*
X128346508Y-41928701D01*
X128412696Y-41893322D01*
X128470711Y-41845711D01*
X128518322Y-41787696D01*
X128553701Y-41721508D01*
X128560225Y-41700000D01*
X128717157Y-41700000D01*
X128724513Y-41774689D01*
X128746299Y-41846508D01*
X128781678Y-41912696D01*
X128829289Y-41970711D01*
X128887304Y-42018322D01*
X128953492Y-42053701D01*
X129025311Y-42075487D01*
X129100000Y-42082843D01*
X129631750Y-42081000D01*
X129727000Y-41985750D01*
X129727000Y-41323000D01*
X130473000Y-41323000D01*
X130473000Y-41985750D01*
X130568250Y-42081000D01*
X131100000Y-42082843D01*
X131174689Y-42075487D01*
X131246508Y-42053701D01*
X131312696Y-42018322D01*
X131370711Y-41970711D01*
X131418322Y-41912696D01*
X131453701Y-41846508D01*
X131475487Y-41774689D01*
X131482843Y-41700000D01*
X131481000Y-41418250D01*
X131385750Y-41323000D01*
X130473000Y-41323000D01*
X129727000Y-41323000D01*
X128814250Y-41323000D01*
X128719000Y-41418250D01*
X128717157Y-41700000D01*
X128560225Y-41700000D01*
X128575487Y-41649689D01*
X128582843Y-41575000D01*
X128581000Y-41468250D01*
X128485750Y-41373000D01*
X127873000Y-41373000D01*
X127127000Y-41373000D01*
X126514250Y-41373000D01*
X126419000Y-41468250D01*
X126417157Y-41575000D01*
X126077918Y-41575000D01*
X126082843Y-41525000D01*
X126081000Y-41418250D01*
X125985750Y-41323000D01*
X125373000Y-41323000D01*
X124627000Y-41323000D01*
X124014250Y-41323000D01*
X123919000Y-41418250D01*
X123917157Y-41525000D01*
X122520922Y-41525000D01*
X122153566Y-41157644D01*
X122125975Y-41124025D01*
X121991825Y-41013932D01*
X121838775Y-40932125D01*
X121672706Y-40881748D01*
X121543273Y-40869000D01*
X121543270Y-40869000D01*
X121500000Y-40864738D01*
X121456730Y-40869000D01*
X120229790Y-40869000D01*
X120225487Y-40825311D01*
X120203701Y-40753492D01*
X120168322Y-40687304D01*
X120120711Y-40629289D01*
X120062696Y-40581678D01*
X119996508Y-40546299D01*
X119924689Y-40524513D01*
X119850000Y-40517157D01*
X118661064Y-40517157D01*
X118648343Y-40501657D01*
X118552261Y-40422804D01*
X118442642Y-40364211D01*
X118323698Y-40328130D01*
X118230998Y-40319000D01*
X118230990Y-40319000D01*
X118200000Y-40315948D01*
X118169010Y-40319000D01*
X109469052Y-40319000D01*
X109511159Y-40246336D01*
X109460717Y-40123000D01*
X109098000Y-40123000D01*
X109098000Y-40143000D01*
X108402000Y-40143000D01*
X108402000Y-40123000D01*
X108039283Y-40123000D01*
X107988841Y-40246336D01*
X108059725Y-40368661D01*
X108000311Y-40374513D01*
X107928492Y-40396299D01*
X107862304Y-40431678D01*
X107804289Y-40479289D01*
X107756678Y-40537304D01*
X107721299Y-40603492D01*
X107699513Y-40675311D01*
X107692157Y-40750000D01*
X107692157Y-41150000D01*
X107699513Y-41224689D01*
X107714775Y-41275000D01*
X107699513Y-41325311D01*
X107692157Y-41400000D01*
X107692157Y-41800000D01*
X107699513Y-41874689D01*
X107714775Y-41925000D01*
X107699513Y-41975311D01*
X107692157Y-42050000D01*
X107692157Y-42450000D01*
X107699513Y-42524689D01*
X107714775Y-42575000D01*
X107699513Y-42625311D01*
X107692157Y-42700000D01*
X107692157Y-43100000D01*
X107699513Y-43174689D01*
X107714775Y-43225000D01*
X107699513Y-43275311D01*
X107692157Y-43350000D01*
X107694000Y-43381750D01*
X107789250Y-43477000D01*
X108015673Y-43477000D01*
X108075000Y-43482843D01*
X109425000Y-43482843D01*
X109484327Y-43477000D01*
X109710750Y-43477000D01*
X109806000Y-43381750D01*
X109807843Y-43350000D01*
X109800487Y-43275311D01*
X109785225Y-43225000D01*
X109800487Y-43174689D01*
X109807843Y-43100000D01*
X109807843Y-42700000D01*
X109800487Y-42625311D01*
X109785225Y-42575000D01*
X109800487Y-42524689D01*
X109807843Y-42450000D01*
X109807843Y-42050000D01*
X109800487Y-41975311D01*
X109785225Y-41925000D01*
X109800487Y-41874689D01*
X109807843Y-41800000D01*
X109807843Y-41581000D01*
X117767157Y-41581000D01*
X117767157Y-42600000D01*
X117774513Y-42674689D01*
X117796299Y-42746508D01*
X117831678Y-42812696D01*
X117879289Y-42870711D01*
X117937304Y-42918322D01*
X118003492Y-42953701D01*
X118075311Y-42975487D01*
X118150000Y-42982843D01*
X119850000Y-42982843D01*
X119924689Y-42975487D01*
X119996508Y-42953701D01*
X120062696Y-42918322D01*
X120120711Y-42870711D01*
X120168322Y-42812696D01*
X120203701Y-42746508D01*
X120225487Y-42674689D01*
X120229790Y-42631000D01*
X121135079Y-42631000D01*
X122096439Y-43592361D01*
X122124025Y-43625975D01*
X122157637Y-43653559D01*
X122258174Y-43736068D01*
X122351718Y-43786068D01*
X122411225Y-43817875D01*
X122577294Y-43868252D01*
X122706727Y-43881000D01*
X122706730Y-43881000D01*
X122750000Y-43885262D01*
X122793270Y-43881000D01*
X124141848Y-43881000D01*
X124159422Y-43938932D01*
X124182125Y-44013774D01*
X124263932Y-44166825D01*
X124301578Y-44212696D01*
X124374026Y-44300975D01*
X124407640Y-44328561D01*
X125198514Y-45119437D01*
X125263932Y-45241825D01*
X125374025Y-45375975D01*
X125508175Y-45486068D01*
X125661225Y-45567875D01*
X125827294Y-45618252D01*
X125956727Y-45631000D01*
X126000000Y-45635262D01*
X126043273Y-45631000D01*
X128717157Y-45631000D01*
X128717157Y-46300000D01*
X128724513Y-46374689D01*
X128746299Y-46446508D01*
X128781678Y-46512696D01*
X128829289Y-46570711D01*
X128887304Y-46618322D01*
X128953492Y-46653701D01*
X129025311Y-46675487D01*
X129100000Y-46682843D01*
X131100000Y-46682843D01*
X131174689Y-46675487D01*
X131216793Y-46662715D01*
X131896439Y-47342361D01*
X131924025Y-47375975D01*
X131957637Y-47403559D01*
X132058174Y-47486068D01*
X132139981Y-47529794D01*
X132211225Y-47567875D01*
X132377294Y-47618252D01*
X132506727Y-47631000D01*
X132506729Y-47631000D01*
X132549999Y-47635262D01*
X132593269Y-47631000D01*
X141206730Y-47631000D01*
X141250000Y-47635262D01*
X141293270Y-47631000D01*
X141293273Y-47631000D01*
X141422706Y-47618252D01*
X141588775Y-47567875D01*
X141741825Y-47486068D01*
X141875975Y-47375975D01*
X141903566Y-47342355D01*
X143842362Y-45403560D01*
X143875975Y-45375975D01*
X143973832Y-45256735D01*
X143986068Y-45241826D01*
X144026156Y-45166825D01*
X144067875Y-45088775D01*
X144118252Y-44922706D01*
X144131000Y-44793273D01*
X144131000Y-44793271D01*
X144135262Y-44750001D01*
X144131000Y-44706731D01*
X144131000Y-42979790D01*
X144174689Y-42975487D01*
X144246508Y-42953701D01*
X144312696Y-42918322D01*
X144370711Y-42870711D01*
X144418322Y-42812696D01*
X144453701Y-42746508D01*
X144475487Y-42674689D01*
X144482843Y-42600000D01*
X144482843Y-40900000D01*
X144475487Y-40825311D01*
X144453701Y-40753492D01*
X144418322Y-40687304D01*
X144370711Y-40629289D01*
X144312696Y-40581678D01*
X144246508Y-40546299D01*
X144174689Y-40524513D01*
X144100000Y-40517157D01*
X142400000Y-40517157D01*
X142325311Y-40524513D01*
X142253492Y-40546299D01*
X142187304Y-40581678D01*
X142129289Y-40629289D01*
X142081678Y-40687304D01*
X142046299Y-40753492D01*
X142024513Y-40825311D01*
X142017157Y-40900000D01*
X142017157Y-42600000D01*
X142024513Y-42674689D01*
X142046299Y-42746508D01*
X142081678Y-42812696D01*
X142129289Y-42870711D01*
X142187304Y-42918322D01*
X142253492Y-42953701D01*
X142325311Y-42975487D01*
X142369001Y-42979790D01*
X142369000Y-44385078D01*
X140885079Y-45869000D01*
X132914922Y-45869000D01*
X132003566Y-44957644D01*
X131975975Y-44924025D01*
X131841825Y-44813932D01*
X131688775Y-44732125D01*
X131522706Y-44681748D01*
X131460411Y-44675613D01*
X131453701Y-44653492D01*
X131418322Y-44587304D01*
X131370711Y-44529289D01*
X131312696Y-44481678D01*
X131246508Y-44446299D01*
X131174689Y-44424513D01*
X131100000Y-44417157D01*
X130213078Y-44417157D01*
X130178764Y-44382843D01*
X131100000Y-44382843D01*
X131174689Y-44375487D01*
X131246508Y-44353701D01*
X131312696Y-44318322D01*
X131370711Y-44270711D01*
X131418322Y-44212696D01*
X131453701Y-44146508D01*
X131458405Y-44131000D01*
X132956727Y-44131000D01*
X133000000Y-44135262D01*
X133043273Y-44131000D01*
X135017157Y-44131000D01*
X135017157Y-45150000D01*
X135024513Y-45224689D01*
X135046299Y-45296508D01*
X135081678Y-45362696D01*
X135129289Y-45420711D01*
X135187304Y-45468322D01*
X135253492Y-45503701D01*
X135325311Y-45525487D01*
X135400000Y-45532843D01*
X137400000Y-45532843D01*
X137474689Y-45525487D01*
X137546508Y-45503701D01*
X137612696Y-45468322D01*
X137670711Y-45420711D01*
X137718322Y-45362696D01*
X137753701Y-45296508D01*
X137775487Y-45224689D01*
X137782843Y-45150000D01*
X137782843Y-41350000D01*
X137775487Y-41275311D01*
X137753701Y-41203492D01*
X137718322Y-41137304D01*
X137670711Y-41079289D01*
X137612696Y-41031678D01*
X137546508Y-40996299D01*
X137474689Y-40974513D01*
X137400000Y-40967157D01*
X137281000Y-40967157D01*
X137281000Y-39210000D01*
X142013044Y-39210000D01*
X142036812Y-39451318D01*
X142107202Y-39683363D01*
X142221509Y-39897216D01*
X142375340Y-40084660D01*
X142562784Y-40238491D01*
X142776637Y-40352798D01*
X143008682Y-40423188D01*
X143189528Y-40441000D01*
X143310472Y-40441000D01*
X143491318Y-40423188D01*
X143723363Y-40352798D01*
X143937216Y-40238491D01*
X144116935Y-40091000D01*
X148721730Y-40091000D01*
X148765000Y-40095262D01*
X148808270Y-40091000D01*
X148808273Y-40091000D01*
X148937706Y-40078252D01*
X149103775Y-40027875D01*
X149256825Y-39946068D01*
X149390975Y-39835975D01*
X149418566Y-39802355D01*
X151388079Y-37832843D01*
X151550001Y-37832843D01*
X151673462Y-37820683D01*
X151792179Y-37784671D01*
X151901589Y-37726190D01*
X151997488Y-37647488D01*
X152076190Y-37551589D01*
X152130490Y-37450000D01*
X152317157Y-37450000D01*
X152324513Y-37524689D01*
X152346299Y-37596508D01*
X152381678Y-37662696D01*
X152429289Y-37720711D01*
X152487304Y-37768322D01*
X152553492Y-37803701D01*
X152625311Y-37825487D01*
X152700000Y-37832843D01*
X152806750Y-37831000D01*
X152902000Y-37735750D01*
X152902000Y-37123000D01*
X153648000Y-37123000D01*
X153648000Y-37735750D01*
X153743250Y-37831000D01*
X153850000Y-37832843D01*
X153924689Y-37825487D01*
X153996508Y-37803701D01*
X154062696Y-37768322D01*
X154120711Y-37720711D01*
X154168322Y-37662696D01*
X154203701Y-37596508D01*
X154225487Y-37524689D01*
X154232843Y-37450000D01*
X154231000Y-37218250D01*
X154135750Y-37123000D01*
X153648000Y-37123000D01*
X152902000Y-37123000D01*
X152414250Y-37123000D01*
X152319000Y-37218250D01*
X152317157Y-37450000D01*
X152130490Y-37450000D01*
X152134671Y-37442179D01*
X152170683Y-37323462D01*
X152182843Y-37200001D01*
X152182843Y-36299999D01*
X152170683Y-36176538D01*
X152134671Y-36057821D01*
X152130491Y-36050000D01*
X152317157Y-36050000D01*
X152319000Y-36281750D01*
X152414250Y-36377000D01*
X152902000Y-36377000D01*
X152902000Y-35764250D01*
X153648000Y-35764250D01*
X153648000Y-36377000D01*
X154135750Y-36377000D01*
X154231000Y-36281750D01*
X154232843Y-36050000D01*
X154225487Y-35975311D01*
X154203701Y-35903492D01*
X154168322Y-35837304D01*
X154120711Y-35779289D01*
X154062696Y-35731678D01*
X153996508Y-35696299D01*
X153924689Y-35674513D01*
X153850000Y-35667157D01*
X153743250Y-35669000D01*
X153648000Y-35764250D01*
X152902000Y-35764250D01*
X152806750Y-35669000D01*
X152700000Y-35667157D01*
X152625311Y-35674513D01*
X152553492Y-35696299D01*
X152487304Y-35731678D01*
X152429289Y-35779289D01*
X152381678Y-35837304D01*
X152346299Y-35903492D01*
X152324513Y-35975311D01*
X152317157Y-36050000D01*
X152130491Y-36050000D01*
X152106000Y-36004181D01*
X152106000Y-34591928D01*
X152439646Y-34591928D01*
X152568465Y-34795991D01*
X152734619Y-34971002D01*
X152931724Y-35110235D01*
X152988074Y-35140336D01*
X153167000Y-35112753D01*
X153167000Y-34413000D01*
X153913000Y-34413000D01*
X153913000Y-35112753D01*
X154091926Y-35140336D01*
X154148276Y-35110235D01*
X154345381Y-34971002D01*
X154511535Y-34795991D01*
X154640354Y-34591928D01*
X154617897Y-34413000D01*
X153913000Y-34413000D01*
X153167000Y-34413000D01*
X152462103Y-34413000D01*
X152439646Y-34591928D01*
X152106000Y-34591928D01*
X152106000Y-34582207D01*
X152142798Y-34513363D01*
X152213188Y-34281318D01*
X152236956Y-34040000D01*
X152213188Y-33798682D01*
X152142798Y-33566637D01*
X152100805Y-33488072D01*
X152439646Y-33488072D01*
X152462103Y-33667000D01*
X153167000Y-33667000D01*
X153167000Y-32967247D01*
X153913000Y-32967247D01*
X153913000Y-33667000D01*
X154617897Y-33667000D01*
X154640354Y-33488072D01*
X154511535Y-33284009D01*
X154345381Y-33108998D01*
X154148276Y-32969765D01*
X154091926Y-32939664D01*
X153913000Y-32967247D01*
X153167000Y-32967247D01*
X152988074Y-32939664D01*
X152931724Y-32969765D01*
X152734619Y-33108998D01*
X152568465Y-33284009D01*
X152439646Y-33488072D01*
X152100805Y-33488072D01*
X152028491Y-33352784D01*
X151881000Y-33173065D01*
X151881000Y-32729790D01*
X151924689Y-32725487D01*
X151996508Y-32703701D01*
X152062696Y-32668322D01*
X152120711Y-32620711D01*
X152168322Y-32562696D01*
X152203701Y-32496508D01*
X152225487Y-32424689D01*
X152232843Y-32350000D01*
X152232843Y-32051928D01*
X152439646Y-32051928D01*
X152568465Y-32255991D01*
X152734619Y-32431002D01*
X152931724Y-32570235D01*
X152988074Y-32600336D01*
X153167000Y-32572753D01*
X153167000Y-31873000D01*
X153913000Y-31873000D01*
X153913000Y-32572753D01*
X154091926Y-32600336D01*
X154148276Y-32570235D01*
X154345381Y-32431002D01*
X154511535Y-32255991D01*
X154640354Y-32051928D01*
X154617897Y-31873000D01*
X153913000Y-31873000D01*
X153167000Y-31873000D01*
X152462103Y-31873000D01*
X152439646Y-32051928D01*
X152232843Y-32051928D01*
X152232843Y-30948072D01*
X152439646Y-30948072D01*
X152462103Y-31127000D01*
X153167000Y-31127000D01*
X153167000Y-30427247D01*
X153913000Y-30427247D01*
X153913000Y-31127000D01*
X154617897Y-31127000D01*
X154640354Y-30948072D01*
X154511535Y-30744009D01*
X154345381Y-30568998D01*
X154148276Y-30429765D01*
X154091926Y-30399664D01*
X153913000Y-30427247D01*
X153167000Y-30427247D01*
X152988074Y-30399664D01*
X152931724Y-30429765D01*
X152734619Y-30568998D01*
X152568465Y-30744009D01*
X152439646Y-30948072D01*
X152232843Y-30948072D01*
X152232843Y-30650000D01*
X152225487Y-30575311D01*
X152203701Y-30503492D01*
X152168322Y-30437304D01*
X152120711Y-30379289D01*
X152062696Y-30331678D01*
X151996508Y-30296299D01*
X151924689Y-30274513D01*
X151850000Y-30267157D01*
X150150000Y-30267157D01*
X150075311Y-30274513D01*
X150003492Y-30296299D01*
X149937304Y-30331678D01*
X149879289Y-30379289D01*
X149831678Y-30437304D01*
X149796299Y-30503492D01*
X149774513Y-30575311D01*
X149767157Y-30650000D01*
X149767157Y-32350000D01*
X149774513Y-32424689D01*
X149796299Y-32496508D01*
X149831678Y-32562696D01*
X149879289Y-32620711D01*
X149937304Y-32668322D01*
X150003492Y-32703701D01*
X150075311Y-32725487D01*
X150119000Y-32729790D01*
X150119000Y-33173065D01*
X149971509Y-33352784D01*
X149857202Y-33566637D01*
X149786812Y-33798682D01*
X149763044Y-34040000D01*
X149786812Y-34281318D01*
X149857202Y-34513363D01*
X149971509Y-34727216D01*
X150125340Y-34914660D01*
X150312784Y-35068491D01*
X150344001Y-35085177D01*
X150344000Y-36004181D01*
X150315329Y-36057821D01*
X150279317Y-36176538D01*
X150267157Y-36299999D01*
X150267157Y-36461921D01*
X148400079Y-38329000D01*
X144116935Y-38329000D01*
X143937216Y-38181509D01*
X143723363Y-38067202D01*
X143491318Y-37996812D01*
X143310472Y-37979000D01*
X143189528Y-37979000D01*
X143008682Y-37996812D01*
X142776637Y-38067202D01*
X142562784Y-38181509D01*
X142375340Y-38335340D01*
X142221509Y-38522784D01*
X142107202Y-38736637D01*
X142036812Y-38968682D01*
X142013044Y-39210000D01*
X137281000Y-39210000D01*
X137281000Y-38714921D01*
X138444922Y-37551000D01*
X142383065Y-37551000D01*
X142562784Y-37698491D01*
X142776637Y-37812798D01*
X143008682Y-37883188D01*
X143189528Y-37901000D01*
X143310472Y-37901000D01*
X143491318Y-37883188D01*
X143723363Y-37812798D01*
X143937216Y-37698491D01*
X144124660Y-37544660D01*
X144278491Y-37357216D01*
X144392798Y-37143363D01*
X144463188Y-36911318D01*
X144486956Y-36670000D01*
X144463188Y-36428682D01*
X144392798Y-36196637D01*
X144278491Y-35982784D01*
X144124660Y-35795340D01*
X143937216Y-35641509D01*
X143723363Y-35527202D01*
X143491318Y-35456812D01*
X143310472Y-35439000D01*
X143189528Y-35439000D01*
X143008682Y-35456812D01*
X142776637Y-35527202D01*
X142562784Y-35641509D01*
X142383065Y-35789000D01*
X138123270Y-35789000D01*
X138080000Y-35784738D01*
X138036730Y-35789000D01*
X138036727Y-35789000D01*
X137907294Y-35801748D01*
X137741225Y-35852125D01*
X137588174Y-35933932D01*
X137545444Y-35969000D01*
X137454025Y-36044025D01*
X137426439Y-36077639D01*
X135807645Y-37696434D01*
X135774025Y-37724025D01*
X135725483Y-37783175D01*
X135663932Y-37858175D01*
X135600384Y-37977066D01*
X135582125Y-38011226D01*
X135531748Y-38177295D01*
X135523924Y-38256735D01*
X135514738Y-38350000D01*
X135519000Y-38393270D01*
X135519001Y-40967157D01*
X135400000Y-40967157D01*
X135325311Y-40974513D01*
X135253492Y-40996299D01*
X135187304Y-41031678D01*
X135129289Y-41079289D01*
X135081678Y-41137304D01*
X135046299Y-41203492D01*
X135024513Y-41275311D01*
X135017157Y-41350000D01*
X135017157Y-42369000D01*
X133881000Y-42369000D01*
X133881000Y-41030773D01*
X133885262Y-40987500D01*
X133868252Y-40814794D01*
X133817875Y-40648725D01*
X133736068Y-40495675D01*
X133625975Y-40361525D01*
X133491825Y-40251432D01*
X133449996Y-40229074D01*
X131751921Y-38531000D01*
X131836167Y-38531000D01*
X132083654Y-38481772D01*
X132316781Y-38385207D01*
X132526590Y-38245018D01*
X132705018Y-38066590D01*
X132845207Y-37856781D01*
X132941772Y-37623654D01*
X132969000Y-37486769D01*
X132969000Y-37623002D01*
X133064248Y-37623002D01*
X132969000Y-37718250D01*
X132967157Y-38150000D01*
X132974513Y-38224689D01*
X132996299Y-38296508D01*
X133031678Y-38362696D01*
X133079289Y-38420711D01*
X133137304Y-38468322D01*
X133203492Y-38503701D01*
X133275311Y-38525487D01*
X133350000Y-38532843D01*
X133781750Y-38531000D01*
X133877000Y-38435750D01*
X133877000Y-37623000D01*
X134623000Y-37623000D01*
X134623000Y-38435750D01*
X134718250Y-38531000D01*
X135150000Y-38532843D01*
X135224689Y-38525487D01*
X135296508Y-38503701D01*
X135362696Y-38468322D01*
X135420711Y-38420711D01*
X135468322Y-38362696D01*
X135503701Y-38296508D01*
X135525487Y-38224689D01*
X135532843Y-38150000D01*
X135531000Y-37718250D01*
X135435750Y-37623000D01*
X134623000Y-37623000D01*
X133877000Y-37623000D01*
X133857000Y-37623000D01*
X133857000Y-36877000D01*
X133877000Y-36877000D01*
X133877000Y-36064250D01*
X134623000Y-36064250D01*
X134623000Y-36877000D01*
X135435750Y-36877000D01*
X135531000Y-36781750D01*
X135532843Y-36350000D01*
X135525487Y-36275311D01*
X135503701Y-36203492D01*
X135468322Y-36137304D01*
X135420711Y-36079289D01*
X135362696Y-36031678D01*
X135296508Y-35996299D01*
X135224689Y-35974513D01*
X135150000Y-35967157D01*
X134718250Y-35969000D01*
X134623000Y-36064250D01*
X133877000Y-36064250D01*
X133781750Y-35969000D01*
X133350000Y-35967157D01*
X133275311Y-35974513D01*
X133203492Y-35996299D01*
X133137304Y-36031678D01*
X133079289Y-36079289D01*
X133031678Y-36137304D01*
X132996299Y-36203492D01*
X132974513Y-36275311D01*
X132967157Y-36350000D01*
X132969000Y-36781750D01*
X133064248Y-36876998D01*
X132969000Y-36876998D01*
X132969000Y-37013231D01*
X132941772Y-36876346D01*
X132845207Y-36643219D01*
X132705018Y-36433410D01*
X132526590Y-36254982D01*
X132316781Y-36114793D01*
X132083654Y-36018228D01*
X131836167Y-35969000D01*
X131674921Y-35969000D01*
X131338565Y-35632644D01*
X131310975Y-35599025D01*
X131176825Y-35488932D01*
X131023775Y-35407125D01*
X130857706Y-35356748D01*
X130728273Y-35344000D01*
X130728270Y-35344000D01*
X130685000Y-35339738D01*
X130641730Y-35344000D01*
X129995819Y-35344000D01*
X129971497Y-35331000D01*
X148528540Y-35331000D01*
X148553150Y-35328576D01*
X148556148Y-35328597D01*
X148564221Y-35327805D01*
X148612546Y-35322726D01*
X148613896Y-35322593D01*
X148613941Y-35322579D01*
X148661270Y-35317605D01*
X148712867Y-35307014D01*
X148764579Y-35297149D01*
X148772345Y-35294805D01*
X148865564Y-35265949D01*
X148914107Y-35245543D01*
X148962935Y-35225815D01*
X148970091Y-35222010D01*
X148970095Y-35222008D01*
X148970098Y-35222006D01*
X149055936Y-35175594D01*
X149099632Y-35146120D01*
X149143653Y-35117313D01*
X149149938Y-35112188D01*
X149149941Y-35112186D01*
X149149946Y-35112181D01*
X149225129Y-35049985D01*
X149262219Y-35012635D01*
X149299854Y-34975780D01*
X149305025Y-34969530D01*
X149366701Y-34893909D01*
X149395848Y-34850039D01*
X149425596Y-34806592D01*
X149429455Y-34799456D01*
X149475267Y-34713295D01*
X149495341Y-34664591D01*
X149516076Y-34616214D01*
X149518475Y-34608465D01*
X149546680Y-34515047D01*
X149556910Y-34463383D01*
X149567857Y-34411878D01*
X149568704Y-34403821D01*
X149568705Y-34403815D01*
X149568705Y-34403810D01*
X149578227Y-34306693D01*
X149581000Y-34278540D01*
X149581000Y-30081000D01*
X154919000Y-30081000D01*
X154919001Y-48919000D01*
X105081000Y-48919000D01*
X105081000Y-46278024D01*
X105119261Y-46315002D01*
X105242087Y-46432074D01*
X105385393Y-46522934D01*
X105543671Y-46584091D01*
X105677000Y-46514760D01*
X105677000Y-46123000D01*
X106423000Y-46123000D01*
X106423000Y-46514760D01*
X106556329Y-46584091D01*
X106714607Y-46522934D01*
X106857913Y-46432074D01*
X106980739Y-46315002D01*
X107054966Y-46243265D01*
X107016574Y-46123000D01*
X106423000Y-46123000D01*
X105677000Y-46123000D01*
X105657000Y-46123000D01*
X105657000Y-45377000D01*
X105677000Y-45377000D01*
X105677000Y-44985240D01*
X106423000Y-44985240D01*
X106423000Y-45377000D01*
X107016574Y-45377000D01*
X107054966Y-45256735D01*
X107044207Y-45246336D01*
X107988841Y-45246336D01*
X108071033Y-45388176D01*
X108179318Y-45511256D01*
X108283942Y-45618001D01*
X108402000Y-45576488D01*
X108402000Y-45123000D01*
X109098000Y-45123000D01*
X109098000Y-45576488D01*
X109216058Y-45618001D01*
X109320682Y-45511256D01*
X109428967Y-45388176D01*
X109511159Y-45246336D01*
X109460717Y-45123000D01*
X109098000Y-45123000D01*
X108402000Y-45123000D01*
X108039283Y-45123000D01*
X107988841Y-45246336D01*
X107044207Y-45246336D01*
X106980739Y-45184998D01*
X106857913Y-45067926D01*
X106714607Y-44977066D01*
X106556329Y-44915909D01*
X106423000Y-44985240D01*
X105677000Y-44985240D01*
X105543671Y-44915909D01*
X105385393Y-44977066D01*
X105242087Y-45067926D01*
X105119261Y-45184998D01*
X105081000Y-45221976D01*
X105081000Y-43750000D01*
X107692157Y-43750000D01*
X107699513Y-43824689D01*
X107721299Y-43896508D01*
X107756678Y-43962696D01*
X107804289Y-44020711D01*
X107862304Y-44068322D01*
X107928492Y-44103701D01*
X108000311Y-44125487D01*
X108059725Y-44131339D01*
X107988841Y-44253664D01*
X108039283Y-44377000D01*
X108402000Y-44377000D01*
X108402000Y-43923512D01*
X109098000Y-43923512D01*
X109098000Y-44377000D01*
X109460717Y-44377000D01*
X109511159Y-44253664D01*
X109440275Y-44131339D01*
X109499689Y-44125487D01*
X109571508Y-44103701D01*
X109637696Y-44068322D01*
X109695711Y-44020711D01*
X109743322Y-43962696D01*
X109778701Y-43896508D01*
X109800487Y-43824689D01*
X109807843Y-43750000D01*
X109806000Y-43718250D01*
X109710750Y-43623000D01*
X109123000Y-43623000D01*
X109123000Y-43914721D01*
X109098000Y-43923512D01*
X108402000Y-43923512D01*
X108377000Y-43914721D01*
X108377000Y-43623000D01*
X107789250Y-43623000D01*
X107694000Y-43718250D01*
X107692157Y-43750000D01*
X105081000Y-43750000D01*
X105081000Y-39278024D01*
X105119261Y-39315002D01*
X105242087Y-39432074D01*
X105385393Y-39522934D01*
X105543671Y-39584091D01*
X105677000Y-39514760D01*
X105677000Y-39123000D01*
X106423000Y-39123000D01*
X106423000Y-39514760D01*
X106556329Y-39584091D01*
X106714607Y-39522934D01*
X106857913Y-39432074D01*
X106980739Y-39315002D01*
X107054966Y-39243265D01*
X107016574Y-39123000D01*
X106423000Y-39123000D01*
X105677000Y-39123000D01*
X105657000Y-39123000D01*
X105657000Y-38377000D01*
X105677000Y-38377000D01*
X105677000Y-37985240D01*
X106423000Y-37985240D01*
X106423000Y-38377000D01*
X107016574Y-38377000D01*
X107054966Y-38256735D01*
X106980739Y-38184998D01*
X106857913Y-38067926D01*
X106714607Y-37977066D01*
X106556329Y-37915909D01*
X106423000Y-37985240D01*
X105677000Y-37985240D01*
X105543671Y-37915909D01*
X105385393Y-37977066D01*
X105242087Y-38067926D01*
X105119261Y-38184998D01*
X105081000Y-38221976D01*
X105081000Y-30081000D01*
X110419000Y-30081000D01*
X110419001Y-34278540D01*
M02*
