M48
; DRILL file {KiCad (5.1.4)-1} date 27/09/2019 14:22:52
; FORMAT={-:-/ absolute / inch / decimal}
; #@! TF.CreationDate,2019-09-27T14:22:52+09:00
; #@! TF.GenerationSoftware,Kicad,Pcbnew,(5.1.4)-1
; #@! TF.FileFunction,Plated,1,2,PTH
FMAT,2
INCH
T1C0.0157
T2C0.0354
T3C0.0394
T4C0.0630
%
G90
G05
T1
X4.1535Y-1.6732
X4.1535Y-1.7913
X4.1535Y-1.9094
X4.2717Y-1.9094
X4.3898Y-1.9094
X4.4193Y-1.4075
X4.5571Y-1.4075
X4.6949Y-1.4075
X4.7343Y-1.998
X4.8327Y-1.4075
X4.8524Y-1.998
X4.9705Y-1.4075
X5.2657Y-1.4075
X5.4232Y-1.4075
X5.561Y-1.4075
X5.6201Y-1.998
X5.6988Y-1.4075
X5.7776Y-1.998
X5.8366Y-1.4075
X5.9252Y-1.998
X6.0827Y-1.7421
X6.0827Y-1.8701
X6.0827Y-1.998
T2
X4.6949Y-1.7717
X4.6949Y-1.8717
T3
X5.9449Y-1.2402
X5.9449Y-1.3402
X6.0449Y-1.2402
X6.0449Y-1.3402
X4.1913Y-1.2402
X4.1913Y-1.3402
X4.2913Y-1.2402
X4.2913Y-1.3402
T4
X5.1181Y-1.4764
X5.1181Y-1.7126
X5.3031Y-1.5945
T0
M30
