G04 #@! TF.GenerationSoftware,KiCad,Pcbnew,(5.1.4)-1*
G04 #@! TF.CreationDate,2019-09-27T14:23:11+09:00*
G04 #@! TF.ProjectId,project 02,70726f6a-6563-4742-9030-322e6b696361,1*
G04 #@! TF.SameCoordinates,Original*
G04 #@! TF.FileFunction,Paste,Top*
G04 #@! TF.FilePolarity,Positive*
%FSLAX46Y46*%
G04 Gerber Fmt 4.6, Leading zero omitted, Abs format (unit mm)*
G04 Created by KiCad (PCBNEW (5.1.4)-1) date 2019-09-27 14:23:11*
%MOMM*%
%LPD*%
G04 APERTURE LIST*
%ADD10C,0.100000*%
%ADD11C,1.150000*%
%ADD12R,2.000000X3.800000*%
%ADD13R,2.000000X1.500000*%
G04 APERTURE END LIST*
D10*
G36*
X138974505Y-40451204D02*
G01*
X138998773Y-40454804D01*
X139022572Y-40460765D01*
X139045671Y-40469030D01*
X139067850Y-40479520D01*
X139088893Y-40492132D01*
X139108599Y-40506747D01*
X139126777Y-40523223D01*
X139143253Y-40541401D01*
X139157868Y-40561107D01*
X139170480Y-40582150D01*
X139180970Y-40604329D01*
X139189235Y-40627428D01*
X139195196Y-40651227D01*
X139198796Y-40675495D01*
X139200000Y-40699999D01*
X139200000Y-41350001D01*
X139198796Y-41374505D01*
X139195196Y-41398773D01*
X139189235Y-41422572D01*
X139180970Y-41445671D01*
X139170480Y-41467850D01*
X139157868Y-41488893D01*
X139143253Y-41508599D01*
X139126777Y-41526777D01*
X139108599Y-41543253D01*
X139088893Y-41557868D01*
X139067850Y-41570480D01*
X139045671Y-41580970D01*
X139022572Y-41589235D01*
X138998773Y-41595196D01*
X138974505Y-41598796D01*
X138950001Y-41600000D01*
X138049999Y-41600000D01*
X138025495Y-41598796D01*
X138001227Y-41595196D01*
X137977428Y-41589235D01*
X137954329Y-41580970D01*
X137932150Y-41570480D01*
X137911107Y-41557868D01*
X137891401Y-41543253D01*
X137873223Y-41526777D01*
X137856747Y-41508599D01*
X137842132Y-41488893D01*
X137829520Y-41467850D01*
X137819030Y-41445671D01*
X137810765Y-41422572D01*
X137804804Y-41398773D01*
X137801204Y-41374505D01*
X137800000Y-41350001D01*
X137800000Y-40699999D01*
X137801204Y-40675495D01*
X137804804Y-40651227D01*
X137810765Y-40627428D01*
X137819030Y-40604329D01*
X137829520Y-40582150D01*
X137842132Y-40561107D01*
X137856747Y-40541401D01*
X137873223Y-40523223D01*
X137891401Y-40506747D01*
X137911107Y-40492132D01*
X137932150Y-40479520D01*
X137954329Y-40469030D01*
X137977428Y-40460765D01*
X138001227Y-40454804D01*
X138025495Y-40451204D01*
X138049999Y-40450000D01*
X138950001Y-40450000D01*
X138974505Y-40451204D01*
X138974505Y-40451204D01*
G37*
D11*
X138500000Y-41025000D03*
D10*
G36*
X138974505Y-38401204D02*
G01*
X138998773Y-38404804D01*
X139022572Y-38410765D01*
X139045671Y-38419030D01*
X139067850Y-38429520D01*
X139088893Y-38442132D01*
X139108599Y-38456747D01*
X139126777Y-38473223D01*
X139143253Y-38491401D01*
X139157868Y-38511107D01*
X139170480Y-38532150D01*
X139180970Y-38554329D01*
X139189235Y-38577428D01*
X139195196Y-38601227D01*
X139198796Y-38625495D01*
X139200000Y-38649999D01*
X139200000Y-39300001D01*
X139198796Y-39324505D01*
X139195196Y-39348773D01*
X139189235Y-39372572D01*
X139180970Y-39395671D01*
X139170480Y-39417850D01*
X139157868Y-39438893D01*
X139143253Y-39458599D01*
X139126777Y-39476777D01*
X139108599Y-39493253D01*
X139088893Y-39507868D01*
X139067850Y-39520480D01*
X139045671Y-39530970D01*
X139022572Y-39539235D01*
X138998773Y-39545196D01*
X138974505Y-39548796D01*
X138950001Y-39550000D01*
X138049999Y-39550000D01*
X138025495Y-39548796D01*
X138001227Y-39545196D01*
X137977428Y-39539235D01*
X137954329Y-39530970D01*
X137932150Y-39520480D01*
X137911107Y-39507868D01*
X137891401Y-39493253D01*
X137873223Y-39476777D01*
X137856747Y-39458599D01*
X137842132Y-39438893D01*
X137829520Y-39417850D01*
X137819030Y-39395671D01*
X137810765Y-39372572D01*
X137804804Y-39348773D01*
X137801204Y-39324505D01*
X137800000Y-39300001D01*
X137800000Y-38649999D01*
X137801204Y-38625495D01*
X137804804Y-38601227D01*
X137810765Y-38577428D01*
X137819030Y-38554329D01*
X137829520Y-38532150D01*
X137842132Y-38511107D01*
X137856747Y-38491401D01*
X137873223Y-38473223D01*
X137891401Y-38456747D01*
X137911107Y-38442132D01*
X137932150Y-38429520D01*
X137954329Y-38419030D01*
X137977428Y-38410765D01*
X138001227Y-38404804D01*
X138025495Y-38401204D01*
X138049999Y-38400000D01*
X138950001Y-38400000D01*
X138974505Y-38401204D01*
X138974505Y-38401204D01*
G37*
D11*
X138500000Y-38975000D03*
D10*
G36*
X151824505Y-36301204D02*
G01*
X151848773Y-36304804D01*
X151872572Y-36310765D01*
X151895671Y-36319030D01*
X151917850Y-36329520D01*
X151938893Y-36342132D01*
X151958599Y-36356747D01*
X151976777Y-36373223D01*
X151993253Y-36391401D01*
X152007868Y-36411107D01*
X152020480Y-36432150D01*
X152030970Y-36454329D01*
X152039235Y-36477428D01*
X152045196Y-36501227D01*
X152048796Y-36525495D01*
X152050000Y-36549999D01*
X152050000Y-37450001D01*
X152048796Y-37474505D01*
X152045196Y-37498773D01*
X152039235Y-37522572D01*
X152030970Y-37545671D01*
X152020480Y-37567850D01*
X152007868Y-37588893D01*
X151993253Y-37608599D01*
X151976777Y-37626777D01*
X151958599Y-37643253D01*
X151938893Y-37657868D01*
X151917850Y-37670480D01*
X151895671Y-37680970D01*
X151872572Y-37689235D01*
X151848773Y-37695196D01*
X151824505Y-37698796D01*
X151800001Y-37700000D01*
X151149999Y-37700000D01*
X151125495Y-37698796D01*
X151101227Y-37695196D01*
X151077428Y-37689235D01*
X151054329Y-37680970D01*
X151032150Y-37670480D01*
X151011107Y-37657868D01*
X150991401Y-37643253D01*
X150973223Y-37626777D01*
X150956747Y-37608599D01*
X150942132Y-37588893D01*
X150929520Y-37567850D01*
X150919030Y-37545671D01*
X150910765Y-37522572D01*
X150904804Y-37498773D01*
X150901204Y-37474505D01*
X150900000Y-37450001D01*
X150900000Y-36549999D01*
X150901204Y-36525495D01*
X150904804Y-36501227D01*
X150910765Y-36477428D01*
X150919030Y-36454329D01*
X150929520Y-36432150D01*
X150942132Y-36411107D01*
X150956747Y-36391401D01*
X150973223Y-36373223D01*
X150991401Y-36356747D01*
X151011107Y-36342132D01*
X151032150Y-36329520D01*
X151054329Y-36319030D01*
X151077428Y-36310765D01*
X151101227Y-36304804D01*
X151125495Y-36301204D01*
X151149999Y-36300000D01*
X151800001Y-36300000D01*
X151824505Y-36301204D01*
X151824505Y-36301204D01*
G37*
D11*
X151475000Y-37000000D03*
D10*
G36*
X153874505Y-36301204D02*
G01*
X153898773Y-36304804D01*
X153922572Y-36310765D01*
X153945671Y-36319030D01*
X153967850Y-36329520D01*
X153988893Y-36342132D01*
X154008599Y-36356747D01*
X154026777Y-36373223D01*
X154043253Y-36391401D01*
X154057868Y-36411107D01*
X154070480Y-36432150D01*
X154080970Y-36454329D01*
X154089235Y-36477428D01*
X154095196Y-36501227D01*
X154098796Y-36525495D01*
X154100000Y-36549999D01*
X154100000Y-37450001D01*
X154098796Y-37474505D01*
X154095196Y-37498773D01*
X154089235Y-37522572D01*
X154080970Y-37545671D01*
X154070480Y-37567850D01*
X154057868Y-37588893D01*
X154043253Y-37608599D01*
X154026777Y-37626777D01*
X154008599Y-37643253D01*
X153988893Y-37657868D01*
X153967850Y-37670480D01*
X153945671Y-37680970D01*
X153922572Y-37689235D01*
X153898773Y-37695196D01*
X153874505Y-37698796D01*
X153850001Y-37700000D01*
X153199999Y-37700000D01*
X153175495Y-37698796D01*
X153151227Y-37695196D01*
X153127428Y-37689235D01*
X153104329Y-37680970D01*
X153082150Y-37670480D01*
X153061107Y-37657868D01*
X153041401Y-37643253D01*
X153023223Y-37626777D01*
X153006747Y-37608599D01*
X152992132Y-37588893D01*
X152979520Y-37567850D01*
X152969030Y-37545671D01*
X152960765Y-37522572D01*
X152954804Y-37498773D01*
X152951204Y-37474505D01*
X152950000Y-37450001D01*
X152950000Y-36549999D01*
X152951204Y-36525495D01*
X152954804Y-36501227D01*
X152960765Y-36477428D01*
X152969030Y-36454329D01*
X152979520Y-36432150D01*
X152992132Y-36411107D01*
X153006747Y-36391401D01*
X153023223Y-36373223D01*
X153041401Y-36356747D01*
X153061107Y-36342132D01*
X153082150Y-36329520D01*
X153104329Y-36319030D01*
X153127428Y-36310765D01*
X153151227Y-36304804D01*
X153175495Y-36301204D01*
X153199999Y-36300000D01*
X153850001Y-36300000D01*
X153874505Y-36301204D01*
X153874505Y-36301204D01*
G37*
D11*
X153525000Y-37000000D03*
D10*
G36*
X122474505Y-40451204D02*
G01*
X122498773Y-40454804D01*
X122522572Y-40460765D01*
X122545671Y-40469030D01*
X122567850Y-40479520D01*
X122588893Y-40492132D01*
X122608599Y-40506747D01*
X122626777Y-40523223D01*
X122643253Y-40541401D01*
X122657868Y-40561107D01*
X122670480Y-40582150D01*
X122680970Y-40604329D01*
X122689235Y-40627428D01*
X122695196Y-40651227D01*
X122698796Y-40675495D01*
X122700000Y-40699999D01*
X122700000Y-41350001D01*
X122698796Y-41374505D01*
X122695196Y-41398773D01*
X122689235Y-41422572D01*
X122680970Y-41445671D01*
X122670480Y-41467850D01*
X122657868Y-41488893D01*
X122643253Y-41508599D01*
X122626777Y-41526777D01*
X122608599Y-41543253D01*
X122588893Y-41557868D01*
X122567850Y-41570480D01*
X122545671Y-41580970D01*
X122522572Y-41589235D01*
X122498773Y-41595196D01*
X122474505Y-41598796D01*
X122450001Y-41600000D01*
X121549999Y-41600000D01*
X121525495Y-41598796D01*
X121501227Y-41595196D01*
X121477428Y-41589235D01*
X121454329Y-41580970D01*
X121432150Y-41570480D01*
X121411107Y-41557868D01*
X121391401Y-41543253D01*
X121373223Y-41526777D01*
X121356747Y-41508599D01*
X121342132Y-41488893D01*
X121329520Y-41467850D01*
X121319030Y-41445671D01*
X121310765Y-41422572D01*
X121304804Y-41398773D01*
X121301204Y-41374505D01*
X121300000Y-41350001D01*
X121300000Y-40699999D01*
X121301204Y-40675495D01*
X121304804Y-40651227D01*
X121310765Y-40627428D01*
X121319030Y-40604329D01*
X121329520Y-40582150D01*
X121342132Y-40561107D01*
X121356747Y-40541401D01*
X121373223Y-40523223D01*
X121391401Y-40506747D01*
X121411107Y-40492132D01*
X121432150Y-40479520D01*
X121454329Y-40469030D01*
X121477428Y-40460765D01*
X121501227Y-40454804D01*
X121525495Y-40451204D01*
X121549999Y-40450000D01*
X122450001Y-40450000D01*
X122474505Y-40451204D01*
X122474505Y-40451204D01*
G37*
D11*
X122000000Y-41025000D03*
D10*
G36*
X122474505Y-38401204D02*
G01*
X122498773Y-38404804D01*
X122522572Y-38410765D01*
X122545671Y-38419030D01*
X122567850Y-38429520D01*
X122588893Y-38442132D01*
X122608599Y-38456747D01*
X122626777Y-38473223D01*
X122643253Y-38491401D01*
X122657868Y-38511107D01*
X122670480Y-38532150D01*
X122680970Y-38554329D01*
X122689235Y-38577428D01*
X122695196Y-38601227D01*
X122698796Y-38625495D01*
X122700000Y-38649999D01*
X122700000Y-39300001D01*
X122698796Y-39324505D01*
X122695196Y-39348773D01*
X122689235Y-39372572D01*
X122680970Y-39395671D01*
X122670480Y-39417850D01*
X122657868Y-39438893D01*
X122643253Y-39458599D01*
X122626777Y-39476777D01*
X122608599Y-39493253D01*
X122588893Y-39507868D01*
X122567850Y-39520480D01*
X122545671Y-39530970D01*
X122522572Y-39539235D01*
X122498773Y-39545196D01*
X122474505Y-39548796D01*
X122450001Y-39550000D01*
X121549999Y-39550000D01*
X121525495Y-39548796D01*
X121501227Y-39545196D01*
X121477428Y-39539235D01*
X121454329Y-39530970D01*
X121432150Y-39520480D01*
X121411107Y-39507868D01*
X121391401Y-39493253D01*
X121373223Y-39476777D01*
X121356747Y-39458599D01*
X121342132Y-39438893D01*
X121329520Y-39417850D01*
X121319030Y-39395671D01*
X121310765Y-39372572D01*
X121304804Y-39348773D01*
X121301204Y-39324505D01*
X121300000Y-39300001D01*
X121300000Y-38649999D01*
X121301204Y-38625495D01*
X121304804Y-38601227D01*
X121310765Y-38577428D01*
X121319030Y-38554329D01*
X121329520Y-38532150D01*
X121342132Y-38511107D01*
X121356747Y-38491401D01*
X121373223Y-38473223D01*
X121391401Y-38456747D01*
X121411107Y-38442132D01*
X121432150Y-38429520D01*
X121454329Y-38419030D01*
X121477428Y-38410765D01*
X121501227Y-38404804D01*
X121525495Y-38401204D01*
X121549999Y-38400000D01*
X122450001Y-38400000D01*
X122474505Y-38401204D01*
X122474505Y-38401204D01*
G37*
D11*
X122000000Y-38975000D03*
D10*
G36*
X108874505Y-36301204D02*
G01*
X108898773Y-36304804D01*
X108922572Y-36310765D01*
X108945671Y-36319030D01*
X108967850Y-36329520D01*
X108988893Y-36342132D01*
X109008599Y-36356747D01*
X109026777Y-36373223D01*
X109043253Y-36391401D01*
X109057868Y-36411107D01*
X109070480Y-36432150D01*
X109080970Y-36454329D01*
X109089235Y-36477428D01*
X109095196Y-36501227D01*
X109098796Y-36525495D01*
X109100000Y-36549999D01*
X109100000Y-37450001D01*
X109098796Y-37474505D01*
X109095196Y-37498773D01*
X109089235Y-37522572D01*
X109080970Y-37545671D01*
X109070480Y-37567850D01*
X109057868Y-37588893D01*
X109043253Y-37608599D01*
X109026777Y-37626777D01*
X109008599Y-37643253D01*
X108988893Y-37657868D01*
X108967850Y-37670480D01*
X108945671Y-37680970D01*
X108922572Y-37689235D01*
X108898773Y-37695196D01*
X108874505Y-37698796D01*
X108850001Y-37700000D01*
X108199999Y-37700000D01*
X108175495Y-37698796D01*
X108151227Y-37695196D01*
X108127428Y-37689235D01*
X108104329Y-37680970D01*
X108082150Y-37670480D01*
X108061107Y-37657868D01*
X108041401Y-37643253D01*
X108023223Y-37626777D01*
X108006747Y-37608599D01*
X107992132Y-37588893D01*
X107979520Y-37567850D01*
X107969030Y-37545671D01*
X107960765Y-37522572D01*
X107954804Y-37498773D01*
X107951204Y-37474505D01*
X107950000Y-37450001D01*
X107950000Y-36549999D01*
X107951204Y-36525495D01*
X107954804Y-36501227D01*
X107960765Y-36477428D01*
X107969030Y-36454329D01*
X107979520Y-36432150D01*
X107992132Y-36411107D01*
X108006747Y-36391401D01*
X108023223Y-36373223D01*
X108041401Y-36356747D01*
X108061107Y-36342132D01*
X108082150Y-36329520D01*
X108104329Y-36319030D01*
X108127428Y-36310765D01*
X108151227Y-36304804D01*
X108175495Y-36301204D01*
X108199999Y-36300000D01*
X108850001Y-36300000D01*
X108874505Y-36301204D01*
X108874505Y-36301204D01*
G37*
D11*
X108525000Y-37000000D03*
D10*
G36*
X106824505Y-36301204D02*
G01*
X106848773Y-36304804D01*
X106872572Y-36310765D01*
X106895671Y-36319030D01*
X106917850Y-36329520D01*
X106938893Y-36342132D01*
X106958599Y-36356747D01*
X106976777Y-36373223D01*
X106993253Y-36391401D01*
X107007868Y-36411107D01*
X107020480Y-36432150D01*
X107030970Y-36454329D01*
X107039235Y-36477428D01*
X107045196Y-36501227D01*
X107048796Y-36525495D01*
X107050000Y-36549999D01*
X107050000Y-37450001D01*
X107048796Y-37474505D01*
X107045196Y-37498773D01*
X107039235Y-37522572D01*
X107030970Y-37545671D01*
X107020480Y-37567850D01*
X107007868Y-37588893D01*
X106993253Y-37608599D01*
X106976777Y-37626777D01*
X106958599Y-37643253D01*
X106938893Y-37657868D01*
X106917850Y-37670480D01*
X106895671Y-37680970D01*
X106872572Y-37689235D01*
X106848773Y-37695196D01*
X106824505Y-37698796D01*
X106800001Y-37700000D01*
X106149999Y-37700000D01*
X106125495Y-37698796D01*
X106101227Y-37695196D01*
X106077428Y-37689235D01*
X106054329Y-37680970D01*
X106032150Y-37670480D01*
X106011107Y-37657868D01*
X105991401Y-37643253D01*
X105973223Y-37626777D01*
X105956747Y-37608599D01*
X105942132Y-37588893D01*
X105929520Y-37567850D01*
X105919030Y-37545671D01*
X105910765Y-37522572D01*
X105904804Y-37498773D01*
X105901204Y-37474505D01*
X105900000Y-37450001D01*
X105900000Y-36549999D01*
X105901204Y-36525495D01*
X105904804Y-36501227D01*
X105910765Y-36477428D01*
X105919030Y-36454329D01*
X105929520Y-36432150D01*
X105942132Y-36411107D01*
X105956747Y-36391401D01*
X105973223Y-36373223D01*
X105991401Y-36356747D01*
X106011107Y-36342132D01*
X106032150Y-36329520D01*
X106054329Y-36319030D01*
X106077428Y-36310765D01*
X106101227Y-36304804D01*
X106125495Y-36301204D01*
X106149999Y-36300000D01*
X106800001Y-36300000D01*
X106824505Y-36301204D01*
X106824505Y-36301204D01*
G37*
D11*
X106475000Y-37000000D03*
D10*
G36*
X113974505Y-44401204D02*
G01*
X113998773Y-44404804D01*
X114022572Y-44410765D01*
X114045671Y-44419030D01*
X114067850Y-44429520D01*
X114088893Y-44442132D01*
X114108599Y-44456747D01*
X114126777Y-44473223D01*
X114143253Y-44491401D01*
X114157868Y-44511107D01*
X114170480Y-44532150D01*
X114180970Y-44554329D01*
X114189235Y-44577428D01*
X114195196Y-44601227D01*
X114198796Y-44625495D01*
X114200000Y-44649999D01*
X114200000Y-45300001D01*
X114198796Y-45324505D01*
X114195196Y-45348773D01*
X114189235Y-45372572D01*
X114180970Y-45395671D01*
X114170480Y-45417850D01*
X114157868Y-45438893D01*
X114143253Y-45458599D01*
X114126777Y-45476777D01*
X114108599Y-45493253D01*
X114088893Y-45507868D01*
X114067850Y-45520480D01*
X114045671Y-45530970D01*
X114022572Y-45539235D01*
X113998773Y-45545196D01*
X113974505Y-45548796D01*
X113950001Y-45550000D01*
X113049999Y-45550000D01*
X113025495Y-45548796D01*
X113001227Y-45545196D01*
X112977428Y-45539235D01*
X112954329Y-45530970D01*
X112932150Y-45520480D01*
X112911107Y-45507868D01*
X112891401Y-45493253D01*
X112873223Y-45476777D01*
X112856747Y-45458599D01*
X112842132Y-45438893D01*
X112829520Y-45417850D01*
X112819030Y-45395671D01*
X112810765Y-45372572D01*
X112804804Y-45348773D01*
X112801204Y-45324505D01*
X112800000Y-45300001D01*
X112800000Y-44649999D01*
X112801204Y-44625495D01*
X112804804Y-44601227D01*
X112810765Y-44577428D01*
X112819030Y-44554329D01*
X112829520Y-44532150D01*
X112842132Y-44511107D01*
X112856747Y-44491401D01*
X112873223Y-44473223D01*
X112891401Y-44456747D01*
X112911107Y-44442132D01*
X112932150Y-44429520D01*
X112954329Y-44419030D01*
X112977428Y-44410765D01*
X113001227Y-44404804D01*
X113025495Y-44401204D01*
X113049999Y-44400000D01*
X113950001Y-44400000D01*
X113974505Y-44401204D01*
X113974505Y-44401204D01*
G37*
D11*
X113500000Y-44975000D03*
D10*
G36*
X113974505Y-46451204D02*
G01*
X113998773Y-46454804D01*
X114022572Y-46460765D01*
X114045671Y-46469030D01*
X114067850Y-46479520D01*
X114088893Y-46492132D01*
X114108599Y-46506747D01*
X114126777Y-46523223D01*
X114143253Y-46541401D01*
X114157868Y-46561107D01*
X114170480Y-46582150D01*
X114180970Y-46604329D01*
X114189235Y-46627428D01*
X114195196Y-46651227D01*
X114198796Y-46675495D01*
X114200000Y-46699999D01*
X114200000Y-47350001D01*
X114198796Y-47374505D01*
X114195196Y-47398773D01*
X114189235Y-47422572D01*
X114180970Y-47445671D01*
X114170480Y-47467850D01*
X114157868Y-47488893D01*
X114143253Y-47508599D01*
X114126777Y-47526777D01*
X114108599Y-47543253D01*
X114088893Y-47557868D01*
X114067850Y-47570480D01*
X114045671Y-47580970D01*
X114022572Y-47589235D01*
X113998773Y-47595196D01*
X113974505Y-47598796D01*
X113950001Y-47600000D01*
X113049999Y-47600000D01*
X113025495Y-47598796D01*
X113001227Y-47595196D01*
X112977428Y-47589235D01*
X112954329Y-47580970D01*
X112932150Y-47570480D01*
X112911107Y-47557868D01*
X112891401Y-47543253D01*
X112873223Y-47526777D01*
X112856747Y-47508599D01*
X112842132Y-47488893D01*
X112829520Y-47467850D01*
X112819030Y-47445671D01*
X112810765Y-47422572D01*
X112804804Y-47398773D01*
X112801204Y-47374505D01*
X112800000Y-47350001D01*
X112800000Y-46699999D01*
X112801204Y-46675495D01*
X112804804Y-46651227D01*
X112810765Y-46627428D01*
X112819030Y-46604329D01*
X112829520Y-46582150D01*
X112842132Y-46561107D01*
X112856747Y-46541401D01*
X112873223Y-46523223D01*
X112891401Y-46506747D01*
X112911107Y-46492132D01*
X112932150Y-46479520D01*
X112954329Y-46469030D01*
X112977428Y-46460765D01*
X113001227Y-46454804D01*
X113025495Y-46451204D01*
X113049999Y-46450000D01*
X113950001Y-46450000D01*
X113974505Y-46451204D01*
X113974505Y-46451204D01*
G37*
D11*
X113500000Y-47025000D03*
D12*
X147650000Y-40000000D03*
D13*
X141350000Y-40000000D03*
X141350000Y-42300000D03*
X141350000Y-37700000D03*
X119150000Y-42300000D03*
X119150000Y-37700000D03*
X119150000Y-40000000D03*
D12*
X112850000Y-40000000D03*
M02*
