G04 #@! TF.GenerationSoftware,KiCad,Pcbnew,(5.1.4)-1*
G04 #@! TF.CreationDate,2019-09-27T14:23:11+09:00*
G04 #@! TF.ProjectId,project 02,70726f6a-6563-4742-9030-322e6b696361,1*
G04 #@! TF.SameCoordinates,Original*
G04 #@! TF.FileFunction,Soldermask,Bot*
G04 #@! TF.FilePolarity,Negative*
%FSLAX46Y46*%
G04 Gerber Fmt 4.6, Leading zero omitted, Abs format (unit mm)*
G04 Created by KiCad (PCBNEW (5.1.4)-1) date 2019-09-27 14:23:11*
%MOMM*%
%LPD*%
G04 APERTURE LIST*
%ADD10C,0.100000*%
G04 APERTURE END LIST*
D10*
G36*
X119471880Y-46588810D02*
G01*
X119534747Y-46601315D01*
X119712404Y-46674903D01*
X119872291Y-46781736D01*
X120008264Y-46917709D01*
X120115097Y-47077596D01*
X120188685Y-47255253D01*
X120226200Y-47443853D01*
X120226200Y-47636147D01*
X120188685Y-47824747D01*
X120115097Y-48002404D01*
X120008264Y-48162291D01*
X119872291Y-48298264D01*
X119712404Y-48405097D01*
X119534747Y-48478685D01*
X119471880Y-48491190D01*
X119346149Y-48516200D01*
X119153851Y-48516200D01*
X119028120Y-48491190D01*
X118965253Y-48478685D01*
X118787596Y-48405097D01*
X118627709Y-48298264D01*
X118491736Y-48162291D01*
X118384903Y-48002404D01*
X118311315Y-47824747D01*
X118273800Y-47636147D01*
X118273800Y-47443853D01*
X118311315Y-47255253D01*
X118384903Y-47077596D01*
X118491736Y-46917709D01*
X118627709Y-46781736D01*
X118787596Y-46674903D01*
X118965253Y-46601315D01*
X119028120Y-46588810D01*
X119153851Y-46563800D01*
X119346149Y-46563800D01*
X119471880Y-46588810D01*
X119471880Y-46588810D01*
G37*
G36*
X120226200Y-45976200D02*
G01*
X118273800Y-45976200D01*
X118273800Y-44023800D01*
X120226200Y-44023800D01*
X120226200Y-45976200D01*
X120226200Y-45976200D01*
G37*
G36*
X130401423Y-42176686D02*
G01*
X130651874Y-42280426D01*
X130877276Y-42431035D01*
X131068965Y-42622724D01*
X131219574Y-42848126D01*
X131323314Y-43098577D01*
X131376200Y-43364455D01*
X131376200Y-43635545D01*
X131323314Y-43901423D01*
X131219574Y-44151874D01*
X131068965Y-44377276D01*
X130877276Y-44568965D01*
X130651874Y-44719574D01*
X130401423Y-44823314D01*
X130135545Y-44876200D01*
X129864455Y-44876200D01*
X129598577Y-44823314D01*
X129348126Y-44719574D01*
X129122724Y-44568965D01*
X128931035Y-44377276D01*
X128780426Y-44151874D01*
X128676686Y-43901423D01*
X128623800Y-43635545D01*
X128623800Y-43364455D01*
X128676686Y-43098577D01*
X128780426Y-42848126D01*
X128931035Y-42622724D01*
X129122724Y-42431035D01*
X129348126Y-42280426D01*
X129598577Y-42176686D01*
X129864455Y-42123800D01*
X130135545Y-42123800D01*
X130401423Y-42176686D01*
X130401423Y-42176686D01*
G37*
G36*
X135101423Y-39176686D02*
G01*
X135351874Y-39280426D01*
X135577276Y-39431035D01*
X135768965Y-39622724D01*
X135919574Y-39848126D01*
X136023314Y-40098577D01*
X136076200Y-40364455D01*
X136076200Y-40635545D01*
X136023314Y-40901423D01*
X135919574Y-41151874D01*
X135768965Y-41377276D01*
X135577276Y-41568965D01*
X135351874Y-41719574D01*
X135101423Y-41823314D01*
X134835545Y-41876200D01*
X134564455Y-41876200D01*
X134298577Y-41823314D01*
X134048126Y-41719574D01*
X133822724Y-41568965D01*
X133631035Y-41377276D01*
X133480426Y-41151874D01*
X133376686Y-40901423D01*
X133323800Y-40635545D01*
X133323800Y-40364455D01*
X133376686Y-40098577D01*
X133480426Y-39848126D01*
X133631035Y-39622724D01*
X133822724Y-39431035D01*
X134048126Y-39280426D01*
X134298577Y-39176686D01*
X134564455Y-39123800D01*
X134835545Y-39123800D01*
X135101423Y-39176686D01*
X135101423Y-39176686D01*
G37*
G36*
X131376200Y-38876200D02*
G01*
X128623800Y-38876200D01*
X128623800Y-36123800D01*
X131376200Y-36123800D01*
X131376200Y-38876200D01*
X131376200Y-38876200D01*
G37*
G36*
X153721565Y-33127201D02*
G01*
X153896159Y-33180164D01*
X154057058Y-33266166D01*
X154198091Y-33381909D01*
X154313834Y-33522942D01*
X154399836Y-33683841D01*
X154452799Y-33858435D01*
X154470681Y-34040000D01*
X154452799Y-34221565D01*
X154399836Y-34396159D01*
X154313834Y-34557058D01*
X154198091Y-34698091D01*
X154057058Y-34813834D01*
X153896159Y-34899836D01*
X153721565Y-34952799D01*
X153585500Y-34966200D01*
X153494500Y-34966200D01*
X153358435Y-34952799D01*
X153183841Y-34899836D01*
X153022942Y-34813834D01*
X152881909Y-34698091D01*
X152766166Y-34557058D01*
X152680164Y-34396159D01*
X152627201Y-34221565D01*
X152609319Y-34040000D01*
X152627201Y-33858435D01*
X152680164Y-33683841D01*
X152766166Y-33522942D01*
X152881909Y-33381909D01*
X153022942Y-33266166D01*
X153183841Y-33180164D01*
X153358435Y-33127201D01*
X153494500Y-33113800D01*
X153585500Y-33113800D01*
X153721565Y-33127201D01*
X153721565Y-33127201D01*
G37*
G36*
X109181565Y-33127201D02*
G01*
X109356159Y-33180164D01*
X109517058Y-33266166D01*
X109658091Y-33381909D01*
X109773834Y-33522942D01*
X109859836Y-33683841D01*
X109912799Y-33858435D01*
X109930681Y-34040000D01*
X109912799Y-34221565D01*
X109859836Y-34396159D01*
X109773834Y-34557058D01*
X109658091Y-34698091D01*
X109517058Y-34813834D01*
X109356159Y-34899836D01*
X109181565Y-34952799D01*
X109045500Y-34966200D01*
X108954500Y-34966200D01*
X108818435Y-34952799D01*
X108643841Y-34899836D01*
X108482942Y-34813834D01*
X108341909Y-34698091D01*
X108226166Y-34557058D01*
X108140164Y-34396159D01*
X108087201Y-34221565D01*
X108069319Y-34040000D01*
X108087201Y-33858435D01*
X108140164Y-33683841D01*
X108226166Y-33522942D01*
X108341909Y-33381909D01*
X108482942Y-33266166D01*
X108643841Y-33180164D01*
X108818435Y-33127201D01*
X108954500Y-33113800D01*
X109045500Y-33113800D01*
X109181565Y-33127201D01*
X109181565Y-33127201D01*
G37*
G36*
X106641565Y-33127201D02*
G01*
X106816159Y-33180164D01*
X106977058Y-33266166D01*
X107118091Y-33381909D01*
X107233834Y-33522942D01*
X107319836Y-33683841D01*
X107372799Y-33858435D01*
X107390681Y-34040000D01*
X107372799Y-34221565D01*
X107319836Y-34396159D01*
X107233834Y-34557058D01*
X107118091Y-34698091D01*
X106977058Y-34813834D01*
X106816159Y-34899836D01*
X106641565Y-34952799D01*
X106505500Y-34966200D01*
X106414500Y-34966200D01*
X106278435Y-34952799D01*
X106103841Y-34899836D01*
X105942942Y-34813834D01*
X105801909Y-34698091D01*
X105686166Y-34557058D01*
X105600164Y-34396159D01*
X105547201Y-34221565D01*
X105529319Y-34040000D01*
X105547201Y-33858435D01*
X105600164Y-33683841D01*
X105686166Y-33522942D01*
X105801909Y-33381909D01*
X105942942Y-33266166D01*
X106103841Y-33180164D01*
X106278435Y-33127201D01*
X106414500Y-33113800D01*
X106505500Y-33113800D01*
X106641565Y-33127201D01*
X106641565Y-33127201D01*
G37*
G36*
X151181565Y-33127201D02*
G01*
X151356159Y-33180164D01*
X151517058Y-33266166D01*
X151658091Y-33381909D01*
X151773834Y-33522942D01*
X151859836Y-33683841D01*
X151912799Y-33858435D01*
X151930681Y-34040000D01*
X151912799Y-34221565D01*
X151859836Y-34396159D01*
X151773834Y-34557058D01*
X151658091Y-34698091D01*
X151517058Y-34813834D01*
X151356159Y-34899836D01*
X151181565Y-34952799D01*
X151045500Y-34966200D01*
X150954500Y-34966200D01*
X150818435Y-34952799D01*
X150643841Y-34899836D01*
X150482942Y-34813834D01*
X150341909Y-34698091D01*
X150226166Y-34557058D01*
X150140164Y-34396159D01*
X150087201Y-34221565D01*
X150069319Y-34040000D01*
X150087201Y-33858435D01*
X150140164Y-33683841D01*
X150226166Y-33522942D01*
X150341909Y-33381909D01*
X150482942Y-33266166D01*
X150643841Y-33180164D01*
X150818435Y-33127201D01*
X150954500Y-33113800D01*
X151045500Y-33113800D01*
X151181565Y-33127201D01*
X151181565Y-33127201D01*
G37*
G36*
X107386200Y-32426200D02*
G01*
X105533800Y-32426200D01*
X105533800Y-30573800D01*
X107386200Y-30573800D01*
X107386200Y-32426200D01*
X107386200Y-32426200D01*
G37*
G36*
X109181565Y-30587201D02*
G01*
X109356159Y-30640164D01*
X109517058Y-30726166D01*
X109658091Y-30841909D01*
X109773834Y-30982942D01*
X109859836Y-31143841D01*
X109912799Y-31318435D01*
X109930681Y-31500000D01*
X109912799Y-31681565D01*
X109859836Y-31856159D01*
X109773834Y-32017058D01*
X109658091Y-32158091D01*
X109517058Y-32273834D01*
X109356159Y-32359836D01*
X109181565Y-32412799D01*
X109045500Y-32426200D01*
X108954500Y-32426200D01*
X108818435Y-32412799D01*
X108643841Y-32359836D01*
X108482942Y-32273834D01*
X108341909Y-32158091D01*
X108226166Y-32017058D01*
X108140164Y-31856159D01*
X108087201Y-31681565D01*
X108069319Y-31500000D01*
X108087201Y-31318435D01*
X108140164Y-31143841D01*
X108226166Y-30982942D01*
X108341909Y-30841909D01*
X108482942Y-30726166D01*
X108643841Y-30640164D01*
X108818435Y-30587201D01*
X108954500Y-30573800D01*
X109045500Y-30573800D01*
X109181565Y-30587201D01*
X109181565Y-30587201D01*
G37*
G36*
X153721565Y-30587201D02*
G01*
X153896159Y-30640164D01*
X154057058Y-30726166D01*
X154198091Y-30841909D01*
X154313834Y-30982942D01*
X154399836Y-31143841D01*
X154452799Y-31318435D01*
X154470681Y-31500000D01*
X154452799Y-31681565D01*
X154399836Y-31856159D01*
X154313834Y-32017058D01*
X154198091Y-32158091D01*
X154057058Y-32273834D01*
X153896159Y-32359836D01*
X153721565Y-32412799D01*
X153585500Y-32426200D01*
X153494500Y-32426200D01*
X153358435Y-32412799D01*
X153183841Y-32359836D01*
X153022942Y-32273834D01*
X152881909Y-32158091D01*
X152766166Y-32017058D01*
X152680164Y-31856159D01*
X152627201Y-31681565D01*
X152609319Y-31500000D01*
X152627201Y-31318435D01*
X152680164Y-31143841D01*
X152766166Y-30982942D01*
X152881909Y-30841909D01*
X153022942Y-30726166D01*
X153183841Y-30640164D01*
X153358435Y-30587201D01*
X153494500Y-30573800D01*
X153585500Y-30573800D01*
X153721565Y-30587201D01*
X153721565Y-30587201D01*
G37*
G36*
X151926200Y-32426200D02*
G01*
X150073800Y-32426200D01*
X150073800Y-30573800D01*
X151926200Y-30573800D01*
X151926200Y-32426200D01*
X151926200Y-32426200D01*
G37*
M02*
