G04 #@! TF.GenerationSoftware,KiCad,Pcbnew,(5.1.4)-1*
G04 #@! TF.CreationDate,2019-09-27T14:23:11+09:00*
G04 #@! TF.ProjectId,project 02,70726f6a-6563-4742-9030-322e6b696361,1*
G04 #@! TF.SameCoordinates,Original*
G04 #@! TF.FileFunction,Copper,L2,Bot*
G04 #@! TF.FilePolarity,Positive*
%FSLAX46Y46*%
G04 Gerber Fmt 4.6, Leading zero omitted, Abs format (unit mm)*
G04 Created by KiCad (PCBNEW (5.1.4)-1) date 2019-09-27 14:23:11*
%MOMM*%
%LPD*%
G04 APERTURE LIST*
%ADD10R,1.800000X1.800000*%
%ADD11C,1.800000*%
%ADD12O,1.700000X1.700000*%
%ADD13R,1.700000X1.700000*%
%ADD14R,2.600000X2.600000*%
%ADD15C,2.600000*%
%ADD16C,0.800000*%
%ADD17C,0.254000*%
G04 APERTURE END LIST*
D10*
X119250000Y-45000000D03*
D11*
X119250000Y-47540000D03*
D12*
X153540000Y-34040000D03*
X153540000Y-31500000D03*
X151000000Y-34040000D03*
D13*
X151000000Y-31500000D03*
D14*
X130000000Y-37500000D03*
D15*
X130000000Y-43500000D03*
X134700000Y-40500000D03*
D13*
X106460000Y-31500000D03*
D12*
X106460000Y-34040000D03*
X109000000Y-31500000D03*
X109000000Y-34040000D03*
D16*
X112250000Y-35750000D03*
X115750000Y-35750000D03*
X119250000Y-35750000D03*
X122750000Y-35750000D03*
X126250000Y-35750000D03*
X133750000Y-35750000D03*
X137750000Y-35750000D03*
X141250000Y-35750000D03*
X144750000Y-35750000D03*
X148250000Y-35750000D03*
X154500000Y-44250000D03*
X154500000Y-47500000D03*
X154500000Y-50750000D03*
X150500000Y-50750000D03*
X146750000Y-50750000D03*
X142750000Y-50750000D03*
X123250000Y-50750000D03*
X120250000Y-50750000D03*
X108500000Y-48500000D03*
X105500000Y-48500000D03*
X105500000Y-45500000D03*
X111500000Y-48500000D03*
X105500000Y-42500000D03*
D17*
G36*
X110419001Y-34278540D02*
G01*
X110421424Y-34303141D01*
X110421403Y-34306148D01*
X110422195Y-34314221D01*
X110427290Y-34362698D01*
X110427408Y-34363896D01*
X110427420Y-34363936D01*
X110432395Y-34411270D01*
X110442986Y-34462867D01*
X110452851Y-34514579D01*
X110455195Y-34522345D01*
X110484051Y-34615564D01*
X110504457Y-34664107D01*
X110524185Y-34712935D01*
X110527994Y-34720098D01*
X110574406Y-34805936D01*
X110603880Y-34849632D01*
X110632687Y-34893653D01*
X110637810Y-34899935D01*
X110637814Y-34899941D01*
X110637819Y-34899946D01*
X110700015Y-34975129D01*
X110737365Y-35012219D01*
X110774220Y-35049854D01*
X110780470Y-35055025D01*
X110856091Y-35116701D01*
X110899961Y-35145848D01*
X110943408Y-35175596D01*
X110950544Y-35179455D01*
X111036705Y-35225267D01*
X111085409Y-35245341D01*
X111133786Y-35266076D01*
X111141536Y-35268475D01*
X111141540Y-35268477D01*
X111141545Y-35268478D01*
X111234953Y-35296680D01*
X111286617Y-35306910D01*
X111338122Y-35317857D01*
X111346179Y-35318704D01*
X111346185Y-35318705D01*
X111346190Y-35318705D01*
X111443047Y-35328201D01*
X111471460Y-35331000D01*
X148528540Y-35331000D01*
X148553150Y-35328576D01*
X148556148Y-35328597D01*
X148564221Y-35327805D01*
X148612546Y-35322726D01*
X148613896Y-35322593D01*
X148613941Y-35322579D01*
X148661270Y-35317605D01*
X148712867Y-35307014D01*
X148764579Y-35297149D01*
X148772345Y-35294805D01*
X148865564Y-35265949D01*
X148914107Y-35245543D01*
X148962935Y-35225815D01*
X148970091Y-35222010D01*
X148970095Y-35222008D01*
X148970098Y-35222006D01*
X149055936Y-35175594D01*
X149099632Y-35146120D01*
X149143653Y-35117313D01*
X149149938Y-35112188D01*
X149149941Y-35112186D01*
X149149946Y-35112181D01*
X149225129Y-35049985D01*
X149262219Y-35012635D01*
X149299854Y-34975780D01*
X149305025Y-34969530D01*
X149366701Y-34893909D01*
X149395848Y-34850039D01*
X149425596Y-34806592D01*
X149429455Y-34799456D01*
X149475267Y-34713295D01*
X149495341Y-34664591D01*
X149516076Y-34616214D01*
X149518475Y-34608465D01*
X149546680Y-34515047D01*
X149556910Y-34463383D01*
X149567857Y-34411878D01*
X149568704Y-34403821D01*
X149568705Y-34403815D01*
X149568705Y-34403810D01*
X149578227Y-34306693D01*
X149581000Y-34278540D01*
X149581000Y-34040000D01*
X149763044Y-34040000D01*
X149786812Y-34281318D01*
X149857202Y-34513363D01*
X149971509Y-34727216D01*
X150125340Y-34914660D01*
X150312784Y-35068491D01*
X150526637Y-35182798D01*
X150758682Y-35253188D01*
X150939528Y-35271000D01*
X151060472Y-35271000D01*
X151241318Y-35253188D01*
X151473363Y-35182798D01*
X151687216Y-35068491D01*
X151874660Y-34914660D01*
X152028491Y-34727216D01*
X152100804Y-34591928D01*
X152439646Y-34591928D01*
X152568465Y-34795991D01*
X152734619Y-34971002D01*
X152931724Y-35110235D01*
X152988074Y-35140336D01*
X153167000Y-35112753D01*
X153167000Y-34413000D01*
X153913000Y-34413000D01*
X153913000Y-35112753D01*
X154091926Y-35140336D01*
X154148276Y-35110235D01*
X154345381Y-34971002D01*
X154511535Y-34795991D01*
X154640354Y-34591928D01*
X154617897Y-34413000D01*
X153913000Y-34413000D01*
X153167000Y-34413000D01*
X152462103Y-34413000D01*
X152439646Y-34591928D01*
X152100804Y-34591928D01*
X152142798Y-34513363D01*
X152213188Y-34281318D01*
X152236956Y-34040000D01*
X152213188Y-33798682D01*
X152142798Y-33566637D01*
X152100805Y-33488072D01*
X152439646Y-33488072D01*
X152462103Y-33667000D01*
X153167000Y-33667000D01*
X153167000Y-32967247D01*
X153913000Y-32967247D01*
X153913000Y-33667000D01*
X154617897Y-33667000D01*
X154640354Y-33488072D01*
X154511535Y-33284009D01*
X154345381Y-33108998D01*
X154148276Y-32969765D01*
X154091926Y-32939664D01*
X153913000Y-32967247D01*
X153167000Y-32967247D01*
X152988074Y-32939664D01*
X152931724Y-32969765D01*
X152734619Y-33108998D01*
X152568465Y-33284009D01*
X152439646Y-33488072D01*
X152100805Y-33488072D01*
X152028491Y-33352784D01*
X151874660Y-33165340D01*
X151687216Y-33011509D01*
X151473363Y-32897202D01*
X151241318Y-32826812D01*
X151060472Y-32809000D01*
X150939528Y-32809000D01*
X150758682Y-32826812D01*
X150526637Y-32897202D01*
X150312784Y-33011509D01*
X150125340Y-33165340D01*
X149971509Y-33352784D01*
X149857202Y-33566637D01*
X149786812Y-33798682D01*
X149763044Y-34040000D01*
X149581000Y-34040000D01*
X149581000Y-30650000D01*
X149767157Y-30650000D01*
X149767157Y-32350000D01*
X149774513Y-32424689D01*
X149796299Y-32496508D01*
X149831678Y-32562696D01*
X149879289Y-32620711D01*
X149937304Y-32668322D01*
X150003492Y-32703701D01*
X150075311Y-32725487D01*
X150150000Y-32732843D01*
X151850000Y-32732843D01*
X151924689Y-32725487D01*
X151996508Y-32703701D01*
X152062696Y-32668322D01*
X152120711Y-32620711D01*
X152168322Y-32562696D01*
X152203701Y-32496508D01*
X152225487Y-32424689D01*
X152232843Y-32350000D01*
X152232843Y-32051928D01*
X152439646Y-32051928D01*
X152568465Y-32255991D01*
X152734619Y-32431002D01*
X152931724Y-32570235D01*
X152988074Y-32600336D01*
X153167000Y-32572753D01*
X153167000Y-31873000D01*
X153913000Y-31873000D01*
X153913000Y-32572753D01*
X154091926Y-32600336D01*
X154148276Y-32570235D01*
X154345381Y-32431002D01*
X154511535Y-32255991D01*
X154640354Y-32051928D01*
X154617897Y-31873000D01*
X153913000Y-31873000D01*
X153167000Y-31873000D01*
X152462103Y-31873000D01*
X152439646Y-32051928D01*
X152232843Y-32051928D01*
X152232843Y-30948072D01*
X152439646Y-30948072D01*
X152462103Y-31127000D01*
X153167000Y-31127000D01*
X153167000Y-30427247D01*
X153913000Y-30427247D01*
X153913000Y-31127000D01*
X154617897Y-31127000D01*
X154640354Y-30948072D01*
X154511535Y-30744009D01*
X154345381Y-30568998D01*
X154148276Y-30429765D01*
X154091926Y-30399664D01*
X153913000Y-30427247D01*
X153167000Y-30427247D01*
X152988074Y-30399664D01*
X152931724Y-30429765D01*
X152734619Y-30568998D01*
X152568465Y-30744009D01*
X152439646Y-30948072D01*
X152232843Y-30948072D01*
X152232843Y-30650000D01*
X152225487Y-30575311D01*
X152203701Y-30503492D01*
X152168322Y-30437304D01*
X152120711Y-30379289D01*
X152062696Y-30331678D01*
X151996508Y-30296299D01*
X151924689Y-30274513D01*
X151850000Y-30267157D01*
X150150000Y-30267157D01*
X150075311Y-30274513D01*
X150003492Y-30296299D01*
X149937304Y-30331678D01*
X149879289Y-30379289D01*
X149831678Y-30437304D01*
X149796299Y-30503492D01*
X149774513Y-30575311D01*
X149767157Y-30650000D01*
X149581000Y-30650000D01*
X149581000Y-30081000D01*
X154919000Y-30081000D01*
X154919001Y-51169000D01*
X105081000Y-51169000D01*
X105081000Y-45900000D01*
X117967157Y-45900000D01*
X117974513Y-45974689D01*
X117996299Y-46046508D01*
X118031678Y-46112696D01*
X118079289Y-46170711D01*
X118137304Y-46218322D01*
X118203492Y-46253701D01*
X118275311Y-46275487D01*
X118350000Y-46282843D01*
X118781750Y-46281000D01*
X118876998Y-46185752D01*
X118876998Y-46281000D01*
X119013231Y-46281000D01*
X118876346Y-46308228D01*
X118643219Y-46404793D01*
X118433410Y-46544982D01*
X118254982Y-46723410D01*
X118114793Y-46933219D01*
X118018228Y-47166346D01*
X117969000Y-47413833D01*
X117969000Y-47666167D01*
X118018228Y-47913654D01*
X118114793Y-48146781D01*
X118254982Y-48356590D01*
X118433410Y-48535018D01*
X118643219Y-48675207D01*
X118876346Y-48771772D01*
X119123833Y-48821000D01*
X119376167Y-48821000D01*
X119623654Y-48771772D01*
X119856781Y-48675207D01*
X120066590Y-48535018D01*
X120245018Y-48356590D01*
X120385207Y-48146781D01*
X120481772Y-47913654D01*
X120531000Y-47666167D01*
X120531000Y-47413833D01*
X120481772Y-47166346D01*
X120385207Y-46933219D01*
X120245018Y-46723410D01*
X120066590Y-46544982D01*
X119856781Y-46404793D01*
X119623654Y-46308228D01*
X119486769Y-46281000D01*
X119623002Y-46281000D01*
X119623002Y-46185752D01*
X119718250Y-46281000D01*
X120150000Y-46282843D01*
X120224689Y-46275487D01*
X120296508Y-46253701D01*
X120362696Y-46218322D01*
X120420711Y-46170711D01*
X120468322Y-46112696D01*
X120503701Y-46046508D01*
X120525487Y-45974689D01*
X120532843Y-45900000D01*
X120531000Y-45468250D01*
X120435750Y-45373000D01*
X119623000Y-45373000D01*
X119623000Y-45393000D01*
X118877000Y-45393000D01*
X118877000Y-45373000D01*
X118064250Y-45373000D01*
X117969000Y-45468250D01*
X117967157Y-45900000D01*
X105081000Y-45900000D01*
X105081000Y-44859501D01*
X129168000Y-44859501D01*
X129333425Y-45052048D01*
X129649023Y-45152267D01*
X129978108Y-45188992D01*
X130308035Y-45160809D01*
X130626123Y-45068803D01*
X130666575Y-45052048D01*
X130832000Y-44859501D01*
X130000000Y-44027502D01*
X129168000Y-44859501D01*
X105081000Y-44859501D01*
X105081000Y-44100000D01*
X117967157Y-44100000D01*
X117969000Y-44531750D01*
X118064250Y-44627000D01*
X118877000Y-44627000D01*
X118877000Y-43814250D01*
X119623000Y-43814250D01*
X119623000Y-44627000D01*
X120435750Y-44627000D01*
X120531000Y-44531750D01*
X120532843Y-44100000D01*
X120525487Y-44025311D01*
X120503701Y-43953492D01*
X120468322Y-43887304D01*
X120420711Y-43829289D01*
X120362696Y-43781678D01*
X120296508Y-43746299D01*
X120224689Y-43724513D01*
X120150000Y-43717157D01*
X119718250Y-43719000D01*
X119623000Y-43814250D01*
X118877000Y-43814250D01*
X118781750Y-43719000D01*
X118350000Y-43717157D01*
X118275311Y-43724513D01*
X118203492Y-43746299D01*
X118137304Y-43781678D01*
X118079289Y-43829289D01*
X118031678Y-43887304D01*
X117996299Y-43953492D01*
X117974513Y-44025311D01*
X117967157Y-44100000D01*
X105081000Y-44100000D01*
X105081000Y-43478108D01*
X128311008Y-43478108D01*
X128339191Y-43808035D01*
X128431197Y-44126123D01*
X128447952Y-44166575D01*
X128640499Y-44332000D01*
X129472498Y-43500000D01*
X130527502Y-43500000D01*
X131359501Y-44332000D01*
X131552048Y-44166575D01*
X131652267Y-43850977D01*
X131688992Y-43521892D01*
X131660809Y-43191965D01*
X131568803Y-42873877D01*
X131552048Y-42833425D01*
X131359501Y-42668000D01*
X130527502Y-43500000D01*
X129472498Y-43500000D01*
X128640499Y-42668000D01*
X128447952Y-42833425D01*
X128347733Y-43149023D01*
X128311008Y-43478108D01*
X105081000Y-43478108D01*
X105081000Y-42140499D01*
X129168000Y-42140499D01*
X130000000Y-42972498D01*
X130832000Y-42140499D01*
X130666575Y-41947952D01*
X130350977Y-41847733D01*
X130021892Y-41811008D01*
X129691965Y-41839191D01*
X129373877Y-41931197D01*
X129333425Y-41947952D01*
X129168000Y-42140499D01*
X105081000Y-42140499D01*
X105081000Y-40334436D01*
X133019000Y-40334436D01*
X133019000Y-40665564D01*
X133083600Y-40990330D01*
X133210317Y-41296252D01*
X133394282Y-41571575D01*
X133628425Y-41805718D01*
X133903748Y-41989683D01*
X134209670Y-42116400D01*
X134534436Y-42181000D01*
X134865564Y-42181000D01*
X135190330Y-42116400D01*
X135496252Y-41989683D01*
X135771575Y-41805718D01*
X136005718Y-41571575D01*
X136189683Y-41296252D01*
X136316400Y-40990330D01*
X136381000Y-40665564D01*
X136381000Y-40334436D01*
X136316400Y-40009670D01*
X136189683Y-39703748D01*
X136005718Y-39428425D01*
X135771575Y-39194282D01*
X135496252Y-39010317D01*
X135190330Y-38883600D01*
X134865564Y-38819000D01*
X134534436Y-38819000D01*
X134209670Y-38883600D01*
X133903748Y-39010317D01*
X133628425Y-39194282D01*
X133394282Y-39428425D01*
X133210317Y-39703748D01*
X133083600Y-40009670D01*
X133019000Y-40334436D01*
X105081000Y-40334436D01*
X105081000Y-36200000D01*
X128317157Y-36200000D01*
X128317157Y-38800000D01*
X128324513Y-38874689D01*
X128346299Y-38946508D01*
X128381678Y-39012696D01*
X128429289Y-39070711D01*
X128487304Y-39118322D01*
X128553492Y-39153701D01*
X128625311Y-39175487D01*
X128700000Y-39182843D01*
X131300000Y-39182843D01*
X131374689Y-39175487D01*
X131446508Y-39153701D01*
X131512696Y-39118322D01*
X131570711Y-39070711D01*
X131618322Y-39012696D01*
X131653701Y-38946508D01*
X131675487Y-38874689D01*
X131682843Y-38800000D01*
X131682843Y-36200000D01*
X131675487Y-36125311D01*
X131653701Y-36053492D01*
X131618322Y-35987304D01*
X131570711Y-35929289D01*
X131512696Y-35881678D01*
X131446508Y-35846299D01*
X131374689Y-35824513D01*
X131300000Y-35817157D01*
X128700000Y-35817157D01*
X128625311Y-35824513D01*
X128553492Y-35846299D01*
X128487304Y-35881678D01*
X128429289Y-35929289D01*
X128381678Y-35987304D01*
X128346299Y-36053492D01*
X128324513Y-36125311D01*
X128317157Y-36200000D01*
X105081000Y-36200000D01*
X105081000Y-34040000D01*
X105223044Y-34040000D01*
X105246812Y-34281318D01*
X105317202Y-34513363D01*
X105431509Y-34727216D01*
X105585340Y-34914660D01*
X105772784Y-35068491D01*
X105986637Y-35182798D01*
X106218682Y-35253188D01*
X106399528Y-35271000D01*
X106520472Y-35271000D01*
X106701318Y-35253188D01*
X106933363Y-35182798D01*
X107147216Y-35068491D01*
X107334660Y-34914660D01*
X107488491Y-34727216D01*
X107560804Y-34591928D01*
X107899646Y-34591928D01*
X108028465Y-34795991D01*
X108194619Y-34971002D01*
X108391724Y-35110235D01*
X108448074Y-35140336D01*
X108627000Y-35112753D01*
X108627000Y-34413000D01*
X109373000Y-34413000D01*
X109373000Y-35112753D01*
X109551926Y-35140336D01*
X109608276Y-35110235D01*
X109805381Y-34971002D01*
X109971535Y-34795991D01*
X110100354Y-34591928D01*
X110077897Y-34413000D01*
X109373000Y-34413000D01*
X108627000Y-34413000D01*
X107922103Y-34413000D01*
X107899646Y-34591928D01*
X107560804Y-34591928D01*
X107602798Y-34513363D01*
X107673188Y-34281318D01*
X107696956Y-34040000D01*
X107673188Y-33798682D01*
X107602798Y-33566637D01*
X107560805Y-33488072D01*
X107899646Y-33488072D01*
X107922103Y-33667000D01*
X108627000Y-33667000D01*
X108627000Y-32967247D01*
X109373000Y-32967247D01*
X109373000Y-33667000D01*
X110077897Y-33667000D01*
X110100354Y-33488072D01*
X109971535Y-33284009D01*
X109805381Y-33108998D01*
X109608276Y-32969765D01*
X109551926Y-32939664D01*
X109373000Y-32967247D01*
X108627000Y-32967247D01*
X108448074Y-32939664D01*
X108391724Y-32969765D01*
X108194619Y-33108998D01*
X108028465Y-33284009D01*
X107899646Y-33488072D01*
X107560805Y-33488072D01*
X107488491Y-33352784D01*
X107334660Y-33165340D01*
X107147216Y-33011509D01*
X106933363Y-32897202D01*
X106701318Y-32826812D01*
X106520472Y-32809000D01*
X106399528Y-32809000D01*
X106218682Y-32826812D01*
X105986637Y-32897202D01*
X105772784Y-33011509D01*
X105585340Y-33165340D01*
X105431509Y-33352784D01*
X105317202Y-33566637D01*
X105246812Y-33798682D01*
X105223044Y-34040000D01*
X105081000Y-34040000D01*
X105081000Y-30650000D01*
X105227157Y-30650000D01*
X105227157Y-32350000D01*
X105234513Y-32424689D01*
X105256299Y-32496508D01*
X105291678Y-32562696D01*
X105339289Y-32620711D01*
X105397304Y-32668322D01*
X105463492Y-32703701D01*
X105535311Y-32725487D01*
X105610000Y-32732843D01*
X107310000Y-32732843D01*
X107384689Y-32725487D01*
X107456508Y-32703701D01*
X107522696Y-32668322D01*
X107580711Y-32620711D01*
X107628322Y-32562696D01*
X107663701Y-32496508D01*
X107685487Y-32424689D01*
X107692843Y-32350000D01*
X107692843Y-32051928D01*
X107899646Y-32051928D01*
X108028465Y-32255991D01*
X108194619Y-32431002D01*
X108391724Y-32570235D01*
X108448074Y-32600336D01*
X108627000Y-32572753D01*
X108627000Y-31873000D01*
X109373000Y-31873000D01*
X109373000Y-32572753D01*
X109551926Y-32600336D01*
X109608276Y-32570235D01*
X109805381Y-32431002D01*
X109971535Y-32255991D01*
X110100354Y-32051928D01*
X110077897Y-31873000D01*
X109373000Y-31873000D01*
X108627000Y-31873000D01*
X107922103Y-31873000D01*
X107899646Y-32051928D01*
X107692843Y-32051928D01*
X107692843Y-30948072D01*
X107899646Y-30948072D01*
X107922103Y-31127000D01*
X108627000Y-31127000D01*
X108627000Y-30427247D01*
X109373000Y-30427247D01*
X109373000Y-31127000D01*
X110077897Y-31127000D01*
X110100354Y-30948072D01*
X109971535Y-30744009D01*
X109805381Y-30568998D01*
X109608276Y-30429765D01*
X109551926Y-30399664D01*
X109373000Y-30427247D01*
X108627000Y-30427247D01*
X108448074Y-30399664D01*
X108391724Y-30429765D01*
X108194619Y-30568998D01*
X108028465Y-30744009D01*
X107899646Y-30948072D01*
X107692843Y-30948072D01*
X107692843Y-30650000D01*
X107685487Y-30575311D01*
X107663701Y-30503492D01*
X107628322Y-30437304D01*
X107580711Y-30379289D01*
X107522696Y-30331678D01*
X107456508Y-30296299D01*
X107384689Y-30274513D01*
X107310000Y-30267157D01*
X105610000Y-30267157D01*
X105535311Y-30274513D01*
X105463492Y-30296299D01*
X105397304Y-30331678D01*
X105339289Y-30379289D01*
X105291678Y-30437304D01*
X105256299Y-30503492D01*
X105234513Y-30575311D01*
X105227157Y-30650000D01*
X105081000Y-30650000D01*
X105081000Y-30081000D01*
X110419000Y-30081000D01*
X110419001Y-34278540D01*
X110419001Y-34278540D01*
G37*
X110419001Y-34278540D02*
X110421424Y-34303141D01*
X110421403Y-34306148D01*
X110422195Y-34314221D01*
X110427290Y-34362698D01*
X110427408Y-34363896D01*
X110427420Y-34363936D01*
X110432395Y-34411270D01*
X110442986Y-34462867D01*
X110452851Y-34514579D01*
X110455195Y-34522345D01*
X110484051Y-34615564D01*
X110504457Y-34664107D01*
X110524185Y-34712935D01*
X110527994Y-34720098D01*
X110574406Y-34805936D01*
X110603880Y-34849632D01*
X110632687Y-34893653D01*
X110637810Y-34899935D01*
X110637814Y-34899941D01*
X110637819Y-34899946D01*
X110700015Y-34975129D01*
X110737365Y-35012219D01*
X110774220Y-35049854D01*
X110780470Y-35055025D01*
X110856091Y-35116701D01*
X110899961Y-35145848D01*
X110943408Y-35175596D01*
X110950544Y-35179455D01*
X111036705Y-35225267D01*
X111085409Y-35245341D01*
X111133786Y-35266076D01*
X111141536Y-35268475D01*
X111141540Y-35268477D01*
X111141545Y-35268478D01*
X111234953Y-35296680D01*
X111286617Y-35306910D01*
X111338122Y-35317857D01*
X111346179Y-35318704D01*
X111346185Y-35318705D01*
X111346190Y-35318705D01*
X111443047Y-35328201D01*
X111471460Y-35331000D01*
X148528540Y-35331000D01*
X148553150Y-35328576D01*
X148556148Y-35328597D01*
X148564221Y-35327805D01*
X148612546Y-35322726D01*
X148613896Y-35322593D01*
X148613941Y-35322579D01*
X148661270Y-35317605D01*
X148712867Y-35307014D01*
X148764579Y-35297149D01*
X148772345Y-35294805D01*
X148865564Y-35265949D01*
X148914107Y-35245543D01*
X148962935Y-35225815D01*
X148970091Y-35222010D01*
X148970095Y-35222008D01*
X148970098Y-35222006D01*
X149055936Y-35175594D01*
X149099632Y-35146120D01*
X149143653Y-35117313D01*
X149149938Y-35112188D01*
X149149941Y-35112186D01*
X149149946Y-35112181D01*
X149225129Y-35049985D01*
X149262219Y-35012635D01*
X149299854Y-34975780D01*
X149305025Y-34969530D01*
X149366701Y-34893909D01*
X149395848Y-34850039D01*
X149425596Y-34806592D01*
X149429455Y-34799456D01*
X149475267Y-34713295D01*
X149495341Y-34664591D01*
X149516076Y-34616214D01*
X149518475Y-34608465D01*
X149546680Y-34515047D01*
X149556910Y-34463383D01*
X149567857Y-34411878D01*
X149568704Y-34403821D01*
X149568705Y-34403815D01*
X149568705Y-34403810D01*
X149578227Y-34306693D01*
X149581000Y-34278540D01*
X149581000Y-34040000D01*
X149763044Y-34040000D01*
X149786812Y-34281318D01*
X149857202Y-34513363D01*
X149971509Y-34727216D01*
X150125340Y-34914660D01*
X150312784Y-35068491D01*
X150526637Y-35182798D01*
X150758682Y-35253188D01*
X150939528Y-35271000D01*
X151060472Y-35271000D01*
X151241318Y-35253188D01*
X151473363Y-35182798D01*
X151687216Y-35068491D01*
X151874660Y-34914660D01*
X152028491Y-34727216D01*
X152100804Y-34591928D01*
X152439646Y-34591928D01*
X152568465Y-34795991D01*
X152734619Y-34971002D01*
X152931724Y-35110235D01*
X152988074Y-35140336D01*
X153167000Y-35112753D01*
X153167000Y-34413000D01*
X153913000Y-34413000D01*
X153913000Y-35112753D01*
X154091926Y-35140336D01*
X154148276Y-35110235D01*
X154345381Y-34971002D01*
X154511535Y-34795991D01*
X154640354Y-34591928D01*
X154617897Y-34413000D01*
X153913000Y-34413000D01*
X153167000Y-34413000D01*
X152462103Y-34413000D01*
X152439646Y-34591928D01*
X152100804Y-34591928D01*
X152142798Y-34513363D01*
X152213188Y-34281318D01*
X152236956Y-34040000D01*
X152213188Y-33798682D01*
X152142798Y-33566637D01*
X152100805Y-33488072D01*
X152439646Y-33488072D01*
X152462103Y-33667000D01*
X153167000Y-33667000D01*
X153167000Y-32967247D01*
X153913000Y-32967247D01*
X153913000Y-33667000D01*
X154617897Y-33667000D01*
X154640354Y-33488072D01*
X154511535Y-33284009D01*
X154345381Y-33108998D01*
X154148276Y-32969765D01*
X154091926Y-32939664D01*
X153913000Y-32967247D01*
X153167000Y-32967247D01*
X152988074Y-32939664D01*
X152931724Y-32969765D01*
X152734619Y-33108998D01*
X152568465Y-33284009D01*
X152439646Y-33488072D01*
X152100805Y-33488072D01*
X152028491Y-33352784D01*
X151874660Y-33165340D01*
X151687216Y-33011509D01*
X151473363Y-32897202D01*
X151241318Y-32826812D01*
X151060472Y-32809000D01*
X150939528Y-32809000D01*
X150758682Y-32826812D01*
X150526637Y-32897202D01*
X150312784Y-33011509D01*
X150125340Y-33165340D01*
X149971509Y-33352784D01*
X149857202Y-33566637D01*
X149786812Y-33798682D01*
X149763044Y-34040000D01*
X149581000Y-34040000D01*
X149581000Y-30650000D01*
X149767157Y-30650000D01*
X149767157Y-32350000D01*
X149774513Y-32424689D01*
X149796299Y-32496508D01*
X149831678Y-32562696D01*
X149879289Y-32620711D01*
X149937304Y-32668322D01*
X150003492Y-32703701D01*
X150075311Y-32725487D01*
X150150000Y-32732843D01*
X151850000Y-32732843D01*
X151924689Y-32725487D01*
X151996508Y-32703701D01*
X152062696Y-32668322D01*
X152120711Y-32620711D01*
X152168322Y-32562696D01*
X152203701Y-32496508D01*
X152225487Y-32424689D01*
X152232843Y-32350000D01*
X152232843Y-32051928D01*
X152439646Y-32051928D01*
X152568465Y-32255991D01*
X152734619Y-32431002D01*
X152931724Y-32570235D01*
X152988074Y-32600336D01*
X153167000Y-32572753D01*
X153167000Y-31873000D01*
X153913000Y-31873000D01*
X153913000Y-32572753D01*
X154091926Y-32600336D01*
X154148276Y-32570235D01*
X154345381Y-32431002D01*
X154511535Y-32255991D01*
X154640354Y-32051928D01*
X154617897Y-31873000D01*
X153913000Y-31873000D01*
X153167000Y-31873000D01*
X152462103Y-31873000D01*
X152439646Y-32051928D01*
X152232843Y-32051928D01*
X152232843Y-30948072D01*
X152439646Y-30948072D01*
X152462103Y-31127000D01*
X153167000Y-31127000D01*
X153167000Y-30427247D01*
X153913000Y-30427247D01*
X153913000Y-31127000D01*
X154617897Y-31127000D01*
X154640354Y-30948072D01*
X154511535Y-30744009D01*
X154345381Y-30568998D01*
X154148276Y-30429765D01*
X154091926Y-30399664D01*
X153913000Y-30427247D01*
X153167000Y-30427247D01*
X152988074Y-30399664D01*
X152931724Y-30429765D01*
X152734619Y-30568998D01*
X152568465Y-30744009D01*
X152439646Y-30948072D01*
X152232843Y-30948072D01*
X152232843Y-30650000D01*
X152225487Y-30575311D01*
X152203701Y-30503492D01*
X152168322Y-30437304D01*
X152120711Y-30379289D01*
X152062696Y-30331678D01*
X151996508Y-30296299D01*
X151924689Y-30274513D01*
X151850000Y-30267157D01*
X150150000Y-30267157D01*
X150075311Y-30274513D01*
X150003492Y-30296299D01*
X149937304Y-30331678D01*
X149879289Y-30379289D01*
X149831678Y-30437304D01*
X149796299Y-30503492D01*
X149774513Y-30575311D01*
X149767157Y-30650000D01*
X149581000Y-30650000D01*
X149581000Y-30081000D01*
X154919000Y-30081000D01*
X154919001Y-51169000D01*
X105081000Y-51169000D01*
X105081000Y-45900000D01*
X117967157Y-45900000D01*
X117974513Y-45974689D01*
X117996299Y-46046508D01*
X118031678Y-46112696D01*
X118079289Y-46170711D01*
X118137304Y-46218322D01*
X118203492Y-46253701D01*
X118275311Y-46275487D01*
X118350000Y-46282843D01*
X118781750Y-46281000D01*
X118876998Y-46185752D01*
X118876998Y-46281000D01*
X119013231Y-46281000D01*
X118876346Y-46308228D01*
X118643219Y-46404793D01*
X118433410Y-46544982D01*
X118254982Y-46723410D01*
X118114793Y-46933219D01*
X118018228Y-47166346D01*
X117969000Y-47413833D01*
X117969000Y-47666167D01*
X118018228Y-47913654D01*
X118114793Y-48146781D01*
X118254982Y-48356590D01*
X118433410Y-48535018D01*
X118643219Y-48675207D01*
X118876346Y-48771772D01*
X119123833Y-48821000D01*
X119376167Y-48821000D01*
X119623654Y-48771772D01*
X119856781Y-48675207D01*
X120066590Y-48535018D01*
X120245018Y-48356590D01*
X120385207Y-48146781D01*
X120481772Y-47913654D01*
X120531000Y-47666167D01*
X120531000Y-47413833D01*
X120481772Y-47166346D01*
X120385207Y-46933219D01*
X120245018Y-46723410D01*
X120066590Y-46544982D01*
X119856781Y-46404793D01*
X119623654Y-46308228D01*
X119486769Y-46281000D01*
X119623002Y-46281000D01*
X119623002Y-46185752D01*
X119718250Y-46281000D01*
X120150000Y-46282843D01*
X120224689Y-46275487D01*
X120296508Y-46253701D01*
X120362696Y-46218322D01*
X120420711Y-46170711D01*
X120468322Y-46112696D01*
X120503701Y-46046508D01*
X120525487Y-45974689D01*
X120532843Y-45900000D01*
X120531000Y-45468250D01*
X120435750Y-45373000D01*
X119623000Y-45373000D01*
X119623000Y-45393000D01*
X118877000Y-45393000D01*
X118877000Y-45373000D01*
X118064250Y-45373000D01*
X117969000Y-45468250D01*
X117967157Y-45900000D01*
X105081000Y-45900000D01*
X105081000Y-44859501D01*
X129168000Y-44859501D01*
X129333425Y-45052048D01*
X129649023Y-45152267D01*
X129978108Y-45188992D01*
X130308035Y-45160809D01*
X130626123Y-45068803D01*
X130666575Y-45052048D01*
X130832000Y-44859501D01*
X130000000Y-44027502D01*
X129168000Y-44859501D01*
X105081000Y-44859501D01*
X105081000Y-44100000D01*
X117967157Y-44100000D01*
X117969000Y-44531750D01*
X118064250Y-44627000D01*
X118877000Y-44627000D01*
X118877000Y-43814250D01*
X119623000Y-43814250D01*
X119623000Y-44627000D01*
X120435750Y-44627000D01*
X120531000Y-44531750D01*
X120532843Y-44100000D01*
X120525487Y-44025311D01*
X120503701Y-43953492D01*
X120468322Y-43887304D01*
X120420711Y-43829289D01*
X120362696Y-43781678D01*
X120296508Y-43746299D01*
X120224689Y-43724513D01*
X120150000Y-43717157D01*
X119718250Y-43719000D01*
X119623000Y-43814250D01*
X118877000Y-43814250D01*
X118781750Y-43719000D01*
X118350000Y-43717157D01*
X118275311Y-43724513D01*
X118203492Y-43746299D01*
X118137304Y-43781678D01*
X118079289Y-43829289D01*
X118031678Y-43887304D01*
X117996299Y-43953492D01*
X117974513Y-44025311D01*
X117967157Y-44100000D01*
X105081000Y-44100000D01*
X105081000Y-43478108D01*
X128311008Y-43478108D01*
X128339191Y-43808035D01*
X128431197Y-44126123D01*
X128447952Y-44166575D01*
X128640499Y-44332000D01*
X129472498Y-43500000D01*
X130527502Y-43500000D01*
X131359501Y-44332000D01*
X131552048Y-44166575D01*
X131652267Y-43850977D01*
X131688992Y-43521892D01*
X131660809Y-43191965D01*
X131568803Y-42873877D01*
X131552048Y-42833425D01*
X131359501Y-42668000D01*
X130527502Y-43500000D01*
X129472498Y-43500000D01*
X128640499Y-42668000D01*
X128447952Y-42833425D01*
X128347733Y-43149023D01*
X128311008Y-43478108D01*
X105081000Y-43478108D01*
X105081000Y-42140499D01*
X129168000Y-42140499D01*
X130000000Y-42972498D01*
X130832000Y-42140499D01*
X130666575Y-41947952D01*
X130350977Y-41847733D01*
X130021892Y-41811008D01*
X129691965Y-41839191D01*
X129373877Y-41931197D01*
X129333425Y-41947952D01*
X129168000Y-42140499D01*
X105081000Y-42140499D01*
X105081000Y-40334436D01*
X133019000Y-40334436D01*
X133019000Y-40665564D01*
X133083600Y-40990330D01*
X133210317Y-41296252D01*
X133394282Y-41571575D01*
X133628425Y-41805718D01*
X133903748Y-41989683D01*
X134209670Y-42116400D01*
X134534436Y-42181000D01*
X134865564Y-42181000D01*
X135190330Y-42116400D01*
X135496252Y-41989683D01*
X135771575Y-41805718D01*
X136005718Y-41571575D01*
X136189683Y-41296252D01*
X136316400Y-40990330D01*
X136381000Y-40665564D01*
X136381000Y-40334436D01*
X136316400Y-40009670D01*
X136189683Y-39703748D01*
X136005718Y-39428425D01*
X135771575Y-39194282D01*
X135496252Y-39010317D01*
X135190330Y-38883600D01*
X134865564Y-38819000D01*
X134534436Y-38819000D01*
X134209670Y-38883600D01*
X133903748Y-39010317D01*
X133628425Y-39194282D01*
X133394282Y-39428425D01*
X133210317Y-39703748D01*
X133083600Y-40009670D01*
X133019000Y-40334436D01*
X105081000Y-40334436D01*
X105081000Y-36200000D01*
X128317157Y-36200000D01*
X128317157Y-38800000D01*
X128324513Y-38874689D01*
X128346299Y-38946508D01*
X128381678Y-39012696D01*
X128429289Y-39070711D01*
X128487304Y-39118322D01*
X128553492Y-39153701D01*
X128625311Y-39175487D01*
X128700000Y-39182843D01*
X131300000Y-39182843D01*
X131374689Y-39175487D01*
X131446508Y-39153701D01*
X131512696Y-39118322D01*
X131570711Y-39070711D01*
X131618322Y-39012696D01*
X131653701Y-38946508D01*
X131675487Y-38874689D01*
X131682843Y-38800000D01*
X131682843Y-36200000D01*
X131675487Y-36125311D01*
X131653701Y-36053492D01*
X131618322Y-35987304D01*
X131570711Y-35929289D01*
X131512696Y-35881678D01*
X131446508Y-35846299D01*
X131374689Y-35824513D01*
X131300000Y-35817157D01*
X128700000Y-35817157D01*
X128625311Y-35824513D01*
X128553492Y-35846299D01*
X128487304Y-35881678D01*
X128429289Y-35929289D01*
X128381678Y-35987304D01*
X128346299Y-36053492D01*
X128324513Y-36125311D01*
X128317157Y-36200000D01*
X105081000Y-36200000D01*
X105081000Y-34040000D01*
X105223044Y-34040000D01*
X105246812Y-34281318D01*
X105317202Y-34513363D01*
X105431509Y-34727216D01*
X105585340Y-34914660D01*
X105772784Y-35068491D01*
X105986637Y-35182798D01*
X106218682Y-35253188D01*
X106399528Y-35271000D01*
X106520472Y-35271000D01*
X106701318Y-35253188D01*
X106933363Y-35182798D01*
X107147216Y-35068491D01*
X107334660Y-34914660D01*
X107488491Y-34727216D01*
X107560804Y-34591928D01*
X107899646Y-34591928D01*
X108028465Y-34795991D01*
X108194619Y-34971002D01*
X108391724Y-35110235D01*
X108448074Y-35140336D01*
X108627000Y-35112753D01*
X108627000Y-34413000D01*
X109373000Y-34413000D01*
X109373000Y-35112753D01*
X109551926Y-35140336D01*
X109608276Y-35110235D01*
X109805381Y-34971002D01*
X109971535Y-34795991D01*
X110100354Y-34591928D01*
X110077897Y-34413000D01*
X109373000Y-34413000D01*
X108627000Y-34413000D01*
X107922103Y-34413000D01*
X107899646Y-34591928D01*
X107560804Y-34591928D01*
X107602798Y-34513363D01*
X107673188Y-34281318D01*
X107696956Y-34040000D01*
X107673188Y-33798682D01*
X107602798Y-33566637D01*
X107560805Y-33488072D01*
X107899646Y-33488072D01*
X107922103Y-33667000D01*
X108627000Y-33667000D01*
X108627000Y-32967247D01*
X109373000Y-32967247D01*
X109373000Y-33667000D01*
X110077897Y-33667000D01*
X110100354Y-33488072D01*
X109971535Y-33284009D01*
X109805381Y-33108998D01*
X109608276Y-32969765D01*
X109551926Y-32939664D01*
X109373000Y-32967247D01*
X108627000Y-32967247D01*
X108448074Y-32939664D01*
X108391724Y-32969765D01*
X108194619Y-33108998D01*
X108028465Y-33284009D01*
X107899646Y-33488072D01*
X107560805Y-33488072D01*
X107488491Y-33352784D01*
X107334660Y-33165340D01*
X107147216Y-33011509D01*
X106933363Y-32897202D01*
X106701318Y-32826812D01*
X106520472Y-32809000D01*
X106399528Y-32809000D01*
X106218682Y-32826812D01*
X105986637Y-32897202D01*
X105772784Y-33011509D01*
X105585340Y-33165340D01*
X105431509Y-33352784D01*
X105317202Y-33566637D01*
X105246812Y-33798682D01*
X105223044Y-34040000D01*
X105081000Y-34040000D01*
X105081000Y-30650000D01*
X105227157Y-30650000D01*
X105227157Y-32350000D01*
X105234513Y-32424689D01*
X105256299Y-32496508D01*
X105291678Y-32562696D01*
X105339289Y-32620711D01*
X105397304Y-32668322D01*
X105463492Y-32703701D01*
X105535311Y-32725487D01*
X105610000Y-32732843D01*
X107310000Y-32732843D01*
X107384689Y-32725487D01*
X107456508Y-32703701D01*
X107522696Y-32668322D01*
X107580711Y-32620711D01*
X107628322Y-32562696D01*
X107663701Y-32496508D01*
X107685487Y-32424689D01*
X107692843Y-32350000D01*
X107692843Y-32051928D01*
X107899646Y-32051928D01*
X108028465Y-32255991D01*
X108194619Y-32431002D01*
X108391724Y-32570235D01*
X108448074Y-32600336D01*
X108627000Y-32572753D01*
X108627000Y-31873000D01*
X109373000Y-31873000D01*
X109373000Y-32572753D01*
X109551926Y-32600336D01*
X109608276Y-32570235D01*
X109805381Y-32431002D01*
X109971535Y-32255991D01*
X110100354Y-32051928D01*
X110077897Y-31873000D01*
X109373000Y-31873000D01*
X108627000Y-31873000D01*
X107922103Y-31873000D01*
X107899646Y-32051928D01*
X107692843Y-32051928D01*
X107692843Y-30948072D01*
X107899646Y-30948072D01*
X107922103Y-31127000D01*
X108627000Y-31127000D01*
X108627000Y-30427247D01*
X109373000Y-30427247D01*
X109373000Y-31127000D01*
X110077897Y-31127000D01*
X110100354Y-30948072D01*
X109971535Y-30744009D01*
X109805381Y-30568998D01*
X109608276Y-30429765D01*
X109551926Y-30399664D01*
X109373000Y-30427247D01*
X108627000Y-30427247D01*
X108448074Y-30399664D01*
X108391724Y-30429765D01*
X108194619Y-30568998D01*
X108028465Y-30744009D01*
X107899646Y-30948072D01*
X107692843Y-30948072D01*
X107692843Y-30650000D01*
X107685487Y-30575311D01*
X107663701Y-30503492D01*
X107628322Y-30437304D01*
X107580711Y-30379289D01*
X107522696Y-30331678D01*
X107456508Y-30296299D01*
X107384689Y-30274513D01*
X107310000Y-30267157D01*
X105610000Y-30267157D01*
X105535311Y-30274513D01*
X105463492Y-30296299D01*
X105397304Y-30331678D01*
X105339289Y-30379289D01*
X105291678Y-30437304D01*
X105256299Y-30503492D01*
X105234513Y-30575311D01*
X105227157Y-30650000D01*
X105081000Y-30650000D01*
X105081000Y-30081000D01*
X110419000Y-30081000D01*
X110419001Y-34278540D01*
M02*
