G04 #@! TF.GenerationSoftware,KiCad,Pcbnew,(5.1.4)-1*
G04 #@! TF.CreationDate,2019-09-27T14:23:10+09:00*
G04 #@! TF.ProjectId,project 02,70726f6a-6563-4742-9030-322e6b696361,1*
G04 #@! TF.SameCoordinates,Original*
G04 #@! TF.FileFunction,Copper,L1,Top*
G04 #@! TF.FilePolarity,Positive*
%FSLAX46Y46*%
G04 Gerber Fmt 4.6, Leading zero omitted, Abs format (unit mm)*
G04 Created by KiCad (PCBNEW (5.1.4)-1) date 2019-09-27 14:23:10*
%MOMM*%
%LPD*%
G04 APERTURE LIST*
%ADD10C,0.100000*%
%ADD11C,1.150000*%
%ADD12R,1.800000X1.800000*%
%ADD13C,1.800000*%
%ADD14O,1.700000X1.700000*%
%ADD15R,1.700000X1.700000*%
%ADD16R,2.600000X2.600000*%
%ADD17C,2.600000*%
%ADD18R,2.000000X3.800000*%
%ADD19R,2.000000X1.500000*%
%ADD20C,0.800000*%
%ADD21C,1.000000*%
%ADD22C,0.250000*%
%ADD23C,0.254000*%
G04 APERTURE END LIST*
D10*
G36*
X138974505Y-40451204D02*
G01*
X138998773Y-40454804D01*
X139022572Y-40460765D01*
X139045671Y-40469030D01*
X139067850Y-40479520D01*
X139088893Y-40492132D01*
X139108599Y-40506747D01*
X139126777Y-40523223D01*
X139143253Y-40541401D01*
X139157868Y-40561107D01*
X139170480Y-40582150D01*
X139180970Y-40604329D01*
X139189235Y-40627428D01*
X139195196Y-40651227D01*
X139198796Y-40675495D01*
X139200000Y-40699999D01*
X139200000Y-41350001D01*
X139198796Y-41374505D01*
X139195196Y-41398773D01*
X139189235Y-41422572D01*
X139180970Y-41445671D01*
X139170480Y-41467850D01*
X139157868Y-41488893D01*
X139143253Y-41508599D01*
X139126777Y-41526777D01*
X139108599Y-41543253D01*
X139088893Y-41557868D01*
X139067850Y-41570480D01*
X139045671Y-41580970D01*
X139022572Y-41589235D01*
X138998773Y-41595196D01*
X138974505Y-41598796D01*
X138950001Y-41600000D01*
X138049999Y-41600000D01*
X138025495Y-41598796D01*
X138001227Y-41595196D01*
X137977428Y-41589235D01*
X137954329Y-41580970D01*
X137932150Y-41570480D01*
X137911107Y-41557868D01*
X137891401Y-41543253D01*
X137873223Y-41526777D01*
X137856747Y-41508599D01*
X137842132Y-41488893D01*
X137829520Y-41467850D01*
X137819030Y-41445671D01*
X137810765Y-41422572D01*
X137804804Y-41398773D01*
X137801204Y-41374505D01*
X137800000Y-41350001D01*
X137800000Y-40699999D01*
X137801204Y-40675495D01*
X137804804Y-40651227D01*
X137810765Y-40627428D01*
X137819030Y-40604329D01*
X137829520Y-40582150D01*
X137842132Y-40561107D01*
X137856747Y-40541401D01*
X137873223Y-40523223D01*
X137891401Y-40506747D01*
X137911107Y-40492132D01*
X137932150Y-40479520D01*
X137954329Y-40469030D01*
X137977428Y-40460765D01*
X138001227Y-40454804D01*
X138025495Y-40451204D01*
X138049999Y-40450000D01*
X138950001Y-40450000D01*
X138974505Y-40451204D01*
X138974505Y-40451204D01*
G37*
D11*
X138500000Y-41025000D03*
D10*
G36*
X138974505Y-38401204D02*
G01*
X138998773Y-38404804D01*
X139022572Y-38410765D01*
X139045671Y-38419030D01*
X139067850Y-38429520D01*
X139088893Y-38442132D01*
X139108599Y-38456747D01*
X139126777Y-38473223D01*
X139143253Y-38491401D01*
X139157868Y-38511107D01*
X139170480Y-38532150D01*
X139180970Y-38554329D01*
X139189235Y-38577428D01*
X139195196Y-38601227D01*
X139198796Y-38625495D01*
X139200000Y-38649999D01*
X139200000Y-39300001D01*
X139198796Y-39324505D01*
X139195196Y-39348773D01*
X139189235Y-39372572D01*
X139180970Y-39395671D01*
X139170480Y-39417850D01*
X139157868Y-39438893D01*
X139143253Y-39458599D01*
X139126777Y-39476777D01*
X139108599Y-39493253D01*
X139088893Y-39507868D01*
X139067850Y-39520480D01*
X139045671Y-39530970D01*
X139022572Y-39539235D01*
X138998773Y-39545196D01*
X138974505Y-39548796D01*
X138950001Y-39550000D01*
X138049999Y-39550000D01*
X138025495Y-39548796D01*
X138001227Y-39545196D01*
X137977428Y-39539235D01*
X137954329Y-39530970D01*
X137932150Y-39520480D01*
X137911107Y-39507868D01*
X137891401Y-39493253D01*
X137873223Y-39476777D01*
X137856747Y-39458599D01*
X137842132Y-39438893D01*
X137829520Y-39417850D01*
X137819030Y-39395671D01*
X137810765Y-39372572D01*
X137804804Y-39348773D01*
X137801204Y-39324505D01*
X137800000Y-39300001D01*
X137800000Y-38649999D01*
X137801204Y-38625495D01*
X137804804Y-38601227D01*
X137810765Y-38577428D01*
X137819030Y-38554329D01*
X137829520Y-38532150D01*
X137842132Y-38511107D01*
X137856747Y-38491401D01*
X137873223Y-38473223D01*
X137891401Y-38456747D01*
X137911107Y-38442132D01*
X137932150Y-38429520D01*
X137954329Y-38419030D01*
X137977428Y-38410765D01*
X138001227Y-38404804D01*
X138025495Y-38401204D01*
X138049999Y-38400000D01*
X138950001Y-38400000D01*
X138974505Y-38401204D01*
X138974505Y-38401204D01*
G37*
D11*
X138500000Y-38975000D03*
D10*
G36*
X151824505Y-36301204D02*
G01*
X151848773Y-36304804D01*
X151872572Y-36310765D01*
X151895671Y-36319030D01*
X151917850Y-36329520D01*
X151938893Y-36342132D01*
X151958599Y-36356747D01*
X151976777Y-36373223D01*
X151993253Y-36391401D01*
X152007868Y-36411107D01*
X152020480Y-36432150D01*
X152030970Y-36454329D01*
X152039235Y-36477428D01*
X152045196Y-36501227D01*
X152048796Y-36525495D01*
X152050000Y-36549999D01*
X152050000Y-37450001D01*
X152048796Y-37474505D01*
X152045196Y-37498773D01*
X152039235Y-37522572D01*
X152030970Y-37545671D01*
X152020480Y-37567850D01*
X152007868Y-37588893D01*
X151993253Y-37608599D01*
X151976777Y-37626777D01*
X151958599Y-37643253D01*
X151938893Y-37657868D01*
X151917850Y-37670480D01*
X151895671Y-37680970D01*
X151872572Y-37689235D01*
X151848773Y-37695196D01*
X151824505Y-37698796D01*
X151800001Y-37700000D01*
X151149999Y-37700000D01*
X151125495Y-37698796D01*
X151101227Y-37695196D01*
X151077428Y-37689235D01*
X151054329Y-37680970D01*
X151032150Y-37670480D01*
X151011107Y-37657868D01*
X150991401Y-37643253D01*
X150973223Y-37626777D01*
X150956747Y-37608599D01*
X150942132Y-37588893D01*
X150929520Y-37567850D01*
X150919030Y-37545671D01*
X150910765Y-37522572D01*
X150904804Y-37498773D01*
X150901204Y-37474505D01*
X150900000Y-37450001D01*
X150900000Y-36549999D01*
X150901204Y-36525495D01*
X150904804Y-36501227D01*
X150910765Y-36477428D01*
X150919030Y-36454329D01*
X150929520Y-36432150D01*
X150942132Y-36411107D01*
X150956747Y-36391401D01*
X150973223Y-36373223D01*
X150991401Y-36356747D01*
X151011107Y-36342132D01*
X151032150Y-36329520D01*
X151054329Y-36319030D01*
X151077428Y-36310765D01*
X151101227Y-36304804D01*
X151125495Y-36301204D01*
X151149999Y-36300000D01*
X151800001Y-36300000D01*
X151824505Y-36301204D01*
X151824505Y-36301204D01*
G37*
D11*
X151475000Y-37000000D03*
D10*
G36*
X153874505Y-36301204D02*
G01*
X153898773Y-36304804D01*
X153922572Y-36310765D01*
X153945671Y-36319030D01*
X153967850Y-36329520D01*
X153988893Y-36342132D01*
X154008599Y-36356747D01*
X154026777Y-36373223D01*
X154043253Y-36391401D01*
X154057868Y-36411107D01*
X154070480Y-36432150D01*
X154080970Y-36454329D01*
X154089235Y-36477428D01*
X154095196Y-36501227D01*
X154098796Y-36525495D01*
X154100000Y-36549999D01*
X154100000Y-37450001D01*
X154098796Y-37474505D01*
X154095196Y-37498773D01*
X154089235Y-37522572D01*
X154080970Y-37545671D01*
X154070480Y-37567850D01*
X154057868Y-37588893D01*
X154043253Y-37608599D01*
X154026777Y-37626777D01*
X154008599Y-37643253D01*
X153988893Y-37657868D01*
X153967850Y-37670480D01*
X153945671Y-37680970D01*
X153922572Y-37689235D01*
X153898773Y-37695196D01*
X153874505Y-37698796D01*
X153850001Y-37700000D01*
X153199999Y-37700000D01*
X153175495Y-37698796D01*
X153151227Y-37695196D01*
X153127428Y-37689235D01*
X153104329Y-37680970D01*
X153082150Y-37670480D01*
X153061107Y-37657868D01*
X153041401Y-37643253D01*
X153023223Y-37626777D01*
X153006747Y-37608599D01*
X152992132Y-37588893D01*
X152979520Y-37567850D01*
X152969030Y-37545671D01*
X152960765Y-37522572D01*
X152954804Y-37498773D01*
X152951204Y-37474505D01*
X152950000Y-37450001D01*
X152950000Y-36549999D01*
X152951204Y-36525495D01*
X152954804Y-36501227D01*
X152960765Y-36477428D01*
X152969030Y-36454329D01*
X152979520Y-36432150D01*
X152992132Y-36411107D01*
X153006747Y-36391401D01*
X153023223Y-36373223D01*
X153041401Y-36356747D01*
X153061107Y-36342132D01*
X153082150Y-36329520D01*
X153104329Y-36319030D01*
X153127428Y-36310765D01*
X153151227Y-36304804D01*
X153175495Y-36301204D01*
X153199999Y-36300000D01*
X153850001Y-36300000D01*
X153874505Y-36301204D01*
X153874505Y-36301204D01*
G37*
D11*
X153525000Y-37000000D03*
D10*
G36*
X122474505Y-40451204D02*
G01*
X122498773Y-40454804D01*
X122522572Y-40460765D01*
X122545671Y-40469030D01*
X122567850Y-40479520D01*
X122588893Y-40492132D01*
X122608599Y-40506747D01*
X122626777Y-40523223D01*
X122643253Y-40541401D01*
X122657868Y-40561107D01*
X122670480Y-40582150D01*
X122680970Y-40604329D01*
X122689235Y-40627428D01*
X122695196Y-40651227D01*
X122698796Y-40675495D01*
X122700000Y-40699999D01*
X122700000Y-41350001D01*
X122698796Y-41374505D01*
X122695196Y-41398773D01*
X122689235Y-41422572D01*
X122680970Y-41445671D01*
X122670480Y-41467850D01*
X122657868Y-41488893D01*
X122643253Y-41508599D01*
X122626777Y-41526777D01*
X122608599Y-41543253D01*
X122588893Y-41557868D01*
X122567850Y-41570480D01*
X122545671Y-41580970D01*
X122522572Y-41589235D01*
X122498773Y-41595196D01*
X122474505Y-41598796D01*
X122450001Y-41600000D01*
X121549999Y-41600000D01*
X121525495Y-41598796D01*
X121501227Y-41595196D01*
X121477428Y-41589235D01*
X121454329Y-41580970D01*
X121432150Y-41570480D01*
X121411107Y-41557868D01*
X121391401Y-41543253D01*
X121373223Y-41526777D01*
X121356747Y-41508599D01*
X121342132Y-41488893D01*
X121329520Y-41467850D01*
X121319030Y-41445671D01*
X121310765Y-41422572D01*
X121304804Y-41398773D01*
X121301204Y-41374505D01*
X121300000Y-41350001D01*
X121300000Y-40699999D01*
X121301204Y-40675495D01*
X121304804Y-40651227D01*
X121310765Y-40627428D01*
X121319030Y-40604329D01*
X121329520Y-40582150D01*
X121342132Y-40561107D01*
X121356747Y-40541401D01*
X121373223Y-40523223D01*
X121391401Y-40506747D01*
X121411107Y-40492132D01*
X121432150Y-40479520D01*
X121454329Y-40469030D01*
X121477428Y-40460765D01*
X121501227Y-40454804D01*
X121525495Y-40451204D01*
X121549999Y-40450000D01*
X122450001Y-40450000D01*
X122474505Y-40451204D01*
X122474505Y-40451204D01*
G37*
D11*
X122000000Y-41025000D03*
D10*
G36*
X122474505Y-38401204D02*
G01*
X122498773Y-38404804D01*
X122522572Y-38410765D01*
X122545671Y-38419030D01*
X122567850Y-38429520D01*
X122588893Y-38442132D01*
X122608599Y-38456747D01*
X122626777Y-38473223D01*
X122643253Y-38491401D01*
X122657868Y-38511107D01*
X122670480Y-38532150D01*
X122680970Y-38554329D01*
X122689235Y-38577428D01*
X122695196Y-38601227D01*
X122698796Y-38625495D01*
X122700000Y-38649999D01*
X122700000Y-39300001D01*
X122698796Y-39324505D01*
X122695196Y-39348773D01*
X122689235Y-39372572D01*
X122680970Y-39395671D01*
X122670480Y-39417850D01*
X122657868Y-39438893D01*
X122643253Y-39458599D01*
X122626777Y-39476777D01*
X122608599Y-39493253D01*
X122588893Y-39507868D01*
X122567850Y-39520480D01*
X122545671Y-39530970D01*
X122522572Y-39539235D01*
X122498773Y-39545196D01*
X122474505Y-39548796D01*
X122450001Y-39550000D01*
X121549999Y-39550000D01*
X121525495Y-39548796D01*
X121501227Y-39545196D01*
X121477428Y-39539235D01*
X121454329Y-39530970D01*
X121432150Y-39520480D01*
X121411107Y-39507868D01*
X121391401Y-39493253D01*
X121373223Y-39476777D01*
X121356747Y-39458599D01*
X121342132Y-39438893D01*
X121329520Y-39417850D01*
X121319030Y-39395671D01*
X121310765Y-39372572D01*
X121304804Y-39348773D01*
X121301204Y-39324505D01*
X121300000Y-39300001D01*
X121300000Y-38649999D01*
X121301204Y-38625495D01*
X121304804Y-38601227D01*
X121310765Y-38577428D01*
X121319030Y-38554329D01*
X121329520Y-38532150D01*
X121342132Y-38511107D01*
X121356747Y-38491401D01*
X121373223Y-38473223D01*
X121391401Y-38456747D01*
X121411107Y-38442132D01*
X121432150Y-38429520D01*
X121454329Y-38419030D01*
X121477428Y-38410765D01*
X121501227Y-38404804D01*
X121525495Y-38401204D01*
X121549999Y-38400000D01*
X122450001Y-38400000D01*
X122474505Y-38401204D01*
X122474505Y-38401204D01*
G37*
D11*
X122000000Y-38975000D03*
D10*
G36*
X108874505Y-36301204D02*
G01*
X108898773Y-36304804D01*
X108922572Y-36310765D01*
X108945671Y-36319030D01*
X108967850Y-36329520D01*
X108988893Y-36342132D01*
X109008599Y-36356747D01*
X109026777Y-36373223D01*
X109043253Y-36391401D01*
X109057868Y-36411107D01*
X109070480Y-36432150D01*
X109080970Y-36454329D01*
X109089235Y-36477428D01*
X109095196Y-36501227D01*
X109098796Y-36525495D01*
X109100000Y-36549999D01*
X109100000Y-37450001D01*
X109098796Y-37474505D01*
X109095196Y-37498773D01*
X109089235Y-37522572D01*
X109080970Y-37545671D01*
X109070480Y-37567850D01*
X109057868Y-37588893D01*
X109043253Y-37608599D01*
X109026777Y-37626777D01*
X109008599Y-37643253D01*
X108988893Y-37657868D01*
X108967850Y-37670480D01*
X108945671Y-37680970D01*
X108922572Y-37689235D01*
X108898773Y-37695196D01*
X108874505Y-37698796D01*
X108850001Y-37700000D01*
X108199999Y-37700000D01*
X108175495Y-37698796D01*
X108151227Y-37695196D01*
X108127428Y-37689235D01*
X108104329Y-37680970D01*
X108082150Y-37670480D01*
X108061107Y-37657868D01*
X108041401Y-37643253D01*
X108023223Y-37626777D01*
X108006747Y-37608599D01*
X107992132Y-37588893D01*
X107979520Y-37567850D01*
X107969030Y-37545671D01*
X107960765Y-37522572D01*
X107954804Y-37498773D01*
X107951204Y-37474505D01*
X107950000Y-37450001D01*
X107950000Y-36549999D01*
X107951204Y-36525495D01*
X107954804Y-36501227D01*
X107960765Y-36477428D01*
X107969030Y-36454329D01*
X107979520Y-36432150D01*
X107992132Y-36411107D01*
X108006747Y-36391401D01*
X108023223Y-36373223D01*
X108041401Y-36356747D01*
X108061107Y-36342132D01*
X108082150Y-36329520D01*
X108104329Y-36319030D01*
X108127428Y-36310765D01*
X108151227Y-36304804D01*
X108175495Y-36301204D01*
X108199999Y-36300000D01*
X108850001Y-36300000D01*
X108874505Y-36301204D01*
X108874505Y-36301204D01*
G37*
D11*
X108525000Y-37000000D03*
D10*
G36*
X106824505Y-36301204D02*
G01*
X106848773Y-36304804D01*
X106872572Y-36310765D01*
X106895671Y-36319030D01*
X106917850Y-36329520D01*
X106938893Y-36342132D01*
X106958599Y-36356747D01*
X106976777Y-36373223D01*
X106993253Y-36391401D01*
X107007868Y-36411107D01*
X107020480Y-36432150D01*
X107030970Y-36454329D01*
X107039235Y-36477428D01*
X107045196Y-36501227D01*
X107048796Y-36525495D01*
X107050000Y-36549999D01*
X107050000Y-37450001D01*
X107048796Y-37474505D01*
X107045196Y-37498773D01*
X107039235Y-37522572D01*
X107030970Y-37545671D01*
X107020480Y-37567850D01*
X107007868Y-37588893D01*
X106993253Y-37608599D01*
X106976777Y-37626777D01*
X106958599Y-37643253D01*
X106938893Y-37657868D01*
X106917850Y-37670480D01*
X106895671Y-37680970D01*
X106872572Y-37689235D01*
X106848773Y-37695196D01*
X106824505Y-37698796D01*
X106800001Y-37700000D01*
X106149999Y-37700000D01*
X106125495Y-37698796D01*
X106101227Y-37695196D01*
X106077428Y-37689235D01*
X106054329Y-37680970D01*
X106032150Y-37670480D01*
X106011107Y-37657868D01*
X105991401Y-37643253D01*
X105973223Y-37626777D01*
X105956747Y-37608599D01*
X105942132Y-37588893D01*
X105929520Y-37567850D01*
X105919030Y-37545671D01*
X105910765Y-37522572D01*
X105904804Y-37498773D01*
X105901204Y-37474505D01*
X105900000Y-37450001D01*
X105900000Y-36549999D01*
X105901204Y-36525495D01*
X105904804Y-36501227D01*
X105910765Y-36477428D01*
X105919030Y-36454329D01*
X105929520Y-36432150D01*
X105942132Y-36411107D01*
X105956747Y-36391401D01*
X105973223Y-36373223D01*
X105991401Y-36356747D01*
X106011107Y-36342132D01*
X106032150Y-36329520D01*
X106054329Y-36319030D01*
X106077428Y-36310765D01*
X106101227Y-36304804D01*
X106125495Y-36301204D01*
X106149999Y-36300000D01*
X106800001Y-36300000D01*
X106824505Y-36301204D01*
X106824505Y-36301204D01*
G37*
D11*
X106475000Y-37000000D03*
D12*
X119250000Y-45000000D03*
D13*
X119250000Y-47540000D03*
D14*
X153540000Y-34040000D03*
X153540000Y-31500000D03*
X151000000Y-34040000D03*
D15*
X151000000Y-31500000D03*
D16*
X130000000Y-37500000D03*
D17*
X130000000Y-43500000D03*
X134700000Y-40500000D03*
D15*
X106460000Y-31500000D03*
D14*
X106460000Y-34040000D03*
X109000000Y-31500000D03*
X109000000Y-34040000D03*
D10*
G36*
X113974505Y-44401204D02*
G01*
X113998773Y-44404804D01*
X114022572Y-44410765D01*
X114045671Y-44419030D01*
X114067850Y-44429520D01*
X114088893Y-44442132D01*
X114108599Y-44456747D01*
X114126777Y-44473223D01*
X114143253Y-44491401D01*
X114157868Y-44511107D01*
X114170480Y-44532150D01*
X114180970Y-44554329D01*
X114189235Y-44577428D01*
X114195196Y-44601227D01*
X114198796Y-44625495D01*
X114200000Y-44649999D01*
X114200000Y-45300001D01*
X114198796Y-45324505D01*
X114195196Y-45348773D01*
X114189235Y-45372572D01*
X114180970Y-45395671D01*
X114170480Y-45417850D01*
X114157868Y-45438893D01*
X114143253Y-45458599D01*
X114126777Y-45476777D01*
X114108599Y-45493253D01*
X114088893Y-45507868D01*
X114067850Y-45520480D01*
X114045671Y-45530970D01*
X114022572Y-45539235D01*
X113998773Y-45545196D01*
X113974505Y-45548796D01*
X113950001Y-45550000D01*
X113049999Y-45550000D01*
X113025495Y-45548796D01*
X113001227Y-45545196D01*
X112977428Y-45539235D01*
X112954329Y-45530970D01*
X112932150Y-45520480D01*
X112911107Y-45507868D01*
X112891401Y-45493253D01*
X112873223Y-45476777D01*
X112856747Y-45458599D01*
X112842132Y-45438893D01*
X112829520Y-45417850D01*
X112819030Y-45395671D01*
X112810765Y-45372572D01*
X112804804Y-45348773D01*
X112801204Y-45324505D01*
X112800000Y-45300001D01*
X112800000Y-44649999D01*
X112801204Y-44625495D01*
X112804804Y-44601227D01*
X112810765Y-44577428D01*
X112819030Y-44554329D01*
X112829520Y-44532150D01*
X112842132Y-44511107D01*
X112856747Y-44491401D01*
X112873223Y-44473223D01*
X112891401Y-44456747D01*
X112911107Y-44442132D01*
X112932150Y-44429520D01*
X112954329Y-44419030D01*
X112977428Y-44410765D01*
X113001227Y-44404804D01*
X113025495Y-44401204D01*
X113049999Y-44400000D01*
X113950001Y-44400000D01*
X113974505Y-44401204D01*
X113974505Y-44401204D01*
G37*
D11*
X113500000Y-44975000D03*
D10*
G36*
X113974505Y-46451204D02*
G01*
X113998773Y-46454804D01*
X114022572Y-46460765D01*
X114045671Y-46469030D01*
X114067850Y-46479520D01*
X114088893Y-46492132D01*
X114108599Y-46506747D01*
X114126777Y-46523223D01*
X114143253Y-46541401D01*
X114157868Y-46561107D01*
X114170480Y-46582150D01*
X114180970Y-46604329D01*
X114189235Y-46627428D01*
X114195196Y-46651227D01*
X114198796Y-46675495D01*
X114200000Y-46699999D01*
X114200000Y-47350001D01*
X114198796Y-47374505D01*
X114195196Y-47398773D01*
X114189235Y-47422572D01*
X114180970Y-47445671D01*
X114170480Y-47467850D01*
X114157868Y-47488893D01*
X114143253Y-47508599D01*
X114126777Y-47526777D01*
X114108599Y-47543253D01*
X114088893Y-47557868D01*
X114067850Y-47570480D01*
X114045671Y-47580970D01*
X114022572Y-47589235D01*
X113998773Y-47595196D01*
X113974505Y-47598796D01*
X113950001Y-47600000D01*
X113049999Y-47600000D01*
X113025495Y-47598796D01*
X113001227Y-47595196D01*
X112977428Y-47589235D01*
X112954329Y-47580970D01*
X112932150Y-47570480D01*
X112911107Y-47557868D01*
X112891401Y-47543253D01*
X112873223Y-47526777D01*
X112856747Y-47508599D01*
X112842132Y-47488893D01*
X112829520Y-47467850D01*
X112819030Y-47445671D01*
X112810765Y-47422572D01*
X112804804Y-47398773D01*
X112801204Y-47374505D01*
X112800000Y-47350001D01*
X112800000Y-46699999D01*
X112801204Y-46675495D01*
X112804804Y-46651227D01*
X112810765Y-46627428D01*
X112819030Y-46604329D01*
X112829520Y-46582150D01*
X112842132Y-46561107D01*
X112856747Y-46541401D01*
X112873223Y-46523223D01*
X112891401Y-46506747D01*
X112911107Y-46492132D01*
X112932150Y-46479520D01*
X112954329Y-46469030D01*
X112977428Y-46460765D01*
X113001227Y-46454804D01*
X113025495Y-46451204D01*
X113049999Y-46450000D01*
X113950001Y-46450000D01*
X113974505Y-46451204D01*
X113974505Y-46451204D01*
G37*
D11*
X113500000Y-47025000D03*
D18*
X147650000Y-40000000D03*
D19*
X141350000Y-40000000D03*
X141350000Y-42300000D03*
X141350000Y-37700000D03*
X119150000Y-42300000D03*
X119150000Y-37700000D03*
X119150000Y-40000000D03*
D18*
X112850000Y-40000000D03*
D20*
X112250000Y-35750000D03*
X115750000Y-35750000D03*
X119250000Y-35750000D03*
X122750000Y-35750000D03*
X126250000Y-35750000D03*
X133750000Y-35750000D03*
X137750000Y-35750000D03*
X141250000Y-35750000D03*
X144750000Y-35750000D03*
X148250000Y-35750000D03*
X154500000Y-44250000D03*
X154500000Y-47500000D03*
X154500000Y-50750000D03*
X150500000Y-50750000D03*
X146750000Y-50750000D03*
X142750000Y-50750000D03*
X123250000Y-50750000D03*
X120250000Y-50750000D03*
X108500000Y-48500000D03*
X105500000Y-48500000D03*
X105500000Y-45500000D03*
X111500000Y-48500000D03*
X105500000Y-42500000D03*
D21*
X139775000Y-42300000D02*
X138500000Y-41025000D01*
X141350000Y-42300000D02*
X139775000Y-42300000D01*
X138500000Y-41025000D02*
X137275000Y-41025000D01*
X137275000Y-41025000D02*
X137000000Y-40750000D01*
X132300000Y-37500000D02*
X130000000Y-37500000D01*
X134660002Y-37500000D02*
X132300000Y-37500000D01*
X137000000Y-39839998D02*
X134660002Y-37500000D01*
X137000000Y-40750000D02*
X137000000Y-39839998D01*
X119350000Y-37500000D02*
X119150000Y-37700000D01*
X122000000Y-38975000D02*
X122000000Y-37500000D01*
X130000000Y-37500000D02*
X122000000Y-37500000D01*
X122000000Y-37500000D02*
X119350000Y-37500000D01*
X153540000Y-31500000D02*
X153540000Y-34040000D01*
X153540000Y-36985000D02*
X153525000Y-37000000D01*
X153540000Y-34040000D02*
X153540000Y-36985000D01*
X119150000Y-44900000D02*
X119250000Y-45000000D01*
X119150000Y-42300000D02*
X119150000Y-44900000D01*
X151000000Y-31500000D02*
X151000000Y-34040000D01*
X151475000Y-37000000D02*
X151475000Y-38275000D01*
X149750000Y-40000000D02*
X147650000Y-40000000D01*
X151475000Y-38275000D02*
X149750000Y-40000000D01*
X147650000Y-40000000D02*
X141350000Y-40000000D01*
X151475000Y-37000000D02*
X151475000Y-35525000D01*
X151000000Y-35242081D02*
X151000000Y-34040000D01*
X151282919Y-35525000D02*
X151000000Y-35242081D01*
X151475000Y-35525000D02*
X151282919Y-35525000D01*
X106460000Y-31500000D02*
X106460000Y-34040000D01*
X106460000Y-36985000D02*
X106475000Y-37000000D01*
X106460000Y-34040000D02*
X106460000Y-36985000D01*
X106475000Y-37000000D02*
X106475000Y-37800000D01*
X112850000Y-40000000D02*
X119150000Y-40000000D01*
X113500000Y-43550000D02*
X113500000Y-44975000D01*
X112850000Y-40000000D02*
X112850000Y-42900000D01*
X112850000Y-42900000D02*
X113500000Y-43550000D01*
D22*
X106475000Y-37800000D02*
X106475000Y-37975000D01*
D21*
X110850000Y-40000000D02*
X112850000Y-40000000D01*
D22*
X106475000Y-37800000D02*
X106475000Y-38475000D01*
D21*
X108000000Y-40000000D02*
X110850000Y-40000000D01*
X106475000Y-38475000D02*
X108000000Y-40000000D01*
X113500000Y-47025000D02*
X114256744Y-47540000D01*
X114256744Y-47540000D02*
X119250000Y-47540000D01*
D23*
G36*
X110419001Y-34278540D02*
G01*
X110421424Y-34303141D01*
X110421403Y-34306148D01*
X110422195Y-34314221D01*
X110427290Y-34362698D01*
X110427408Y-34363896D01*
X110427420Y-34363936D01*
X110432395Y-34411270D01*
X110442986Y-34462867D01*
X110452851Y-34514579D01*
X110455195Y-34522345D01*
X110484051Y-34615564D01*
X110504457Y-34664107D01*
X110524185Y-34712935D01*
X110527994Y-34720098D01*
X110574406Y-34805936D01*
X110603880Y-34849632D01*
X110632687Y-34893653D01*
X110637810Y-34899935D01*
X110637814Y-34899941D01*
X110637819Y-34899946D01*
X110700015Y-34975129D01*
X110737365Y-35012219D01*
X110774220Y-35049854D01*
X110780470Y-35055025D01*
X110856091Y-35116701D01*
X110899961Y-35145848D01*
X110943408Y-35175596D01*
X110950544Y-35179455D01*
X111036705Y-35225267D01*
X111085409Y-35245341D01*
X111133786Y-35266076D01*
X111141536Y-35268475D01*
X111141540Y-35268477D01*
X111141545Y-35268478D01*
X111234953Y-35296680D01*
X111286617Y-35306910D01*
X111338122Y-35317857D01*
X111346179Y-35318704D01*
X111346185Y-35318705D01*
X111346190Y-35318705D01*
X111443047Y-35328201D01*
X111471460Y-35331000D01*
X148528540Y-35331000D01*
X148553150Y-35328576D01*
X148556148Y-35328597D01*
X148564221Y-35327805D01*
X148612546Y-35322726D01*
X148613896Y-35322593D01*
X148613941Y-35322579D01*
X148661270Y-35317605D01*
X148712867Y-35307014D01*
X148764579Y-35297149D01*
X148772345Y-35294805D01*
X148865564Y-35265949D01*
X148914107Y-35245543D01*
X148962935Y-35225815D01*
X148970091Y-35222010D01*
X148970095Y-35222008D01*
X148970098Y-35222006D01*
X149055936Y-35175594D01*
X149099632Y-35146120D01*
X149143653Y-35117313D01*
X149149938Y-35112188D01*
X149149941Y-35112186D01*
X149149946Y-35112181D01*
X149225129Y-35049985D01*
X149262219Y-35012635D01*
X149299854Y-34975780D01*
X149305025Y-34969530D01*
X149366701Y-34893909D01*
X149395848Y-34850039D01*
X149425596Y-34806592D01*
X149429455Y-34799456D01*
X149475267Y-34713295D01*
X149495341Y-34664591D01*
X149516076Y-34616214D01*
X149518475Y-34608465D01*
X149546680Y-34515047D01*
X149556910Y-34463383D01*
X149567857Y-34411878D01*
X149568704Y-34403821D01*
X149568705Y-34403815D01*
X149568705Y-34403810D01*
X149578227Y-34306693D01*
X149581000Y-34278540D01*
X149581000Y-30081000D01*
X154919000Y-30081000D01*
X154919001Y-51169000D01*
X105081000Y-51169000D01*
X105081000Y-46699999D01*
X112417157Y-46699999D01*
X112417157Y-47350001D01*
X112429317Y-47473462D01*
X112465329Y-47592179D01*
X112523810Y-47701589D01*
X112602512Y-47797488D01*
X112698411Y-47876190D01*
X112807821Y-47934671D01*
X112926538Y-47970683D01*
X113049999Y-47982843D01*
X113341571Y-47982843D01*
X113728404Y-48246101D01*
X113764919Y-48276068D01*
X113838138Y-48315204D01*
X113911027Y-48354965D01*
X113914635Y-48356093D01*
X113917969Y-48357875D01*
X113997480Y-48381995D01*
X114076662Y-48406751D01*
X114080415Y-48407153D01*
X114084038Y-48408252D01*
X114166791Y-48416402D01*
X114249217Y-48425229D01*
X114296254Y-48421000D01*
X118319392Y-48421000D01*
X118433410Y-48535018D01*
X118643219Y-48675207D01*
X118876346Y-48771772D01*
X119123833Y-48821000D01*
X119376167Y-48821000D01*
X119623654Y-48771772D01*
X119856781Y-48675207D01*
X120066590Y-48535018D01*
X120245018Y-48356590D01*
X120385207Y-48146781D01*
X120481772Y-47913654D01*
X120531000Y-47666167D01*
X120531000Y-47413833D01*
X120481772Y-47166346D01*
X120385207Y-46933219D01*
X120245018Y-46723410D01*
X120066590Y-46544982D01*
X119856781Y-46404793D01*
X119623654Y-46308228D01*
X119486769Y-46281000D01*
X119623002Y-46281000D01*
X119623002Y-46185752D01*
X119718250Y-46281000D01*
X120150000Y-46282843D01*
X120224689Y-46275487D01*
X120296508Y-46253701D01*
X120362696Y-46218322D01*
X120420711Y-46170711D01*
X120468322Y-46112696D01*
X120503701Y-46046508D01*
X120525487Y-45974689D01*
X120532843Y-45900000D01*
X120531000Y-45468250D01*
X120435750Y-45373000D01*
X119623000Y-45373000D01*
X119623000Y-45393000D01*
X118877000Y-45393000D01*
X118877000Y-45373000D01*
X118064250Y-45373000D01*
X117969000Y-45468250D01*
X117967157Y-45900000D01*
X117974513Y-45974689D01*
X117996299Y-46046508D01*
X118031678Y-46112696D01*
X118079289Y-46170711D01*
X118137304Y-46218322D01*
X118203492Y-46253701D01*
X118275311Y-46275487D01*
X118350000Y-46282843D01*
X118781750Y-46281000D01*
X118876998Y-46185752D01*
X118876998Y-46281000D01*
X119013231Y-46281000D01*
X118876346Y-46308228D01*
X118643219Y-46404793D01*
X118433410Y-46544982D01*
X118319392Y-46659000D01*
X114578805Y-46659000D01*
X114570683Y-46576538D01*
X114534671Y-46457821D01*
X114476190Y-46348411D01*
X114397488Y-46252512D01*
X114301589Y-46173810D01*
X114192179Y-46115329D01*
X114073462Y-46079317D01*
X113950001Y-46067157D01*
X113049999Y-46067157D01*
X112926538Y-46079317D01*
X112807821Y-46115329D01*
X112698411Y-46173810D01*
X112602512Y-46252512D01*
X112523810Y-46348411D01*
X112465329Y-46457821D01*
X112429317Y-46576538D01*
X112417157Y-46699999D01*
X105081000Y-46699999D01*
X105081000Y-34040000D01*
X105223044Y-34040000D01*
X105246812Y-34281318D01*
X105317202Y-34513363D01*
X105431509Y-34727216D01*
X105579000Y-34906935D01*
X105579001Y-36282243D01*
X105565329Y-36307821D01*
X105529317Y-36426538D01*
X105517157Y-36549999D01*
X105517157Y-37450001D01*
X105529317Y-37573462D01*
X105565329Y-37692179D01*
X105594000Y-37745819D01*
X105594000Y-37843273D01*
X105606749Y-37972706D01*
X105656739Y-38137499D01*
X105606749Y-38302295D01*
X105589738Y-38475000D01*
X105606749Y-38647705D01*
X105657125Y-38813774D01*
X105738932Y-38966825D01*
X105821441Y-39067362D01*
X107346439Y-40592361D01*
X107374025Y-40625975D01*
X107422265Y-40665564D01*
X107508174Y-40736068D01*
X107615196Y-40793272D01*
X107661225Y-40817875D01*
X107827294Y-40868252D01*
X107956727Y-40881000D01*
X107956730Y-40881000D01*
X108000000Y-40885262D01*
X108043270Y-40881000D01*
X111467157Y-40881000D01*
X111467157Y-41900000D01*
X111474513Y-41974689D01*
X111496299Y-42046508D01*
X111531678Y-42112696D01*
X111579289Y-42170711D01*
X111637304Y-42218322D01*
X111703492Y-42253701D01*
X111775311Y-42275487D01*
X111850000Y-42282843D01*
X111969001Y-42282843D01*
X111969001Y-42856720D01*
X111964738Y-42900000D01*
X111981749Y-43072705D01*
X112032125Y-43238774D01*
X112113932Y-43391825D01*
X112147595Y-43432843D01*
X112224026Y-43525975D01*
X112257640Y-43553561D01*
X112619000Y-43914922D01*
X112619000Y-44188980D01*
X112602512Y-44202512D01*
X112523810Y-44298411D01*
X112465329Y-44407821D01*
X112429317Y-44526538D01*
X112417157Y-44649999D01*
X112417157Y-45300001D01*
X112429317Y-45423462D01*
X112465329Y-45542179D01*
X112523810Y-45651589D01*
X112602512Y-45747488D01*
X112698411Y-45826190D01*
X112807821Y-45884671D01*
X112926538Y-45920683D01*
X113049999Y-45932843D01*
X113950001Y-45932843D01*
X114073462Y-45920683D01*
X114192179Y-45884671D01*
X114301589Y-45826190D01*
X114397488Y-45747488D01*
X114476190Y-45651589D01*
X114534671Y-45542179D01*
X114570683Y-45423462D01*
X114582843Y-45300001D01*
X114582843Y-44859501D01*
X129168000Y-44859501D01*
X129333425Y-45052048D01*
X129649023Y-45152267D01*
X129978108Y-45188992D01*
X130308035Y-45160809D01*
X130626123Y-45068803D01*
X130666575Y-45052048D01*
X130832000Y-44859501D01*
X130000000Y-44027502D01*
X129168000Y-44859501D01*
X114582843Y-44859501D01*
X114582843Y-44649999D01*
X114570683Y-44526538D01*
X114534671Y-44407821D01*
X114476190Y-44298411D01*
X114397488Y-44202512D01*
X114381000Y-44188981D01*
X114381000Y-44100000D01*
X117967157Y-44100000D01*
X117969000Y-44531750D01*
X118064250Y-44627000D01*
X118877000Y-44627000D01*
X118877000Y-43814250D01*
X119623000Y-43814250D01*
X119623000Y-44627000D01*
X120435750Y-44627000D01*
X120531000Y-44531750D01*
X120532843Y-44100000D01*
X120525487Y-44025311D01*
X120503701Y-43953492D01*
X120468322Y-43887304D01*
X120420711Y-43829289D01*
X120362696Y-43781678D01*
X120296508Y-43746299D01*
X120224689Y-43724513D01*
X120150000Y-43717157D01*
X119718250Y-43719000D01*
X119623000Y-43814250D01*
X118877000Y-43814250D01*
X118781750Y-43719000D01*
X118350000Y-43717157D01*
X118275311Y-43724513D01*
X118203492Y-43746299D01*
X118137304Y-43781678D01*
X118079289Y-43829289D01*
X118031678Y-43887304D01*
X117996299Y-43953492D01*
X117974513Y-44025311D01*
X117967157Y-44100000D01*
X114381000Y-44100000D01*
X114381000Y-43593270D01*
X114385262Y-43550000D01*
X114378181Y-43478108D01*
X128311008Y-43478108D01*
X128339191Y-43808035D01*
X128431197Y-44126123D01*
X128447952Y-44166575D01*
X128640499Y-44332000D01*
X129472498Y-43500000D01*
X130527502Y-43500000D01*
X131359501Y-44332000D01*
X131552048Y-44166575D01*
X131652267Y-43850977D01*
X131688992Y-43521892D01*
X131660809Y-43191965D01*
X131568803Y-42873877D01*
X131552048Y-42833425D01*
X131359501Y-42668000D01*
X130527502Y-43500000D01*
X129472498Y-43500000D01*
X128640499Y-42668000D01*
X128447952Y-42833425D01*
X128347733Y-43149023D01*
X128311008Y-43478108D01*
X114378181Y-43478108D01*
X114368252Y-43377294D01*
X114317875Y-43211225D01*
X114307580Y-43191965D01*
X114236068Y-43058174D01*
X114229360Y-43050000D01*
X117767157Y-43050000D01*
X117774513Y-43124689D01*
X117796299Y-43196508D01*
X117831678Y-43262696D01*
X117879289Y-43320711D01*
X117937304Y-43368322D01*
X118003492Y-43403701D01*
X118075311Y-43425487D01*
X118150000Y-43432843D01*
X118681750Y-43431000D01*
X118777000Y-43335750D01*
X118777000Y-42673000D01*
X119523000Y-42673000D01*
X119523000Y-43335750D01*
X119618250Y-43431000D01*
X120150000Y-43432843D01*
X120224689Y-43425487D01*
X120296508Y-43403701D01*
X120362696Y-43368322D01*
X120420711Y-43320711D01*
X120468322Y-43262696D01*
X120503701Y-43196508D01*
X120525487Y-43124689D01*
X120532843Y-43050000D01*
X120531000Y-42768250D01*
X120435750Y-42673000D01*
X119523000Y-42673000D01*
X118777000Y-42673000D01*
X117864250Y-42673000D01*
X117769000Y-42768250D01*
X117767157Y-43050000D01*
X114229360Y-43050000D01*
X114153559Y-42957637D01*
X114125975Y-42924025D01*
X114092361Y-42896440D01*
X113731000Y-42535079D01*
X113731000Y-42282843D01*
X113850000Y-42282843D01*
X113924689Y-42275487D01*
X113996508Y-42253701D01*
X114062696Y-42218322D01*
X114120711Y-42170711D01*
X114145504Y-42140499D01*
X129168000Y-42140499D01*
X130000000Y-42972498D01*
X130832000Y-42140499D01*
X130666575Y-41947952D01*
X130350977Y-41847733D01*
X130021892Y-41811008D01*
X129691965Y-41839191D01*
X129373877Y-41931197D01*
X129333425Y-41947952D01*
X129168000Y-42140499D01*
X114145504Y-42140499D01*
X114168322Y-42112696D01*
X114203701Y-42046508D01*
X114225487Y-41974689D01*
X114232843Y-41900000D01*
X114232843Y-41550000D01*
X117767157Y-41550000D01*
X117769000Y-41831750D01*
X117864250Y-41927000D01*
X118777000Y-41927000D01*
X118777000Y-41264250D01*
X119523000Y-41264250D01*
X119523000Y-41927000D01*
X120435750Y-41927000D01*
X120531000Y-41831750D01*
X120532515Y-41600000D01*
X120917157Y-41600000D01*
X120924513Y-41674689D01*
X120946299Y-41746508D01*
X120981678Y-41812696D01*
X121029289Y-41870711D01*
X121087304Y-41918322D01*
X121153492Y-41953701D01*
X121225311Y-41975487D01*
X121300000Y-41982843D01*
X121531750Y-41981000D01*
X121627000Y-41885750D01*
X121627000Y-41398000D01*
X122373000Y-41398000D01*
X122373000Y-41885750D01*
X122468250Y-41981000D01*
X122700000Y-41982843D01*
X122774689Y-41975487D01*
X122846508Y-41953701D01*
X122912696Y-41918322D01*
X122970711Y-41870711D01*
X123018322Y-41812696D01*
X123053701Y-41746508D01*
X123075487Y-41674689D01*
X123082843Y-41600000D01*
X123081000Y-41493250D01*
X122985750Y-41398000D01*
X122373000Y-41398000D01*
X121627000Y-41398000D01*
X121014250Y-41398000D01*
X120919000Y-41493250D01*
X120917157Y-41600000D01*
X120532515Y-41600000D01*
X120532843Y-41550000D01*
X120525487Y-41475311D01*
X120503701Y-41403492D01*
X120468322Y-41337304D01*
X120420711Y-41279289D01*
X120362696Y-41231678D01*
X120296508Y-41196299D01*
X120224689Y-41174513D01*
X120150000Y-41167157D01*
X119618250Y-41169000D01*
X119523000Y-41264250D01*
X118777000Y-41264250D01*
X118681750Y-41169000D01*
X118150000Y-41167157D01*
X118075311Y-41174513D01*
X118003492Y-41196299D01*
X117937304Y-41231678D01*
X117879289Y-41279289D01*
X117831678Y-41337304D01*
X117796299Y-41403492D01*
X117774513Y-41475311D01*
X117767157Y-41550000D01*
X114232843Y-41550000D01*
X114232843Y-40881000D01*
X117791595Y-40881000D01*
X117796299Y-40896508D01*
X117831678Y-40962696D01*
X117879289Y-41020711D01*
X117937304Y-41068322D01*
X118003492Y-41103701D01*
X118075311Y-41125487D01*
X118150000Y-41132843D01*
X120150000Y-41132843D01*
X120224689Y-41125487D01*
X120296508Y-41103701D01*
X120362696Y-41068322D01*
X120420711Y-41020711D01*
X120468322Y-40962696D01*
X120503701Y-40896508D01*
X120525487Y-40824689D01*
X120532843Y-40750000D01*
X120532843Y-40450000D01*
X120917157Y-40450000D01*
X120919000Y-40556750D01*
X121014250Y-40652000D01*
X121627000Y-40652000D01*
X121627000Y-40164250D01*
X122373000Y-40164250D01*
X122373000Y-40652000D01*
X122985750Y-40652000D01*
X123081000Y-40556750D01*
X123082843Y-40450000D01*
X123075487Y-40375311D01*
X123053701Y-40303492D01*
X123018322Y-40237304D01*
X122970711Y-40179289D01*
X122912696Y-40131678D01*
X122846508Y-40096299D01*
X122774689Y-40074513D01*
X122700000Y-40067157D01*
X122468250Y-40069000D01*
X122373000Y-40164250D01*
X121627000Y-40164250D01*
X121531750Y-40069000D01*
X121300000Y-40067157D01*
X121225311Y-40074513D01*
X121153492Y-40096299D01*
X121087304Y-40131678D01*
X121029289Y-40179289D01*
X120981678Y-40237304D01*
X120946299Y-40303492D01*
X120924513Y-40375311D01*
X120917157Y-40450000D01*
X120532843Y-40450000D01*
X120532843Y-39250000D01*
X120525487Y-39175311D01*
X120503701Y-39103492D01*
X120468322Y-39037304D01*
X120420711Y-38979289D01*
X120362696Y-38931678D01*
X120296508Y-38896299D01*
X120224689Y-38874513D01*
X120150000Y-38867157D01*
X118150000Y-38867157D01*
X118075311Y-38874513D01*
X118003492Y-38896299D01*
X117937304Y-38931678D01*
X117879289Y-38979289D01*
X117831678Y-39037304D01*
X117796299Y-39103492D01*
X117791595Y-39119000D01*
X114232843Y-39119000D01*
X114232843Y-38100000D01*
X114225487Y-38025311D01*
X114203701Y-37953492D01*
X114168322Y-37887304D01*
X114120711Y-37829289D01*
X114062696Y-37781678D01*
X113996508Y-37746299D01*
X113924689Y-37724513D01*
X113850000Y-37717157D01*
X111850000Y-37717157D01*
X111775311Y-37724513D01*
X111703492Y-37746299D01*
X111637304Y-37781678D01*
X111579289Y-37829289D01*
X111531678Y-37887304D01*
X111496299Y-37953492D01*
X111474513Y-38025311D01*
X111467157Y-38100000D01*
X111467157Y-39119000D01*
X108364922Y-39119000D01*
X107314246Y-38068325D01*
X107343252Y-37972706D01*
X107356000Y-37843273D01*
X107356000Y-37745819D01*
X107380490Y-37700000D01*
X107567157Y-37700000D01*
X107574513Y-37774689D01*
X107596299Y-37846508D01*
X107631678Y-37912696D01*
X107679289Y-37970711D01*
X107737304Y-38018322D01*
X107803492Y-38053701D01*
X107875311Y-38075487D01*
X107950000Y-38082843D01*
X108056750Y-38081000D01*
X108152000Y-37985750D01*
X108152000Y-37373000D01*
X108898000Y-37373000D01*
X108898000Y-37985750D01*
X108993250Y-38081000D01*
X109100000Y-38082843D01*
X109174689Y-38075487D01*
X109246508Y-38053701D01*
X109312696Y-38018322D01*
X109370711Y-37970711D01*
X109418322Y-37912696D01*
X109453701Y-37846508D01*
X109475487Y-37774689D01*
X109482843Y-37700000D01*
X109481000Y-37468250D01*
X109385750Y-37373000D01*
X108898000Y-37373000D01*
X108152000Y-37373000D01*
X107664250Y-37373000D01*
X107569000Y-37468250D01*
X107567157Y-37700000D01*
X107380490Y-37700000D01*
X107384671Y-37692179D01*
X107420683Y-37573462D01*
X107432843Y-37450001D01*
X107432843Y-36950000D01*
X117767157Y-36950000D01*
X117767157Y-38450000D01*
X117774513Y-38524689D01*
X117796299Y-38596508D01*
X117831678Y-38662696D01*
X117879289Y-38720711D01*
X117937304Y-38768322D01*
X118003492Y-38803701D01*
X118075311Y-38825487D01*
X118150000Y-38832843D01*
X120150000Y-38832843D01*
X120224689Y-38825487D01*
X120296508Y-38803701D01*
X120362696Y-38768322D01*
X120420711Y-38720711D01*
X120468322Y-38662696D01*
X120503701Y-38596508D01*
X120525487Y-38524689D01*
X120532843Y-38450000D01*
X120532843Y-38381000D01*
X120979665Y-38381000D01*
X120965329Y-38407821D01*
X120929317Y-38526538D01*
X120917157Y-38649999D01*
X120917157Y-39300001D01*
X120929317Y-39423462D01*
X120965329Y-39542179D01*
X121023810Y-39651589D01*
X121102512Y-39747488D01*
X121198411Y-39826190D01*
X121307821Y-39884671D01*
X121426538Y-39920683D01*
X121549999Y-39932843D01*
X122450001Y-39932843D01*
X122573462Y-39920683D01*
X122692179Y-39884671D01*
X122801589Y-39826190D01*
X122897488Y-39747488D01*
X122976190Y-39651589D01*
X123034671Y-39542179D01*
X123070683Y-39423462D01*
X123082843Y-39300001D01*
X123082843Y-38649999D01*
X123070683Y-38526538D01*
X123034671Y-38407821D01*
X123020335Y-38381000D01*
X128317157Y-38381000D01*
X128317157Y-38800000D01*
X128324513Y-38874689D01*
X128346299Y-38946508D01*
X128381678Y-39012696D01*
X128429289Y-39070711D01*
X128487304Y-39118322D01*
X128553492Y-39153701D01*
X128625311Y-39175487D01*
X128700000Y-39182843D01*
X131300000Y-39182843D01*
X131374689Y-39175487D01*
X131446508Y-39153701D01*
X131512696Y-39118322D01*
X131570711Y-39070711D01*
X131618322Y-39012696D01*
X131653701Y-38946508D01*
X131675487Y-38874689D01*
X131682843Y-38800000D01*
X131682843Y-38381000D01*
X134295081Y-38381000D01*
X134733081Y-38819000D01*
X134534436Y-38819000D01*
X134209670Y-38883600D01*
X133903748Y-39010317D01*
X133628425Y-39194282D01*
X133394282Y-39428425D01*
X133210317Y-39703748D01*
X133083600Y-40009670D01*
X133019000Y-40334436D01*
X133019000Y-40665564D01*
X133083600Y-40990330D01*
X133210317Y-41296252D01*
X133394282Y-41571575D01*
X133628425Y-41805718D01*
X133903748Y-41989683D01*
X134209670Y-42116400D01*
X134534436Y-42181000D01*
X134865564Y-42181000D01*
X135190330Y-42116400D01*
X135496252Y-41989683D01*
X135771575Y-41805718D01*
X136005718Y-41571575D01*
X136189683Y-41296252D01*
X136234802Y-41187326D01*
X136263932Y-41241825D01*
X136282336Y-41264250D01*
X136374025Y-41375975D01*
X136407645Y-41403566D01*
X136621434Y-41617355D01*
X136649025Y-41650975D01*
X136783175Y-41761068D01*
X136936225Y-41842875D01*
X137102294Y-41893252D01*
X137231727Y-41906000D01*
X137231730Y-41906000D01*
X137275000Y-41910262D01*
X137318270Y-41906000D01*
X137754181Y-41906000D01*
X137807821Y-41934671D01*
X137926538Y-41970683D01*
X138049999Y-41982843D01*
X138211922Y-41982843D01*
X139121439Y-42892361D01*
X139149025Y-42925975D01*
X139182637Y-42953559D01*
X139283174Y-43036068D01*
X139324532Y-43058174D01*
X139436225Y-43117875D01*
X139602294Y-43168252D01*
X139731727Y-43181000D01*
X139731729Y-43181000D01*
X139774999Y-43185262D01*
X139818269Y-43181000D01*
X139991595Y-43181000D01*
X139996299Y-43196508D01*
X140031678Y-43262696D01*
X140079289Y-43320711D01*
X140137304Y-43368322D01*
X140203492Y-43403701D01*
X140275311Y-43425487D01*
X140350000Y-43432843D01*
X142350000Y-43432843D01*
X142424689Y-43425487D01*
X142496508Y-43403701D01*
X142562696Y-43368322D01*
X142620711Y-43320711D01*
X142668322Y-43262696D01*
X142703701Y-43196508D01*
X142725487Y-43124689D01*
X142732843Y-43050000D01*
X142732843Y-41550000D01*
X142725487Y-41475311D01*
X142703701Y-41403492D01*
X142668322Y-41337304D01*
X142620711Y-41279289D01*
X142562696Y-41231678D01*
X142496508Y-41196299D01*
X142424689Y-41174513D01*
X142350000Y-41167157D01*
X140350000Y-41167157D01*
X140275311Y-41174513D01*
X140203492Y-41196299D01*
X140137304Y-41231678D01*
X140079289Y-41279289D01*
X140043644Y-41322723D01*
X139582843Y-40861922D01*
X139582843Y-40699999D01*
X139570683Y-40576538D01*
X139534671Y-40457821D01*
X139476190Y-40348411D01*
X139397488Y-40252512D01*
X139301589Y-40173810D01*
X139192179Y-40115329D01*
X139073462Y-40079317D01*
X138950001Y-40067157D01*
X138049999Y-40067157D01*
X137926538Y-40079317D01*
X137881000Y-40093131D01*
X137881000Y-39932199D01*
X138031750Y-39931000D01*
X138127000Y-39835750D01*
X138127000Y-39348000D01*
X138873000Y-39348000D01*
X138873000Y-39835750D01*
X138968250Y-39931000D01*
X139200000Y-39932843D01*
X139274689Y-39925487D01*
X139346508Y-39903701D01*
X139412696Y-39868322D01*
X139470711Y-39820711D01*
X139518322Y-39762696D01*
X139553701Y-39696508D01*
X139575487Y-39624689D01*
X139582843Y-39550000D01*
X139581000Y-39443250D01*
X139485750Y-39348000D01*
X138873000Y-39348000D01*
X138127000Y-39348000D01*
X137735927Y-39348000D01*
X137655500Y-39250000D01*
X139967157Y-39250000D01*
X139967157Y-40750000D01*
X139974513Y-40824689D01*
X139996299Y-40896508D01*
X140031678Y-40962696D01*
X140079289Y-41020711D01*
X140137304Y-41068322D01*
X140203492Y-41103701D01*
X140275311Y-41125487D01*
X140350000Y-41132843D01*
X142350000Y-41132843D01*
X142424689Y-41125487D01*
X142496508Y-41103701D01*
X142562696Y-41068322D01*
X142620711Y-41020711D01*
X142668322Y-40962696D01*
X142703701Y-40896508D01*
X142708405Y-40881000D01*
X146267157Y-40881000D01*
X146267157Y-41900000D01*
X146274513Y-41974689D01*
X146296299Y-42046508D01*
X146331678Y-42112696D01*
X146379289Y-42170711D01*
X146437304Y-42218322D01*
X146503492Y-42253701D01*
X146575311Y-42275487D01*
X146650000Y-42282843D01*
X148650000Y-42282843D01*
X148724689Y-42275487D01*
X148796508Y-42253701D01*
X148862696Y-42218322D01*
X148920711Y-42170711D01*
X148968322Y-42112696D01*
X149003701Y-42046508D01*
X149025487Y-41974689D01*
X149032843Y-41900000D01*
X149032843Y-40881000D01*
X149706730Y-40881000D01*
X149750000Y-40885262D01*
X149793270Y-40881000D01*
X149793273Y-40881000D01*
X149922706Y-40868252D01*
X150088775Y-40817875D01*
X150241825Y-40736068D01*
X150375975Y-40625975D01*
X150403566Y-40592355D01*
X152067361Y-38928561D01*
X152100975Y-38900975D01*
X152162926Y-38825487D01*
X152211068Y-38766826D01*
X152274739Y-38647705D01*
X152292875Y-38613775D01*
X152343252Y-38447706D01*
X152356000Y-38318273D01*
X152356000Y-38318271D01*
X152360262Y-38275001D01*
X152356000Y-38231731D01*
X152356000Y-37745819D01*
X152380490Y-37700000D01*
X152567157Y-37700000D01*
X152574513Y-37774689D01*
X152596299Y-37846508D01*
X152631678Y-37912696D01*
X152679289Y-37970711D01*
X152737304Y-38018322D01*
X152803492Y-38053701D01*
X152875311Y-38075487D01*
X152950000Y-38082843D01*
X153056750Y-38081000D01*
X153152000Y-37985750D01*
X153152000Y-37373000D01*
X153898000Y-37373000D01*
X153898000Y-37985750D01*
X153993250Y-38081000D01*
X154100000Y-38082843D01*
X154174689Y-38075487D01*
X154246508Y-38053701D01*
X154312696Y-38018322D01*
X154370711Y-37970711D01*
X154418322Y-37912696D01*
X154453701Y-37846508D01*
X154475487Y-37774689D01*
X154482843Y-37700000D01*
X154481000Y-37468250D01*
X154385750Y-37373000D01*
X153898000Y-37373000D01*
X153152000Y-37373000D01*
X152664250Y-37373000D01*
X152569000Y-37468250D01*
X152567157Y-37700000D01*
X152380490Y-37700000D01*
X152384671Y-37692179D01*
X152420683Y-37573462D01*
X152432843Y-37450001D01*
X152432843Y-36549999D01*
X152420683Y-36426538D01*
X152384671Y-36307821D01*
X152380491Y-36300000D01*
X152567157Y-36300000D01*
X152569000Y-36531750D01*
X152664250Y-36627000D01*
X153152000Y-36627000D01*
X153152000Y-36014250D01*
X153898000Y-36014250D01*
X153898000Y-36627000D01*
X154385750Y-36627000D01*
X154481000Y-36531750D01*
X154482843Y-36300000D01*
X154475487Y-36225311D01*
X154453701Y-36153492D01*
X154418322Y-36087304D01*
X154370711Y-36029289D01*
X154312696Y-35981678D01*
X154246508Y-35946299D01*
X154174689Y-35924513D01*
X154100000Y-35917157D01*
X153993250Y-35919000D01*
X153898000Y-36014250D01*
X153152000Y-36014250D01*
X153056750Y-35919000D01*
X152950000Y-35917157D01*
X152875311Y-35924513D01*
X152803492Y-35946299D01*
X152737304Y-35981678D01*
X152679289Y-36029289D01*
X152631678Y-36087304D01*
X152596299Y-36153492D01*
X152574513Y-36225311D01*
X152567157Y-36300000D01*
X152380491Y-36300000D01*
X152356000Y-36254181D01*
X152356000Y-35568273D01*
X152360262Y-35525000D01*
X152343252Y-35352294D01*
X152292875Y-35186225D01*
X152211068Y-35033175D01*
X152100975Y-34899025D01*
X151973408Y-34794335D01*
X152028491Y-34727216D01*
X152100804Y-34591928D01*
X152439646Y-34591928D01*
X152568465Y-34795991D01*
X152734619Y-34971002D01*
X152931724Y-35110235D01*
X152988074Y-35140336D01*
X153167000Y-35112753D01*
X153167000Y-34413000D01*
X153913000Y-34413000D01*
X153913000Y-35112753D01*
X154091926Y-35140336D01*
X154148276Y-35110235D01*
X154345381Y-34971002D01*
X154511535Y-34795991D01*
X154640354Y-34591928D01*
X154617897Y-34413000D01*
X153913000Y-34413000D01*
X153167000Y-34413000D01*
X152462103Y-34413000D01*
X152439646Y-34591928D01*
X152100804Y-34591928D01*
X152142798Y-34513363D01*
X152213188Y-34281318D01*
X152236956Y-34040000D01*
X152213188Y-33798682D01*
X152142798Y-33566637D01*
X152100805Y-33488072D01*
X152439646Y-33488072D01*
X152462103Y-33667000D01*
X153167000Y-33667000D01*
X153167000Y-32967247D01*
X153913000Y-32967247D01*
X153913000Y-33667000D01*
X154617897Y-33667000D01*
X154640354Y-33488072D01*
X154511535Y-33284009D01*
X154345381Y-33108998D01*
X154148276Y-32969765D01*
X154091926Y-32939664D01*
X153913000Y-32967247D01*
X153167000Y-32967247D01*
X152988074Y-32939664D01*
X152931724Y-32969765D01*
X152734619Y-33108998D01*
X152568465Y-33284009D01*
X152439646Y-33488072D01*
X152100805Y-33488072D01*
X152028491Y-33352784D01*
X151881000Y-33173065D01*
X151881000Y-32729790D01*
X151924689Y-32725487D01*
X151996508Y-32703701D01*
X152062696Y-32668322D01*
X152120711Y-32620711D01*
X152168322Y-32562696D01*
X152203701Y-32496508D01*
X152225487Y-32424689D01*
X152232843Y-32350000D01*
X152232843Y-32051928D01*
X152439646Y-32051928D01*
X152568465Y-32255991D01*
X152734619Y-32431002D01*
X152931724Y-32570235D01*
X152988074Y-32600336D01*
X153167000Y-32572753D01*
X153167000Y-31873000D01*
X153913000Y-31873000D01*
X153913000Y-32572753D01*
X154091926Y-32600336D01*
X154148276Y-32570235D01*
X154345381Y-32431002D01*
X154511535Y-32255991D01*
X154640354Y-32051928D01*
X154617897Y-31873000D01*
X153913000Y-31873000D01*
X153167000Y-31873000D01*
X152462103Y-31873000D01*
X152439646Y-32051928D01*
X152232843Y-32051928D01*
X152232843Y-30948072D01*
X152439646Y-30948072D01*
X152462103Y-31127000D01*
X153167000Y-31127000D01*
X153167000Y-30427247D01*
X153913000Y-30427247D01*
X153913000Y-31127000D01*
X154617897Y-31127000D01*
X154640354Y-30948072D01*
X154511535Y-30744009D01*
X154345381Y-30568998D01*
X154148276Y-30429765D01*
X154091926Y-30399664D01*
X153913000Y-30427247D01*
X153167000Y-30427247D01*
X152988074Y-30399664D01*
X152931724Y-30429765D01*
X152734619Y-30568998D01*
X152568465Y-30744009D01*
X152439646Y-30948072D01*
X152232843Y-30948072D01*
X152232843Y-30650000D01*
X152225487Y-30575311D01*
X152203701Y-30503492D01*
X152168322Y-30437304D01*
X152120711Y-30379289D01*
X152062696Y-30331678D01*
X151996508Y-30296299D01*
X151924689Y-30274513D01*
X151850000Y-30267157D01*
X150150000Y-30267157D01*
X150075311Y-30274513D01*
X150003492Y-30296299D01*
X149937304Y-30331678D01*
X149879289Y-30379289D01*
X149831678Y-30437304D01*
X149796299Y-30503492D01*
X149774513Y-30575311D01*
X149767157Y-30650000D01*
X149767157Y-32350000D01*
X149774513Y-32424689D01*
X149796299Y-32496508D01*
X149831678Y-32562696D01*
X149879289Y-32620711D01*
X149937304Y-32668322D01*
X150003492Y-32703701D01*
X150075311Y-32725487D01*
X150119000Y-32729790D01*
X150119001Y-33173065D01*
X149971509Y-33352784D01*
X149857202Y-33566637D01*
X149786812Y-33798682D01*
X149763044Y-34040000D01*
X149786812Y-34281318D01*
X149857202Y-34513363D01*
X149971509Y-34727216D01*
X150119000Y-34906935D01*
X150119000Y-35198810D01*
X150114738Y-35242081D01*
X150119000Y-35285351D01*
X150119000Y-35285353D01*
X150131748Y-35414786D01*
X150182125Y-35580855D01*
X150263932Y-35733906D01*
X150301021Y-35779098D01*
X150374025Y-35868056D01*
X150407645Y-35895647D01*
X150594001Y-36082003D01*
X150594001Y-36254181D01*
X150565329Y-36307821D01*
X150529317Y-36426538D01*
X150517157Y-36549999D01*
X150517157Y-37450001D01*
X150529317Y-37573462D01*
X150565329Y-37692179D01*
X150594001Y-37745820D01*
X150594001Y-37910077D01*
X149385079Y-39119000D01*
X149032843Y-39119000D01*
X149032843Y-38100000D01*
X149025487Y-38025311D01*
X149003701Y-37953492D01*
X148968322Y-37887304D01*
X148920711Y-37829289D01*
X148862696Y-37781678D01*
X148796508Y-37746299D01*
X148724689Y-37724513D01*
X148650000Y-37717157D01*
X146650000Y-37717157D01*
X146575311Y-37724513D01*
X146503492Y-37746299D01*
X146437304Y-37781678D01*
X146379289Y-37829289D01*
X146331678Y-37887304D01*
X146296299Y-37953492D01*
X146274513Y-38025311D01*
X146267157Y-38100000D01*
X146267157Y-39119000D01*
X142708405Y-39119000D01*
X142703701Y-39103492D01*
X142668322Y-39037304D01*
X142620711Y-38979289D01*
X142562696Y-38931678D01*
X142496508Y-38896299D01*
X142424689Y-38874513D01*
X142350000Y-38867157D01*
X140350000Y-38867157D01*
X140275311Y-38874513D01*
X140203492Y-38896299D01*
X140137304Y-38931678D01*
X140079289Y-38979289D01*
X140031678Y-39037304D01*
X139996299Y-39103492D01*
X139974513Y-39175311D01*
X139967157Y-39250000D01*
X137655500Y-39250000D01*
X137653559Y-39247635D01*
X137625975Y-39214023D01*
X137592361Y-39186437D01*
X136805924Y-38400000D01*
X137417157Y-38400000D01*
X137419000Y-38506750D01*
X137514250Y-38602000D01*
X138127000Y-38602000D01*
X138127000Y-38114250D01*
X138873000Y-38114250D01*
X138873000Y-38602000D01*
X139485750Y-38602000D01*
X139581000Y-38506750D01*
X139581979Y-38450000D01*
X139967157Y-38450000D01*
X139974513Y-38524689D01*
X139996299Y-38596508D01*
X140031678Y-38662696D01*
X140079289Y-38720711D01*
X140137304Y-38768322D01*
X140203492Y-38803701D01*
X140275311Y-38825487D01*
X140350000Y-38832843D01*
X140881750Y-38831000D01*
X140977000Y-38735750D01*
X140977000Y-38073000D01*
X141723000Y-38073000D01*
X141723000Y-38735750D01*
X141818250Y-38831000D01*
X142350000Y-38832843D01*
X142424689Y-38825487D01*
X142496508Y-38803701D01*
X142562696Y-38768322D01*
X142620711Y-38720711D01*
X142668322Y-38662696D01*
X142703701Y-38596508D01*
X142725487Y-38524689D01*
X142732843Y-38450000D01*
X142731000Y-38168250D01*
X142635750Y-38073000D01*
X141723000Y-38073000D01*
X140977000Y-38073000D01*
X140064250Y-38073000D01*
X139969000Y-38168250D01*
X139967157Y-38450000D01*
X139581979Y-38450000D01*
X139582843Y-38400000D01*
X139575487Y-38325311D01*
X139553701Y-38253492D01*
X139518322Y-38187304D01*
X139470711Y-38129289D01*
X139412696Y-38081678D01*
X139346508Y-38046299D01*
X139274689Y-38024513D01*
X139200000Y-38017157D01*
X138968250Y-38019000D01*
X138873000Y-38114250D01*
X138127000Y-38114250D01*
X138031750Y-38019000D01*
X137800000Y-38017157D01*
X137725311Y-38024513D01*
X137653492Y-38046299D01*
X137587304Y-38081678D01*
X137529289Y-38129289D01*
X137481678Y-38187304D01*
X137446299Y-38253492D01*
X137424513Y-38325311D01*
X137417157Y-38400000D01*
X136805924Y-38400000D01*
X135355924Y-36950000D01*
X139967157Y-36950000D01*
X139969000Y-37231750D01*
X140064250Y-37327000D01*
X140977000Y-37327000D01*
X140977000Y-36664250D01*
X141723000Y-36664250D01*
X141723000Y-37327000D01*
X142635750Y-37327000D01*
X142731000Y-37231750D01*
X142732843Y-36950000D01*
X142725487Y-36875311D01*
X142703701Y-36803492D01*
X142668322Y-36737304D01*
X142620711Y-36679289D01*
X142562696Y-36631678D01*
X142496508Y-36596299D01*
X142424689Y-36574513D01*
X142350000Y-36567157D01*
X141818250Y-36569000D01*
X141723000Y-36664250D01*
X140977000Y-36664250D01*
X140881750Y-36569000D01*
X140350000Y-36567157D01*
X140275311Y-36574513D01*
X140203492Y-36596299D01*
X140137304Y-36631678D01*
X140079289Y-36679289D01*
X140031678Y-36737304D01*
X139996299Y-36803492D01*
X139974513Y-36875311D01*
X139967157Y-36950000D01*
X135355924Y-36950000D01*
X135313568Y-36907645D01*
X135285977Y-36874025D01*
X135151827Y-36763932D01*
X134998777Y-36682125D01*
X134832708Y-36631748D01*
X134703275Y-36619000D01*
X134703272Y-36619000D01*
X134660002Y-36614738D01*
X134616732Y-36619000D01*
X131682843Y-36619000D01*
X131682843Y-36200000D01*
X131675487Y-36125311D01*
X131653701Y-36053492D01*
X131618322Y-35987304D01*
X131570711Y-35929289D01*
X131512696Y-35881678D01*
X131446508Y-35846299D01*
X131374689Y-35824513D01*
X131300000Y-35817157D01*
X128700000Y-35817157D01*
X128625311Y-35824513D01*
X128553492Y-35846299D01*
X128487304Y-35881678D01*
X128429289Y-35929289D01*
X128381678Y-35987304D01*
X128346299Y-36053492D01*
X128324513Y-36125311D01*
X128317157Y-36200000D01*
X128317157Y-36619000D01*
X122043273Y-36619000D01*
X122000000Y-36614738D01*
X121956727Y-36619000D01*
X120338978Y-36619000D01*
X120296508Y-36596299D01*
X120224689Y-36574513D01*
X120150000Y-36567157D01*
X118150000Y-36567157D01*
X118075311Y-36574513D01*
X118003492Y-36596299D01*
X117937304Y-36631678D01*
X117879289Y-36679289D01*
X117831678Y-36737304D01*
X117796299Y-36803492D01*
X117774513Y-36875311D01*
X117767157Y-36950000D01*
X107432843Y-36950000D01*
X107432843Y-36549999D01*
X107420683Y-36426538D01*
X107384671Y-36307821D01*
X107380491Y-36300000D01*
X107567157Y-36300000D01*
X107569000Y-36531750D01*
X107664250Y-36627000D01*
X108152000Y-36627000D01*
X108152000Y-36014250D01*
X108898000Y-36014250D01*
X108898000Y-36627000D01*
X109385750Y-36627000D01*
X109481000Y-36531750D01*
X109482843Y-36300000D01*
X109475487Y-36225311D01*
X109453701Y-36153492D01*
X109418322Y-36087304D01*
X109370711Y-36029289D01*
X109312696Y-35981678D01*
X109246508Y-35946299D01*
X109174689Y-35924513D01*
X109100000Y-35917157D01*
X108993250Y-35919000D01*
X108898000Y-36014250D01*
X108152000Y-36014250D01*
X108056750Y-35919000D01*
X107950000Y-35917157D01*
X107875311Y-35924513D01*
X107803492Y-35946299D01*
X107737304Y-35981678D01*
X107679289Y-36029289D01*
X107631678Y-36087304D01*
X107596299Y-36153492D01*
X107574513Y-36225311D01*
X107567157Y-36300000D01*
X107380491Y-36300000D01*
X107341000Y-36226118D01*
X107341000Y-34906935D01*
X107488491Y-34727216D01*
X107560804Y-34591928D01*
X107899646Y-34591928D01*
X108028465Y-34795991D01*
X108194619Y-34971002D01*
X108391724Y-35110235D01*
X108448074Y-35140336D01*
X108627000Y-35112753D01*
X108627000Y-34413000D01*
X109373000Y-34413000D01*
X109373000Y-35112753D01*
X109551926Y-35140336D01*
X109608276Y-35110235D01*
X109805381Y-34971002D01*
X109971535Y-34795991D01*
X110100354Y-34591928D01*
X110077897Y-34413000D01*
X109373000Y-34413000D01*
X108627000Y-34413000D01*
X107922103Y-34413000D01*
X107899646Y-34591928D01*
X107560804Y-34591928D01*
X107602798Y-34513363D01*
X107673188Y-34281318D01*
X107696956Y-34040000D01*
X107673188Y-33798682D01*
X107602798Y-33566637D01*
X107560805Y-33488072D01*
X107899646Y-33488072D01*
X107922103Y-33667000D01*
X108627000Y-33667000D01*
X108627000Y-32967247D01*
X109373000Y-32967247D01*
X109373000Y-33667000D01*
X110077897Y-33667000D01*
X110100354Y-33488072D01*
X109971535Y-33284009D01*
X109805381Y-33108998D01*
X109608276Y-32969765D01*
X109551926Y-32939664D01*
X109373000Y-32967247D01*
X108627000Y-32967247D01*
X108448074Y-32939664D01*
X108391724Y-32969765D01*
X108194619Y-33108998D01*
X108028465Y-33284009D01*
X107899646Y-33488072D01*
X107560805Y-33488072D01*
X107488491Y-33352784D01*
X107341000Y-33173065D01*
X107341000Y-32729790D01*
X107384689Y-32725487D01*
X107456508Y-32703701D01*
X107522696Y-32668322D01*
X107580711Y-32620711D01*
X107628322Y-32562696D01*
X107663701Y-32496508D01*
X107685487Y-32424689D01*
X107692843Y-32350000D01*
X107692843Y-32051928D01*
X107899646Y-32051928D01*
X108028465Y-32255991D01*
X108194619Y-32431002D01*
X108391724Y-32570235D01*
X108448074Y-32600336D01*
X108627000Y-32572753D01*
X108627000Y-31873000D01*
X109373000Y-31873000D01*
X109373000Y-32572753D01*
X109551926Y-32600336D01*
X109608276Y-32570235D01*
X109805381Y-32431002D01*
X109971535Y-32255991D01*
X110100354Y-32051928D01*
X110077897Y-31873000D01*
X109373000Y-31873000D01*
X108627000Y-31873000D01*
X107922103Y-31873000D01*
X107899646Y-32051928D01*
X107692843Y-32051928D01*
X107692843Y-30948072D01*
X107899646Y-30948072D01*
X107922103Y-31127000D01*
X108627000Y-31127000D01*
X108627000Y-30427247D01*
X109373000Y-30427247D01*
X109373000Y-31127000D01*
X110077897Y-31127000D01*
X110100354Y-30948072D01*
X109971535Y-30744009D01*
X109805381Y-30568998D01*
X109608276Y-30429765D01*
X109551926Y-30399664D01*
X109373000Y-30427247D01*
X108627000Y-30427247D01*
X108448074Y-30399664D01*
X108391724Y-30429765D01*
X108194619Y-30568998D01*
X108028465Y-30744009D01*
X107899646Y-30948072D01*
X107692843Y-30948072D01*
X107692843Y-30650000D01*
X107685487Y-30575311D01*
X107663701Y-30503492D01*
X107628322Y-30437304D01*
X107580711Y-30379289D01*
X107522696Y-30331678D01*
X107456508Y-30296299D01*
X107384689Y-30274513D01*
X107310000Y-30267157D01*
X105610000Y-30267157D01*
X105535311Y-30274513D01*
X105463492Y-30296299D01*
X105397304Y-30331678D01*
X105339289Y-30379289D01*
X105291678Y-30437304D01*
X105256299Y-30503492D01*
X105234513Y-30575311D01*
X105227157Y-30650000D01*
X105227157Y-32350000D01*
X105234513Y-32424689D01*
X105256299Y-32496508D01*
X105291678Y-32562696D01*
X105339289Y-32620711D01*
X105397304Y-32668322D01*
X105463492Y-32703701D01*
X105535311Y-32725487D01*
X105579000Y-32729790D01*
X105579001Y-33173065D01*
X105431509Y-33352784D01*
X105317202Y-33566637D01*
X105246812Y-33798682D01*
X105223044Y-34040000D01*
X105081000Y-34040000D01*
X105081000Y-30081000D01*
X110419000Y-30081000D01*
X110419001Y-34278540D01*
X110419001Y-34278540D01*
G37*
X110419001Y-34278540D02*
X110421424Y-34303141D01*
X110421403Y-34306148D01*
X110422195Y-34314221D01*
X110427290Y-34362698D01*
X110427408Y-34363896D01*
X110427420Y-34363936D01*
X110432395Y-34411270D01*
X110442986Y-34462867D01*
X110452851Y-34514579D01*
X110455195Y-34522345D01*
X110484051Y-34615564D01*
X110504457Y-34664107D01*
X110524185Y-34712935D01*
X110527994Y-34720098D01*
X110574406Y-34805936D01*
X110603880Y-34849632D01*
X110632687Y-34893653D01*
X110637810Y-34899935D01*
X110637814Y-34899941D01*
X110637819Y-34899946D01*
X110700015Y-34975129D01*
X110737365Y-35012219D01*
X110774220Y-35049854D01*
X110780470Y-35055025D01*
X110856091Y-35116701D01*
X110899961Y-35145848D01*
X110943408Y-35175596D01*
X110950544Y-35179455D01*
X111036705Y-35225267D01*
X111085409Y-35245341D01*
X111133786Y-35266076D01*
X111141536Y-35268475D01*
X111141540Y-35268477D01*
X111141545Y-35268478D01*
X111234953Y-35296680D01*
X111286617Y-35306910D01*
X111338122Y-35317857D01*
X111346179Y-35318704D01*
X111346185Y-35318705D01*
X111346190Y-35318705D01*
X111443047Y-35328201D01*
X111471460Y-35331000D01*
X148528540Y-35331000D01*
X148553150Y-35328576D01*
X148556148Y-35328597D01*
X148564221Y-35327805D01*
X148612546Y-35322726D01*
X148613896Y-35322593D01*
X148613941Y-35322579D01*
X148661270Y-35317605D01*
X148712867Y-35307014D01*
X148764579Y-35297149D01*
X148772345Y-35294805D01*
X148865564Y-35265949D01*
X148914107Y-35245543D01*
X148962935Y-35225815D01*
X148970091Y-35222010D01*
X148970095Y-35222008D01*
X148970098Y-35222006D01*
X149055936Y-35175594D01*
X149099632Y-35146120D01*
X149143653Y-35117313D01*
X149149938Y-35112188D01*
X149149941Y-35112186D01*
X149149946Y-35112181D01*
X149225129Y-35049985D01*
X149262219Y-35012635D01*
X149299854Y-34975780D01*
X149305025Y-34969530D01*
X149366701Y-34893909D01*
X149395848Y-34850039D01*
X149425596Y-34806592D01*
X149429455Y-34799456D01*
X149475267Y-34713295D01*
X149495341Y-34664591D01*
X149516076Y-34616214D01*
X149518475Y-34608465D01*
X149546680Y-34515047D01*
X149556910Y-34463383D01*
X149567857Y-34411878D01*
X149568704Y-34403821D01*
X149568705Y-34403815D01*
X149568705Y-34403810D01*
X149578227Y-34306693D01*
X149581000Y-34278540D01*
X149581000Y-30081000D01*
X154919000Y-30081000D01*
X154919001Y-51169000D01*
X105081000Y-51169000D01*
X105081000Y-46699999D01*
X112417157Y-46699999D01*
X112417157Y-47350001D01*
X112429317Y-47473462D01*
X112465329Y-47592179D01*
X112523810Y-47701589D01*
X112602512Y-47797488D01*
X112698411Y-47876190D01*
X112807821Y-47934671D01*
X112926538Y-47970683D01*
X113049999Y-47982843D01*
X113341571Y-47982843D01*
X113728404Y-48246101D01*
X113764919Y-48276068D01*
X113838138Y-48315204D01*
X113911027Y-48354965D01*
X113914635Y-48356093D01*
X113917969Y-48357875D01*
X113997480Y-48381995D01*
X114076662Y-48406751D01*
X114080415Y-48407153D01*
X114084038Y-48408252D01*
X114166791Y-48416402D01*
X114249217Y-48425229D01*
X114296254Y-48421000D01*
X118319392Y-48421000D01*
X118433410Y-48535018D01*
X118643219Y-48675207D01*
X118876346Y-48771772D01*
X119123833Y-48821000D01*
X119376167Y-48821000D01*
X119623654Y-48771772D01*
X119856781Y-48675207D01*
X120066590Y-48535018D01*
X120245018Y-48356590D01*
X120385207Y-48146781D01*
X120481772Y-47913654D01*
X120531000Y-47666167D01*
X120531000Y-47413833D01*
X120481772Y-47166346D01*
X120385207Y-46933219D01*
X120245018Y-46723410D01*
X120066590Y-46544982D01*
X119856781Y-46404793D01*
X119623654Y-46308228D01*
X119486769Y-46281000D01*
X119623002Y-46281000D01*
X119623002Y-46185752D01*
X119718250Y-46281000D01*
X120150000Y-46282843D01*
X120224689Y-46275487D01*
X120296508Y-46253701D01*
X120362696Y-46218322D01*
X120420711Y-46170711D01*
X120468322Y-46112696D01*
X120503701Y-46046508D01*
X120525487Y-45974689D01*
X120532843Y-45900000D01*
X120531000Y-45468250D01*
X120435750Y-45373000D01*
X119623000Y-45373000D01*
X119623000Y-45393000D01*
X118877000Y-45393000D01*
X118877000Y-45373000D01*
X118064250Y-45373000D01*
X117969000Y-45468250D01*
X117967157Y-45900000D01*
X117974513Y-45974689D01*
X117996299Y-46046508D01*
X118031678Y-46112696D01*
X118079289Y-46170711D01*
X118137304Y-46218322D01*
X118203492Y-46253701D01*
X118275311Y-46275487D01*
X118350000Y-46282843D01*
X118781750Y-46281000D01*
X118876998Y-46185752D01*
X118876998Y-46281000D01*
X119013231Y-46281000D01*
X118876346Y-46308228D01*
X118643219Y-46404793D01*
X118433410Y-46544982D01*
X118319392Y-46659000D01*
X114578805Y-46659000D01*
X114570683Y-46576538D01*
X114534671Y-46457821D01*
X114476190Y-46348411D01*
X114397488Y-46252512D01*
X114301589Y-46173810D01*
X114192179Y-46115329D01*
X114073462Y-46079317D01*
X113950001Y-46067157D01*
X113049999Y-46067157D01*
X112926538Y-46079317D01*
X112807821Y-46115329D01*
X112698411Y-46173810D01*
X112602512Y-46252512D01*
X112523810Y-46348411D01*
X112465329Y-46457821D01*
X112429317Y-46576538D01*
X112417157Y-46699999D01*
X105081000Y-46699999D01*
X105081000Y-34040000D01*
X105223044Y-34040000D01*
X105246812Y-34281318D01*
X105317202Y-34513363D01*
X105431509Y-34727216D01*
X105579000Y-34906935D01*
X105579001Y-36282243D01*
X105565329Y-36307821D01*
X105529317Y-36426538D01*
X105517157Y-36549999D01*
X105517157Y-37450001D01*
X105529317Y-37573462D01*
X105565329Y-37692179D01*
X105594000Y-37745819D01*
X105594000Y-37843273D01*
X105606749Y-37972706D01*
X105656739Y-38137499D01*
X105606749Y-38302295D01*
X105589738Y-38475000D01*
X105606749Y-38647705D01*
X105657125Y-38813774D01*
X105738932Y-38966825D01*
X105821441Y-39067362D01*
X107346439Y-40592361D01*
X107374025Y-40625975D01*
X107422265Y-40665564D01*
X107508174Y-40736068D01*
X107615196Y-40793272D01*
X107661225Y-40817875D01*
X107827294Y-40868252D01*
X107956727Y-40881000D01*
X107956730Y-40881000D01*
X108000000Y-40885262D01*
X108043270Y-40881000D01*
X111467157Y-40881000D01*
X111467157Y-41900000D01*
X111474513Y-41974689D01*
X111496299Y-42046508D01*
X111531678Y-42112696D01*
X111579289Y-42170711D01*
X111637304Y-42218322D01*
X111703492Y-42253701D01*
X111775311Y-42275487D01*
X111850000Y-42282843D01*
X111969001Y-42282843D01*
X111969001Y-42856720D01*
X111964738Y-42900000D01*
X111981749Y-43072705D01*
X112032125Y-43238774D01*
X112113932Y-43391825D01*
X112147595Y-43432843D01*
X112224026Y-43525975D01*
X112257640Y-43553561D01*
X112619000Y-43914922D01*
X112619000Y-44188980D01*
X112602512Y-44202512D01*
X112523810Y-44298411D01*
X112465329Y-44407821D01*
X112429317Y-44526538D01*
X112417157Y-44649999D01*
X112417157Y-45300001D01*
X112429317Y-45423462D01*
X112465329Y-45542179D01*
X112523810Y-45651589D01*
X112602512Y-45747488D01*
X112698411Y-45826190D01*
X112807821Y-45884671D01*
X112926538Y-45920683D01*
X113049999Y-45932843D01*
X113950001Y-45932843D01*
X114073462Y-45920683D01*
X114192179Y-45884671D01*
X114301589Y-45826190D01*
X114397488Y-45747488D01*
X114476190Y-45651589D01*
X114534671Y-45542179D01*
X114570683Y-45423462D01*
X114582843Y-45300001D01*
X114582843Y-44859501D01*
X129168000Y-44859501D01*
X129333425Y-45052048D01*
X129649023Y-45152267D01*
X129978108Y-45188992D01*
X130308035Y-45160809D01*
X130626123Y-45068803D01*
X130666575Y-45052048D01*
X130832000Y-44859501D01*
X130000000Y-44027502D01*
X129168000Y-44859501D01*
X114582843Y-44859501D01*
X114582843Y-44649999D01*
X114570683Y-44526538D01*
X114534671Y-44407821D01*
X114476190Y-44298411D01*
X114397488Y-44202512D01*
X114381000Y-44188981D01*
X114381000Y-44100000D01*
X117967157Y-44100000D01*
X117969000Y-44531750D01*
X118064250Y-44627000D01*
X118877000Y-44627000D01*
X118877000Y-43814250D01*
X119623000Y-43814250D01*
X119623000Y-44627000D01*
X120435750Y-44627000D01*
X120531000Y-44531750D01*
X120532843Y-44100000D01*
X120525487Y-44025311D01*
X120503701Y-43953492D01*
X120468322Y-43887304D01*
X120420711Y-43829289D01*
X120362696Y-43781678D01*
X120296508Y-43746299D01*
X120224689Y-43724513D01*
X120150000Y-43717157D01*
X119718250Y-43719000D01*
X119623000Y-43814250D01*
X118877000Y-43814250D01*
X118781750Y-43719000D01*
X118350000Y-43717157D01*
X118275311Y-43724513D01*
X118203492Y-43746299D01*
X118137304Y-43781678D01*
X118079289Y-43829289D01*
X118031678Y-43887304D01*
X117996299Y-43953492D01*
X117974513Y-44025311D01*
X117967157Y-44100000D01*
X114381000Y-44100000D01*
X114381000Y-43593270D01*
X114385262Y-43550000D01*
X114378181Y-43478108D01*
X128311008Y-43478108D01*
X128339191Y-43808035D01*
X128431197Y-44126123D01*
X128447952Y-44166575D01*
X128640499Y-44332000D01*
X129472498Y-43500000D01*
X130527502Y-43500000D01*
X131359501Y-44332000D01*
X131552048Y-44166575D01*
X131652267Y-43850977D01*
X131688992Y-43521892D01*
X131660809Y-43191965D01*
X131568803Y-42873877D01*
X131552048Y-42833425D01*
X131359501Y-42668000D01*
X130527502Y-43500000D01*
X129472498Y-43500000D01*
X128640499Y-42668000D01*
X128447952Y-42833425D01*
X128347733Y-43149023D01*
X128311008Y-43478108D01*
X114378181Y-43478108D01*
X114368252Y-43377294D01*
X114317875Y-43211225D01*
X114307580Y-43191965D01*
X114236068Y-43058174D01*
X114229360Y-43050000D01*
X117767157Y-43050000D01*
X117774513Y-43124689D01*
X117796299Y-43196508D01*
X117831678Y-43262696D01*
X117879289Y-43320711D01*
X117937304Y-43368322D01*
X118003492Y-43403701D01*
X118075311Y-43425487D01*
X118150000Y-43432843D01*
X118681750Y-43431000D01*
X118777000Y-43335750D01*
X118777000Y-42673000D01*
X119523000Y-42673000D01*
X119523000Y-43335750D01*
X119618250Y-43431000D01*
X120150000Y-43432843D01*
X120224689Y-43425487D01*
X120296508Y-43403701D01*
X120362696Y-43368322D01*
X120420711Y-43320711D01*
X120468322Y-43262696D01*
X120503701Y-43196508D01*
X120525487Y-43124689D01*
X120532843Y-43050000D01*
X120531000Y-42768250D01*
X120435750Y-42673000D01*
X119523000Y-42673000D01*
X118777000Y-42673000D01*
X117864250Y-42673000D01*
X117769000Y-42768250D01*
X117767157Y-43050000D01*
X114229360Y-43050000D01*
X114153559Y-42957637D01*
X114125975Y-42924025D01*
X114092361Y-42896440D01*
X113731000Y-42535079D01*
X113731000Y-42282843D01*
X113850000Y-42282843D01*
X113924689Y-42275487D01*
X113996508Y-42253701D01*
X114062696Y-42218322D01*
X114120711Y-42170711D01*
X114145504Y-42140499D01*
X129168000Y-42140499D01*
X130000000Y-42972498D01*
X130832000Y-42140499D01*
X130666575Y-41947952D01*
X130350977Y-41847733D01*
X130021892Y-41811008D01*
X129691965Y-41839191D01*
X129373877Y-41931197D01*
X129333425Y-41947952D01*
X129168000Y-42140499D01*
X114145504Y-42140499D01*
X114168322Y-42112696D01*
X114203701Y-42046508D01*
X114225487Y-41974689D01*
X114232843Y-41900000D01*
X114232843Y-41550000D01*
X117767157Y-41550000D01*
X117769000Y-41831750D01*
X117864250Y-41927000D01*
X118777000Y-41927000D01*
X118777000Y-41264250D01*
X119523000Y-41264250D01*
X119523000Y-41927000D01*
X120435750Y-41927000D01*
X120531000Y-41831750D01*
X120532515Y-41600000D01*
X120917157Y-41600000D01*
X120924513Y-41674689D01*
X120946299Y-41746508D01*
X120981678Y-41812696D01*
X121029289Y-41870711D01*
X121087304Y-41918322D01*
X121153492Y-41953701D01*
X121225311Y-41975487D01*
X121300000Y-41982843D01*
X121531750Y-41981000D01*
X121627000Y-41885750D01*
X121627000Y-41398000D01*
X122373000Y-41398000D01*
X122373000Y-41885750D01*
X122468250Y-41981000D01*
X122700000Y-41982843D01*
X122774689Y-41975487D01*
X122846508Y-41953701D01*
X122912696Y-41918322D01*
X122970711Y-41870711D01*
X123018322Y-41812696D01*
X123053701Y-41746508D01*
X123075487Y-41674689D01*
X123082843Y-41600000D01*
X123081000Y-41493250D01*
X122985750Y-41398000D01*
X122373000Y-41398000D01*
X121627000Y-41398000D01*
X121014250Y-41398000D01*
X120919000Y-41493250D01*
X120917157Y-41600000D01*
X120532515Y-41600000D01*
X120532843Y-41550000D01*
X120525487Y-41475311D01*
X120503701Y-41403492D01*
X120468322Y-41337304D01*
X120420711Y-41279289D01*
X120362696Y-41231678D01*
X120296508Y-41196299D01*
X120224689Y-41174513D01*
X120150000Y-41167157D01*
X119618250Y-41169000D01*
X119523000Y-41264250D01*
X118777000Y-41264250D01*
X118681750Y-41169000D01*
X118150000Y-41167157D01*
X118075311Y-41174513D01*
X118003492Y-41196299D01*
X117937304Y-41231678D01*
X117879289Y-41279289D01*
X117831678Y-41337304D01*
X117796299Y-41403492D01*
X117774513Y-41475311D01*
X117767157Y-41550000D01*
X114232843Y-41550000D01*
X114232843Y-40881000D01*
X117791595Y-40881000D01*
X117796299Y-40896508D01*
X117831678Y-40962696D01*
X117879289Y-41020711D01*
X117937304Y-41068322D01*
X118003492Y-41103701D01*
X118075311Y-41125487D01*
X118150000Y-41132843D01*
X120150000Y-41132843D01*
X120224689Y-41125487D01*
X120296508Y-41103701D01*
X120362696Y-41068322D01*
X120420711Y-41020711D01*
X120468322Y-40962696D01*
X120503701Y-40896508D01*
X120525487Y-40824689D01*
X120532843Y-40750000D01*
X120532843Y-40450000D01*
X120917157Y-40450000D01*
X120919000Y-40556750D01*
X121014250Y-40652000D01*
X121627000Y-40652000D01*
X121627000Y-40164250D01*
X122373000Y-40164250D01*
X122373000Y-40652000D01*
X122985750Y-40652000D01*
X123081000Y-40556750D01*
X123082843Y-40450000D01*
X123075487Y-40375311D01*
X123053701Y-40303492D01*
X123018322Y-40237304D01*
X122970711Y-40179289D01*
X122912696Y-40131678D01*
X122846508Y-40096299D01*
X122774689Y-40074513D01*
X122700000Y-40067157D01*
X122468250Y-40069000D01*
X122373000Y-40164250D01*
X121627000Y-40164250D01*
X121531750Y-40069000D01*
X121300000Y-40067157D01*
X121225311Y-40074513D01*
X121153492Y-40096299D01*
X121087304Y-40131678D01*
X121029289Y-40179289D01*
X120981678Y-40237304D01*
X120946299Y-40303492D01*
X120924513Y-40375311D01*
X120917157Y-40450000D01*
X120532843Y-40450000D01*
X120532843Y-39250000D01*
X120525487Y-39175311D01*
X120503701Y-39103492D01*
X120468322Y-39037304D01*
X120420711Y-38979289D01*
X120362696Y-38931678D01*
X120296508Y-38896299D01*
X120224689Y-38874513D01*
X120150000Y-38867157D01*
X118150000Y-38867157D01*
X118075311Y-38874513D01*
X118003492Y-38896299D01*
X117937304Y-38931678D01*
X117879289Y-38979289D01*
X117831678Y-39037304D01*
X117796299Y-39103492D01*
X117791595Y-39119000D01*
X114232843Y-39119000D01*
X114232843Y-38100000D01*
X114225487Y-38025311D01*
X114203701Y-37953492D01*
X114168322Y-37887304D01*
X114120711Y-37829289D01*
X114062696Y-37781678D01*
X113996508Y-37746299D01*
X113924689Y-37724513D01*
X113850000Y-37717157D01*
X111850000Y-37717157D01*
X111775311Y-37724513D01*
X111703492Y-37746299D01*
X111637304Y-37781678D01*
X111579289Y-37829289D01*
X111531678Y-37887304D01*
X111496299Y-37953492D01*
X111474513Y-38025311D01*
X111467157Y-38100000D01*
X111467157Y-39119000D01*
X108364922Y-39119000D01*
X107314246Y-38068325D01*
X107343252Y-37972706D01*
X107356000Y-37843273D01*
X107356000Y-37745819D01*
X107380490Y-37700000D01*
X107567157Y-37700000D01*
X107574513Y-37774689D01*
X107596299Y-37846508D01*
X107631678Y-37912696D01*
X107679289Y-37970711D01*
X107737304Y-38018322D01*
X107803492Y-38053701D01*
X107875311Y-38075487D01*
X107950000Y-38082843D01*
X108056750Y-38081000D01*
X108152000Y-37985750D01*
X108152000Y-37373000D01*
X108898000Y-37373000D01*
X108898000Y-37985750D01*
X108993250Y-38081000D01*
X109100000Y-38082843D01*
X109174689Y-38075487D01*
X109246508Y-38053701D01*
X109312696Y-38018322D01*
X109370711Y-37970711D01*
X109418322Y-37912696D01*
X109453701Y-37846508D01*
X109475487Y-37774689D01*
X109482843Y-37700000D01*
X109481000Y-37468250D01*
X109385750Y-37373000D01*
X108898000Y-37373000D01*
X108152000Y-37373000D01*
X107664250Y-37373000D01*
X107569000Y-37468250D01*
X107567157Y-37700000D01*
X107380490Y-37700000D01*
X107384671Y-37692179D01*
X107420683Y-37573462D01*
X107432843Y-37450001D01*
X107432843Y-36950000D01*
X117767157Y-36950000D01*
X117767157Y-38450000D01*
X117774513Y-38524689D01*
X117796299Y-38596508D01*
X117831678Y-38662696D01*
X117879289Y-38720711D01*
X117937304Y-38768322D01*
X118003492Y-38803701D01*
X118075311Y-38825487D01*
X118150000Y-38832843D01*
X120150000Y-38832843D01*
X120224689Y-38825487D01*
X120296508Y-38803701D01*
X120362696Y-38768322D01*
X120420711Y-38720711D01*
X120468322Y-38662696D01*
X120503701Y-38596508D01*
X120525487Y-38524689D01*
X120532843Y-38450000D01*
X120532843Y-38381000D01*
X120979665Y-38381000D01*
X120965329Y-38407821D01*
X120929317Y-38526538D01*
X120917157Y-38649999D01*
X120917157Y-39300001D01*
X120929317Y-39423462D01*
X120965329Y-39542179D01*
X121023810Y-39651589D01*
X121102512Y-39747488D01*
X121198411Y-39826190D01*
X121307821Y-39884671D01*
X121426538Y-39920683D01*
X121549999Y-39932843D01*
X122450001Y-39932843D01*
X122573462Y-39920683D01*
X122692179Y-39884671D01*
X122801589Y-39826190D01*
X122897488Y-39747488D01*
X122976190Y-39651589D01*
X123034671Y-39542179D01*
X123070683Y-39423462D01*
X123082843Y-39300001D01*
X123082843Y-38649999D01*
X123070683Y-38526538D01*
X123034671Y-38407821D01*
X123020335Y-38381000D01*
X128317157Y-38381000D01*
X128317157Y-38800000D01*
X128324513Y-38874689D01*
X128346299Y-38946508D01*
X128381678Y-39012696D01*
X128429289Y-39070711D01*
X128487304Y-39118322D01*
X128553492Y-39153701D01*
X128625311Y-39175487D01*
X128700000Y-39182843D01*
X131300000Y-39182843D01*
X131374689Y-39175487D01*
X131446508Y-39153701D01*
X131512696Y-39118322D01*
X131570711Y-39070711D01*
X131618322Y-39012696D01*
X131653701Y-38946508D01*
X131675487Y-38874689D01*
X131682843Y-38800000D01*
X131682843Y-38381000D01*
X134295081Y-38381000D01*
X134733081Y-38819000D01*
X134534436Y-38819000D01*
X134209670Y-38883600D01*
X133903748Y-39010317D01*
X133628425Y-39194282D01*
X133394282Y-39428425D01*
X133210317Y-39703748D01*
X133083600Y-40009670D01*
X133019000Y-40334436D01*
X133019000Y-40665564D01*
X133083600Y-40990330D01*
X133210317Y-41296252D01*
X133394282Y-41571575D01*
X133628425Y-41805718D01*
X133903748Y-41989683D01*
X134209670Y-42116400D01*
X134534436Y-42181000D01*
X134865564Y-42181000D01*
X135190330Y-42116400D01*
X135496252Y-41989683D01*
X135771575Y-41805718D01*
X136005718Y-41571575D01*
X136189683Y-41296252D01*
X136234802Y-41187326D01*
X136263932Y-41241825D01*
X136282336Y-41264250D01*
X136374025Y-41375975D01*
X136407645Y-41403566D01*
X136621434Y-41617355D01*
X136649025Y-41650975D01*
X136783175Y-41761068D01*
X136936225Y-41842875D01*
X137102294Y-41893252D01*
X137231727Y-41906000D01*
X137231730Y-41906000D01*
X137275000Y-41910262D01*
X137318270Y-41906000D01*
X137754181Y-41906000D01*
X137807821Y-41934671D01*
X137926538Y-41970683D01*
X138049999Y-41982843D01*
X138211922Y-41982843D01*
X139121439Y-42892361D01*
X139149025Y-42925975D01*
X139182637Y-42953559D01*
X139283174Y-43036068D01*
X139324532Y-43058174D01*
X139436225Y-43117875D01*
X139602294Y-43168252D01*
X139731727Y-43181000D01*
X139731729Y-43181000D01*
X139774999Y-43185262D01*
X139818269Y-43181000D01*
X139991595Y-43181000D01*
X139996299Y-43196508D01*
X140031678Y-43262696D01*
X140079289Y-43320711D01*
X140137304Y-43368322D01*
X140203492Y-43403701D01*
X140275311Y-43425487D01*
X140350000Y-43432843D01*
X142350000Y-43432843D01*
X142424689Y-43425487D01*
X142496508Y-43403701D01*
X142562696Y-43368322D01*
X142620711Y-43320711D01*
X142668322Y-43262696D01*
X142703701Y-43196508D01*
X142725487Y-43124689D01*
X142732843Y-43050000D01*
X142732843Y-41550000D01*
X142725487Y-41475311D01*
X142703701Y-41403492D01*
X142668322Y-41337304D01*
X142620711Y-41279289D01*
X142562696Y-41231678D01*
X142496508Y-41196299D01*
X142424689Y-41174513D01*
X142350000Y-41167157D01*
X140350000Y-41167157D01*
X140275311Y-41174513D01*
X140203492Y-41196299D01*
X140137304Y-41231678D01*
X140079289Y-41279289D01*
X140043644Y-41322723D01*
X139582843Y-40861922D01*
X139582843Y-40699999D01*
X139570683Y-40576538D01*
X139534671Y-40457821D01*
X139476190Y-40348411D01*
X139397488Y-40252512D01*
X139301589Y-40173810D01*
X139192179Y-40115329D01*
X139073462Y-40079317D01*
X138950001Y-40067157D01*
X138049999Y-40067157D01*
X137926538Y-40079317D01*
X137881000Y-40093131D01*
X137881000Y-39932199D01*
X138031750Y-39931000D01*
X138127000Y-39835750D01*
X138127000Y-39348000D01*
X138873000Y-39348000D01*
X138873000Y-39835750D01*
X138968250Y-39931000D01*
X139200000Y-39932843D01*
X139274689Y-39925487D01*
X139346508Y-39903701D01*
X139412696Y-39868322D01*
X139470711Y-39820711D01*
X139518322Y-39762696D01*
X139553701Y-39696508D01*
X139575487Y-39624689D01*
X139582843Y-39550000D01*
X139581000Y-39443250D01*
X139485750Y-39348000D01*
X138873000Y-39348000D01*
X138127000Y-39348000D01*
X137735927Y-39348000D01*
X137655500Y-39250000D01*
X139967157Y-39250000D01*
X139967157Y-40750000D01*
X139974513Y-40824689D01*
X139996299Y-40896508D01*
X140031678Y-40962696D01*
X140079289Y-41020711D01*
X140137304Y-41068322D01*
X140203492Y-41103701D01*
X140275311Y-41125487D01*
X140350000Y-41132843D01*
X142350000Y-41132843D01*
X142424689Y-41125487D01*
X142496508Y-41103701D01*
X142562696Y-41068322D01*
X142620711Y-41020711D01*
X142668322Y-40962696D01*
X142703701Y-40896508D01*
X142708405Y-40881000D01*
X146267157Y-40881000D01*
X146267157Y-41900000D01*
X146274513Y-41974689D01*
X146296299Y-42046508D01*
X146331678Y-42112696D01*
X146379289Y-42170711D01*
X146437304Y-42218322D01*
X146503492Y-42253701D01*
X146575311Y-42275487D01*
X146650000Y-42282843D01*
X148650000Y-42282843D01*
X148724689Y-42275487D01*
X148796508Y-42253701D01*
X148862696Y-42218322D01*
X148920711Y-42170711D01*
X148968322Y-42112696D01*
X149003701Y-42046508D01*
X149025487Y-41974689D01*
X149032843Y-41900000D01*
X149032843Y-40881000D01*
X149706730Y-40881000D01*
X149750000Y-40885262D01*
X149793270Y-40881000D01*
X149793273Y-40881000D01*
X149922706Y-40868252D01*
X150088775Y-40817875D01*
X150241825Y-40736068D01*
X150375975Y-40625975D01*
X150403566Y-40592355D01*
X152067361Y-38928561D01*
X152100975Y-38900975D01*
X152162926Y-38825487D01*
X152211068Y-38766826D01*
X152274739Y-38647705D01*
X152292875Y-38613775D01*
X152343252Y-38447706D01*
X152356000Y-38318273D01*
X152356000Y-38318271D01*
X152360262Y-38275001D01*
X152356000Y-38231731D01*
X152356000Y-37745819D01*
X152380490Y-37700000D01*
X152567157Y-37700000D01*
X152574513Y-37774689D01*
X152596299Y-37846508D01*
X152631678Y-37912696D01*
X152679289Y-37970711D01*
X152737304Y-38018322D01*
X152803492Y-38053701D01*
X152875311Y-38075487D01*
X152950000Y-38082843D01*
X153056750Y-38081000D01*
X153152000Y-37985750D01*
X153152000Y-37373000D01*
X153898000Y-37373000D01*
X153898000Y-37985750D01*
X153993250Y-38081000D01*
X154100000Y-38082843D01*
X154174689Y-38075487D01*
X154246508Y-38053701D01*
X154312696Y-38018322D01*
X154370711Y-37970711D01*
X154418322Y-37912696D01*
X154453701Y-37846508D01*
X154475487Y-37774689D01*
X154482843Y-37700000D01*
X154481000Y-37468250D01*
X154385750Y-37373000D01*
X153898000Y-37373000D01*
X153152000Y-37373000D01*
X152664250Y-37373000D01*
X152569000Y-37468250D01*
X152567157Y-37700000D01*
X152380490Y-37700000D01*
X152384671Y-37692179D01*
X152420683Y-37573462D01*
X152432843Y-37450001D01*
X152432843Y-36549999D01*
X152420683Y-36426538D01*
X152384671Y-36307821D01*
X152380491Y-36300000D01*
X152567157Y-36300000D01*
X152569000Y-36531750D01*
X152664250Y-36627000D01*
X153152000Y-36627000D01*
X153152000Y-36014250D01*
X153898000Y-36014250D01*
X153898000Y-36627000D01*
X154385750Y-36627000D01*
X154481000Y-36531750D01*
X154482843Y-36300000D01*
X154475487Y-36225311D01*
X154453701Y-36153492D01*
X154418322Y-36087304D01*
X154370711Y-36029289D01*
X154312696Y-35981678D01*
X154246508Y-35946299D01*
X154174689Y-35924513D01*
X154100000Y-35917157D01*
X153993250Y-35919000D01*
X153898000Y-36014250D01*
X153152000Y-36014250D01*
X153056750Y-35919000D01*
X152950000Y-35917157D01*
X152875311Y-35924513D01*
X152803492Y-35946299D01*
X152737304Y-35981678D01*
X152679289Y-36029289D01*
X152631678Y-36087304D01*
X152596299Y-36153492D01*
X152574513Y-36225311D01*
X152567157Y-36300000D01*
X152380491Y-36300000D01*
X152356000Y-36254181D01*
X152356000Y-35568273D01*
X152360262Y-35525000D01*
X152343252Y-35352294D01*
X152292875Y-35186225D01*
X152211068Y-35033175D01*
X152100975Y-34899025D01*
X151973408Y-34794335D01*
X152028491Y-34727216D01*
X152100804Y-34591928D01*
X152439646Y-34591928D01*
X152568465Y-34795991D01*
X152734619Y-34971002D01*
X152931724Y-35110235D01*
X152988074Y-35140336D01*
X153167000Y-35112753D01*
X153167000Y-34413000D01*
X153913000Y-34413000D01*
X153913000Y-35112753D01*
X154091926Y-35140336D01*
X154148276Y-35110235D01*
X154345381Y-34971002D01*
X154511535Y-34795991D01*
X154640354Y-34591928D01*
X154617897Y-34413000D01*
X153913000Y-34413000D01*
X153167000Y-34413000D01*
X152462103Y-34413000D01*
X152439646Y-34591928D01*
X152100804Y-34591928D01*
X152142798Y-34513363D01*
X152213188Y-34281318D01*
X152236956Y-34040000D01*
X152213188Y-33798682D01*
X152142798Y-33566637D01*
X152100805Y-33488072D01*
X152439646Y-33488072D01*
X152462103Y-33667000D01*
X153167000Y-33667000D01*
X153167000Y-32967247D01*
X153913000Y-32967247D01*
X153913000Y-33667000D01*
X154617897Y-33667000D01*
X154640354Y-33488072D01*
X154511535Y-33284009D01*
X154345381Y-33108998D01*
X154148276Y-32969765D01*
X154091926Y-32939664D01*
X153913000Y-32967247D01*
X153167000Y-32967247D01*
X152988074Y-32939664D01*
X152931724Y-32969765D01*
X152734619Y-33108998D01*
X152568465Y-33284009D01*
X152439646Y-33488072D01*
X152100805Y-33488072D01*
X152028491Y-33352784D01*
X151881000Y-33173065D01*
X151881000Y-32729790D01*
X151924689Y-32725487D01*
X151996508Y-32703701D01*
X152062696Y-32668322D01*
X152120711Y-32620711D01*
X152168322Y-32562696D01*
X152203701Y-32496508D01*
X152225487Y-32424689D01*
X152232843Y-32350000D01*
X152232843Y-32051928D01*
X152439646Y-32051928D01*
X152568465Y-32255991D01*
X152734619Y-32431002D01*
X152931724Y-32570235D01*
X152988074Y-32600336D01*
X153167000Y-32572753D01*
X153167000Y-31873000D01*
X153913000Y-31873000D01*
X153913000Y-32572753D01*
X154091926Y-32600336D01*
X154148276Y-32570235D01*
X154345381Y-32431002D01*
X154511535Y-32255991D01*
X154640354Y-32051928D01*
X154617897Y-31873000D01*
X153913000Y-31873000D01*
X153167000Y-31873000D01*
X152462103Y-31873000D01*
X152439646Y-32051928D01*
X152232843Y-32051928D01*
X152232843Y-30948072D01*
X152439646Y-30948072D01*
X152462103Y-31127000D01*
X153167000Y-31127000D01*
X153167000Y-30427247D01*
X153913000Y-30427247D01*
X153913000Y-31127000D01*
X154617897Y-31127000D01*
X154640354Y-30948072D01*
X154511535Y-30744009D01*
X154345381Y-30568998D01*
X154148276Y-30429765D01*
X154091926Y-30399664D01*
X153913000Y-30427247D01*
X153167000Y-30427247D01*
X152988074Y-30399664D01*
X152931724Y-30429765D01*
X152734619Y-30568998D01*
X152568465Y-30744009D01*
X152439646Y-30948072D01*
X152232843Y-30948072D01*
X152232843Y-30650000D01*
X152225487Y-30575311D01*
X152203701Y-30503492D01*
X152168322Y-30437304D01*
X152120711Y-30379289D01*
X152062696Y-30331678D01*
X151996508Y-30296299D01*
X151924689Y-30274513D01*
X151850000Y-30267157D01*
X150150000Y-30267157D01*
X150075311Y-30274513D01*
X150003492Y-30296299D01*
X149937304Y-30331678D01*
X149879289Y-30379289D01*
X149831678Y-30437304D01*
X149796299Y-30503492D01*
X149774513Y-30575311D01*
X149767157Y-30650000D01*
X149767157Y-32350000D01*
X149774513Y-32424689D01*
X149796299Y-32496508D01*
X149831678Y-32562696D01*
X149879289Y-32620711D01*
X149937304Y-32668322D01*
X150003492Y-32703701D01*
X150075311Y-32725487D01*
X150119000Y-32729790D01*
X150119001Y-33173065D01*
X149971509Y-33352784D01*
X149857202Y-33566637D01*
X149786812Y-33798682D01*
X149763044Y-34040000D01*
X149786812Y-34281318D01*
X149857202Y-34513363D01*
X149971509Y-34727216D01*
X150119000Y-34906935D01*
X150119000Y-35198810D01*
X150114738Y-35242081D01*
X150119000Y-35285351D01*
X150119000Y-35285353D01*
X150131748Y-35414786D01*
X150182125Y-35580855D01*
X150263932Y-35733906D01*
X150301021Y-35779098D01*
X150374025Y-35868056D01*
X150407645Y-35895647D01*
X150594001Y-36082003D01*
X150594001Y-36254181D01*
X150565329Y-36307821D01*
X150529317Y-36426538D01*
X150517157Y-36549999D01*
X150517157Y-37450001D01*
X150529317Y-37573462D01*
X150565329Y-37692179D01*
X150594001Y-37745820D01*
X150594001Y-37910077D01*
X149385079Y-39119000D01*
X149032843Y-39119000D01*
X149032843Y-38100000D01*
X149025487Y-38025311D01*
X149003701Y-37953492D01*
X148968322Y-37887304D01*
X148920711Y-37829289D01*
X148862696Y-37781678D01*
X148796508Y-37746299D01*
X148724689Y-37724513D01*
X148650000Y-37717157D01*
X146650000Y-37717157D01*
X146575311Y-37724513D01*
X146503492Y-37746299D01*
X146437304Y-37781678D01*
X146379289Y-37829289D01*
X146331678Y-37887304D01*
X146296299Y-37953492D01*
X146274513Y-38025311D01*
X146267157Y-38100000D01*
X146267157Y-39119000D01*
X142708405Y-39119000D01*
X142703701Y-39103492D01*
X142668322Y-39037304D01*
X142620711Y-38979289D01*
X142562696Y-38931678D01*
X142496508Y-38896299D01*
X142424689Y-38874513D01*
X142350000Y-38867157D01*
X140350000Y-38867157D01*
X140275311Y-38874513D01*
X140203492Y-38896299D01*
X140137304Y-38931678D01*
X140079289Y-38979289D01*
X140031678Y-39037304D01*
X139996299Y-39103492D01*
X139974513Y-39175311D01*
X139967157Y-39250000D01*
X137655500Y-39250000D01*
X137653559Y-39247635D01*
X137625975Y-39214023D01*
X137592361Y-39186437D01*
X136805924Y-38400000D01*
X137417157Y-38400000D01*
X137419000Y-38506750D01*
X137514250Y-38602000D01*
X138127000Y-38602000D01*
X138127000Y-38114250D01*
X138873000Y-38114250D01*
X138873000Y-38602000D01*
X139485750Y-38602000D01*
X139581000Y-38506750D01*
X139581979Y-38450000D01*
X139967157Y-38450000D01*
X139974513Y-38524689D01*
X139996299Y-38596508D01*
X140031678Y-38662696D01*
X140079289Y-38720711D01*
X140137304Y-38768322D01*
X140203492Y-38803701D01*
X140275311Y-38825487D01*
X140350000Y-38832843D01*
X140881750Y-38831000D01*
X140977000Y-38735750D01*
X140977000Y-38073000D01*
X141723000Y-38073000D01*
X141723000Y-38735750D01*
X141818250Y-38831000D01*
X142350000Y-38832843D01*
X142424689Y-38825487D01*
X142496508Y-38803701D01*
X142562696Y-38768322D01*
X142620711Y-38720711D01*
X142668322Y-38662696D01*
X142703701Y-38596508D01*
X142725487Y-38524689D01*
X142732843Y-38450000D01*
X142731000Y-38168250D01*
X142635750Y-38073000D01*
X141723000Y-38073000D01*
X140977000Y-38073000D01*
X140064250Y-38073000D01*
X139969000Y-38168250D01*
X139967157Y-38450000D01*
X139581979Y-38450000D01*
X139582843Y-38400000D01*
X139575487Y-38325311D01*
X139553701Y-38253492D01*
X139518322Y-38187304D01*
X139470711Y-38129289D01*
X139412696Y-38081678D01*
X139346508Y-38046299D01*
X139274689Y-38024513D01*
X139200000Y-38017157D01*
X138968250Y-38019000D01*
X138873000Y-38114250D01*
X138127000Y-38114250D01*
X138031750Y-38019000D01*
X137800000Y-38017157D01*
X137725311Y-38024513D01*
X137653492Y-38046299D01*
X137587304Y-38081678D01*
X137529289Y-38129289D01*
X137481678Y-38187304D01*
X137446299Y-38253492D01*
X137424513Y-38325311D01*
X137417157Y-38400000D01*
X136805924Y-38400000D01*
X135355924Y-36950000D01*
X139967157Y-36950000D01*
X139969000Y-37231750D01*
X140064250Y-37327000D01*
X140977000Y-37327000D01*
X140977000Y-36664250D01*
X141723000Y-36664250D01*
X141723000Y-37327000D01*
X142635750Y-37327000D01*
X142731000Y-37231750D01*
X142732843Y-36950000D01*
X142725487Y-36875311D01*
X142703701Y-36803492D01*
X142668322Y-36737304D01*
X142620711Y-36679289D01*
X142562696Y-36631678D01*
X142496508Y-36596299D01*
X142424689Y-36574513D01*
X142350000Y-36567157D01*
X141818250Y-36569000D01*
X141723000Y-36664250D01*
X140977000Y-36664250D01*
X140881750Y-36569000D01*
X140350000Y-36567157D01*
X140275311Y-36574513D01*
X140203492Y-36596299D01*
X140137304Y-36631678D01*
X140079289Y-36679289D01*
X140031678Y-36737304D01*
X139996299Y-36803492D01*
X139974513Y-36875311D01*
X139967157Y-36950000D01*
X135355924Y-36950000D01*
X135313568Y-36907645D01*
X135285977Y-36874025D01*
X135151827Y-36763932D01*
X134998777Y-36682125D01*
X134832708Y-36631748D01*
X134703275Y-36619000D01*
X134703272Y-36619000D01*
X134660002Y-36614738D01*
X134616732Y-36619000D01*
X131682843Y-36619000D01*
X131682843Y-36200000D01*
X131675487Y-36125311D01*
X131653701Y-36053492D01*
X131618322Y-35987304D01*
X131570711Y-35929289D01*
X131512696Y-35881678D01*
X131446508Y-35846299D01*
X131374689Y-35824513D01*
X131300000Y-35817157D01*
X128700000Y-35817157D01*
X128625311Y-35824513D01*
X128553492Y-35846299D01*
X128487304Y-35881678D01*
X128429289Y-35929289D01*
X128381678Y-35987304D01*
X128346299Y-36053492D01*
X128324513Y-36125311D01*
X128317157Y-36200000D01*
X128317157Y-36619000D01*
X122043273Y-36619000D01*
X122000000Y-36614738D01*
X121956727Y-36619000D01*
X120338978Y-36619000D01*
X120296508Y-36596299D01*
X120224689Y-36574513D01*
X120150000Y-36567157D01*
X118150000Y-36567157D01*
X118075311Y-36574513D01*
X118003492Y-36596299D01*
X117937304Y-36631678D01*
X117879289Y-36679289D01*
X117831678Y-36737304D01*
X117796299Y-36803492D01*
X117774513Y-36875311D01*
X117767157Y-36950000D01*
X107432843Y-36950000D01*
X107432843Y-36549999D01*
X107420683Y-36426538D01*
X107384671Y-36307821D01*
X107380491Y-36300000D01*
X107567157Y-36300000D01*
X107569000Y-36531750D01*
X107664250Y-36627000D01*
X108152000Y-36627000D01*
X108152000Y-36014250D01*
X108898000Y-36014250D01*
X108898000Y-36627000D01*
X109385750Y-36627000D01*
X109481000Y-36531750D01*
X109482843Y-36300000D01*
X109475487Y-36225311D01*
X109453701Y-36153492D01*
X109418322Y-36087304D01*
X109370711Y-36029289D01*
X109312696Y-35981678D01*
X109246508Y-35946299D01*
X109174689Y-35924513D01*
X109100000Y-35917157D01*
X108993250Y-35919000D01*
X108898000Y-36014250D01*
X108152000Y-36014250D01*
X108056750Y-35919000D01*
X107950000Y-35917157D01*
X107875311Y-35924513D01*
X107803492Y-35946299D01*
X107737304Y-35981678D01*
X107679289Y-36029289D01*
X107631678Y-36087304D01*
X107596299Y-36153492D01*
X107574513Y-36225311D01*
X107567157Y-36300000D01*
X107380491Y-36300000D01*
X107341000Y-36226118D01*
X107341000Y-34906935D01*
X107488491Y-34727216D01*
X107560804Y-34591928D01*
X107899646Y-34591928D01*
X108028465Y-34795991D01*
X108194619Y-34971002D01*
X108391724Y-35110235D01*
X108448074Y-35140336D01*
X108627000Y-35112753D01*
X108627000Y-34413000D01*
X109373000Y-34413000D01*
X109373000Y-35112753D01*
X109551926Y-35140336D01*
X109608276Y-35110235D01*
X109805381Y-34971002D01*
X109971535Y-34795991D01*
X110100354Y-34591928D01*
X110077897Y-34413000D01*
X109373000Y-34413000D01*
X108627000Y-34413000D01*
X107922103Y-34413000D01*
X107899646Y-34591928D01*
X107560804Y-34591928D01*
X107602798Y-34513363D01*
X107673188Y-34281318D01*
X107696956Y-34040000D01*
X107673188Y-33798682D01*
X107602798Y-33566637D01*
X107560805Y-33488072D01*
X107899646Y-33488072D01*
X107922103Y-33667000D01*
X108627000Y-33667000D01*
X108627000Y-32967247D01*
X109373000Y-32967247D01*
X109373000Y-33667000D01*
X110077897Y-33667000D01*
X110100354Y-33488072D01*
X109971535Y-33284009D01*
X109805381Y-33108998D01*
X109608276Y-32969765D01*
X109551926Y-32939664D01*
X109373000Y-32967247D01*
X108627000Y-32967247D01*
X108448074Y-32939664D01*
X108391724Y-32969765D01*
X108194619Y-33108998D01*
X108028465Y-33284009D01*
X107899646Y-33488072D01*
X107560805Y-33488072D01*
X107488491Y-33352784D01*
X107341000Y-33173065D01*
X107341000Y-32729790D01*
X107384689Y-32725487D01*
X107456508Y-32703701D01*
X107522696Y-32668322D01*
X107580711Y-32620711D01*
X107628322Y-32562696D01*
X107663701Y-32496508D01*
X107685487Y-32424689D01*
X107692843Y-32350000D01*
X107692843Y-32051928D01*
X107899646Y-32051928D01*
X108028465Y-32255991D01*
X108194619Y-32431002D01*
X108391724Y-32570235D01*
X108448074Y-32600336D01*
X108627000Y-32572753D01*
X108627000Y-31873000D01*
X109373000Y-31873000D01*
X109373000Y-32572753D01*
X109551926Y-32600336D01*
X109608276Y-32570235D01*
X109805381Y-32431002D01*
X109971535Y-32255991D01*
X110100354Y-32051928D01*
X110077897Y-31873000D01*
X109373000Y-31873000D01*
X108627000Y-31873000D01*
X107922103Y-31873000D01*
X107899646Y-32051928D01*
X107692843Y-32051928D01*
X107692843Y-30948072D01*
X107899646Y-30948072D01*
X107922103Y-31127000D01*
X108627000Y-31127000D01*
X108627000Y-30427247D01*
X109373000Y-30427247D01*
X109373000Y-31127000D01*
X110077897Y-31127000D01*
X110100354Y-30948072D01*
X109971535Y-30744009D01*
X109805381Y-30568998D01*
X109608276Y-30429765D01*
X109551926Y-30399664D01*
X109373000Y-30427247D01*
X108627000Y-30427247D01*
X108448074Y-30399664D01*
X108391724Y-30429765D01*
X108194619Y-30568998D01*
X108028465Y-30744009D01*
X107899646Y-30948072D01*
X107692843Y-30948072D01*
X107692843Y-30650000D01*
X107685487Y-30575311D01*
X107663701Y-30503492D01*
X107628322Y-30437304D01*
X107580711Y-30379289D01*
X107522696Y-30331678D01*
X107456508Y-30296299D01*
X107384689Y-30274513D01*
X107310000Y-30267157D01*
X105610000Y-30267157D01*
X105535311Y-30274513D01*
X105463492Y-30296299D01*
X105397304Y-30331678D01*
X105339289Y-30379289D01*
X105291678Y-30437304D01*
X105256299Y-30503492D01*
X105234513Y-30575311D01*
X105227157Y-30650000D01*
X105227157Y-32350000D01*
X105234513Y-32424689D01*
X105256299Y-32496508D01*
X105291678Y-32562696D01*
X105339289Y-32620711D01*
X105397304Y-32668322D01*
X105463492Y-32703701D01*
X105535311Y-32725487D01*
X105579000Y-32729790D01*
X105579001Y-33173065D01*
X105431509Y-33352784D01*
X105317202Y-33566637D01*
X105246812Y-33798682D01*
X105223044Y-34040000D01*
X105081000Y-34040000D01*
X105081000Y-30081000D01*
X110419000Y-30081000D01*
X110419001Y-34278540D01*
M02*
